<svg xmlns="http://www.w3.org/2000/svg" width="24" height="24" viewBox="0 0 24 24">
    <g fill="none" fill-rule="evenodd">
        <g fill="#67AF54" fill-rule="nonzero">
            <path d="M6.037 8.32C5.464 8.32 5 8.734 5 9.25v3.98c0 .514.464.931 1.037.931.571 0 1.036-.417 1.036-.93V9.25c0-.514-.465-.93-1.036-.93zm7.84-3.893l.905-.927c.112-.115.112-.3 0-.414-.112-.115-.292-.115-.404 0l-1.115 1.142c-.399-.1-.82-.156-1.257-.156-.432 0-.85.055-1.243.153L9.65 3.085c-.112-.114-.293-.114-.404 0-.112.115-.112.3 0 .415l.9.922c-1.503.592-2.548 1.874-2.548 3.365 0 .018 8.815.001 8.815 0 0-1.487-1.038-2.767-2.536-3.36zm-3.168 2.299c-.286 0-.518-.238-.518-.531 0-.293.232-.531.518-.531.287 0 .519.238.519.53 0 .294-.233.532-.519.532zm2.594 0c-.287 0-.519-.238-.519-.531 0-.293.232-.531.519-.531.286 0 .518.238.518.53 0 .294-.232.532-.518.532zm4.661 1.593c-.572 0-1.037.416-1.037.93v3.981c0 .514.465.931 1.037.931.572 0 1.036-.417 1.036-.93V9.25c0-.514-.465-.93-1.036-.93zM7.598 14.688c0 .878.694 1.589 1.55 1.592v2.789c0 .514.465.931 1.037.931.572 0 1.036-.417 1.036-.931v-2.79h1.558v2.79c0 .514.464.931 1.036.931.572 0 1.036-.417 1.036-.931v-2.79h.007c.86 0 1.556-.712 1.556-1.591v-6.37H7.599v6.37z"/>
        </g>
    </g>
</svg>
