<svg xmlns="http://www.w3.org/2000/svg" width="24" height="24" viewBox="0 0 24 24">
    <g fill="none" fill-rule="evenodd">
        <g fill="#778997" fill-rule="nonzero">
            <path d="M15.74 7.042c1.306.197 2.234.776 2.807 1.67-1.106.702-1.98 1.76-1.83 3.565.132 1.641 1.089 2.6 2.283 3.167v.033c-.343 1.037-.832 1.925-1.43 2.75-.545.748-1.213 1.756-2.406 1.756-1.03 0-1.715-.662-2.772-.68-1.117-.018-1.732.553-2.754.697H9.29c-.75-.108-1.356-.701-1.797-1.235-1.3-1.578-2.306-3.617-2.493-6.226v-.766c.08-1.867.989-3.385 2.197-4.121.638-.391 1.515-.725 2.492-.576.418.065.846.208 1.22.35.356.136.8.377 1.22.364.286-.008.57-.156.857-.26.841-.304 1.666-.651 2.753-.488zM14.988 3c.084 1.221-.315 2.134-.8 2.794-.476.656-1.127 1.293-2.18 1.196-.071-1.203.328-2.048.813-2.707.449-.615 1.272-1.161 2.061-1.283h.106z"/>
        </g>
    </g>
</svg>
