<svg xmlns="http://www.w3.org/2000/svg" xmlns:xlink="http://www.w3.org/1999/xlink" width="24" height="24" viewBox="0 0 24 24">
    <defs>
        <path id="m8w2ojk7na" d="M9 0c4.97 0 9 4.03 9 9s-4.03 9-9 9-9-4.03-9-9 4.03-9 9-9zm-.26 13.136c-.258 0-.452.072-.583.218-.131.145-.197.325-.197.54 0 .214.066.392.197.533.131.14.325.21.583.21.257 0 .453-.07.587-.21.133-.14.2-.319.2-.533 0-.215-.067-.395-.2-.54-.134-.146-.33-.218-.587-.218zM8.94 4c-.868 0-1.572.237-2.114.712-.492.431-.764.986-.817 1.664L6 6.583h1.323c0-.434.148-.78.444-1.038.296-.257.687-.386 1.173-.386.501 0 .883.142 1.145.426.262.283.393.676.393 1.176 0 .462-.158.898-.474 1.308l-.127.152-.937.966c-.367.4-.61.765-.73 1.094-.102.282-.164.652-.185 1.11l-.008.235h1.324c0-.644.137-1.155.412-1.532l.11-.135.78-.772c.772-.811 1.159-1.634 1.159-2.469 0-.844-.252-1.508-.755-1.992S9.842 4 8.94 4z"/>
    </defs>
    <g fill="none" fill-rule="evenodd">
        <g>
            <g>
                <g transform="translate(-791 -490) translate(656 162) translate(138 331)">
                    <mask id="05dmqvbn2b" fill="#fff">
                        <use xlink:href="#m8w2ojk7na"/>
                    </mask>
                    <use fill="#A2A2A2" fill-rule="nonzero" xlink:href="#m8w2ojk7na"/>
                    <g fill="#3498DB" mask="url(#05dmqvbn2b)">
                        <path d="M0 0H24V24H0z" transform="translate(-3 -3)"/>
                    </g>
                </g>
            </g>
        </g>
    </g>
</svg>
