<?xml version="1.0" encoding="UTF-8"?>
<svg width="36px" height="36px" viewBox="0 0 36 36" version="1.1" xmlns="http://www.w3.org/2000/svg" xmlns:xlink="http://www.w3.org/1999/xlink">
    <title>IconsIllustration/ ic_card</title>
    <g id="IconsIllustration/-ic_card" stroke="none" stroke-width="1" fill="none" fill-rule="evenodd">
        <path d="M29.9519037,9.14013913 C30.9523852,9.14013913 31.7667185,9.95926957 31.7667185,10.9662261 L31.7667185,24.9130957 C31.7667185,25.9200522 30.9523852,26.7391826 29.9519037,26.7391826 L5.81486667,26.7391826 C4.81412593,26.7391826 4.00005185,25.9200522 4.00005185,24.9130957 L4.00005185,10.9662261 C4.00005185,9.95926957 4.81412593,9.14013913 5.81486667,9.14013913 L29.9519037,9.14013913 Z M29.9519037,10.1836174 L5.81486667,10.1836174 C5.38605185,10.1836174 5.03708889,10.5347478 5.03708889,10.9662261 L5.03705185,12.5991391 L30.1935484,12.6 L30.1935484,13.5 L5.03705185,13.4991391 L5.03705185,16.1991391 L30.1935484,16.2 L30.1935484,17.1 L5.03705185,17.0991391 L5.03708889,24.9130957 C5.03708889,25.3445739 5.38605185,25.6957043 5.81486667,25.6957043 L29.9519037,25.6957043 C30.3807185,25.6957043 30.7296815,25.3445739 30.7296815,24.9130957 L30.7296815,10.9662261 C30.7296815,10.5347478 30.3807185,10.1836174 29.9519037,10.1836174 Z M9.75209222,22.5 C10.0672871,22.5 10.3225806,22.7016 10.3225806,22.95 C10.3225806,23.1984 10.0672871,23.4 9.75209222,23.4 L7.28016585,23.4 C6.96525624,23.4 6.70967742,23.1984 6.70967742,22.95 C6.70967742,22.7016 6.96525624,22.5 7.28016585,22.5 L9.75209222,22.5 Z M13.3748223,22.5 C13.6843075,22.5 13.9354839,22.7016 13.9354839,22.95 C13.9354839,23.1984 13.6843075,23.4 13.3748223,23.4 L11.786468,23.4 C11.4767025,23.4 11.2258065,23.1984 11.2258065,22.95 C11.2258065,22.7016 11.4767025,22.5 11.786468,22.5 L13.3748223,22.5 Z" id="Combined-Shape" fill="#374E5A"></path>
    </g>
</svg>