<svg xmlns="http://www.w3.org/2000/svg" width="32" height="32" viewBox="0 0 32 32"><defs><style>.d09d7f19-00a5-4694-8f04-2d1aefa38f45{fill:#d9ebcb;}.a51b3833-0180-4f75-bb2b-31036fed80de{fill:#7ac259;}</style></defs><title>complited</title><g id="3fa0c06b-9aee-41b8-b7ba-0596b9fe8ff2" data-name="Layer 1 copy 4"><circle class="d09d7f19-00a5-4694-8f04-2d1aefa38f45" cx="16" cy="16" r="16"/></g><g id="6f3d30cd-9cd9-40ce-bbeb-e5035aee7141" data-name="Capa 1"><path class="a51b3833-0180-4f75-bb2b-31036fed80de" d="M24,13a8,8,0,0,0-2.91-2.91,8,8,0,0,0-8,0,8,8,0,0,0,0,13.86,8,8,0,0,0,8,0A8,8,0,0,0,24,21a8.09,8.09,0,0,0,0-8Zm-1.74,2.8-5.66,5.66a.67.67,0,0,1-.48.2.65.65,0,0,1-.47-.2l-3.78-3.77a.66.66,0,0,1-.18-.47.65.65,0,0,1,.18-.48l.95-.94a.65.65,0,0,1,.94,0l2.36,2.36,4.25-4.25a.65.65,0,0,1,.94,0l.95.94a.69.69,0,0,1,.19.48A.67.67,0,0,1,22.22,15.78Z" transform="translate(-1.03 -1.02)"/></g></svg>