<svg id="4e8c6063-d361-4237-9225-1a0675ebd1c5" data-name="Layer 1 copy 2" xmlns="http://www.w3.org/2000/svg" width="32" height="32" viewBox="0 0 32 32"><defs><style>.c4e0eaa1-9871-45c4-9022-d120ca70149a{fill:#def1ef;}.ffe7961a-7274-4582-b3d7-a0f7d53a53b8{fill:#4dbea1;}</style></defs><title>in_review</title><circle class="c4e0eaa1-9871-45c4-9022-d120ca70149a" cx="16" cy="16" r="16"/><g id="68d1d237-7f3d-4f12-8143-4e6737c54e44" data-name="Capa 1"><g id="92da5275-cde9-4762-a4ef-4c382502f158" data-name="&lt;Group&gt;"><path id="3eb26940-63b5-4919-998a-4129f239b519" data-name="&lt;Path&gt;" class="ffe7961a-7274-4582-b3d7-a0f7d53a53b8" d="M23.93,16.27a2.38,2.38,0,0,0-2.37,2.38.57.57,0,1,0,1.13,0,1.25,1.25,0,0,1,1.24-1.24.57.57,0,0,0,.57-.57A.58.58,0,0,0,23.93,16.27Z" transform="translate(-1 -1)"/><path id="97b047ed-0d0c-454c-91a8-338d6027c709" data-name="&lt;Compound Path&gt;" class="ffe7961a-7274-4582-b3d7-a0f7d53a53b8" d="M27.8,14.64l-.44-.38h0l-2.1-1.79a5.56,5.56,0,0,0-2.82-1l.11.11-1.28-1.28h0a2,2,0,0,0-3.25.86,1.83,1.83,0,0,0-.87-.28H17a2,2,0,0,0-1,.28,2,2,0,0,0-3.25-.85h0l-1.28,1.28.12-.11a5.49,5.49,0,0,0-2.82,1l-2.1,1.78h0a4.15,4.15,0,0,0-.44.38,5.57,5.57,0,1,0,9.4,4.7,2.8,2.8,0,0,0,2.78,0,5.58,5.58,0,1,0,9.41-4.7ZM10.08,22.46a3.81,3.81,0,1,1,3.8-3.81A3.81,3.81,0,0,1,10.08,22.46ZM17,18.13a1.24,1.24,0,1,1,1.23-1.24A1.23,1.23,0,0,1,17,18.13Zm6.92,4.33a3.81,3.81,0,1,1,3.8-3.81A3.81,3.81,0,0,1,23.93,22.46Z" transform="translate(-1 -1)"/><path id="9c1bc32a-ea5b-4d13-9154-1e00d1a108a3" data-name="&lt;Path&gt;" class="ffe7961a-7274-4582-b3d7-a0f7d53a53b8" d="M10.08,16.27a2.38,2.38,0,0,0-2.37,2.38.57.57,0,0,0,.57.57.58.58,0,0,0,.57-.57,1.24,1.24,0,0,1,1.24-1.24.57.57,0,0,0,.56-.57A.58.58,0,0,0,10.08,16.27Z" transform="translate(-1 -1)"/></g></g></svg>