<svg id="6a444796-8346-4531-8eec-b48d53568fe9" data-name="Layer 1 copy" xmlns="http://www.w3.org/2000/svg" width="32" height="32" viewBox="0 0 32 32"><defs><style>.a2952d7b-7239-47c1-bee7-e948499941cb{fill:#d9eefb;}.\37 ed2a027-8694-499d-8a6b-54f52a291829{fill:#3b97d3;}</style></defs><title>in_work</title><circle class="a2952d7b-7239-47c1-bee7-e948499941cb" cx="16" cy="16" r="16"/><path class="7ed2a027-8694-499d-8a6b-54f52a291829" d="M22.53,9H11.47A2.48,2.48,0,0,0,9,11.47v1.07H25V11.47A2.48,2.48,0,0,0,22.53,9ZM11.47,11.24a.47.47,0,1,1,.47-.47A.47.47,0,0,1,11.47,11.24Zm2,0a.47.47,0,1,1,.47-.47A.47.47,0,0,1,13.48,11.24Zm2,0a.47.47,0,1,1,.47-.47A.47.47,0,0,1,15.49,11.24Z" transform="translate(-1 -1)"/><path class="7ed2a027-8694-499d-8a6b-54f52a291829" d="M9,22.53A2.48,2.48,0,0,0,11.47,25H22.53A2.48,2.48,0,0,0,25,22.53v-9H9Zm10.69-6.2a.47.47,0,0,1,.67-.67l2,2a.48.48,0,0,1,0,.67l-2,2a.46.46,0,0,1-.33.13.5.5,0,0,1-.34-.13.48.48,0,0,1,0-.67L21.36,18Zm-4.1,3.48,2-4a.47.47,0,0,1,.83.42l-2,4a.46.46,0,0,1-.42.25.45.45,0,0,1-.2,0A.46.46,0,0,1,15.58,19.81Zm-3.94-2.14,2-2a.47.47,0,0,1,.67.67L12.64,18l1.68,1.67a.48.48,0,0,1,0,.67.5.5,0,0,1-.34.13.46.46,0,0,1-.33-.13l-2-2A.48.48,0,0,1,11.64,17.67Z" transform="translate(-1 -1)"/></svg>