<svg xmlns="http://www.w3.org/2000/svg" width="54" height="54">
    <path fill="#74BF61" fill-rule="evenodd" d="M27 54C12.15 54 0 41.85 0 27S12.15 0 27 0s27 12.15 27 27-12.15 27-27 27zm0-52.2C13.14 1.8 1.8 13.14 1.8 27S13.14 52.2 27 52.2 52.2 40.86 52.2 27 40.86 1.8 27 1.8zm18.9 35.37c0 .18-.27.36-.63.36h-.18c-2.88-.72-4.86-3.24-4.86-6.121 0-3.239 2.43-5.219 6.3-5.219.36 0 .81 0 1.17.09.45.09.72.449.72.81v1.08c0 3.6-.9 5.85-2.52 9zm.99-9.361c-.18.091-.27.091-.27.091-1.35 0-4.5.36-4.5 3.42 0 1.89 1.08 3.51 2.79 4.139 1.26-2.519 1.98-4.499 1.98-7.469v-.181zM46.8 22.5H7.2c-.27 0-.54-.09-.72-.36-.18-.18-.18-.54-.18-.81C8.91 11.97 17.37 5.399 27 5.399c9.63 0 18.09 6.571 20.7 15.931.09.27 0 .54-.18.81s-.45.36-.72.36zM27 7.2c-8.37 0-15.93 5.49-18.63 13.5h37.17C42.93 12.69 35.37 7.2 27 7.2zM13.59 31.32c0 2.88-1.98 5.4-4.86 6.12.18.09.09.09 0 .09-.36 0-.63-.18-.81-.45C6.3 33.93 5.4 30.51 5.4 27v-1.08c0-.45.36-.721.72-.81.36-.09.81-.09 1.17-.09 3.51 0 6.3 2.88 6.3 6.3zM7.2 27c0 2.97.63 5.849 1.98 8.55 1.71-.72 2.79-2.34 2.79-4.141 0-2.61-2.16-4.68-4.77-4.589V27zM18 29.7c0-2.61 3.87-4.501 9-4.501s9 1.891 9 4.501c0 2.61-3.87 4.5-9 4.5s-9-1.89-9-4.5zm16.2 0c0-1.08-2.79-2.7-7.2-2.7s-7.2 1.62-7.2 2.7 2.79 2.7 7.2 2.7 7.2-1.62 7.2-2.7zm-7.11 8.37c5.58 0 10.62 1.979 12.78 5.13.27.36.18.99-.18 1.26C35.91 47.159 31.5 48.6 27 48.6c-4.59 0-8.91-1.441-12.6-4.14-.36-.27-.45-.81-.18-1.26 2.16-3.151 7.2-5.13 12.87-5.13zM27 46.8c3.87 0 7.56-1.08 10.8-3.24-2.07-2.25-6.3-3.69-10.8-3.69-4.5 0-8.64 1.44-10.8 3.69 3.24 2.16 6.93 3.24 10.8 3.24z"/>
</svg>
