<svg xmlns="http://www.w3.org/2000/svg" width="13" height="13">
    <path fill="#74bf61" fill-rule="evenodd" d="M.014 9.748L0 12.421c0 .15.055.301.165.411.11.109.247.164.398.164l2.664-.014a.55.55 0 0 0 .399-.164l9.201-9.182a.578.578 0 0 0 0-.809L10.19.168a.581.581 0 0 0-.81 0l-1.84 1.85L.179 9.351a.603.603 0 0 0-.165.397zm9.778-8.374l1.854 1.851-1.044 1.041-1.854-1.85 1.044-1.042zM1.154 9.995l6.784-6.77 1.854 1.85-6.784 6.756-1.868.014.014-1.85z"/>
    <path fill="#74bf61" fill-rule="evenodd" d="M.014 9.748L0 12.421c0 .15.055.301.165.411.11.109.247.164.398.164l2.664-.014a.55.55 0 0 0 .399-.164l9.201-9.182a.578.578 0 0 0 0-.809L10.19.168a.581.581 0 0 0-.81 0l-1.84 1.85L.179 9.351a.603.603 0 0 0-.165.397zm9.778-8.374l1.854 1.851-1.044 1.041-1.854-1.85 1.044-1.042zM1.154 9.995l6.784-6.77 1.854 1.85-6.784 6.756-1.868.014.014-1.85z"/>
</svg>
