<svg xmlns="http://www.w3.org/2000/svg" width="30" height="30" viewBox="0 0 30 30">
  <metadata><?xpacket begin="﻿" id="W5M0MpCehiHzreSzNTczkc9d"?>
<x:xmpmeta xmlns:x="adobe:ns:meta/" x:xmptk="Adobe XMP Core 5.6-c140 79.160451, 2017/05/06-01:08:21        ">
   <rdf:RDF xmlns:rdf="http://www.w3.org/1999/02/22-rdf-syntax-ns#">
      <rdf:Description rdf:about=""/>
   </rdf:RDF>
</x:xmpmeta>
                                                                                                    
                                                                                                    
                                                                                                    
                                                                                                    
                                                                                                    
                                                                                                    
                                                                                                    
                                                                                                    
                                                                                                    
                                                                                                    
                                                                                                    
                                                                                                    
                                                                                                    
                                                                                                    
                                                                                                    
                                                                                                    
                                                                                                    
                                                                                                    
                                                                                                    
                                                                                                    
                           
<?xpacket end="w"?></metadata>
<defs>
    <style>
      .cls-1 {
        fill: #ffbb18;
        fill-rule: evenodd;
      }
    </style>
  </defs>
  <path id="_-e-icon_sleeper" data-name="-e-icon_sleeper" class="cls-1" d="M17.1,9.7a0.662,0.662,0,0,0-.468-0.15h-2.55l2.4-2.752,0.225-.256,0.115-.15a0.849,0.849,0,0,0,.1-0.187,0.639,0.639,0,0,0,.042-0.225,0.472,0.472,0,0,0-.225-0.449A1.319,1.319,0,0,0,16.1,5.406H13.118a0.642,0.642,0,0,0-.443.137,0.467,0.467,0,0,0-.158.368,0.354,0.354,0,0,0,.206.387,1.9,1.9,0,0,0,.607.075h1.943q-0.121.175-.316,0.412l-0.5.575-0.674.749L13,9q-0.407.468-.534,0.624a0.6,0.6,0,0,0,.055.805,0.81,0.81,0,0,0,.559.168h3.545a0.679,0.679,0,0,0,.474-0.144,0.481,0.481,0,0,0,.158-0.368A0.506,0.506,0,0,0,17.1,9.7Zm5.373,3.19a0.523,0.523,0,0,0-.376-0.119h-2.04l1.912-2.2,0.182-.206,0.115-.143a0.663,0.663,0,0,0,.079-0.15,0.513,0.513,0,0,0,.036-0.181,0.378,0.378,0,0,0-.176-0.362,1.054,1.054,0,0,0-.51-0.1h-2.4a0.517,0.517,0,0,0-.352.112,0.372,0.372,0,0,0-.128.293,0.293,0.293,0,0,0,.164.312,1.5,1.5,0,0,0,.486.056h1.554a3.69,3.69,0,0,1-.255.331l-0.4.462-0.522.624-0.607.712q-0.328.375-.431,0.512a0.478,0.478,0,0,0,.043.624,0.644,0.644,0,0,0,.443.131H22.1a0.541,0.541,0,0,0,.376-0.112A0.386,0.386,0,0,0,22.6,13.2,0.4,0.4,0,0,0,22.473,12.889Zm6.368-3.508a0.66,0.66,0,0,0-.467-0.15H25.806l2.4-2.753,0.225-.256,0.146-.181a0.835,0.835,0,0,0,.1-0.187,0.644,0.644,0,0,0,.043-0.225,0.472,0.472,0,0,0-.225-0.449,1.323,1.323,0,0,0-.637-0.125H24.841a0.643,0.643,0,0,0-.443.137,0.467,0.467,0,0,0-.158.368,0.354,0.354,0,0,0,.206.387,1.9,1.9,0,0,0,.607.075H27q-0.122.175-.316,0.412l-0.5.586-0.656.749-0.783.893q-0.407.468-.534,0.624a0.6,0.6,0,0,0,.055.805,0.811,0.811,0,0,0,.559.169h3.539a0.679,0.679,0,0,0,.486-0.125A0.481,0.481,0,0,0,29,9.768,0.506,0.506,0,0,0,28.842,9.381ZM27.824,19.893a0.6,0.6,0,0,0-.668-0.144A12.772,12.772,0,0,1,10.31,12.57a13.6,13.6,0,0,1,.23-10.679,0.632,0.632,0,0,0-.289-0.831,0.592,0.592,0,0,0-.494-0.012,14.663,14.663,0,0,0-7.7,18.946,13.989,13.989,0,0,0,18.427,7.913,14.3,14.3,0,0,0,7.445-7.322A0.637,0.637,0,0,0,27.824,19.893ZM15.13,27.757A13.1,13.1,0,0,1,2.22,14.479,13.34,13.34,0,0,1,8.847,2.884a14.674,14.674,0,0,0-.728,4.587A14.33,14.33,0,0,0,22.246,22a13.757,13.757,0,0,0,3.867-.555A12.887,12.887,0,0,1,15.13,27.757Z"/>
</svg>
