<svg xmlns="http://www.w3.org/2000/svg" width="30" height="30" viewBox="0 0 30 30">
  <metadata><?xpacket begin="﻿" id="W5M0MpCehiHzreSzNTczkc9d"?>
<x:xmpmeta xmlns:x="adobe:ns:meta/" x:xmptk="Adobe XMP Core 5.6-c140 79.160451, 2017/05/06-01:08:21        ">
   <rdf:RDF xmlns:rdf="http://www.w3.org/1999/02/22-rdf-syntax-ns#">
      <rdf:Description rdf:about=""/>
   </rdf:RDF>
</x:xmpmeta>
                                                                                                    
                                                                                                    
                                                                                                    
                                                                                                    
                                                                                                    
                                                                                                    
                                                                                                    
                                                                                                    
                                                                                                    
                                                                                                    
                                                                                                    
                                                                                                    
                                                                                                    
                                                                                                    
                                                                                                    
                                                                                                    
                                                                                                    
                                                                                                    
                                                                                                    
                                                                                                    
                           
<?xpacket end="w"?></metadata>
<defs>
    <style>
      .cls-1 {
        fill: #67af54;
        fill-rule: evenodd;
      }
    </style>
  </defs>
  <path id="_-e-icon_driving" data-name="-e-icon_driving" class="cls-1" d="M4.733,12.667H25.267a0.424,0.424,0,0,0,.373-0.187,0.476,0.476,0,0,0,.093-0.42A11.217,11.217,0,0,0,15,3.8,11.217,11.217,0,0,0,4.267,12.06a0.627,0.627,0,0,0,.093.42A0.424,0.424,0,0,0,4.733,12.667ZM15,4.733a10.174,10.174,0,0,1,9.613,7H5.34A10.277,10.277,0,0,1,15,4.733Zm10.733,9.893a2.67,2.67,0,0,0-.607-0.046c-2.007,0-3.267,1.027-3.267,2.706a3.283,3.283,0,0,0,2.52,3.174h0.093a0.293,0.293,0,0,0,.327-0.187,9.144,9.144,0,0,0,1.307-4.667v-0.56A0.443,0.443,0,0,0,25.733,14.627Zm-0.42.887a7.871,7.871,0,0,1-1.027,3.874A2.236,2.236,0,0,1,22.84,17.24c0-1.587,1.633-1.773,2.333-1.773a0.36,0.36,0,0,0,.14-0.047v0.093ZM15.047,20.74c-2.94,0-5.553,1.027-6.673,2.66a0.494,0.494,0,0,0,.093.654A10.959,10.959,0,0,0,15,26.2a11.309,11.309,0,0,0,6.58-2.147,0.5,0.5,0,0,0,.093-0.654C20.553,21.767,17.94,20.74,15.047,20.74ZM15,25.267a9.985,9.985,0,0,1-5.6-1.68A8.014,8.014,0,0,1,15,21.673c2.333,0,4.527.747,5.6,1.913A9.985,9.985,0,0,1,15,25.267ZM15,1A14,14,0,1,0,29,15,14.041,14.041,0,0,0,15,1Zm0,27.066A13.067,13.067,0,1,1,28.067,15,13.105,13.105,0,0,1,15,28.067ZM4.78,13.973a2.653,2.653,0,0,0-.607.047,0.448,0.448,0,0,0-.373.42V15a11.41,11.41,0,0,0,1.307,5.227,0.49,0.49,0,0,0,.42.233c0.047,0,.093,0,0-0.047A3.263,3.263,0,0,0,4.78,13.973Zm0.98,5.46A9.808,9.808,0,0,1,4.733,15V14.907a2.382,2.382,0,0,1,2.473,2.38A2.328,2.328,0,0,1,5.76,19.433ZM10.333,16.4c0,1.354,2.007,2.333,4.667,2.333s4.667-.98,4.667-2.333S17.66,14.067,15,14.067,10.333,15.047,10.333,16.4Zm8.4,0c0,0.56-1.447,1.4-3.733,1.4s-3.733-.84-3.733-1.4S12.713,15,15,15,18.733,15.84,18.733,16.4Z"/>
</svg>
