<svg xmlns="http://www.w3.org/2000/svg" width="30" height="30" viewBox="0 0 30 30">
  <metadata><?xpacket begin="﻿" id="W5M0MpCehiHzreSzNTczkc9d"?>
<x:xmpmeta xmlns:x="adobe:ns:meta/" x:xmptk="Adobe XMP Core 5.6-c140 79.160451, 2017/05/06-01:08:21        ">
   <rdf:RDF xmlns:rdf="http://www.w3.org/1999/02/22-rdf-syntax-ns#">
      <rdf:Description rdf:about=""/>
   </rdf:RDF>
</x:xmpmeta>
                                                                                                    
                                                                                                    
                                                                                                    
                                                                                                    
                                                                                                    
                                                                                                    
                                                                                                    
                                                                                                    
                                                                                                    
                                                                                                    
                                                                                                    
                                                                                                    
                                                                                                    
                                                                                                    
                                                                                                    
                                                                                                    
                                                                                                    
                                                                                                    
                                                                                                    
                                                                                                    
                           
<?xpacket end="w"?></metadata>
<defs>
    <style>
      .cls-1 {
        fill: #555353;
        fill-rule: evenodd;
      }
    </style>
  </defs>
  <path id="_-e-icon_off" data-name="-e-icon_off" class="cls-1" d="M15,29A13.133,13.133,0,0,1,11.291,3.307a0.524,0.524,0,0,1,.466.083,0.534,0.534,0,0,1,.212.427V7.643a0.533,0.533,0,0,1-.316.488,8.434,8.434,0,1,0,11.721,7.748,8.458,8.458,0,0,0-5.025-7.748,0.532,0.532,0,0,1-.316-0.488V3.817a0.533,0.533,0,0,1,.212-0.427,0.523,0.523,0,0,1,.465-0.083A13.133,13.133,0,0,1,15,29ZM10.914,4.554A12.069,12.069,0,0,0,15,27.932,12.069,12.069,0,0,0,19.086,4.554V7.3A9.533,9.533,0,0,1,15,25.4,9.533,9.533,0,0,1,10.914,7.3V4.554h0ZM15,10.862A2.044,2.044,0,0,1,12.968,8.81V3.056a2.032,2.032,0,1,1,4.064,0V8.81A2.045,2.045,0,0,1,15,10.862Zm0-8.793a0.983,0.983,0,0,0-.977.987V8.81a0.978,0.978,0,1,0,1.955,0V3.056A0.984,0.984,0,0,0,15,2.069Z"/>
</svg>
