<svg xmlns="http://www.w3.org/2000/svg" width="30" height="30" viewBox="0 0 30 30">
  <metadata><?xpacket begin="﻿" id="W5M0MpCehiHzreSzNTczkc9d"?>
<x:xmpmeta xmlns:x="adobe:ns:meta/" x:xmptk="Adobe XMP Core 5.6-c140 79.160451, 2017/05/06-01:08:21        ">
   <rdf:RDF xmlns:rdf="http://www.w3.org/1999/02/22-rdf-syntax-ns#">
      <rdf:Description rdf:about=""/>
   </rdf:RDF>
</x:xmpmeta>
                                                                                                    
                                                                                                    
                                                                                                    
                                                                                                    
                                                                                                    
                                                                                                    
                                                                                                    
                                                                                                    
                                                                                                    
                                                                                                    
                                                                                                    
                                                                                                    
                                                                                                    
                                                                                                    
                                                                                                    
                                                                                                    
                                                                                                    
                                                                                                    
                                                                                                    
                                                                                                    
                           
<?xpacket end="w"?></metadata>
<defs>
    <style>
      .cls-1 {
        fill: #3498db;
        fill-rule: evenodd;
      }
    </style>
  </defs>
  <path class="cls-1" d="M27.366,8.842a5.3,5.3,0,0,0-4-1.708H19.251V4.771A0.765,0.765,0,0,0,18.5,4H1.754A0.765,0.765,0,0,0,1,4.771V22.718a0.765,0.765,0,0,0,.754.771h3a2.956,2.956,0,0,0,5.845,0H20.15a2.956,2.956,0,0,0,5.845,0h2.25A0.765,0.765,0,0,0,29,22.718V13.755A7.192,7.192,0,0,0,27.366,8.842ZM2.508,5.541H17.743V21.954H10.472a2.942,2.942,0,0,0-5.581,0H2.508V5.541ZM7.681,24.459a1.49,1.49,0,1,1,1.458-1.49A1.475,1.475,0,0,1,7.681,24.459Zm15.392,0a1.49,1.49,0,1,1,1.458-1.49A1.475,1.475,0,0,1,23.073,24.459Zm4.412-2.511H25.864a2.942,2.942,0,0,0-5.581,0H19.258V8.675h4.117c2.539,0,4.117,1.946,4.117,5.08v8.193H27.485Z"/>
</svg>
