<svg xmlns="http://www.w3.org/2000/svg" width="48" height="54">
    <path fill="#C5C5C5" fill-rule="evenodd" d="M24 53.99C10.765 53.99-.003 43.209-.003 29.957c0-10.555 7.052-20.027 17.151-23.034a.975.975 0 0 1 1.251.934v7.01a.975.975 0 0 1-.583.894 15.493 15.493 0 0 0-9.284 14.196c0 8.539 6.939 15.487 15.468 15.487s15.467-6.948 15.467-15.487c0-6.157-3.643-11.73-9.283-14.196a.975.975 0 0 1-.584-.894v-7.01c0-.308.146-.598.392-.782a.977.977 0 0 1 .861-.152c10.097 3.007 17.15 12.479 17.15 23.034C48.003 43.209 37.235 53.99 24 53.99zM16.452 9.206C7.847 12.35 1.945 20.7 1.945 29.957 1.945 42.134 11.838 52.04 24 52.04c12.161 0 22.055-9.906 22.055-22.083 0-9.256-5.902-17.606-14.506-20.751v5.036a17.443 17.443 0 0 1 9.866 15.715c0 9.615-7.812 17.437-17.415 17.437-9.603 0-17.415-7.822-17.415-17.437a17.445 17.445 0 0 1 9.867-15.715V9.206zM24 21.53a3.761 3.761 0 0 1-3.754-3.76V3.752A3.76 3.76 0 0 1 24-.006a3.76 3.76 0 0 1 3.754 3.758V17.77A3.761 3.761 0 0 1 24 21.53zm0-19.586c-.996 0-1.806.81-1.806 1.808V17.77c0 .998.81 1.809 1.806 1.809a1.81 1.81 0 0 0 1.806-1.809V3.752c0-.998-.81-1.808-1.806-1.808z"/>
</svg>
