<svg xmlns="http://www.w3.org/2000/svg" width="57" height="42">
    <path fill="#3A98D3" fill-rule="evenodd" d="M56.05 37.129h-4.846c-.455 2.766-2.786 4.884-5.604 4.884s-5.149-2.118-5.604-4.884H18.904c-.456 2.766-2.786 4.884-5.604 4.884s-5.148-2.118-5.604-4.884H.95a.964.964 0 0 1-.95-.977V4.891c0-.539.426-.977.95-.977h36.1c.525 0 .95.438.95.977v5.861h9.5c.323 0 .624.17.799.449l8.55 13.677a.991.991 0 0 1 .151.528v10.746c0 .54-.425.977-.95.977zM13.3 40.06c2.096 0 3.8-1.754 3.8-3.908 0-2.155-1.704-3.907-3.8-3.907s-3.8 1.752-3.8 3.907c0 2.154 1.704 3.908 3.8 3.908zm22.8-6.839H19.95v-1.954H36.1V9.775H3.8V7.822h32.3V5.868H1.9v25.399h4.75v1.954H1.9v1.954h5.796c.456-2.767 2.786-4.885 5.604-4.885s5.148 2.118 5.604 4.885H36.1v-1.954zm9.5 6.839c2.096 0 3.8-1.754 3.8-3.908 0-2.155-1.704-3.907-3.8-3.907s-3.8 1.752-3.8 3.907c0 2.154 1.704 3.908 3.8 3.908zm3.8-23.485v.039h-7.6v6.838h11.899L49.4 16.575zm5.7 16.646h-2.85v-1.954h2.85v-5.574l-.179-.287H40.85a.963.963 0 0 1-.95-.977v-8.792c0-.539.425-.977.95-.977h7.353l-1.222-1.954H38v22.469h1.996c.455-2.767 2.786-4.885 5.604-4.885s5.148 2.118 5.604 4.885H55.1v-1.954zm-8.55 3.908h-1.9v-1.954h1.9v1.954zm-32.3 0h-1.9v-1.954h1.9v1.954zM3.8.006h13.3v1.955H3.8V.006zm-3.8 0h1.9v1.955H0V.006z"/>
</svg>
