<svg xmlns="http://www.w3.org/2000/svg" width="54" height="55">
    <path fill="#FFB607" fill-rule="evenodd" d="M46.092 46.992c-5.1 5.1-11.88 7.908-19.092 7.908a27.052 27.052 0 0 1-12.586-3.108L1.435 54.753a1.078 1.078 0 0 1-1.288-1.288l2.961-12.979A27.04 27.04 0 0 1 0 27.9c0-7.212 2.809-13.992 7.908-19.092C13.007 3.709 19.788.9 27 .9c7.212 0 13.992 2.809 19.092 7.908C51.192 13.908 54 20.688 54 27.9c0 7.212-2.808 13.992-7.908 19.092zM27 3.051C13.298 3.051 2.152 14.198 2.152 27.9c0 4.165 1.05 8.285 3.038 11.915.126.231.164.499.105.756l-2.67 11.704 11.704-2.67a1.081 1.081 0 0 1 .756.105A24.872 24.872 0 0 0 27 52.748c13.702 0 24.849-11.147 24.849-24.848C51.849 14.198 40.702 3.051 27 3.051zm20.567 36.124a23.433 23.433 0 0 1-9.968 9.649 1.078 1.078 0 0 1-1.447-.473 1.077 1.077 0 0 1 .473-1.446 21.276 21.276 0 0 0 9.056-8.766 1.076 1.076 0 1 1 1.886 1.036zm-6.475-7.539c0 .595-.482 1.076-1.076 1.076H26.781a1.076 1.076 0 0 1-.762-1.834l11.41-11.476H26.781a1.075 1.075 0 0 1 0-2.151h13.235a1.075 1.075 0 0 1 .763 1.834L29.368 30.561h10.648c.594 0 1.076.481 1.076 1.075zm-15.823 5.3c0 .594-.482 1.076-1.076 1.076H13.41a1.077 1.077 0 0 1-.763-1.835l8.96-9.011H13.41a1.076 1.076 0 0 1 0-2.151h10.783a1.075 1.075 0 0 1 .763 1.834l-8.96 9.011h8.197c.594 0 1.076.482 1.076 1.076zm5.521 11.927a21.132 21.132 0 0 0 1.842-.417 1.077 1.077 0 0 1 .568 2.075c-.666.183-1.349.337-2.03.46a1.077 1.077 0 0 1-.38-2.118z"/>
</svg>
