<svg width="27" height="24" viewBox="0 0 27 24" fill="none" xmlns="http://www.w3.org/2000/svg">
<path d="M25.7644 18.3984L25.7699 18.4075L25.7755 18.4165C26.3987 19.3996 26.4018 20.6245 25.8215 21.6162L25.8215 21.6162L25.8176 21.623C25.2339 22.645 24.1969 23.25 22.999 23.25H4.00459C2.81526 23.25 1.77056 22.622 1.18207 21.6162C0.601409 20.6239 0.602998 19.3931 1.20508 18.4053L1.20513 18.4053L1.21006 18.397L10.7222 2.32717L10.7222 2.32718L10.7241 2.3239C11.3047 1.33166 12.3418 0.75 13.4868 0.75C14.6322 0.75 15.659 1.33035 16.209 2.33518L16.2155 2.34697L16.2224 2.35851L25.7644 18.3984Z" stroke="#B00808" stroke-width="1.5"/>
<path d="M13.4963 19.9003C14.2441 19.9003 14.8125 19.3318 14.8125 18.5836V18.1348C14.8424 17.3866 14.2441 16.8181 13.4963 16.8181C12.7485 16.8181 12.1802 17.3866 12.1802 18.1348V18.5836C12.1802 19.3318 12.7485 19.9003 13.4963 19.9003Z" fill="#B00808"/>
<path d="M13.4963 16.0699C14.2441 16.0699 14.8125 15.5013 14.8125 14.7532V7.69087C14.8424 6.97267 14.2441 6.34424 13.4963 6.34424C12.7485 6.34424 12.1802 6.91282 12.1802 7.66095V14.7532C12.1802 15.5013 12.7485 16.0699 13.4963 16.0699Z" fill="#B00808"/>
</svg>
