<svg width="24" height="24" viewBox="0 0 24 24" fill="none" xmlns="http://www.w3.org/2000/svg">
<path d="M4.66671 4.66683H19.3334V15.6668H5.73921L4.66671 16.7393V4.66683ZM4.66671 2.8335C3.65837 2.8335 2.84254 3.6585 2.84254 4.66683L2.83337 21.1668L6.50004 17.5002H19.3334C20.3417 17.5002 21.1667 16.6752 21.1667 15.6668V4.66683C21.1667 3.6585 20.3417 2.8335 19.3334 2.8335H4.66671ZM6.50004 12.0002H13.8334V13.8335H6.50004V12.0002ZM6.50004 9.25016H17.5V11.0835H6.50004V9.25016ZM6.50004 6.50016H17.5V8.3335H6.50004V6.50016Z" fill="#5196D5"/>
<rect x="0.5" y="0.5" width="23" height="23" rx="2.5" stroke="#5196D5"/>
</svg>
