<svg width="26" height="39" viewBox="0 0 26 39" fill="none" xmlns="http://www.w3.org/2000/svg">
<path d="M13 1C6.36571 1 1 6.634 1 13.6C1 23.05 13 37 13 37C13 37 25 23.05 25 13.6C25 6.634 19.6343 1 13 1Z" fill="white" stroke="#3EAC17" stroke-width="1.5"/>
<path d="M7.18945 17.5V10.3906H9.37695C10.002 10.3906 10.5602 10.5322 11.0518 10.8154C11.5465 11.0954 11.9323 11.4958 12.209 12.0166C12.4857 12.5342 12.624 13.1234 12.624 13.7842V14.1113C12.624 14.7721 12.4873 15.3597 12.2139 15.874C11.9437 16.3883 11.5612 16.7871 11.0664 17.0703C10.5716 17.3535 10.0133 17.4967 9.3916 17.5H7.18945ZM8.6543 11.5771V16.3232H9.3623C9.93522 16.3232 10.373 16.1361 10.6758 15.7617C10.9785 15.3874 11.1331 14.8519 11.1396 14.1553V13.7793C11.1396 13.0566 10.9899 12.5098 10.6904 12.1387C10.391 11.7643 9.95312 11.5771 9.37695 11.5771H8.6543ZM16.3252 14.8975H15.1582V17.5H13.6934V10.3906H16.335C17.1748 10.3906 17.8226 10.5778 18.2783 10.9521C18.734 11.3265 18.9619 11.8555 18.9619 12.5391C18.9619 13.0241 18.8561 13.4294 18.6445 13.7549C18.4362 14.0771 18.1188 14.3343 17.6924 14.5264L19.2305 17.4316V17.5H17.6582L16.3252 14.8975ZM15.1582 13.7109H16.3398C16.7077 13.7109 16.9925 13.6182 17.1943 13.4326C17.3962 13.2438 17.4971 12.985 17.4971 12.6562C17.4971 12.321 17.401 12.0573 17.209 11.8652C17.0202 11.6732 16.7288 11.5771 16.335 11.5771H15.1582V13.7109Z" fill="#3EAC17"/>
</svg>
