<svg width="24" height="24" viewBox="0 0 24 24" fill="none" xmlns="http://www.w3.org/2000/svg">
<g clip-path="url(#clip0_84:2194)">
<path d="M22.1669 1.08394C22.0543 0.959948 21.9906 0.791551 21.9899 0.61568C21.9855 0.572647 21.9855 0.529195 21.9899 0.486162C21.9968 0.442894 22.0078 0.400578 22.0229 0.359965C22.0378 0.319941 22.0569 0.282032 22.0799 0.247052C22.1014 0.209754 22.1266 0.175224 22.1549 0.144102C22.2698 0.0257523 22.421 -0.0400391 22.5779 -0.0400391C22.7349 -0.0400391 22.886 0.0257523 23.0009 0.144102C23.0293 0.175224 23.0545 0.209754 23.0759 0.247052C23.0978 0.282812 23.1169 0.320589 23.1329 0.359965C23.148 0.400578 23.1591 0.442894 23.1659 0.486162C23.1784 0.528161 23.1865 0.571624 23.1899 0.61568C23.1893 0.791551 23.1256 0.959948 23.0129 1.08394C22.9865 1.11607 22.9562 1.14401 22.9229 1.16696C22.8907 1.19313 22.8553 1.21436 22.8179 1.23006C22.7824 1.24721 22.7451 1.25948 22.7069 1.26659C22.6685 1.27594 22.6293 1.2804 22.5899 1.27987C22.4311 1.27913 22.2789 1.20867 22.1669 1.08394ZM23.9999 7.92182C23.9999 8.05393 23.9525 8.18064 23.8681 8.27406C23.7837 8.36748 23.6693 8.41996 23.5499 8.41996H21.6299C21.5106 8.41996 21.3961 8.36748 21.3117 8.27406C21.2273 8.18064 21.1799 8.05393 21.1799 7.92182C21.1799 7.7897 21.2273 7.66299 21.3117 7.56957C21.3961 7.47615 21.5106 7.42367 21.6299 7.42367H22.1399V3.43851H21.6899C21.5706 3.43851 21.4561 3.38602 21.3717 3.2926C21.2873 3.19918 21.2399 3.07248 21.2399 2.94036C21.2399 2.80824 21.2873 2.68154 21.3717 2.58812C21.4561 2.4947 21.5706 2.44221 21.6899 2.44221H22.5899C22.7093 2.44221 22.8237 2.4947 22.9081 2.58812C22.9925 2.68154 23.0399 2.80824 23.0399 2.94036V7.42367H23.5499C23.6693 7.42367 23.7837 7.47615 23.8681 7.56957C23.9525 7.66299 23.9999 7.7897 23.9999 7.92182Z" fill="#5196D5"/>
<path d="M19.6915 0.5H3.5C1.84315 0.5 0.5 1.84315 0.5 3.5V20.5C0.5 22.1569 1.84315 23.5 3.5 23.5H19.5C21.1569 23.5 22.5 22.1569 22.5 20.5V11.0417" stroke="#5196D5" stroke-linecap="round"/>
<path fill-rule="evenodd" clip-rule="evenodd" d="M6.95631 8.90716C6.95631 6.39486 8.96602 4.40234 11.5 4.40234C14.034 4.40234 16.0437 6.39486 16.0437 8.90716C16.0437 11.4195 14.034 13.412 11.5 13.412C8.96602 13.412 6.95631 11.4195 6.95631 8.90716ZM2.5 23.0002C2.5 18.0622 6.51942 14.0772 11.5 14.0772C16.4806 14.0772 20.4126 17.9756 20.5 22.9136V23.0002C20.5 23.2601 20.3252 23.52 19.9757 23.52H16.2184H16.1311H6.86893H6.78155H3.02427C2.76214 23.52 2.5 23.2601 2.5 23.0002ZM12.9854 19.1884C12.5485 19.0152 12.0243 18.9285 11.5 18.9285C10.9757 18.9285 10.4515 19.0152 10.0146 19.1884L11.0631 21.0943C11.2379 21.0077 11.3252 21.0077 11.5 21.0077C11.5874 21.0077 11.6529 21.0293 11.7184 21.051C11.784 21.0727 11.8495 21.0943 11.9369 21.0943L12.9854 19.1884ZM10.1019 21.6141L9.0534 19.7082C8.17961 20.4013 7.56796 21.2676 7.48058 22.3938H9.66505C9.75243 22.1339 9.92719 21.874 10.1019 21.6141ZM15.5194 22.3938C15.3447 21.2676 14.8204 20.3146 13.9466 19.7082L12.8981 21.6141C13.0728 21.874 13.2476 22.1339 13.335 22.3938H15.5194ZM11.4994 17.9883C14.0922 17.9883 16.2241 19.9735 16.4748 22.5153H17.4789C17.2251 19.4172 14.6449 16.9824 11.4994 16.9824C8.3539 16.9824 5.77374 19.4172 5.5199 22.5153H6.52404C6.77467 19.9735 8.90656 17.9883 11.4994 17.9883ZM17.4994 23.0177L17.4991 23.0747V22.9607L17.4994 23.0177Z" fill="#5196D5"/>
</g>
<defs>
<clipPath id="clip0_84:2194">
<rect width="24" height="24" fill="white"/>
</clipPath>
</defs>
</svg>
