<svg width="32" height="25" viewBox="0 0 32 25" fill="none" xmlns="http://www.w3.org/2000/svg">
<path d="M13.2916 23.8013L13.2912 23.8005L12.481 22.2859C12.4809 22.2857 12.4809 22.2856 12.4808 22.2854C12.0684 21.5127 11.2855 21.043 10.4096 21.043H6.63864C6.17179 21.043 5.80273 20.6739 5.80273 20.2071V9.63442C5.80273 9.16757 6.17179 8.79852 6.63864 8.79852H8.75318C10.0484 8.79852 11.0891 7.75788 11.0891 6.46261C11.0891 5.99577 11.4581 5.62671 11.925 5.62671H19.6783C20.1451 5.62671 20.5142 5.99577 20.5142 6.46261C20.5142 7.75788 21.5548 8.79852 22.8501 8.79852H24.0836H29.5461C29.9278 8.79852 30.244 9.04514 30.3468 9.39019V9.63442V16.7534C30.3468 17.2202 29.9777 17.5893 29.5109 17.5893H27.9602C27.0414 17.5893 26.1943 18.1071 25.8242 18.9995L23.7841 23.7479C23.7838 23.7486 23.7835 23.7492 23.7833 23.7499C23.6513 24.0494 23.3515 24.2501 23.0263 24.2501H14.0395C13.7174 24.2501 13.4432 24.0855 13.2916 23.8013Z" fill="white" stroke="#5196D5" stroke-width="1.5"/>
<path d="M13.0466 15.022C13.0466 14.8027 13.07 14.5903 13.1166 14.385C13.168 14.1797 13.2473 13.9977 13.3546 13.839C13.462 13.6757 13.602 13.5473 13.7746 13.454C13.9473 13.356 14.1573 13.307 14.4046 13.307C14.652 13.307 14.862 13.356 15.0346 13.454C15.2073 13.5473 15.3473 13.6757 15.4546 13.839C15.562 13.9977 15.639 14.1797 15.6856 14.385C15.737 14.5903 15.7626 14.8027 15.7626 15.022C15.7626 15.232 15.737 15.4373 15.6856 15.638C15.639 15.834 15.562 16.0113 15.4546 16.17C15.3473 16.3287 15.2073 16.457 15.0346 16.555C14.862 16.6483 14.652 16.695 14.4046 16.695C14.1573 16.695 13.9473 16.6483 13.7746 16.555C13.602 16.457 13.462 16.3287 13.3546 16.17C13.2473 16.0113 13.168 15.834 13.1166 15.638C13.07 15.4373 13.0466 15.232 13.0466 15.022ZM11.9476 15.022C11.9476 15.386 12.0036 15.7267 12.1156 16.044C12.2276 16.3567 12.3886 16.6297 12.5986 16.863C12.8086 17.0963 13.0653 17.2807 13.3686 17.416C13.6766 17.5467 14.022 17.612 14.4046 17.612C14.792 17.612 15.1373 17.5467 15.4406 17.416C15.744 17.2807 16.0006 17.0963 16.2106 16.863C16.4206 16.6297 16.5816 16.3567 16.6936 16.044C16.8056 15.7267 16.8616 15.386 16.8616 15.022C16.8616 14.6487 16.8056 14.3033 16.6936 13.986C16.5816 13.664 16.4206 13.384 16.2106 13.146C16.0006 12.908 15.744 12.7213 15.4406 12.586C15.1373 12.4507 14.792 12.383 14.4046 12.383C14.022 12.383 13.6766 12.4507 13.3686 12.586C13.0653 12.7213 12.8086 12.908 12.5986 13.146C12.3886 13.384 12.2276 13.664 12.1156 13.986C12.0036 14.3033 11.9476 14.6487 11.9476 15.022ZM17.6129 12.502V17.5H18.6419V14.154H18.6559L20.7349 17.5H21.8339V12.502H20.8049V15.855H20.7909L18.7049 12.502H17.6129Z" fill="#5196D5"/>
<path d="M20.0306 1H11.5725C11.0791 1 10.6914 1.38767 10.6914 1.88106C10.6914 2.37445 11.0791 2.76211 11.5725 2.76211H14.9205V3.81938H17.035V2.76211H20.0306C20.524 2.76211 20.9117 2.37445 20.9117 1.88106C20.9117 1.38767 20.524 1 20.0306 1Z" fill="#5196D5" stroke="white" stroke-width="0.25"/>
<path d="M1 10.6916V19.1498C1 19.6431 1.38767 20.0308 1.88106 20.0308C2.37445 20.0308 2.76211 19.6431 2.76211 19.1498V15.8017H3.81938V13.6872H2.76211V10.6916C2.76211 10.1982 2.37445 9.81055 1.88106 9.81055C1.38767 9.81055 1 10.1982 1 10.6916Z" fill="#5196D5" stroke="white" stroke-width="0.25"/>
</svg>
