<svg width="14" height="21" viewBox="0 0 14 21" fill="none" xmlns="http://www.w3.org/2000/svg">
<path fill-rule="evenodd" clip-rule="evenodd" d="M0.25 7.3C0.25 3.43769 3.23458 0.25 7 0.25C10.7654 0.25 13.75 3.43769 13.75 7.3C13.75 8.6258 13.333 10.055 12.7523 11.4158C12.1678 12.7858 11.3945 14.1391 10.631 15.3273C9.86616 16.5176 9.1027 17.5552 8.5309 18.295C8.24469 18.6653 8.00574 18.9619 7.83762 19.1668C7.75354 19.2693 7.68713 19.3489 7.64132 19.4033L7.58841 19.4659L7.57422 19.4825L7.57031 19.4871L7.56917 19.4884L7.56881 19.4888C7.56868 19.489 7.56858 19.4891 7 19C6.43142 19.4891 6.43132 19.489 6.43119 19.4888L6.43083 19.4884L6.42969 19.4871L6.42578 19.4825L6.41159 19.4659L6.35868 19.4033C6.31288 19.3489 6.24646 19.2693 6.16238 19.1668C5.99426 18.9619 5.75531 18.6653 5.4691 18.295C4.8973 17.5552 4.13384 16.5176 3.36903 15.3273C2.60552 14.1391 1.83219 12.7858 1.24767 11.4158C0.667046 10.055 0.25 8.6258 0.25 7.3ZM7 19L6.43142 19.4891L7 20.1501L7.56858 19.4891L7 19ZM7 17.8165C7.10376 17.6861 7.21918 17.5393 7.3441 17.3777C7.8973 16.662 8.63384 15.6606 9.36903 14.5164C10.1055 13.3703 10.8322 12.0939 11.3727 10.8272C11.917 9.55126 12.25 8.3367 12.25 7.3C12.25 4.19631 9.86887 1.75 7 1.75C4.13113 1.75 1.75 4.19631 1.75 7.3C1.75 8.3367 2.08295 9.55126 2.62733 10.8272C3.16781 12.0939 3.89448 13.3703 4.63097 14.5164C5.36616 15.6606 6.1027 16.662 6.6559 17.3777C6.78082 17.5393 6.89624 17.6861 7 17.8165Z" fill="#8B7676"/>
</svg>
