<svg width="14" height="14" viewBox="0 0 14 14" fill="none" xmlns="http://www.w3.org/2000/svg">
<path fill-rule="evenodd" clip-rule="evenodd" d="M8.58083 8.16667H9.04167L11.9525 11.0833L11.0833 11.9525L8.16667 9.04167V8.58083L8.00917 8.4175C7.34417 8.98917 6.48083 9.33333 5.54167 9.33333C3.4475 9.33333 1.75 7.63583 1.75 5.54167C1.75 3.4475 3.4475 1.75 5.54167 1.75C7.63583 1.75 9.33333 3.4475 9.33333 5.54167C9.33333 6.48083 8.98917 7.34417 8.4175 8.00917L8.58083 8.16667ZM2.91667 5.54167C2.91667 6.99417 4.08917 8.16667 5.54167 8.16667C6.99417 8.16667 8.16667 6.99417 8.16667 5.54167C8.16667 4.08917 6.99417 2.91667 5.54167 2.91667C4.08917 2.91667 2.91667 4.08917 2.91667 5.54167Z" fill="#76838B"/>
</svg>
