<svg width="36" height="26" viewBox="0 0 36 26" fill="none" xmlns="http://www.w3.org/2000/svg">
<path fill-rule="evenodd" clip-rule="evenodd" d="M7.22206 1.44444C7.22206 1.19902 7.42108 1 7.6665 1H23.6665C24.8938 1 25.8887 1.99493 25.8887 3.22222V17.8889C25.8887 18.1343 25.6897 18.3333 25.4443 18.3333C25.1989 18.3333 24.9998 18.1343 24.9998 17.8889V3.22222C24.9998 2.48587 24.4029 1.88889 23.6665 1.88889H7.6665C7.42108 1.88889 7.22206 1.68987 7.22206 1.44444ZM3.6665 21C3.6665 20.7546 3.86549 20.5556 4.11095 20.5556H7.6665C7.91193 20.5556 8.11095 20.7546 8.11095 21C8.11095 21.2454 7.91193 21.4444 7.6665 21.4444H4.11095C3.86549 21.4444 3.6665 21.2454 3.6665 21ZM16.1109 21C16.1109 20.7546 16.31 20.5556 16.5554 20.5556H23.6665C23.9119 20.5556 24.1109 20.7546 24.1109 21C24.1109 21.2454 23.9119 21.4444 23.6665 21.4444H16.5554C16.31 21.4444 16.1109 21.2454 16.1109 21Z" fill="#3EAC17" stroke="#3EAC17" stroke-width="0.5"/>
<path fill-rule="evenodd" clip-rule="evenodd" d="M1 14.7777C1 14.5323 1.19899 14.3333 1.44444 14.3333H15.6667C15.9121 14.3333 16.1111 14.5323 16.1111 14.7777C16.1111 15.0231 15.9121 15.2221 15.6667 15.2221H1.44444C1.19899 15.2221 1 15.0231 1 14.7777Z" fill="#3EAC17" stroke="#3EAC17" stroke-width="0.5"/>
<path fill-rule="evenodd" clip-rule="evenodd" d="M4.55566 12.1112C4.55566 11.8658 4.75465 11.6667 5.00011 11.6667H17.4446C17.69 11.6667 17.889 11.8658 17.889 12.1112C17.889 12.3566 17.69 12.5556 17.4446 12.5556H5.00011C4.75465 12.5556 4.55566 12.3566 4.55566 12.1112Z" fill="#3EAC17" stroke="#3EAC17" stroke-width="0.5"/>
<path fill-rule="evenodd" clip-rule="evenodd" d="M2.77783 9.44444C2.77783 9.19902 2.97682 9 3.22228 9H15.6667C15.9121 9 16.1112 9.19902 16.1112 9.44444C16.1112 9.68987 15.9121 9.88889 15.6667 9.88889H3.22228C2.97682 9.88889 2.77783 9.68987 2.77783 9.44444Z" fill="#3EAC17" stroke="#3EAC17" stroke-width="0.5"/>
<path fill-rule="evenodd" clip-rule="evenodd" d="M7.22217 6.7777C7.22217 6.53227 7.42119 6.33325 7.66661 6.33325H16.5555C16.8009 6.33325 16.9999 6.53227 16.9999 6.7777C16.9999 7.02312 16.8009 7.22214 16.5555 7.22214H7.66661C7.42119 7.22214 7.22217 7.02312 7.22217 6.7777Z" fill="#3EAC17" stroke="#3EAC17" stroke-width="0.5"/>
<path fill-rule="evenodd" clip-rule="evenodd" d="M25 6.7777C25 6.53227 25.199 6.33325 25.4444 6.33325H29.7924C30.5587 6.33325 31.2708 6.72792 31.6769 7.3777L35.3289 13.2209C35.5496 13.5741 35.6667 13.9821 35.6667 14.3987V19.2221C35.6667 20.4494 34.6717 21.4444 33.4444 21.4444H32.5556C32.3101 21.4444 32.1111 21.2453 32.1111 20.9999C32.1111 20.7545 32.3101 20.5555 32.5556 20.5555H33.4444C34.1808 20.5555 34.7778 19.9585 34.7778 19.2221V14.3987C34.7778 14.1488 34.7076 13.9039 34.5751 13.692L30.9231 7.84881C30.6795 7.45894 30.2522 7.22214 29.7924 7.22214H25.4444C25.199 7.22214 25 7.02312 25 6.7777Z" fill="#3EAC17" stroke="#3EAC17" stroke-width="0.5"/>
<path fill-rule="evenodd" clip-rule="evenodd" d="M12.1111 19.6667C10.8838 19.6667 9.88889 20.6617 9.88889 21.8889C9.88889 23.1162 10.8838 24.1112 12.1111 24.1112C13.3384 24.1112 14.3333 23.1162 14.3333 21.8889C14.3333 20.6617 13.3384 19.6667 12.1111 19.6667ZM9 21.8889C9 20.1707 10.3929 18.7778 12.1111 18.7778C13.8293 18.7778 15.2222 20.1707 15.2222 21.8889C15.2222 23.6072 13.8293 25.0001 12.1111 25.0001C10.3929 25.0001 9 23.6072 9 21.8889Z" fill="#3EAC17" stroke="#3EAC17" stroke-width="0.5"/>
<path fill-rule="evenodd" clip-rule="evenodd" d="M28.1111 19.6667C26.8838 19.6667 25.8889 20.6617 25.8889 21.8889C25.8889 23.1162 26.8838 24.1112 28.1111 24.1112C29.3384 24.1112 30.3333 23.1162 30.3333 21.8889C30.3333 20.6617 29.3384 19.6667 28.1111 19.6667ZM25 21.8889C25 20.1707 26.3929 18.7778 28.1111 18.7778C29.8293 18.7778 31.2222 20.1707 31.2222 21.8889C31.2222 23.6072 29.8293 25.0001 28.1111 25.0001C26.3929 25.0001 25 23.6072 25 21.8889Z" fill="#3EAC17" stroke="#3EAC17" stroke-width="0.5"/>
<path fill-rule="evenodd" clip-rule="evenodd" d="M29.2638 8.125C29.5092 8.125 29.7082 8.32402 29.7082 8.56944V10.3472C29.7082 10.5927 29.9072 10.7917 30.1527 10.7917H31.9304C32.1759 10.7917 32.3749 10.9907 32.3749 11.2361C32.3749 11.4816 32.1759 11.6806 31.9304 11.6806H30.1527C29.4162 11.6806 28.8193 11.0837 28.8193 10.3472V8.56944C28.8193 8.32402 29.0183 8.125 29.2638 8.125Z" fill="#3EAC17" stroke="#3EAC17" stroke-width="0.5"/>
<path fill-rule="evenodd" clip-rule="evenodd" d="M1 24.5555C1 24.3101 1.19899 24.1111 1.44444 24.1111H35.2222C35.4676 24.1111 35.6667 24.3101 35.6667 24.5555C35.6667 24.801 35.4676 25 35.2222 25H1.44444C1.19899 25 1 24.801 1 24.5555Z" fill="#3EAC17" stroke="#3EAC17" stroke-width="0.5"/>
</svg>
