<?xml version="1.0" encoding="UTF-8"?>
<svg width="30px" height="30px" viewBox="0 0 30 30" version="1.1" xmlns="http://www.w3.org/2000/svg" xmlns:xlink="http://www.w3.org/1999/xlink">
    <!-- Generator: sketchtool 61.2 (101010) - https://sketch.com -->
    <title>F3F43BA5-BBC4-4867-80C0-218803B1528D</title>
    <desc>Created with sketchtool.</desc>
    <defs>
        <polygon id="path-1" points="0.471625 0.283666667 2.918125 0.283666667 2.918125 6.66666667 0.471625 6.66666667"></polygon>
    </defs>
    <g id="Dashboard" stroke="none" stroke-width="1" fill="none" fill-rule="evenodd">
        <g id="Inspections_Alerts_map_Points-of-interest" transform="translate(-24.000000, -423.000000)">
            <g id="Group" transform="translate(8.000000, 8.000000)">
                <g id="Group-9" transform="translate(16.000000, 415.000000)">
                    <g id="IconsLogoPartner-/-ic_Map_Logo_1">
                        <g id="Group-14" transform="translate(7.500000, 5.000000)">
                            <path d="M8.694875,6.383 L8.694875,6.383 C8.017625,6.383 7.471625,5.86133333 7.471625,5.218 L7.471625,1.16466667 C7.471625,0.521333333 8.017625,-0.000333333333 8.694875,-0.000333333333 C9.370375,-0.000333333333 9.918125,0.521333333 9.918125,1.16466667 L9.918125,5.218 C9.918125,5.86133333 9.370375,6.383 8.694875,6.383" id="Fill-1" fill="#FEC751"></path>
                            <g id="Group-5" transform="translate(7.000000, 12.111000)">
                                <mask id="mask-2" fill="white">
                                    <use xlink:href="#path-1"></use>
                                </mask>
                                <g id="Clip-4"></g>
                                <path d="M1.694875,6.667 L1.694875,6.667 C1.017625,6.667 0.471625,6.14533333 0.471625,5.502 L0.471625,1.44866667 C0.471625,0.805333333 1.017625,0.283666667 1.694875,0.283666667 C2.370375,0.283666667 2.918125,0.805333333 2.918125,1.44866667 L2.918125,5.502 C2.918125,6.14533333 2.370375,6.667 1.694875,6.667" id="Fill-3" fill="#FEC751" mask="url(#mask-2)"></path>
                            </g>
                            <path d="M11.42575,7.882 L11.42575,7.882 C11.08625,7.32533333 11.28575,6.612 11.87025,6.28866667 L15.5505,4.257 C16.13675,3.93366667 16.88575,4.12533333 17.2235,4.682 C17.563,5.23866667 17.3635,5.95033333 16.779,6.27366667 L13.097,8.30533333 C12.5125,8.62866667 11.7635,8.43866667 11.42575,7.882" id="Fill-6" fill="#FEC751"></path>
                            <path d="M0.165375,14.0961667 L0.165375,14.0961667 C-0.172375,13.5395 0.025375,12.8261667 0.609875,12.5045 L4.291875,10.4728333 C4.876375,10.1495 5.625375,10.3395 5.963125,10.8961667 C6.302625,11.4528333 6.104875,12.1661667 5.520375,12.4878333 L1.836625,14.5195 C1.252125,14.8428333 0.503125,14.6528333 0.165375,14.0961667" id="Fill-8" fill="#FEC751"></path>
                            <path d="M11.422425,10.8995 L11.422425,10.8995 C11.761925,10.3428333 12.510925,10.1545 13.095425,10.4778333 L16.775675,12.5145 C17.360175,12.8378333 17.557925,13.5511667 17.218425,14.1061667 C16.877175,14.6628333 16.128175,14.8528333 15.543675,14.5295 L11.866925,12.4928333 C11.282425,12.1695 11.084675,11.4545 11.422425,10.8995" id="Fill-10" fill="#FEC751"></path>
                            <path d="M0.1722,4.67066667 L0.1722,4.67066667 C0.50995,4.114 1.2607,3.92566667 1.84345,4.249 L5.5237,6.28566667 C6.1082,6.609 6.30595,7.32233333 5.96645,7.87733333 C5.62695,8.434 4.8762,8.624 4.29345,8.30066667 L0.61495,6.264 C0.03045,5.94066667 -0.1673,5.22566667 0.1722,4.67066667" id="Fill-12" fill="#FEC751"></path>
                        </g>
                    </g>
                </g>
            </g>
        </g>
    </g>
</svg>