<?xml version="1.0" encoding="UTF-8"?>
<svg width="30px" height="30px" viewBox="0 0 30 30" version="1.1" xmlns="http://www.w3.org/2000/svg" xmlns:xlink="http://www.w3.org/1999/xlink">
    <!-- Generator: sketchtool 61.2 (101010) - https://sketch.com -->
    <title>B67E5A47-2074-470A-BD77-18E018EB8997</title>
    <desc>Created with sketchtool.</desc>
    <g id="Dashboard" stroke="none" stroke-width="1" fill="none" fill-rule="evenodd">
        <g id="Inspections_Alerts_map_Points-of-interest" transform="translate(-24.000000, -379.000000)" fill="#213F7D">
            <g id="Group" transform="translate(8.000000, 8.000000)">
                <g id="Group-8" transform="translate(16.000000, 371.000000)">
                    <g id="IconsLogoPartner-/-ic_Map_Logo_R">
                        <path d="M11.7994757,14.3405521 L15.2668482,14.3405521 C16.3470936,14.3405521 17.1825053,14.0778379 17.7747379,13.5506346 C18.3669704,13.0234313 18.6614324,12.2991923 18.6614324,11.3725925 C18.6614324,10.4300169 18.3818589,9.68802698 17.8260206,9.14839798 C17.2668737,8.60876897 16.4083019,8.33717937 15.253614,8.33717937 L11.7994757,8.33717937 L11.7994757,14.3405521 Z M15.2238369,17.6777314 L11.7994757,17.6777314 L11.7994757,25 L7.5,25 L7.5,5 L15.253614,5 C17.716838,5 19.6192609,5.52542824 20.9559198,6.57983492 C22.2925786,7.6324665 22.9609081,9.12177155 22.9609081,11.0441999 C22.9609081,12.4074732 22.6548661,13.5470844 22.0361651,14.4559333 C21.4207727,15.3683323 20.4877583,16.0925712 19.2354678,16.6339753 L23.75,24.8065146 L23.75,25 L19.1362109,25 L15.2238369,17.6777314 Z" id="Fill-1"></path>
                    </g>
                </g>
            </g>
        </g>
    </g>
</svg>