<?xml version="1.0" encoding="UTF-8"?>
<svg width="30px" height="30px" viewBox="0 0 30 30" version="1.1" xmlns="http://www.w3.org/2000/svg" xmlns:xlink="http://www.w3.org/1999/xlink">
    <!-- Generator: sketchtool 61.2 (101010) - https://sketch.com -->
    <title>74AFC153-9E90-4A4E-8EF0-07B755B37533</title>
    <desc>Created with sketchtool.</desc>
    <g id="Dashboard" stroke="none" stroke-width="1" fill="none" fill-rule="evenodd">
        <g id="Inspections_Alerts_map_Points-of-interest" transform="translate(-24.000000, -159.000000)">
            <g id="Group" transform="translate(8.000000, 8.000000)">
                <g id="Group-3" transform="translate(16.000000, 151.000000)">
                    <g id="IconsLogoPartner-/-ic_Map_Logo_6">
                        <g id="Group" transform="translate(3.750000, 6.250000)">
                            <path d="M1.36508633,0 L14.2105263,0 L12.8722502,5.1172496 L8.73007336,5.1172496 L4.83700801,18.75 L0.136285214,18.75 L4.09861025,5.09737679 L0,5.1172496 C0,5.1172496 0.826648021,2.08291932 1.36508633,0" id="Fill-1" fill="#3160A8"></path>
                            <path d="M12.6099474,11.24975 L13.868546,7.49975 L14.9783684,11.24975 L12.6099474,11.24975 Z M16.8337273,-0.00025 L15.1982288,-0.00025 L13.4777395,5.73716305 L9.40622105,5.73716305 L5.50468421,18.74975 L10.2664657,18.74975 L11.1921762,15.6680176 L16.2606137,15.6642912 L17.2357108,18.74975 L22.0836316,18.74975 L16.8337273,-0.00025 Z" id="Fill-4" fill="#E43E3D"></path>
                        </g>
                    </g>
                </g>
            </g>
        </g>
    </g>
</svg>