<?xml version="1.0" encoding="UTF-8"?>
<svg width="30px" height="30px" viewBox="0 0 30 30" version="1.1" xmlns="http://www.w3.org/2000/svg" xmlns:xlink="http://www.w3.org/1999/xlink">
    <!-- Generator: sketchtool 61.2 (101010) - https://sketch.com -->
    <title>22827024-7402-475A-B399-625E1355B158</title>
    <desc>Created with sketchtool.</desc>
    <g id="Dashboard" stroke="none" stroke-width="1" fill="none" fill-rule="evenodd">
        <g id="Inspections_Alerts_map_Points-of-interest" transform="translate(-24.000000, -731.000000)">
            <g id="Group" transform="translate(8.000000, 8.000000)">
                <g id="Group-16" transform="translate(16.000000, 723.000000)">
                    <g id="IconsLogoPartner-/-ic_Map_Logo_4">
                        <g id="Group" transform="translate(3.750000, 5.000000)">
                            <path d="M0.560763889,0.560763889 L0.560763889,17.7386111 C0.560763889,18.5659028 1.23368056,19.2401389 2.06097222,19.2401389 L20.7614583,19.2401389 C21.58875,19.2401389 22.2616667,18.5659028 22.2616667,17.7386111 L22.2616667,0.560763889 L21.3815972,0.560763889 C21.0913194,1.42368056 20.2877778,2.00819444 19.3588889,2.00819444 C18.4286806,2.00819444 17.6277778,1.42368056 17.3348611,0.560763889 L16.1909028,0.560763889 C15.8993056,1.42368056 15.0970833,2.00819444 14.1681944,2.00819444 C13.2393056,2.00819444 12.4357639,1.42368056 12.1441667,0.560763889 L10.5964583,0.560763889 C10.3048611,1.42368056 9.50263889,2.00819444 8.57375,2.00819444 C7.64354167,2.00819444 6.84131944,1.42368056 6.54972222,0.560763889 L5.65118056,0.560763889 C5.35958333,1.42368056 4.55736111,2.00819444 3.62715278,2.00819444 C2.69826389,2.00819444 1.89604167,1.42368056 1.60444444,0.560763889 L0.560763889,0.560763889 Z M20.7614583,19.8009028 L2.06097222,19.8009028 C0.924930556,19.8009028 6.66133815e-15,18.8746528 6.66133815e-15,17.7386111 L6.66133815e-15,-7.77156117e-15 L2.04118056,-7.77156117e-15 L2.09,0.219027778 C2.25361111,0.942083333 2.885625,1.44743056 3.62715278,1.44743056 C4.37,1.44743056 5.00201389,0.942083333 5.165625,0.219027778 L5.21444444,-7.77156117e-15 L6.98645833,-7.77156117e-15 L7.03527778,0.219027778 C7.19888889,0.942083333 7.83090278,1.44743056 8.57375,1.44743056 C9.31527778,1.44743056 9.94729167,0.942083333 10.1109028,0.219027778 L10.1597222,-7.77156117e-15 L12.5809028,-7.77156117e-15 L12.6297222,0.219027778 C12.7933333,0.942083333 13.4266667,1.44743056 14.1681944,1.44743056 C14.9097222,1.44743056 15.5417361,0.942083333 15.7066667,0.219027778 L15.7554861,-7.77156117e-15 L17.7715972,-7.77156117e-15 L17.8217361,0.219027778 C17.9853472,0.942083333 18.6173611,1.44743056 19.3588889,1.44743056 C20.1004167,1.44743056 20.7324306,0.942083333 20.8960417,0.219027778 L20.9461806,-7.77156117e-15 L22.82375,-7.77156117e-15 L22.82375,17.7386111 C22.82375,18.8746528 21.8975,19.8009028 20.7614583,19.8009028 L20.7614583,19.8009028 Z" id="Fill-1" fill="#060807"></path>
                            <path d="M20.4304097,3.018625 L2.23922917,3.018625 L2.23922917,6.14834722 L7.86402083,6.14834722 C8.36540972,6.14834722 8.77179861,6.55473611 8.77179861,7.05744444 L8.77179861,16.3582083 L14.0535347,16.3582083 L14.0535347,7.05744444 C14.0535347,6.55473611 14.4599236,6.14834722 14.9613125,6.14834722 L20.4304097,6.14834722 L20.4304097,3.018625 Z" id="Fill-4" fill="#060807"></path>
                            <polygon id="Fill-6" fill="#4D76B9" points="8.14625 10.1390069 6.93368056 10.1390069 6.93368056 6.9314375 2.23909722 6.9314375 2.23909722 16.3562292 6.93368056 16.3562292 6.93368056 13.0246319 8.14625 13.0246319"></polygon>
                            <path d="M17.8945694,11.3514444 C19.2958194,11.3514444 20.4305417,10.2167222 20.4305417,8.81547222 L20.4305417,6.93130556 L15.8639444,6.93130556 C15.8639444,6.93130556 15.8599861,7.99345833 15.8560278,8.97776389 C15.8533889,9.62033333 15.3322083,10.138875 14.6909583,10.138875 L14.6790833,10.138875 L14.6790833,11.3514444 L14.6790833,11.9372778 L14.6790833,13.1498472 L14.6790833,13.19075 L14.9904722,13.19075 C15.4865833,13.3226944 15.8547083,13.772625 15.8560278,14.3109583 C15.8599861,15.2952639 15.8639444,16.3574167 15.8639444,16.3574167 L20.4305417,16.3574167 L20.4305417,14.47325 C20.4305417,13.072 19.2958194,11.9372778 17.8945694,11.9372778 L15.8533889,11.9372778 L15.8533889,11.3514444 L17.8945694,11.3514444 Z" id="Fill-8" fill="#4D76B9"></path>
                            <polygon id="Fill-10" fill="#231F20" points="3.91611111 17.2902639 3.33159722 17.2902639 3.33159722 18.4236667 2.861875 18.4236667 2.861875 17.2902639 2.28791667 17.2902639 2.28791667 17.0316528 3.91611111 17.0316528"></polygon>
                            <polygon id="Fill-12" fill="#231F20" points="5.74327778 18.4235347 5.27619444 18.4235347 5.27619444 17.8429792 4.58480556 17.8429792 4.58480556 18.4235347 4.11508333 18.4235347 4.11508333 17.0315208 4.58480556 17.0315208 4.58480556 17.5843681 5.27619444 17.5843681 5.27619444 17.0315208 5.74327778 17.0315208"></polygon>
                            <polygon id="Fill-14" fill="#231F20" points="7.24955556 17.8328194 6.51066667 17.8328194 6.51066667 18.1653194 7.38413889 18.1653194 7.38413889 18.4239306 6.04094444 18.4239306 6.04094444 17.0319167 7.38677778 17.0319167 7.38677778 17.2905278 6.51066667 17.2905278 6.51066667 17.5847639 7.24955556 17.5847639"></polygon>
                            <path d="M8.04452083,17.6730347 L8.34271528,17.6730347 C8.43111806,17.6730347 8.49840972,17.6558819 8.54327083,17.6228958 C8.58813194,17.5899097 8.6105625,17.5424097 8.6105625,17.4817153 C8.6105625,17.4223403 8.58813194,17.3748403 8.54195139,17.3418542 C8.49709028,17.3075486 8.42979861,17.2890764 8.34271528,17.2890764 L8.04452083,17.2890764 L8.04452083,17.6730347 Z M8.29917361,17.9316458 L8.04452083,17.9316458 L8.04452083,18.4237986 L7.57479861,18.4237986 L7.57479861,17.0317847 L8.34271528,17.0317847 C8.57229861,17.0317847 8.75438194,17.0687292 8.8836875,17.1412986 C9.0143125,17.2138681 9.07896528,17.3181042 9.07896528,17.4526875 C9.07896528,17.5490069 9.05257639,17.6281736 8.99715972,17.6928264 C8.94174306,17.7561597 8.85597917,17.8076181 8.73986806,17.8472014 L9.14625694,18.4092847 L9.14625694,18.4237986 L8.64354861,18.4237986 L8.29917361,17.9316458 Z" id="Fill-16" fill="#231F20"></path>
                            <polygon id="Fill-18" fill="#231F20" points="9.97988194 17.0312569 10.4152986 17.9997292 10.8493958 17.0312569 11.4668958 17.0312569 11.4668958 18.4232708 10.9971736 18.4232708 10.9971736 18.0986875 11.0420347 17.4336875 10.5709931 18.4232708 10.2596042 18.4232708 9.78724306 17.4323681 9.83342361 18.0986875 9.83342361 18.4232708 9.36370139 18.4232708 9.36370139 17.0312569"></polygon>
                            <path d="M12.9383403,17.6981042 C12.9383403,17.5595625 12.9066736,17.4540069 12.8420208,17.3827569 C12.7760486,17.3115069 12.6850069,17.2758819 12.5636181,17.2758819 C12.3287569,17.2758819 12.2034097,17.4012292 12.1902153,17.6532431 L12.1888958,17.7561597 C12.1888958,17.8920625 12.2205625,17.9976181 12.2838958,18.0701875 C12.3472292,18.1440764 12.4422292,18.1810208 12.5662569,18.1810208 C12.6850069,18.1810208 12.7760486,18.1440764 12.8407014,18.0728264 C12.9053542,18.0002569 12.9383403,17.8973403 12.9383403,17.7614375 L12.9383403,17.6981042 Z M13.4159792,17.7561597 C13.4159792,17.8920625 13.3816736,18.0121319 13.3104236,18.1163681 C13.2404931,18.2206042 13.1402153,18.3024097 13.0109097,18.3578264 C12.8802847,18.4145625 12.7325069,18.4422708 12.5662569,18.4422708 C12.4000069,18.4422708 12.2535486,18.4158819 12.1242431,18.3604653 C11.9962569,18.3063681 11.8959792,18.2285208 11.8247292,18.1269236 C11.7521597,18.0266458 11.7152153,17.9092153 11.7112569,17.7785903 L11.7112569,17.6994236 C11.7112569,17.5635208 11.7455625,17.4434514 11.8154931,17.3392153 C11.8867431,17.2349792 11.9870208,17.1544931 12.1176458,17.0977569 C12.2482708,17.0410208 12.3973681,17.0119931 12.5636181,17.0119931 C12.7285486,17.0119931 12.8763264,17.0397014 13.0056319,17.0964375 C13.1349375,17.1518542 13.2352153,17.2323403 13.3077847,17.3365764 C13.3790347,17.4394931 13.4159792,17.5582431 13.4159792,17.6928264 L13.4159792,17.7561597 Z" id="Fill-20" fill="#231F20"></path>
                            <polygon id="Fill-22" fill="#231F20" points="15.0044583 17.9055208 14.8118194 18.0559375 14.8118194 18.4240625 14.3420972 18.4240625 14.3420972 17.0307292 14.8118194 17.0307292 14.8118194 17.6455903 14.9754306 17.4687847 15.3950139 17.0307292 15.9755694 17.0307292 15.3171667 17.6469097 15.9755694 18.4240625 15.4187639 18.4240625"></polygon>
                            <polygon id="Fill-24" fill="#231F20" points="16.1274375 18.4240625 16.5958403 18.4240625 16.5958403 17.0320486 16.1274375 17.0320486"></polygon>
                            <polygon id="Fill-26" fill="#231F20" points="18.5504653 18.4235347 18.0833819 18.4235347 17.3919931 17.5579792 17.3919931 18.4235347 16.9222708 18.4235347 16.9222708 17.0315208 17.3919931 17.0315208 18.0820625 17.8983958 18.0820625 17.0315208 18.5504653 17.0315208"></polygon>
                            <path d="M20.4433403,18.2514792 C20.3707708,18.3082153 20.2652153,18.3557153 20.1253542,18.3900208 C19.9868125,18.4256458 19.8337569,18.4427986 19.6688264,18.4427986 C19.4128542,18.4427986 19.2083403,18.3873819 19.0566042,18.2752292 C18.9035486,18.1643958 18.8217431,18.0087014 18.8111875,17.8094653 L18.8098681,17.6893958 C18.8098681,17.5521736 18.8441736,17.4321042 18.9114653,17.3305069 C18.9800764,17.2275903 19.0763958,17.1497431 19.2030625,17.0943264 C19.3297292,17.0389097 19.4761875,17.0112014 19.6411181,17.0112014 C19.8838958,17.0112014 20.0725764,17.0507847 20.2071597,17.1299514 C20.3404236,17.2091181 20.4195903,17.3278681 20.4420208,17.4848819 L19.9894514,17.4848819 C19.9736181,17.4070347 19.9379931,17.3516181 19.8852153,17.3186319 C19.8311181,17.2869653 19.7559097,17.2698125 19.6569514,17.2698125 C19.5395208,17.2698125 19.4484792,17.3054375 19.3838264,17.3766875 C19.3191736,17.4479375 19.2875069,17.5495347 19.2875069,17.6827986 L19.2875069,17.7672431 C19.2875069,17.9057847 19.3191736,18.0100208 19.3864653,18.0799514 C19.4524375,18.1498819 19.5579931,18.1841875 19.7004931,18.1841875 C19.8218819,18.1841875 19.9142431,18.1657153 19.9736181,18.1261319 L19.9736181,17.9097431 L19.6463958,17.9097431 L19.6463958,17.6788403 L20.4433403,17.6788403 L20.4433403,18.2514792 Z" id="Fill-27" fill="#231F20"></path>
                        </g>
                    </g>
                </g>
            </g>
        </g>
    </g>
</svg>