<?xml version="1.0" encoding="UTF-8"?>
<svg width="30px" height="30px" viewBox="0 0 30 30" version="1.1" xmlns="http://www.w3.org/2000/svg" xmlns:xlink="http://www.w3.org/1999/xlink">
    <!-- Generator: sketchtool 61.2 (101010) - https://sketch.com -->
    <title>54DDE4DE-D42D-4A08-A0C0-1DA8153A9E4E</title>
    <desc>Created with sketchtool.</desc>
    <g id="Dashboard" stroke="none" stroke-width="1" fill="none" fill-rule="evenodd">
        <g id="Inspections_Alerts_map_Points-of-interest" transform="translate(-24.000000, -467.000000)" fill="#1C9F48">
            <g id="Group" transform="translate(8.000000, 8.000000)">
                <g id="Group-10" transform="translate(16.000000, 459.000000)">
                    <g id="IconsLogoPartner-/-ic_Map_Logo_S">
                        <path d="M19.3713178,19.6250864 C19.3713178,18.8683483 19.0807494,18.2861092 18.4979328,17.8800968 C17.9167959,17.4740843 16.8687339,17.0473393 15.3554264,16.5981341 C13.8421189,16.1472011 12.6445736,15.703179 11.7627907,15.2677954 C9.35762274,14.0722184 8.15503876,12.463718 8.15503876,10.4405667 C8.15503876,9.38838977 8.47751938,8.45024188 9.12248062,7.62612301 C9.76744186,6.80200415 10.6928941,6.15756738 11.9005168,5.69454043 C13.1081395,5.23151348 14.4635659,5 15.9667959,5 C17.4801034,5 18.8271318,5.25051831 20.0112403,5.75501037 C21.1936693,6.25777471 22.1124031,6.96959226 22.7674419,7.8870076 C23.4224806,8.80442294 23.75,9.8479613 23.75,11.015895 L19.3847545,11.015895 C19.3847545,10.1243953 19.0807494,9.43158258 18.4693798,8.93572909 C17.8580103,8.44160332 16.9997416,8.19454043 15.8945736,8.19454043 C14.8263566,8.19454043 13.9983204,8.40186593 13.4071059,8.81651693 C12.8142119,9.23116793 12.5186047,9.77712509 12.5186047,10.4543884 C12.5186047,11.0867312 12.8645995,11.6171389 13.5599483,12.0438839 C14.251938,12.4723566 15.2731266,12.8731859 16.6218346,13.2480995 C19.1042636,13.9340014 20.9131783,14.7857636 22.0485788,15.8016586 C23.1822997,16.8175536 23.75,18.0822391 23.75,19.597443 C23.75,21.2819627 23.0563307,22.6053905 21.6689922,23.5625432 C20.2816537,24.5196959 18.4156331,25 16.0692506,25 C14.4383721,25 12.9552972,24.7252937 11.6166667,24.1776088 C10.2780362,23.629924 9.25852713,22.878369 8.55478036,21.9246717 C7.85103359,20.9709744 7.5,19.8652384 7.5,18.6091914 L11.8786822,18.6091914 C11.8786822,20.7567381 13.2760982,21.8313753 16.0692506,21.8313753 C17.1055556,21.8313753 17.9167959,21.6378715 18.4979328,21.2491361 C19.0807494,20.8621285 19.3713178,20.3196268 19.3713178,19.6250864" id="Fill-1"></path>
                    </g>
                </g>
            </g>
        </g>
    </g>
</svg>