<?xml version="1.0" encoding="UTF-8"?>
<svg width="30px" height="30px" viewBox="0 0 30 30" version="1.1" xmlns="http://www.w3.org/2000/svg" xmlns:xlink="http://www.w3.org/1999/xlink">
    <!-- Generator: sketchtool 61.2 (101010) - https://sketch.com -->
    <title>89672C97-C34A-48E9-9262-10AB2106E128</title>
    <desc>Created with sketchtool.</desc>
    <g id="Dashboard" stroke="none" stroke-width="1" fill="none" fill-rule="evenodd">
        <g id="Inspections_Alerts_map_Points-of-interest" transform="translate(-24.000000, -643.000000)" fill="#45C4DB">
            <g id="Group" transform="translate(8.000000, 8.000000)">
                <g id="Group-14" transform="translate(16.000000, 635.000000)">
                    <g id="IconsLogoPartner-/-ic_Map_Logo_2">
                        <path d="M22.1596462,12.778176 C21.5347684,12.778176 21.0235047,12.2782655 21.0235047,11.6672639 C21.0235047,11.0562623 21.5347684,10.5563519 22.1596462,10.5563519 C22.784524,10.5563519 23.2957877,11.0562623 23.2957877,11.6672639 C23.2957877,12.2782655 22.784524,12.778176 22.1596462,12.778176 M14.155346,14.7186884 C13.5396306,15.3189393 12.7315041,15.6235442 11.9233776,15.6235442 C11.1152512,15.6235442 10.3071247,15.3189393 9.6914093,14.7186884 C9.0756939,14.1166458 8.7678362,13.3031715 8.7678362,12.5309084 C8.7678362,10.7803261 11.9233776,7.45296542 11.9233776,7.45296542 C11.9233776,7.45296542 14.9341527,10.5653109 15.0789191,12.5309084 C15.1357262,13.3013797 14.7710614,14.1166458 14.155346,14.7186884 M24.1717162,9.69987457 L24.1827111,9.68912381 L19.9551652,5.55545601 L18.7512217,6.7326644 L21.1481138,9.0781222 C20.0797742,9.47769217 19.3192924,10.477513 19.3192924,11.6672639 C19.3192924,13.1992474 20.5910379,14.444544 22.1596462,14.444544 C22.5682907,14.444544 22.9439504,14.3549543 23.2957877,14.2116108 L23.2957877,22.2227199 C23.2957877,22.8337216 22.784524,23.333632 22.1596462,23.333632 C21.5347684,23.333632 21.0235047,22.8337216 21.0235047,22.2227199 L21.0235047,17.221824 C21.0235047,15.9998208 20.0009773,15 18.7512217,15 L17.6150801,15 L17.6150801,7.22182405 C17.6150801,5.99982082 16.5907203,5 15.3409646,5 L8.52411552,5 C7.27252737,5 6.25,5.99982082 6.25,7.22182405 L6.25,25 L17.6150801,25 L17.6150801,16.666368 L19.3192924,16.666368 L19.3192924,22.2227199 C19.3192924,23.7547035 20.5910379,25 22.1596462,25 C23.726422,25 25,23.7547035 25,22.2227199 L25,11.6672639 C25,10.9003763 24.6811474,10.199785 24.1717162,9.69987457" id="Fill-1"></path>
                    </g>
                </g>
            </g>
        </g>
    </g>
</svg>