<?xml version="1.0" encoding="UTF-8"?>
<svg width="30px" height="30px" viewBox="0 0 30 30" version="1.1" xmlns="http://www.w3.org/2000/svg" xmlns:xlink="http://www.w3.org/1999/xlink">
    <!-- Generator: sketchtool 61.2 (101010) - https://sketch.com -->
    <title>422D061A-4654-48EC-9A6A-BB5C2AADCC3D</title>
    <desc>Created with sketchtool.</desc>
    <g id="Dashboard" stroke="none" stroke-width="1" fill="none" fill-rule="evenodd">
        <g id="Inspections_Alerts_map_Points-of-interest" transform="translate(-24.000000, -511.000000)" fill="#213F7D">
            <g id="Group" transform="translate(8.000000, 8.000000)">
                <g id="Group-11" transform="translate(16.000000, 503.000000)">
                    <g id="IconsLogoPartner-/-ic_Map_Logo_P">
                        <path d="M11.8729292,14.6156918 L15.7781114,14.6156918 C16.9340184,14.6156918 17.8156709,14.358303 18.423069,13.8470755 C19.030467,13.334073 19.3350072,12.6009586 19.3350072,11.6495074 C19.3350072,10.6696547 19.0271019,9.87796219 18.4163388,9.27265466 C17.8038931,8.66734712 16.957574,8.35670542 15.8807465,8.33895447 L11.8729292,8.33895447 L11.8729292,14.6156918 Z M11.8729292,17.9528712 L11.8729292,25 L7.5,25 L7.5,5 L15.7781114,5 C17.3714796,5 18.7730379,5.27513979 19.9827863,5.82541937 C21.1925347,6.37392385 22.1229809,7.15496583 22.7741251,8.16677021 C23.4235867,9.1785746 23.75,10.3306115 23.75,11.6211059 C23.75,13.5808112 23.0382843,15.1269193 21.614853,16.2576551 C20.1914216,17.3883909 18.2211638,17.9528712 15.7057621,17.9528712 L11.8729292,17.9528712 Z" id="Fill-1"></path>
                    </g>
                </g>
            </g>
        </g>
    </g>
</svg>