<?xml version="1.0" encoding="UTF-8"?>
<svg width="30px" height="30px" viewBox="0 0 30 30" version="1.1" xmlns="http://www.w3.org/2000/svg" xmlns:xlink="http://www.w3.org/1999/xlink">
    <!-- Generator: sketchtool 61.2 (101010) - https://sketch.com -->
    <title>3061D129-571F-45D6-989C-AF8DBC8EEFCC</title>
    <desc>Created with sketchtool.</desc>
    <g id="Dashboard" stroke="none" stroke-width="1" fill="none" fill-rule="evenodd">
        <g id="Inspections_Alerts_map_Points-of-interest" transform="translate(-24.000000, -775.000000)">
            <g id="Group" transform="translate(8.000000, 8.000000)">
                <g id="Group-17" transform="translate(16.000000, 767.000000)">
                    <g id="IconsLogoPartner-/-ic_Map_Logo_7">
                        <path d="M15,22.1142763 C11.8256492,22.1142763 9.12957075,20.0235177 8.21807101,17.1470686 L21.781929,17.1470686 C20.8691044,20.0235177 18.1743508,22.1142763 15,22.1142763 M15,7.88572375 C18.1743508,7.88572375 20.8691044,9.97515734 21.781929,12.8516065 L8.21807101,12.8516065 C9.12957075,9.97515734 11.8256492,7.88572375 15,7.88572375 M15,5 C9.48595654,5 5,9.48492878 5,14.9993375 C5,20.5137463 9.48595654,25 15,25 C20.5140435,25 25,20.5137463 25,14.9993375 C25,9.48492878 20.5140435,5 15,5" id="Fill-1" fill="#3160A8"></path>
                        <path d="M15.97,13.84625 L15.97,13.84625 L18.14375,13.84625 L18.14375,14.13375 L17.60125,14.13375 L18.3675,15.445 L19.03875,14.13375 L18.655,14.13375 L18.655,13.84625 L20.15875,13.84625 L20.15875,14.13375 L19.64625,14.13375 L18.655,15.98875 L17.4725,15.98875 L16.48125,14.13375 L15.97,14.13375 L15.97,13.84625 Z M13.47625,13.84625 L13.47625,14.13375 L13.9875,14.13375 L13.9875,15.6375 L13.47625,15.6375 L13.47625,15.98875 L13.9875,15.98875 L16.51375,15.98875 L16.51375,14.9975 L16.19375,14.9975 C16.16125,15.50875 15.71375,15.6375 15.5225,15.6375 L14.97875,15.6375 L14.97875,14.13375 L15.49,14.13375 L15.49,13.84625 L13.47625,13.84625 Z M11.78,15.7 L11.78,15.7 C12.06875,15.7 12.325,15.34875 12.325,14.90125 C12.325,14.45375 12.06875,14.1025 11.78,14.1025 C11.46125,14.1025 11.2375,14.45375 11.2375,14.90125 C11.2375,15.34875 11.46125,15.7 11.78,15.7 L11.78,15.7 Z M11.78,13.7825 L11.78,13.7825 C12.645,13.7825 13.3475,14.29375 13.3475,14.90125 C13.3475,15.54125 12.645,16.0525 11.78,16.0525 C10.94875,16.0525 10.24625,15.54125 10.24625,14.90125 C10.24625,14.29375 10.94875,13.7825 11.78,13.7825 L11.78,13.7825 Z M21.50125,15.7 C21.18125,15.7 20.9575,15.34875 20.9575,14.90125 C20.9575,14.42125 21.18125,14.07 21.50125,14.07 C21.78875,14.07 22.04375,14.42125 22.04375,14.90125 C22.04375,15.34875 21.78875,15.7 21.50125,15.7 L21.50125,15.7 Z M21.50125,13.75 C20.67,13.75 19.96625,14.2625 19.96625,14.90125 C19.96625,15.54125 20.67,16.0525 21.50125,16.0525 C22.36375,16.0525 23.06875,15.54125 23.06875,14.90125 C23.06875,14.2625 22.36375,13.75 21.50125,13.75 L21.50125,13.75 Z M6.25,13.84625 L6.25,14.13375 L6.76125,14.13375 L7.7525,15.98875 L8.935,15.98875 L9.92625,14.13375 L10.4375,14.13375 L10.4375,13.84625 L8.935,13.84625 L8.935,14.13375 L9.35125,14.13375 L8.64875,15.445 L7.88,14.13375 L8.42375,14.13375 L8.42375,13.84625 L6.25,13.84625 Z" id="Fill-4" fill="#FFFFFF"></path>
                    </g>
                </g>
            </g>
        </g>
    </g>
</svg>