<?xml version="1.0" encoding="UTF-8"?>
<svg width="30px" height="30px" viewBox="0 0 30 30" version="1.1" xmlns="http://www.w3.org/2000/svg" xmlns:xlink="http://www.w3.org/1999/xlink">
    <!-- Generator: sketchtool 61.2 (101010) - https://sketch.com -->
    <title>1BAEE20A-170F-4AAF-86A4-09DFD079FF15</title>
    <desc>Created with sketchtool.</desc>
    <g id="Dashboard" stroke="none" stroke-width="1" fill="none" fill-rule="evenodd">
        <g id="Inspections_Alerts_map_Points-of-interest" transform="translate(-24.000000, -203.000000)">
            <g id="Group" transform="translate(8.000000, 8.000000)">
                <g id="Group-4" transform="translate(16.000000, 195.000000)">
                    <g id="IconsLogoPartner-/-ic_Map_Logo_5">
                        <g id="Group-42" transform="translate(0.000000, 8.750000)">
                            <polygon id="Fill-1" fill="#47B86F" points="0 8.75 30 8.75 30 0 0 0"></polygon>
                            <polygon id="Fill-2" fill="#E43E3D" points="0 12.5 30 12.5 30 8.75 0 8.75"></polygon>
                            <g id="Group-41" transform="translate(1.250000, 1.250000)" fill="#FEFEFE">
                                <path d="M4.18008333,2.76975 C4.03675,2.90635714 3.81591667,2.977875 3.53175,2.9835 L2.96841667,2.97948214 L3.17258333,2.03689286 L3.94841667,2.03930357 C4.07175,2.04573214 4.16758333,2.07385714 4.23508333,2.12448214 C4.29341667,2.16707143 4.32591667,2.22332143 4.33841667,2.29805357 C4.36675,2.49010714 4.31675,2.63957143 4.18008333,2.76975 M5.60425,1.21403571 C5.18758333,0.891 4.61841667,0.727071429 3.91175,0.727071429 L1.60591667,0.723053571 L0.490083333,5.90448214 L2.33591667,5.90448214 L2.68508333,4.29091071 L3.47675,4.29332143 C3.95258333,4.29332143 4.38925,4.226625 4.77508333,4.09564286 C5.17258333,3.95983929 5.49925,3.75975 5.74508333,3.49939286 C5.99925,3.231 6.14675,2.90957143 6.18425,2.54314286 C6.23758333,2.00153571 6.04258333,1.55475 5.60425,1.21403571" id="Fill-3"></path>
                                <polygon id="Fill-5" points="16.3305833 0.723133929 11.3180833 0.723133929 11.2430833 0.723133929 6.89475 0.723133929 5.77808333 5.9045625 10.1939167 5.9045625 10.4789167 4.59152679 7.90975 4.59152679 8.06308333 3.88920536 10.23475 3.88920536 10.5105833 2.6083125 8.33641667 2.6083125 8.46058333 2.03938393 10.95225 2.03938393 11.03475 2.03938393 12.6455833 2.03938393 11.80975 5.9045625 13.6605833 5.9045625 14.49225 2.03938393 16.0464167 2.03938393"></polygon>
                                <path d="M19.2883333,2.55744643 C19.2383333,2.66592857 19.155,2.75030357 19.0333333,2.81458929 C18.9041667,2.88289286 18.7458333,2.91825 18.565,2.91825 L18.0275,2.91423214 L18.2183333,2.03753571 L18.9683333,2.03914286 C19.29,2.052 19.3208333,2.187 19.3341667,2.248875 C19.355,2.34610714 19.34,2.44735714 19.2883333,2.55744643 M20.5966667,1.14396429 C20.1975,0.866732143 19.6341667,0.726910714 18.9216667,0.726910714 L16.6525,0.722892857 L15.5358333,5.905125 L17.3825,5.905125 L17.7475,4.22485714 L18.1808333,4.22485714 L18.83,5.905125 L20.6916667,5.905125 L20.6916667,5.59092857 L19.965,3.85441071 C20.2866667,3.72182143 20.5475,3.55146429 20.7458333,3.34575 C20.9958333,3.08619643 21.14,2.75592857 21.1733333,2.36539286 C21.2191667,1.85191071 21.0241667,1.44048214 20.5966667,1.14396429" id="Fill-7"></path>
                                <path d="M24.2838333,1.98305357 C24.3013333,1.98305357 24.3196667,1.98305357 24.3371667,1.98385714 C24.6063333,1.99591071 24.8838333,2.08108929 24.9113333,2.62591071 C24.9263333,2.93126786 24.8838333,3.27117857 24.7846667,3.636 C24.6905,3.97992857 24.5405,4.24269643 24.3363333,4.41546429 C24.1421667,4.58180357 23.918,4.65894643 23.6405,4.64689286 C23.3688333,4.63885714 23.088,4.55608929 23.0613333,3.99519643 C23.0496667,3.84171429 23.068,3.61430357 23.1163333,3.31778571 C23.1905,2.85733929 23.3388333,2.50858929 23.558,2.28278571 C23.7521667,2.08108929 23.9905,1.98305357 24.2838333,1.98305357 M26.7505,2.60742857 C26.718,2.23216071 26.5988333,1.89064286 26.398,1.594125 C26.1955,1.29519643 25.9221667,1.06216071 25.5855,0.903053571 C25.2538333,0.747160714 24.8663333,0.665196429 24.433,0.657964286 C23.723,0.649125 23.1046667,0.821892857 22.5646667,1.17867857 C22.2421667,1.391625 21.9688333,1.66242857 21.7521667,1.98305357 C21.538,2.30126786 21.3871667,2.65483929 21.3038333,3.03251786 C21.2196667,3.40617857 21.193,3.73805357 21.2221667,4.01769643 C21.2763333,4.60108929 21.513,5.07519643 21.9263333,5.42635714 C22.3355,5.77510714 22.8813333,5.95832143 23.548,5.96957143 C23.5696667,5.970375 23.5905,5.970375 23.6113333,5.970375 C24.0313333,5.970375 24.4171667,5.90528571 24.7588333,5.77751786 C25.1171667,5.644125 25.4338333,5.45930357 25.6988333,5.22948214 C25.9638333,5.00126786 26.1813333,4.732875 26.3496667,4.43233929 C26.5155,4.13421429 26.6305,3.81680357 26.693,3.48814286 C26.7546667,3.16269643 26.7738333,2.86617857 26.7505,2.60742857" id="Fill-9"></path>
                                <path d="M5.43375,9.59769643 C5.45125,9.47394643 5.38458333,9.38314286 5.23375,9.32608929 L5.02541667,9.25296429 L4.95541667,9.22403571 C4.72125,9.12117857 4.61125,8.97573214 4.62625,8.78930357 C4.63458333,8.69528571 4.66791667,8.61251786 4.72625,8.541 C4.78541667,8.46867857 4.86208333,8.41323214 4.95958333,8.37385714 C5.05625,8.33528571 5.15875,8.31680357 5.26875,8.31921429 C5.37458333,8.321625 5.46875,8.344125 5.55208333,8.38751786 C5.63541667,8.43091071 5.69875,8.49117857 5.74208333,8.569125 C5.78541667,8.64707143 5.80458333,8.73466071 5.79958333,8.83189286 L5.57208333,8.83108929 C5.58041667,8.72742857 5.55625,8.64626786 5.49958333,8.58921429 C5.44375,8.53216071 5.36375,8.50323214 5.25875,8.50082143 C5.14875,8.49921429 5.05708333,8.52492857 4.98291667,8.57555357 C4.90958333,8.62698214 4.86625,8.69689286 4.85541667,8.78528571 C4.83958333,8.901 4.91291667,8.98858929 5.07541667,9.04805357 L5.25541667,9.10992857 L5.34541667,9.14689286 C5.57208333,9.24733929 5.67708333,9.39680357 5.65958333,9.59528571 C5.65125,9.69091071 5.61791667,9.772875 5.55958333,9.84198214 C5.50208333,9.91189286 5.42375,9.96573214 5.32458333,10.0026964 C5.22541667,10.0412679 5.11875,10.0589464 5.00458333,10.0565357 C4.89458333,10.0557321 4.79375,10.0332321 4.70291667,9.98823214 C4.61208333,9.94403571 4.54291667,9.88296429 4.49541667,9.80582143 C4.44791667,9.72867857 4.42708333,9.64028571 4.43208333,9.54225 L4.65875,9.54305357 C4.65208333,9.64430357 4.68041667,9.72385714 4.74375,9.78332143 C4.80791667,9.84198214 4.89791667,9.87251786 5.01458333,9.874125 C5.13041667,9.87573214 5.22625,9.851625 5.30208333,9.801 C5.37791667,9.750375 5.42125,9.682875 5.43375,9.59769643" id="Fill-11"></path>
                                <path d="M6.42291667,8.47205357 L6.36708333,8.77660714 L6.60458333,8.77660714 L6.57458333,8.94214286 L6.33791667,8.94214286 L6.20208333,9.72482143 C6.19958333,9.74410714 6.19958333,9.76339286 6.20125,9.78026786 C6.20625,9.84053571 6.24041667,9.87107143 6.30291667,9.87107143 C6.32958333,9.87107143 6.36541667,9.86705357 6.40958333,9.85901786 L6.39208333,10.0341964 C6.34041667,10.0486607 6.28708333,10.0558929 6.23375,10.0558929 C6.14625,10.0542857 6.08208333,10.0229464 6.03875,9.96267857 C5.99458333,9.90321429 5.97791667,9.82285714 5.98791667,9.72080357 L6.12041667,8.94214286 L5.89041667,8.94214286 L5.92041667,8.77660714 L6.15041667,8.77660714 L6.20625,8.47205357 L6.42291667,8.47205357 Z" id="Fill-13"></path>
                                <path d="M6.92569746,9.42701786 C6.91912377,9.47603571 6.91912377,9.52666071 6.92569746,9.57889286 C6.93414934,9.6705 6.96607867,9.743625 7.02148546,9.79746429 C7.07595314,9.85210714 7.14920279,9.88023214 7.2402953,9.88264286 C7.32199683,9.88425 7.39712467,9.867375 7.46567883,9.83041071 C7.53423298,9.79425 7.59245706,9.738 7.63941196,9.66407143 C7.68730596,9.59014286 7.716418,9.507375 7.73050447,9.41657143 C7.73801726,9.34505357 7.73895635,9.28558929 7.73426086,9.23657143 C7.72393079,9.14255357 7.69012326,9.068625 7.63565557,9.01478571 C7.58024879,8.96014286 7.50699914,8.93201786 7.41590663,8.92880357 C7.2891284,8.92639286 7.18113212,8.96898214 7.09191781,9.05657143 C7.00364259,9.14416071 6.94917491,9.25907143 6.92757565,9.4005 L6.92569746,9.42701786 Z M7.42529761,8.753625 C7.54831945,8.75523214 7.65349843,8.78335714 7.74177365,8.83960714 C7.82910976,8.89505357 7.89390753,8.97219643 7.93616694,9.07023214 C7.97842635,9.16746429 7.99251282,9.27514286 7.97936545,9.39085714 L7.97654816,9.41657143 C7.95870529,9.53871429 7.91644588,9.64960714 7.84883082,9.74844643 C7.78121577,9.84648214 7.69294055,9.923625 7.58494428,9.97907143 C7.4778871,10.0337143 7.35956075,10.0594286 7.23090432,10.0570179 C7.10882157,10.0554107 7.00364259,10.0264821 6.91536738,9.97103571 C6.82709216,9.91478571 6.7622944,9.83925 6.72191318,9.74282143 C6.68153197,9.64719643 6.6665064,9.541125 6.67871467,9.42621429 C6.69186205,9.29523214 6.73318236,9.17871429 6.80173652,9.07505357 C6.87029067,8.97139286 6.95950499,8.89103571 7.06750126,8.83398214 C7.17549753,8.77692857 7.29476298,8.75041071 7.42529761,8.753625 L7.42529761,8.753625 Z" id="Fill-15"></path>
                                <path d="M8.9858529,9.387 L8.99183171,9.28976786 C8.99183171,9.17646429 8.96877057,9.08967857 8.92350241,9.03021429 C8.87823425,8.96994643 8.81161319,8.93860714 8.72534745,8.93539286 C8.59552179,8.93298214 8.48448668,8.99003571 8.39053389,9.10816071 L8.27779055,9.71083929 C8.32818341,9.82253571 8.41871973,9.87958929 8.54854539,9.88280357 C8.6595805,9.88441071 8.7543874,9.84423214 8.83211198,9.75985714 C8.90983655,9.67628571 8.96108353,9.55173214 8.9858529,9.387 L8.9858529,9.387 Z M9.20536076,9.41110714 C9.18913256,9.53807143 9.15240556,9.65378571 9.09517977,9.75583929 C9.0388081,9.85789286 8.96791646,9.93423214 8.88421307,9.98566071 C8.80050968,10.0362857 8.70741101,10.0603929 8.60577118,10.0579821 C8.45117615,10.0547679 8.33245399,10.00575 8.24960472,9.910125 L8.13002845,10.5168214 L7.90625,10.5168214 L8.2273977,8.77628571 L8.42982324,8.77548214 L8.40505387,8.91610714 C8.51608898,8.80441071 8.64762288,8.75057143 8.80221791,8.75298214 C8.93033534,8.75619643 9.03026694,8.80119643 9.1020127,8.886375 C9.17375846,8.97235714 9.21133958,9.09128571 9.21561016,9.24235714 C9.21646428,9.29217857 9.21390193,9.33958929 9.20963135,9.38619643 L9.20536076,9.41110714 Z" id="Fill-17"></path>
                                <path d="M10.3411877,9.387 L10.3471665,9.28976786 C10.3471665,9.17646429 10.3241054,9.08967857 10.2788371,9.03021429 C10.2327148,8.96994643 10.1669478,8.93860714 10.0806819,8.93539286 C9.95085606,8.93298214 9.8398208,8.99003571 9.74586789,9.10816071 L9.6331244,9.71083929 C9.68351732,9.82253571 9.77405377,9.87958929 9.90387961,9.88280357 C10.0149149,9.88441071 10.1097219,9.84423214 10.1874466,9.75985714 C10.2651713,9.67628571 10.3164183,9.55173214 10.3411877,9.387 L10.3411877,9.387 Z M10.5606959,9.41110714 C10.5444676,9.53807143 10.5077406,9.65378571 10.4505147,9.75583929 C10.394143,9.85789286 10.3232512,9.93423214 10.2395477,9.98566071 C10.1558442,10.0362857 10.0627454,10.0603929 9.96110547,10.0579821 C9.80651023,10.0547679 9.68693379,10.00575 9.60493852,9.910125 L9.48536209,10.5168214 L9.26158333,10.5168214 L9.58273147,8.77628571 L9.78515729,8.77548214 L9.76038789,8.91610714 C9.87142315,8.80441071 10.0029572,8.75057143 10.1566984,8.75298214 C10.2856701,8.75619643 10.3856018,8.80119643 10.4573477,8.886375 C10.5290935,8.97235714 10.5666747,9.09128571 10.5709453,9.24235714 C10.5717994,9.29217857 10.5692371,9.33958929 10.5641123,9.38619643 L10.5606959,9.41110714 Z" id="Fill-19"></path>
                                <path d="M11.4054484,8.31784821 C11.468555,8.31624107 11.5230561,8.3266875 11.5646491,8.34999107 C11.6062421,8.37249107 11.6277557,8.40222321 11.6277557,8.43999107 C11.6263214,8.47615179 11.6048078,8.50588393 11.5646491,8.5291875 C11.5244904,8.55249107 11.4699892,8.56454464 11.4054484,8.56615179 C11.3409076,8.56775893 11.2864065,8.5573125 11.2462477,8.5348125 C11.2046548,8.5123125 11.1845754,8.48338393 11.1860096,8.44641964 C11.1874439,8.41025893 11.2075232,8.38052679 11.247682,8.35561607 C11.2878407,8.3323125 11.3409076,8.31945536 11.4054484,8.31784821 L11.4054484,8.31784821 Z M11.0970867,10.0334732 L10.72275,10.0334732 L11.1128634,8.7766875 L11.4872001,8.7766875 L11.0970867,10.0334732 Z" id="Fill-21"></path>
                                <path d="M11.7289167,8.77532143 L11.6980833,8.93442857 C11.81475,8.81067857 11.9480833,8.75041071 12.09725,8.753625 C12.2205833,8.75683929 12.3114167,8.79701786 12.36975,8.87657143 C12.4289167,8.95532143 12.4505833,9.06621429 12.43475,9.21005357 L12.2930833,10.0329107 L12.07475,10.0329107 L12.2180833,9.20764286 C12.2230833,9.16907143 12.2230833,9.13371429 12.21975,9.10157143 C12.2055833,8.99308929 12.13975,8.93844643 12.0205833,8.93603571 C11.88975,8.933625 11.77475,9.00032143 11.6764167,9.13773214 L11.51475,10.0329107 L11.2964167,10.0329107 L11.5230833,8.776125 L11.7289167,8.77532143 Z" id="Fill-23"></path>
                                <path d="M12.9111426,9.52159821 C12.909433,9.63249107 12.929093,9.71766964 12.9726868,9.77874107 C13.0154258,9.8398125 13.0812439,9.87115179 13.1684315,9.87436607 C13.3017773,9.87758036 13.4163179,9.81570536 13.5129081,9.68954464 L13.6180461,9.11338393 C13.5684688,8.99847321 13.4795716,8.93900893 13.349645,8.93499107 C13.2291209,8.93177679 13.1291116,8.97758036 13.0521814,9.07320536 C12.9735416,9.16963393 12.9282382,9.29900893 12.9137069,9.46213393 L12.9111426,9.52159821 Z M12.6948831,9.40266964 C12.7153978,9.2660625 12.753863,9.14633036 12.8128428,9.04508036 C12.8718227,8.94463393 12.9436242,8.86990179 13.0282475,8.82088393 C13.112016,8.77266964 13.2051871,8.75016964 13.3051964,8.75177679 C13.4607665,8.75499107 13.5770166,8.8104375 13.6565112,8.9173125 L13.7009598,8.7766875 L13.9061071,8.7766875 L13.6838642,10.0069554 C13.6599303,10.1668661 13.5906931,10.2954375 13.4761525,10.3918661 C13.3616119,10.4882946 13.2205731,10.5340982 13.0521814,10.5292768 C12.9615746,10.5276696 12.8752418,10.5075804 12.7923281,10.4690089 C12.7094144,10.4304375 12.644451,10.3774018 12.5965833,10.3099018 L12.7230909,10.1805268 C12.804295,10.2930268 12.9111426,10.3508839 13.0436336,10.3540982 C13.1496264,10.3573125 13.2402331,10.3291875 13.3137442,10.2705268 C13.3872553,10.2110625 13.4359778,10.1274911 13.4599117,10.0198125 L13.4847003,9.90811607 C13.3752884,10.0101696 13.2487809,10.0591875 13.1026134,10.0567768 C13.0196997,10.0543661 12.9470434,10.0334732 12.8863539,9.99329464 C12.8248097,9.95391964 12.776942,9.89525893 12.7436056,9.82052679 C12.7094144,9.74499107 12.691464,9.66061607 12.6880449,9.56740179 C12.6863353,9.52159821 12.6888996,9.46695536 12.6948831,9.40266964 L12.6948831,9.40266964 Z" id="Fill-25"></path>
                                <path d="M15.9599167,9.49451786 C15.92575,9.66969643 15.8440833,9.80791071 15.71325,9.91076786 C15.5824167,10.0128214 15.4265833,10.0610357 15.2440833,10.0570179 C15.13575,10.0546071 15.04075,10.0288929 14.9599167,9.979875 C14.8790833,9.93005357 14.81575,9.85933929 14.77075,9.76692857 C14.72575,9.67451786 14.70075,9.57166071 14.69575,9.45996429 C14.6924167,9.39567857 14.69575,9.33380357 14.7040833,9.27353571 L14.7249167,9.13451786 C14.7624167,8.88058929 14.8549167,8.67969643 15.00325,8.53344643 C15.1499167,8.38639286 15.3290833,8.314875 15.54075,8.31889286 C15.7049167,8.32210714 15.83575,8.37273214 15.9315833,8.47317857 C16.02825,8.57282143 16.0799167,8.71023214 16.0849167,8.88701786 L15.8599167,8.88701786 C15.8490833,8.64996429 15.7524167,8.52219643 15.57075,8.50371429 L15.53075,8.50130357 C15.3790833,8.49728571 15.2524167,8.55192857 15.15075,8.66442857 C15.0490833,8.77692857 14.9840833,8.93121429 14.9540833,9.12648214 L14.9274167,9.30166071 L14.9199167,9.40371429 C14.91575,9.54594643 14.9415833,9.66005357 14.9990833,9.743625 C15.0565833,9.828 15.1415833,9.87139286 15.2549167,9.87460714 C15.3765833,9.878625 15.47825,9.84969643 15.55825,9.78942857 C15.63825,9.72916071 15.6990833,9.63192857 15.7399167,9.49773214 L15.9599167,9.49451786 Z" id="Fill-27"></path>
                                <path d="M16.9887368,8.92872321 C16.8806784,8.9263125 16.7866276,8.95604464 16.7065843,9.01711607 C16.6255405,9.0781875 16.5615059,9.16899107 16.5144805,9.29033036 L17.2758919,9.29113393 L17.2808946,9.27265179 C17.2969033,9.17541964 17.2768924,9.09425893 17.2218627,9.02916964 C17.1678335,8.96408036 17.0907919,8.93113393 16.9887368,8.92872321 M16.822647,10.0569375 C16.6275416,10.0537232 16.4754595,9.99586607 16.3654,9.88336607 C16.2553405,9.77086607 16.2093157,9.62783036 16.2263249,9.45265179 L16.2343292,9.40283036 C16.2503378,9.27827679 16.2963627,9.16416964 16.3724038,9.0613125 C16.4474443,8.95845536 16.5394941,8.88050893 16.648553,8.82827679 C16.7586124,8.77604464 16.8756757,8.75113393 17.0017438,8.75354464 C17.1628308,8.75675893 17.2888989,8.79934821 17.3809487,8.88211607 C17.4719979,8.96488393 17.5220249,9.07738393 17.5310298,9.2188125 C17.5340314,9.2694375 17.5320303,9.3200625 17.526027,9.36988393 L17.5100184,9.4663125 L16.4874659,9.4663125 C16.4694562,9.58041964 16.4924687,9.67765179 16.5565032,9.75720536 C16.6215384,9.83675893 16.7175903,9.87854464 16.8436584,9.88175893 C16.9987422,9.88416964 17.1408189,9.82872321 17.2728903,9.7138125 L17.4229714,9.81586607 C17.3569357,9.89220536 17.2728903,9.95166964 17.1688341,9.99425893 C17.0657784,10.0376518 16.9497157,10.0585446 16.822647,10.0569375" id="Fill-29"></path>
                                <path d="M17.87025,8.77532143 L17.8385833,8.93442857 C17.9560833,8.81067857 18.0894167,8.75041071 18.2385833,8.753625 C18.3619167,8.75683929 18.4519167,8.79701786 18.5110833,8.87657143 C18.5694167,8.95532143 18.5910833,9.06621429 18.5760833,9.21005357 L18.4335833,10.0329107 L18.2160833,10.0329107 L18.3594167,9.20764286 C18.3644167,9.16907143 18.3644167,9.13371429 18.36025,9.10157143 C18.3469167,8.99308929 18.28025,8.93844643 18.1619167,8.93603571 C18.03025,8.933625 17.9160833,9.00032143 17.8169167,9.13773214 L17.6560833,10.0329107 L17.43775,10.0329107 L17.6635833,8.776125 L17.87025,8.77532143 Z" id="Fill-31"></path>
                                <path d="M19.3460833,8.47205357 L19.29025,8.77660714 L19.52775,8.77660714 L19.49775,8.94214286 L19.2610833,8.94214286 L19.12525,9.72482143 C19.12275,9.74410714 19.12275,9.76339286 19.1244167,9.78026786 C19.13025,9.84053571 19.1644167,9.87107143 19.2269167,9.87107143 C19.2535833,9.87107143 19.2885833,9.86705357 19.33275,9.85901786 L19.3160833,10.0341964 C19.2635833,10.0486607 19.2110833,10.0558929 19.1569167,10.0558929 C19.07025,10.0542857 19.00525,10.0229464 18.9619167,9.96267857 C18.9185833,9.90321429 18.9010833,9.82285714 18.9110833,9.72080357 L19.0435833,8.94214286 L18.8135833,8.94214286 L18.8435833,8.77660714 L19.0735833,8.77660714 L19.1294167,8.47205357 L19.3460833,8.47205357 Z" id="Fill-33"></path>
                                <path d="M20.3940701,8.92872321 C20.2870123,8.9263125 20.1919609,8.95604464 20.1119177,9.01711607 C20.0318744,9.0781875 19.9668393,9.16899107 19.9198139,9.29033036 L20.6802247,9.29113393 L20.6862279,9.27265179 C20.7022366,9.17541964 20.6822258,9.09425893 20.6271961,9.02916964 C20.5741674,8.96408036 20.4961252,8.93113393 20.3940701,8.92872321 M20.2279804,10.0569375 C20.0338755,10.0537232 19.8807928,9.99586607 19.7707333,9.88336607 C19.6606739,9.77086607 19.614649,9.62783036 19.6316582,9.45265179 L19.6396625,9.40283036 C19.6556712,9.27827679 19.701696,9.16416964 19.7777371,9.0613125 C19.8527777,8.95845536 19.9458279,8.88050893 20.0538863,8.82827679 C20.1639458,8.77604464 20.281009,8.75113393 20.4070771,8.75354464 C20.5681642,8.75675893 20.6952328,8.79934821 20.7872825,8.88211607 C20.8773312,8.96488393 20.9273582,9.07738393 20.9363631,9.2188125 C20.9393647,9.2694375 20.9373636,9.3200625 20.9313604,9.36988393 L20.9153517,9.4663125 L19.8927993,9.4663125 C19.8747896,9.58041964 19.897802,9.67765179 19.9628371,9.75720536 C20.0268717,9.83675893 20.1229236,9.87854464 20.2489917,9.88175893 C20.4040755,9.88416964 20.5461523,9.82872321 20.6772231,9.7138125 L20.8283047,9.81586607 C20.762269,9.89220536 20.6782236,9.95166964 20.5751679,9.99425893 C20.4711117,10.0376518 20.355049,10.0585446 20.2279804,10.0569375" id="Fill-35"></path>
                                <path d="M21.6536667,8.96833929 L21.552,8.95789286 C21.412,8.95789286 21.302,9.01816071 21.2211667,9.14030357 L21.0611667,10.0330714 L20.8428333,10.0330714 L21.0695,8.77628571 L21.2811667,8.77548214 L21.2486667,8.92173214 C21.3403333,8.80441071 21.4495,8.74816071 21.5745,8.75057143 C21.6011667,8.75057143 21.6361667,8.757 21.6778333,8.76825 L21.6536667,8.96833929 Z" id="Fill-37"></path>
                                <path d="M22.4723333,9.69308036 C22.484,9.60629464 22.4348333,9.54522321 22.324,9.5090625 L22.0973333,9.44558036 C21.9056667,9.38209821 21.814,9.27683036 21.8206667,9.12977679 C21.8265,9.01888393 21.8781667,8.92808036 21.9773333,8.85736607 C22.0765,8.78665179 22.1931667,8.75209821 22.3273333,8.75370536 C22.459,8.7553125 22.5656667,8.79147321 22.6481667,8.86459821 C22.7315,8.93691964 22.7698333,9.0309375 22.7673333,9.14745536 L22.5506667,9.14584821 C22.5523333,9.08316964 22.5315,9.03174107 22.489,8.99236607 C22.4465,8.95299107 22.3898333,8.93290179 22.319,8.93129464 C22.244,8.9296875 22.1781667,8.94736607 22.124,8.98433036 C22.0731667,9.0196875 22.044,9.0646875 22.0365,9.12174107 C22.0256667,9.1940625 22.0723333,9.24709821 22.1748333,9.28084821 L22.284,9.30977679 C22.4331667,9.34674107 22.5398333,9.39495536 22.6023333,9.45522321 C22.6648333,9.5146875 22.694,9.58861607 22.689,9.67700893 C22.684,9.75495536 22.6573333,9.82325893 22.609,9.88111607 C22.5606667,9.93977679 22.4965,9.98397321 22.4165,10.0137054 C22.3365,10.0442411 22.2506667,10.0595089 22.1598333,10.0570982 C22.0215,10.0554911 21.9073333,10.0161161 21.8181667,9.93977679 C21.7273333,9.8634375 21.6848333,9.76540179 21.6881667,9.64566964 L21.9056667,9.64647321 C21.9056667,9.7171875 21.9298333,9.7734375 21.9756667,9.81602679 C22.0223333,9.85861607 22.0865,9.8803125 22.1673333,9.8803125 C22.2465,9.88191964 22.3156667,9.86584821 22.3731667,9.83209821 C22.4306667,9.79834821 22.464,9.75174107 22.4723333,9.69308036" id="Fill-39"></path>
                            </g>
                        </g>
                    </g>
                </g>
            </g>
        </g>
    </g>
</svg>