<?xml version="1.0" encoding="UTF-8"?>
<svg width="30px" height="30px" viewBox="0 0 30 30" version="1.1" xmlns="http://www.w3.org/2000/svg" xmlns:xlink="http://www.w3.org/1999/xlink">
    <!-- Generator: sketchtool 61.2 (101010) - https://sketch.com -->
    <title>AD0D4813-2E2B-4DA1-8A34-35C4943C02B2</title>
    <desc>Created with sketchtool.</desc>
    <g id="Dashboard" stroke="none" stroke-width="1" fill="none" fill-rule="evenodd">
        <g id="Inspections_Alerts_map_Points-of-interest" transform="translate(-24.000000, -687.000000)">
            <g id="Group" transform="translate(8.000000, 8.000000)">
                <g id="Group-15" transform="translate(16.000000, 679.000000)">
                    <g id="IconsLogoPartner-/-ic_Map_Logo_S2">
                        <g id="Group" transform="translate(3.750000, 3.750000)">
                            <path d="M22.5,11.2507474 C22.5,17.4642928 17.4627981,22.5 11.2507474,22.5 C5.03720189,22.5 0,17.4642928 0,11.2507474 C0,5.03720189 5.03720189,0 11.2507474,0 C17.4627981,0 22.5,5.03720189 22.5,11.2507474" id="Fill-1" fill="#14487D"></path>
                            <path d="M13.1927924,14.669362 C13.1927924,14.1542977 13.0341971,13.7538768 12.7184225,13.4664377 C12.4012319,13.1789987 11.8447324,12.8815906 11.0489238,12.5742136 C10.2531153,12.2668365 9.60315775,11.9694284 9.09763523,11.6819894 C7.45504106,10.7532122 6.63374398,9.4755206 6.63374398,7.85057599 C6.63374398,7.04308817 6.83765222,6.32864422 7.24688474,5.71056712 C7.65753328,5.09249003 8.23668932,4.61065574 8.98435287,4.26672574 C9.73484848,3.92279575 10.57597,3.75 11.5119654,3.75 C12.4238884,3.75 13.2395214,3.93774922 13.9631124,4.31324767 C14.6867035,4.68708463 15.2488672,5.22042534 15.6481875,5.91160833 C16.0489238,6.60445281 16.25,7.39366416 16.25,8.28256535 L13.2012886,8.28256535 C13.2012886,7.68774922 13.0426933,7.2275144 12.7255027,6.89853788 C12.4097281,6.57122286 11.9820872,6.4083961 11.441164,6.4083961 C10.8959926,6.4083961 10.4641037,6.5463004 10.1483291,6.82377049 C9.83113849,7.10124058 9.67395922,7.45347807 9.67395922,7.88214444 C9.67395922,8.25598139 9.84813084,8.59492689 10.1964741,8.89898095 C10.5448173,9.203035 11.1579581,9.51705804 12.0344803,9.84271156 C12.9110025,10.1667036 13.6303455,10.5156181 14.1939252,10.889455 C15.5646417,11.7982942 16.25,13.0510634 16.25,14.649424 C16.25,15.9271156 15.8322713,16.9289987 14.9953979,17.6583961 C14.1599405,18.386132 13.0129567,18.75 11.5544463,18.75 C10.5264089,18.75 9.5960776,18.5389898 8.76345228,18.1136464 C7.92941093,17.6883031 7.30210988,17.1084404 6.88154914,16.369074 C6.46098839,15.6313691 6.25,14.7790208 6.25,13.8170137 L9.31570377,13.8170137 C9.31570377,14.5995791 9.49270745,15.1761187 9.84388275,15.5466327 C10.1950581,15.9171467 10.7657179,16.1032344 11.5544463,16.1032344 C12.0599688,16.1032344 12.4592892,15.9786221 12.7524073,15.7277359 C13.0455253,15.4768498 13.1927924,15.1246123 13.1927924,14.669362" id="Fill-4" fill="#F7DB02"></path>
                        </g>
                    </g>
                </g>
            </g>
        </g>
    </g>
</svg>