<?xml version="1.0" encoding="UTF-8"?>
<svg width="30px" height="30px" viewBox="0 0 30 30" version="1.1" xmlns="http://www.w3.org/2000/svg" xmlns:xlink="http://www.w3.org/1999/xlink">
    <!-- Generator: sketchtool 61.2 (101010) - https://sketch.com -->
    <title>0B6F8CD6-A9B6-430E-8764-CB4D11C51037</title>
    <desc>Created with sketchtool.</desc>
    <g id="Dashboard" stroke="none" stroke-width="1" fill="none" fill-rule="evenodd">
        <g id="Inspections_Alerts_map_Points-of-interest" transform="translate(-24.000000, -247.000000)" fill="#323232">
            <g id="Group" transform="translate(8.000000, 8.000000)">
                <g id="Group-5" transform="translate(16.000000, 239.000000)">
                    <g id="IconsLogoPartner-/-ic_Map_Logo_P">
                        <path d="M17.0305924,15.306662 C17.0305924,16.0521678 16.4753966,16.6566796 15.790709,16.6566796 L12.9694076,16.6566796 L12.9694076,7.16249559 L15.790709,7.16249559 C16.4753966,7.16249559 17.0305924,7.7670074 17.0305924,8.51251322 L17.0305924,15.306662 Z M20.1383943,5 L7.5,5 L7.5,18.8191752 L7.527517,18.8191752 L7.527517,25 L12.9418906,25 L12.9418906,18.8191752 L20.1383943,18.8191752 C21.4430236,18.8191752 22.5,17.6683116 22.5,16.247797 L22.5,7.57137822 C22.5,6.15086359 21.4430236,5 20.1383943,5 L20.1383943,5 Z" id="Fill-1"></path>
                    </g>
                </g>
            </g>
        </g>
    </g>
</svg>