<svg width="29" height="31" viewBox="0 0 29 31" fill="none" xmlns="http://www.w3.org/2000/svg">
<path d="M0.280273 22.7757C0.280273 26.8076 1.96027 30.2097 6.41227 30.2097C10.9063 30.2097 12.5863 26.8076 12.5863 22.7757V7.82365C12.5863 3.79165 10.9063 0.389648 6.41227 0.389648C1.96027 0.389648 0.280273 3.79165 0.280273 7.82365V22.7757ZM0.700273 7.82365C0.700273 4.04365 2.17027 0.809648 6.41227 0.809648C10.6543 0.809648 12.1663 4.04365 12.1663 7.82365V22.7757C12.1663 26.5977 10.6543 29.7897 6.41227 29.7897C2.17027 29.7897 0.700273 26.5977 0.700273 22.7757V7.82365Z" fill="white"/>
<path d="M16.2482 0.599648V29.9997H16.6682V16.2236H20.5322C24.6062 16.2236 27.4622 17.3576 27.4622 21.8937V26.5137C27.4622 27.6477 27.5882 29.0337 28.2182 29.9997H28.7222C28.0082 29.1177 27.8822 27.6057 27.8822 26.5137V21.8937C27.8822 18.6176 26.3702 16.5177 22.9682 16.0556C26.3702 15.5517 27.8822 13.5356 27.8822 9.83965V7.19365C27.8822 3.20365 26.2442 0.599648 21.9182 0.599648H16.2482ZM16.6682 15.8036V1.01965H21.9182C25.9922 1.01965 27.4622 3.41365 27.4622 7.19365V9.83965C27.4622 14.7116 24.9002 15.8036 20.5322 15.8036H16.6682Z" fill="white"/>
</svg>
