<svg width="92" height="21" viewBox="0 0 92 21" fill="none" xmlns="http://www.w3.org/2000/svg">
<path d="M3.82806 19.9998H0.748047V0.39978H3.82806V8.79978H7.32806V0.39978H10.4641V19.9998H7.32806V11.5998H3.82806V19.9998Z" fill="white"/>
<path d="M15.9373 0.39978V15.5198C15.9373 16.2291 16.0773 16.7238 16.3573 17.0038C16.6559 17.2838 17.0479 17.4238 17.5333 17.4238C18.0186 17.4238 18.4012 17.2838 18.6812 17.0038C18.9799 16.7238 19.1293 16.2291 19.1293 15.5198V0.39978H22.0413V15.3238C22.0413 16.9104 21.6493 18.1331 20.8653 18.9918C20.0999 19.8318 18.9612 20.2518 17.4492 20.2518C15.9372 20.2518 14.7892 19.8318 14.0052 18.9918C13.2399 18.1331 12.8573 16.9104 12.8573 15.3238V0.39978H15.9373Z" fill="white"/>
<path d="M29.0735 9.07978H33.3855V15.2958C33.3855 16.8824 32.9935 18.1051 32.2095 18.9638C31.4442 19.8038 30.3055 20.2238 28.7935 20.2238C27.2815 20.2238 26.1335 19.8038 25.3495 18.9638C24.5842 18.1051 24.2015 16.8824 24.2015 15.2958V5.10378C24.2015 3.51711 24.5842 2.30378 25.3495 1.46378C26.1335 0.605115 27.2815 0.175781 28.7935 0.175781C30.3055 0.175781 31.4442 0.605115 32.2095 1.46378C32.9935 2.30378 33.3855 3.51711 33.3855 5.10378V7.00778H30.4735V4.90778C30.4735 4.19845 30.3242 3.70378 30.0255 3.42378C29.7455 3.12511 29.3629 2.97578 28.8775 2.97578C28.3922 2.97578 28.0002 3.12511 27.7015 3.42378C27.4215 3.70378 27.2815 4.19845 27.2815 4.90778V15.4918C27.2815 16.2011 27.4215 16.6958 27.7015 16.9758C28.0002 17.2558 28.3922 17.3958 28.8775 17.3958C29.3629 17.3958 29.7455 17.2558 30.0255 16.9758C30.3242 16.6958 30.4735 16.2011 30.4735 15.4918V11.8798H29.0735V9.07978Z" fill="white"/>
<path d="M38.7437 8.65978H42.9717V11.4598H38.7437V17.1998H44.0637V19.9998H35.6637V0.39978H44.0637V3.19978H38.7437V8.65978Z" fill="white"/>
<path d="M50.5279 5.10378C50.5279 3.51711 50.9013 2.30378 51.6479 1.46378C52.4133 0.605115 53.5519 0.175781 55.0639 0.175781C56.5759 0.175781 57.7053 0.605115 58.4519 1.46378C59.2173 2.30378 59.5999 3.51711 59.5999 5.10378V5.71978H56.6879V4.90778C56.6879 4.19845 56.5479 3.70378 56.2679 3.42378C56.0066 3.12511 55.6333 2.97578 55.1479 2.97578C54.6626 2.97578 54.2799 3.12511 53.9999 3.42378C53.7386 3.70378 53.6079 4.19845 53.6079 4.90778C53.6079 5.57978 53.7573 6.17711 54.0559 6.69978C54.3546 7.20378 54.7279 7.68912 55.1759 8.15578C55.6239 8.60378 56.0999 9.06111 56.6039 9.52778C57.1266 9.97578 57.6119 10.4704 58.0599 11.0118C58.5079 11.5531 58.8813 12.1691 59.1799 12.8598C59.4786 13.5504 59.6279 14.3624 59.6279 15.2958C59.6279 16.8824 59.2359 18.1051 58.4519 18.9638C57.6866 19.8038 56.5479 20.2238 55.0359 20.2238C53.5239 20.2238 52.3759 19.8038 51.5919 18.9638C50.8266 18.1051 50.4439 16.8824 50.4439 15.2958V14.0918H53.3559V15.4918C53.3559 16.2011 53.4959 16.6958 53.7759 16.9758C54.0746 17.2558 54.4666 17.3958 54.9519 17.3958C55.4373 17.3958 55.8199 17.2558 56.0999 16.9758C56.3986 16.6958 56.5479 16.2011 56.5479 15.4918C56.5479 14.8198 56.3986 14.2318 56.0999 13.7278C55.8012 13.2051 55.4279 12.7198 54.9799 12.2718C54.5319 11.8051 54.0466 11.3478 53.5239 10.8998C53.0199 10.4331 52.5439 9.92912 52.0959 9.38778C51.6479 8.84645 51.2746 8.23045 50.9759 7.53978C50.6773 6.84911 50.5279 6.03711 50.5279 5.10378Z" fill="white"/>
<path d="M71.6606 19.9998H68.5526L68.0206 16.4438H64.2406L63.7086 19.9998H60.8806L64.0166 0.39978H68.5246L71.6606 19.9998ZM64.6326 13.7838H67.6006L66.1166 3.87178L64.6326 13.7838Z" fill="white"/>
<path d="M73.3949 0.39978H76.4749V17.1998H81.5429V19.9998H73.3949V0.39978Z" fill="white"/>
<path d="M86.2632 8.65978H90.4912V11.4598H86.2632V17.1998H91.5832V19.9998H83.1832V0.39978H91.5832V3.19978H86.2632V8.65978Z" fill="white"/>
</svg>
