<svg width="528" height="40" viewBox="0 0 528 40" fill="none" xmlns="http://www.w3.org/2000/svg">
<path d="M9.45228 1.19958C12.5483 1.19958 14.7803 1.91958 16.1483 3.35958C17.5523 4.79958 18.2543 6.97758 18.2543 9.89358V11.2436C18.2543 13.1876 17.9483 14.7896 17.3363 16.0496C16.7243 17.3096 15.7523 18.2456 14.4203 18.8576C16.0403 19.4696 17.1743 20.4776 17.8223 21.8816C18.5063 23.2496 18.8483 24.9416 18.8483 26.9576V30.0356C18.8483 32.9516 18.0923 35.1836 16.5803 36.7316C15.0683 38.2436 12.8183 38.9996 9.83028 38.9996H0.488281V1.19958H9.45228ZM6.42828 21.9896V33.5996H9.83028C10.8383 33.5996 11.5943 33.3296 12.0983 32.7896C12.6383 32.2496 12.9083 31.2776 12.9083 29.8736V26.5796C12.9083 24.8156 12.6023 23.6096 11.9903 22.9616C11.4143 22.3136 10.4423 21.9896 9.07428 21.9896H6.42828ZM6.42828 6.59958V16.5896H8.75028C9.86628 16.5896 10.7303 16.3016 11.3423 15.7256C11.9903 15.1496 12.3143 14.1056 12.3143 12.5936V10.4876C12.3143 9.11958 12.0623 8.12958 11.5583 7.51758C11.0903 6.90558 10.3343 6.59958 9.29028 6.59958H6.42828Z" fill="white"/>
<path d="M22.7258 1.19958H28.6658V33.5996H38.4398V38.9996H22.7258V1.19958Z" fill="white"/>
<path d="M60.5486 38.9996H54.5546L53.5286 32.1416H46.2386L45.2126 38.9996H39.7586L45.8066 1.19958H54.5006L60.5486 38.9996ZM46.9946 27.0116H52.7186L49.8566 7.89558L46.9946 27.0116Z" fill="white"/>
<path d="M80.8408 24.9056V29.9276C80.8408 32.9876 80.0848 35.3456 78.5728 37.0016C77.0968 38.6216 74.9008 39.4316 71.9848 39.4316C69.0688 39.4316 66.8549 38.6216 65.3428 37.0016C63.8668 35.3456 63.1288 32.9876 63.1288 29.9276V10.2716C63.1288 7.21158 63.8668 4.87158 65.3428 3.25158C66.8549 1.59558 69.0688 0.767578 71.9848 0.767578C74.9008 0.767578 77.0968 1.59558 78.5728 3.25158C80.0848 4.87158 80.8408 7.21158 80.8408 10.2716V13.9436H75.2248V9.89358C75.2248 8.52558 74.9368 7.57158 74.3608 7.03158C73.8208 6.45558 73.0828 6.16758 72.1468 6.16758C71.2108 6.16758 70.4548 6.45558 69.8788 7.03158C69.3388 7.57158 69.0688 8.52558 69.0688 9.89358V30.3056C69.0688 31.6736 69.3388 32.6276 69.8788 33.1676C70.4548 33.7076 71.2108 33.9776 72.1468 33.9776C73.0828 33.9776 73.8208 33.7076 74.3608 33.1676C74.9368 32.6276 75.2248 31.6736 75.2248 30.3056V24.9056H80.8408Z" fill="white"/>
<path d="M92.5209 23.9336L90.6849 27.3896V38.9996H84.7449V1.19958H90.6849V17.6696L98.4609 1.19958H104.401L96.1389 18.0476L104.401 38.9996H98.2989L92.5209 23.9336Z" fill="white"/>
<path d="M122.029 17.9936H129.697V23.3936H122.029V38.9996H116.089V1.19958H131.803V6.59958H122.029V17.9936Z" fill="white"/>
<path d="M147.372 38.9996C147.3 38.7476 147.228 38.5136 147.156 38.2976C147.084 38.0816 147.012 37.8116 146.94 37.4876C146.904 37.1636 146.868 36.7496 146.832 36.2456C146.832 35.7416 146.832 35.1116 146.832 34.3556V28.4156C146.832 26.6516 146.526 25.4096 145.914 24.6896C145.302 23.9696 144.312 23.6096 142.944 23.6096H140.892V38.9996H134.952V1.19958H143.916C147.012 1.19958 149.244 1.91958 150.612 3.35958C152.016 4.79958 152.718 6.97758 152.718 9.89358V12.8636C152.718 16.7516 151.422 19.3076 148.83 20.5316C150.342 21.1436 151.368 22.1516 151.908 23.5556C152.484 24.9236 152.772 26.5976 152.772 28.5776V34.4096C152.772 35.3456 152.808 36.1736 152.88 36.8936C152.952 37.5776 153.132 38.2796 153.42 38.9996H147.372ZM140.892 6.59958V18.2096H143.214C144.33 18.2096 145.194 17.9216 145.806 17.3456C146.454 16.7696 146.778 15.7256 146.778 14.2136V10.4876C146.778 9.11958 146.526 8.12958 146.022 7.51758C145.554 6.90558 144.798 6.59958 143.754 6.59958H140.892Z" fill="white"/>
<path d="M156.978 1.19958H162.918V38.9996H156.978V1.19958Z" fill="white"/>
<path d="M167.561 1.19958H176.957C179.945 1.19958 182.159 1.99158 183.599 3.57558C185.075 5.15958 185.813 7.48158 185.813 10.5416V29.6576C185.813 32.7176 185.075 35.0396 183.599 36.6236C182.159 38.2076 179.945 38.9996 176.957 38.9996H167.561V1.19958ZM173.501 6.59958V33.5996H176.849C177.785 33.5996 178.523 33.3296 179.063 32.7896C179.603 32.2496 179.873 31.2956 179.873 29.9276V10.2716C179.873 8.90358 179.603 7.94958 179.063 7.40958C178.523 6.86958 177.785 6.59958 176.849 6.59958H173.501Z" fill="white"/>
<path d="M209.076 38.9996H203.082L202.056 32.1416H194.766L193.74 38.9996H188.286L194.334 1.19958H203.028L209.076 38.9996ZM195.522 27.0116H201.246L198.384 7.89558L195.522 27.0116Z" fill="white"/>
<path d="M217.704 26.4716L210.198 1.19958H216.408L220.944 18.4256L225.48 1.19958H231.15L223.644 26.4716V38.9996H217.704V26.4716Z" fill="white"/>
<path d="M242.591 26.9576C242.591 25.0136 242.897 23.3756 243.509 22.0436C244.157 20.6756 245.219 19.6676 246.695 19.0196C243.959 17.8676 242.591 15.2756 242.591 11.2436V10.5416C242.591 7.48158 243.311 5.15958 244.751 3.57558C246.227 1.99158 248.459 1.19958 251.447 1.19958H258.251V6.59958H251.555C250.619 6.59958 249.881 6.86958 249.341 7.40958C248.801 7.94958 248.531 8.90358 248.531 10.2716V12.5936C248.531 14.1056 248.837 15.1496 249.449 15.7256C250.097 16.3016 250.979 16.5896 252.095 16.5896H254.687V12.3776H260.627V16.5896H262.193V21.9896H260.627V34.4096C260.627 35.3456 260.663 36.1736 260.735 36.8936C260.807 37.5776 260.987 38.2796 261.275 38.9996H255.227C255.083 38.6036 254.975 38.2256 254.903 37.8656C254.831 37.4696 254.759 36.8576 254.687 36.0296C253.643 38.2976 251.807 39.4316 249.179 39.4316C246.983 39.4316 245.327 38.6936 244.211 37.2176C243.131 35.7416 242.591 33.5996 242.591 30.7916V26.9576ZM248.531 30.3056C248.531 31.6736 248.801 32.6456 249.341 33.2216C249.917 33.7616 250.673 34.0316 251.609 34.0316C252.509 34.0316 253.229 33.7796 253.769 33.2756C254.309 32.7716 254.615 31.9256 254.687 30.7376V21.9896H252.419C251.051 21.9896 250.061 22.3496 249.449 23.0696C248.837 23.7896 248.531 25.0316 248.531 26.7956V30.3056Z" fill="white"/>
<path d="M291.107 24.9056V29.9276C291.107 32.9876 290.351 35.3456 288.839 37.0016C287.363 38.6216 285.167 39.4316 282.251 39.4316C279.335 39.4316 277.121 38.6216 275.609 37.0016C274.133 35.3456 273.395 32.9876 273.395 29.9276V10.2716C273.395 7.21158 274.133 4.87158 275.609 3.25158C277.121 1.59558 279.335 0.767578 282.251 0.767578C285.167 0.767578 287.363 1.59558 288.839 3.25158C290.351 4.87158 291.107 7.21158 291.107 10.2716V13.9436H285.491V9.89358C285.491 8.52558 285.203 7.57158 284.627 7.03158C284.087 6.45558 283.349 6.16758 282.413 6.16758C281.477 6.16758 280.721 6.45558 280.145 7.03158C279.605 7.57158 279.335 8.52558 279.335 9.89358V30.3056C279.335 31.6736 279.605 32.6276 280.145 33.1676C280.721 33.7076 281.477 33.9776 282.413 33.9776C283.349 33.9776 284.087 33.7076 284.627 33.1676C285.203 32.6276 285.491 31.6736 285.491 30.3056V24.9056H291.107Z" fill="white"/>
<path d="M299.993 26.4716L292.487 1.19958H298.697L303.233 18.4256L307.769 1.19958H313.439L305.933 26.4716V38.9996H299.993V26.4716Z" fill="white"/>
<path d="M325.105 1.19958C328.201 1.19958 330.433 1.91958 331.801 3.35958C333.205 4.79958 333.907 6.97758 333.907 9.89358V11.2436C333.907 13.1876 333.601 14.7896 332.989 16.0496C332.377 17.3096 331.405 18.2456 330.073 18.8576C331.693 19.4696 332.827 20.4776 333.475 21.8816C334.159 23.2496 334.501 24.9416 334.501 26.9576V30.0356C334.501 32.9516 333.745 35.1836 332.233 36.7316C330.721 38.2436 328.471 38.9996 325.483 38.9996H316.141V1.19958H325.105ZM322.081 21.9896V33.5996H325.483C326.491 33.5996 327.247 33.3296 327.751 32.7896C328.291 32.2496 328.561 31.2776 328.561 29.8736V26.5796C328.561 24.8156 328.255 23.6096 327.643 22.9616C327.067 22.3136 326.095 21.9896 324.727 21.9896H322.081ZM322.081 6.59958V16.5896H324.403C325.519 16.5896 326.383 16.3016 326.995 15.7256C327.643 15.1496 327.967 14.1056 327.967 12.5936V10.4876C327.967 9.11958 327.715 8.12958 327.211 7.51758C326.743 6.90558 325.987 6.59958 324.943 6.59958H322.081Z" fill="white"/>
<path d="M344.319 17.1296H352.473V22.5296H344.319V33.5996H354.578V38.9996H338.379V1.19958H354.578V6.59958H344.319V17.1296Z" fill="white"/>
<path d="M370.979 38.9996C370.907 38.7476 370.835 38.5136 370.763 38.2976C370.691 38.0816 370.619 37.8116 370.547 37.4876C370.511 37.1636 370.475 36.7496 370.439 36.2456C370.439 35.7416 370.439 35.1116 370.439 34.3556V28.4156C370.439 26.6516 370.133 25.4096 369.521 24.6896C368.909 23.9696 367.919 23.6096 366.551 23.6096H364.499V38.9996H358.559V1.19958H367.523C370.619 1.19958 372.851 1.91958 374.219 3.35958C375.623 4.79958 376.325 6.97758 376.325 9.89358V12.8636C376.325 16.7516 375.029 19.3076 372.437 20.5316C373.949 21.1436 374.975 22.1516 375.515 23.5556C376.091 24.9236 376.379 26.5976 376.379 28.5776V34.4096C376.379 35.3456 376.415 36.1736 376.487 36.8936C376.559 37.5776 376.739 38.2796 377.027 38.9996H370.979ZM364.499 6.59958V18.2096H366.821C367.937 18.2096 368.801 17.9216 369.413 17.3456C370.061 16.7696 370.385 15.7256 370.385 14.2136V10.4876C370.385 9.11958 370.133 8.12958 369.629 7.51758C369.161 6.90558 368.405 6.59958 367.361 6.59958H364.499Z" fill="white"/>
<path d="M401.853 28.0376L405.903 1.19958H414.165V38.9996H408.549V11.8916L404.445 38.9996H398.829L394.401 12.2696V38.9996H389.217V1.19958H397.479L401.853 28.0376Z" fill="white"/>
<path d="M424.24 30.3056C424.24 31.6736 424.51 32.6456 425.05 33.2216C425.626 33.7616 426.382 34.0316 427.318 34.0316C428.254 34.0316 428.992 33.7616 429.532 33.2216C430.108 32.6456 430.396 31.6736 430.396 30.3056V9.89358C430.396 8.52558 430.108 7.57158 429.532 7.03158C428.992 6.45558 428.254 6.16758 427.318 6.16758C426.382 6.16758 425.626 6.45558 425.05 7.03158C424.51 7.57158 424.24 8.52558 424.24 9.89358V30.3056ZM418.3 10.2716C418.3 7.21158 419.074 4.87158 420.622 3.25158C422.17 1.59558 424.402 0.767578 427.318 0.767578C430.234 0.767578 432.466 1.59558 434.014 3.25158C435.562 4.87158 436.336 7.21158 436.336 10.2716V29.9276C436.336 32.9876 435.562 35.3456 434.014 37.0016C432.466 38.6216 430.234 39.4316 427.318 39.4316C424.402 39.4316 422.17 38.6216 420.622 37.0016C419.074 35.3456 418.3 32.9876 418.3 29.9276V10.2716Z" fill="white"/>
<path d="M445.788 11.6216V38.9996H440.442V1.19958H447.894L453.996 23.8256V1.19958H459.288V38.9996H453.186L445.788 11.6216Z" fill="white"/>
<path d="M463.841 1.19958H473.237C476.225 1.19958 478.439 1.99158 479.879 3.57558C481.355 5.15958 482.093 7.48158 482.093 10.5416V29.6576C482.093 32.7176 481.355 35.0396 479.879 36.6236C478.439 38.2076 476.225 38.9996 473.237 38.9996H463.841V1.19958ZM469.781 6.59958V33.5996H473.129C474.065 33.5996 474.803 33.3296 475.343 32.7896C475.883 32.2496 476.153 31.2956 476.153 29.9276V10.2716C476.153 8.90358 475.883 7.94958 475.343 7.40958C474.803 6.86958 474.065 6.59958 473.129 6.59958H469.781Z" fill="white"/>
<path d="M505.355 38.9996H499.361L498.335 32.1416H491.045L490.019 38.9996H484.565L490.613 1.19958H499.307L505.355 38.9996ZM491.801 27.0116H497.525L494.663 7.89558L491.801 27.0116Z" fill="white"/>
<path d="M513.983 26.4716L506.477 1.19958H512.687L517.223 18.4256L521.759 1.19958H527.429L519.923 26.4716V38.9996H513.983V26.4716Z" fill="white"/>
</svg>
