<?xml version="1.0" encoding="utf-8"?>
<!-- Generator: Adobe Illustrator 21.0.0, SVG Export Plug-In . SVG Version: 6.00 Build 0)  -->
<svg version="1.1" id="Capa_1" xmlns="http://www.w3.org/2000/svg" xmlns:xlink="http://www.w3.org/1999/xlink" width="22.3" height="30" x="0px" y="0px"
	 viewBox="0 0 22.3 30" style="enable-background:new 0 0 22.3 30;" xml:space="preserve">
<style type="text/css">
	.st0{fill:#FF623F;}
	.st1{fill:#E30020;}
	.st2{fill:#FFFFFF;}
	.st3{fill:#3498DB;}
</style>
<g>
	<path class="st0" d="M11.2,30L2.6,18.3c-0.2-0.2-0.4-0.4-0.5-0.7c-0.1-0.1-0.2-0.3-0.3-0.4l0,0l0,0c-1.1-1.8-1.7-3.8-1.7-6
		C0,5,5,0,11.2,0V30z"/>
	<path class="st1" d="M11.2,0v30V0c6.2,0,11.2,5,11.2,11.2c0,2.7-1,5.2-2.6,7.2L11.1,30"/>
	<circle class="st2" cx="11.2" cy="11.2" r="7.3"/>
</g>
<g>
	<path class="st3" d="M14.2,12.2c0,0.5-0.2,0.9-0.4,1.3s-0.6,0.7-1,0.9c-0.4,0.2-0.9,0.3-1.5,0.3c-0.9,0-1.7-0.3-2.2-0.9
		s-0.8-1.5-0.8-2.6v-0.4c0-0.7,0.1-1.3,0.4-1.8c0.2-0.5,0.6-0.9,1-1.2s1-0.4,1.6-0.4c0.9,0,1.6,0.2,2.1,0.7s0.8,1.1,0.9,1.9h-1.7
		c0-0.4-0.1-0.7-0.3-0.9s-0.5-0.3-0.9-0.3c-0.4,0-0.7,0.2-0.9,0.5S10,10,10,10.7v0.5c0,0.8,0.1,1.3,0.3,1.6c0.2,0.3,0.5,0.5,1,0.5
		c0.4,0,0.7-0.1,0.9-0.3s0.3-0.5,0.3-0.9H14.2z"/>
</g>
</svg>
