<?xml version="1.0" encoding="utf-8"?>
<!-- Generator: Adobe Illustrator 21.0.0, SVG Export Plug-In . SVG Version: 6.00 Build 0)  -->
<svg version="1.1" id="Capa_1" xmlns="http://www.w3.org/2000/svg" xmlns:xlink="http://www.w3.org/1999/xlink" width="22.3" height="30" x="0px" y="0px"
	 viewBox="0 0 22.3 30" style="enable-background:new 0 0 22.3 30;" xml:space="preserve">
<style type="text/css">
	.st0{fill:#FF623F;}
	.st1{fill:#E30020;}
	.st2{fill:#FFFFFF;}
	.st3{fill:#3498DB;}
</style>
<g>
	<path class="st0" d="M11.2,30L2.6,18.3c-0.2-0.2-0.4-0.4-0.5-0.7c-0.1-0.1-0.2-0.3-0.3-0.4l0,0l0,0c-1.1-1.8-1.7-3.8-1.7-6
		C0,5,5,0,11.2,0V30z"/>
	<path class="st1" d="M11.2,0v30V0c6.2,0,11.2,5,11.2,11.2c0,2.7-1,5.2-2.6,7.2L11.1,30"/>
	<circle class="st2" cx="11.2" cy="11.2" r="7.3"/>
</g>
<g>
	<path class="st3" d="M13.5,9.3c0,0.3-0.1,0.6-0.3,0.9c-0.2,0.3-0.4,0.5-0.7,0.6c0.3,0.2,0.6,0.4,0.8,0.7s0.3,0.6,0.3,1
		c0,0.6-0.2,1.1-0.7,1.5c-0.4,0.4-1,0.6-1.8,0.6c-0.8,0-1.4-0.2-1.8-0.6s-0.7-0.9-0.7-1.5c0-0.4,0.1-0.7,0.3-1s0.5-0.5,0.8-0.7
		c-0.3-0.2-0.5-0.4-0.7-0.6S8.8,9.7,8.8,9.3c0-0.6,0.2-1.1,0.6-1.5s1-0.5,1.7-0.5c0.7,0,1.3,0.2,1.7,0.5S13.5,8.7,13.5,9.3z
		 M12,12.5c0-0.3-0.1-0.5-0.2-0.7c-0.2-0.2-0.4-0.2-0.6-0.2s-0.4,0.1-0.6,0.2s-0.2,0.4-0.2,0.7c0,0.3,0.1,0.5,0.2,0.7
		c0.2,0.2,0.4,0.2,0.6,0.2c0.2,0,0.4-0.1,0.6-0.2S12,12.8,12,12.5z M11.1,8.6c-0.2,0-0.4,0.1-0.5,0.2c-0.1,0.1-0.2,0.3-0.2,0.6
		c0,0.3,0.1,0.5,0.2,0.6s0.3,0.2,0.5,0.2c0.2,0,0.4-0.1,0.5-0.2c0.1-0.2,0.2-0.4,0.2-0.6S11.8,9,11.7,8.8
		C11.5,8.7,11.4,8.6,11.1,8.6z"/>
</g>
</svg>
