<svg xmlns="http://www.w3.org/2000/svg" width="39" height="39" viewBox="0 0 39 39">
  <metadata><?xpacket begin="﻿" id="W5M0MpCehiHzreSzNTczkc9d"?>
<x:xmpmeta xmlns:x="adobe:ns:meta/" x:xmptk="Adobe XMP Core 5.6-c140 79.160451, 2017/05/06-01:08:21        ">
   <rdf:RDF xmlns:rdf="http://www.w3.org/1999/02/22-rdf-syntax-ns#">
      <rdf:Description rdf:about=""/>
   </rdf:RDF>
</x:xmpmeta>
                                                                                                    
                                                                                                    
                                                                                                    
                                                                                                    
                                                                                                    
                                                                                                    
                                                                                                    
                                                                                                    
                                                                                                    
                                                                                                    
                                                                                                    
                                                                                                    
                                                                                                    
                                                                                                    
                                                                                                    
                                                                                                    
                                                                                                    
                                                                                                    
                                                                                                    
                                                                                                    
                           
<?xpacket end="w"?></metadata>
<defs>
    <style>
      .cls-1 {
        fill: #fff;
        stroke: #74bf61;
        stroke-width: 2px;
      }

      .cls-1, .cls-2 {
        fill-rule: evenodd;
      }

      .cls-2 {
        fill: #74bf61;
      }
    </style>
  </defs>
  <path class="cls-1" d="M20,2A13,13,0,0,1,33,15c0,7.18-13,22-13,22S7,22.18,7,15A13,13,0,0,1,20,2Z"/>
  <path id="Forma_1" data-name="Forma 1" class="cls-2" d="M12.991,16.846v-4.4A0.53,0.53,0,0,1,13.578,12H19.4a0.53,0.53,0,0,1,.586.443v4.4a0.177,0.177,0,0,1-.2.148H13.187A0.177,0.177,0,0,1,12.991,16.846Zm5.686,3a1.345,1.345,0,0,1-2.664,0c0-.638.6-2.155,1.332-2.155S18.677,19.207,18.677,19.845Zm-0.666,0a0.673,0.673,0,1,0-.666.578A0.626,0.626,0,0,0,18.011,19.845ZM16.2,17.69H13.214a0.2,0.2,0,0,0-.214.186v1.563a0.2,0.2,0,0,0,.214.186h2.392A4.919,4.919,0,0,1,16.2,17.69Zm9.447,2.155a1.345,1.345,0,1,1-1.332-1.155A1.253,1.253,0,0,1,25.646,19.845Zm-0.666,0a0.673,0.673,0,1,0-.666.578A0.626,0.626,0,0,0,24.98,19.845ZM28,18.876v0.563a0.2,0.2,0,0,1-.214.186H26.053a1.811,1.811,0,0,0-3.479,0H19.085a4.919,4.919,0,0,0-.592-1.934H20.8V13.38a0.4,0.4,0,0,1,.428-0.371H24.25a1.8,1.8,0,0,1,1.419.654l1.3,1.673a1.35,1.35,0,0,1,.293.831V18.69h0.521A0.2,0.2,0,0,1,28,18.876Zm-2.171-3.5L24.787,14.1a0.225,0.225,0,0,0-.175-0.079H22.987a0.2,0.2,0,0,0-.214.186v1.284a0.2,0.2,0,0,0,.214.186h2.667A0.186,0.186,0,0,0,25.829,15.379Z"/>
</svg>
