<?xml version="1.0" encoding="UTF-8"?>
<svg width="80px" height="80px" viewBox="0 0 80 80" version="1.1" xmlns="http://www.w3.org/2000/svg" xmlns:xlink="http://www.w3.org/1999/xlink">
    <!-- Generator: sketchtool 63.1 (101010) - https://sketch.com -->
    <title>B9B26F4B-ECCF-402B-90B1-C60268E34C72</title>
    <desc>Created with sketchtool.</desc>
    <defs>
        <polygon id="path-1" points="0.0659469027 0.0859351032 63.4068319 0.0859351032 63.4068319 33.7463127 0.0659469027 33.7463127"></polygon>
        <polygon id="path-3" points="0 0.0515634218 9.41627139 0.0515634218 9.41627139 9.58702065 0 9.58702065"></polygon>
        <polygon id="path-5" points="0.0773215339 0.080979351 1.52707965 0.080979351 1.52707965 1.53183481 0.0773215339 1.53183481"></polygon>
        <polygon id="path-7" points="0 63.8232448 79.9931563 63.8232448 79.9931563 0 0 0"></polygon>
    </defs>
    <g id="Finances" stroke="none" stroke-width="1" fill="none" fill-rule="evenodd">
        <g id="Main_Finances_Hide_pop_up_Pay_invoice_2" transform="translate(-1302.000000, -292.000000)">
            <g id="Authorize.Net" transform="translate(1251.000000, 292.000000)">
                <g id="Group" transform="translate(0.629630, 11.000000)"></g>
                <g id="Group-75" transform="translate(51.000000, 7.407407)">
                    <g id="Group-3" transform="translate(8.259587, 30.076932)">
                        <mask id="mask-2" fill="white">
                            <use xlink:href="#path-1"></use>
                        </mask>
                        <g id="Clip-2"></g>
                        <path d="M53.9505487,17.8007434 L49.224177,14.407587 L47.9562124,16.1733687 L47.324,15.7188555 L50.3734395,11.4710678 L51.0056519,11.9251091 L49.7334395,13.6980885 L54.4596932,17.0913628 L53.9505487,17.8007434 Z M50.5968024,21.6316578 L44.6192212,19.8569086 L47.9309617,23.8453451 L47.2867139,24.3802124 L43.0723186,19.3044602 L43.7614041,18.7323068 L49.7366254,20.5037522 L46.4272448,16.5187375 L47.0713746,15.9838702 L51.2860059,21.0595044 L50.5968024,21.6316578 Z M44.8724366,25.8094749 L43.3468909,24.307056 L40.8345605,25.4456991 L40.9988083,27.5647552 L40.1544425,27.947174 L39.7398112,20.8918348 L40.5964484,20.5037522 L45.7786313,25.3990914 L44.8724366,25.8094749 Z M37.4687788,28.5554336 L36.9885428,25.4833392 L33.6002242,26.0133687 L34.0812861,29.0852271 L33.2183953,29.2202124 L32.1984543,22.7021003 L33.0613451,22.567233 L33.4799882,25.2436932 L36.8681888,24.7136637 L36.4495457,22.0372035 L37.3119646,21.9022183 L38.3317876,28.4202124 L37.4687788,28.5554336 Z M26.5293097,26.8785015 C26.6417581,27.3133097 26.8566254,27.6547847 27.1745015,27.9011563 C27.4917876,28.148 27.8507257,28.2960826 28.2495457,28.3437522 C28.7349735,28.4023953 29.163056,28.3123658 29.5332035,28.0727198 C29.903941,27.8334277 30.1818171,27.4453451 30.3675398,26.908708 L31.2078938,27.2323658 C30.9401652,27.9223953 30.5480708,28.4258761 30.0304307,28.7425723 C29.5134985,29.0592684 28.9138525,29.1763186 28.2314926,29.0943127 C27.5255339,29.0092389 26.9691917,28.7961416 26.5612861,28.4552566 C26.1534985,28.1142537 25.8672448,27.6574985 25.7024071,27.0842832 C25.5375693,26.5115398 25.4924956,25.9126018 25.5678938,25.2869971 C25.6506077,24.6046372 25.8524956,24.0258761 26.1743835,23.5492979 C26.4961534,23.0729558 26.9140885,22.7319528 27.4265369,22.5260531 C27.9395752,22.3207434 28.484708,22.2525428 29.0629971,22.3222773 C29.7176283,22.4016873 30.2487198,22.6351976 30.6554454,23.0228083 C31.0622891,23.4104189 31.3164484,23.9166136 31.4194572,24.5429263 L30.5418171,24.6406254 C30.4474218,24.1456401 30.2684248,23.7719528 30.0063599,23.5201534 C29.743705,23.26741 29.3931445,23.1150796 28.9555044,23.0622183 C28.4520236,23.0013333 28.0166254,23.0710678 27.6493097,23.2714218 C27.2819941,23.4722478 27.0057699,23.767469 26.8194572,24.1574395 C26.6333805,24.54741 26.5140885,24.9585015 26.4622891,25.3904779 C26.3947965,25.94741 26.4173333,26.4429853 26.5293097,26.8785015 L26.5293097,26.8785015 Z M24.8090737,23.5723068 C24.6267729,24.0032212 24.3332035,24.307646 23.9286018,24.4847552 C23.524236,24.6619823 23.0140295,24.6669381 22.3975103,24.4999764 C22.5667139,24.6924248 22.6854159,24.8617463 22.7534985,25.007941 C22.8969794,25.3229853 23.0055339,25.6869971 23.0781003,26.0987965 L23.4342065,28.1997994 L22.423351,27.7717168 L22.1550324,26.1667611 C22.0745605,25.7028083 21.9997522,25.3421003 21.9300177,25.0840472 C21.8596932,24.8262301 21.7808732,24.6333097 21.6937935,24.5050501 C21.6065959,24.3766726 21.5070088,24.2711858 21.3956224,24.188354 C21.3123186,24.1304189 21.1677758,24.0571445 20.9601062,23.9694749 L20.0280708,23.5740767 L18.884944,26.2714218 L18.0811681,25.9311268 L20.6557994,19.8569086 L23.3486608,20.9981475 C23.8903717,21.227646 24.2785723,21.4566726 24.5142065,21.6851091 C24.7499587,21.9140177 24.8934395,22.2020413 24.944531,22.5497699 C24.9957404,22.8972625 24.9507847,23.2382655 24.8090737,23.5723068 L24.8090737,23.5723068 Z M17.6199292,22.1058761 L14.7570383,19.8422773 L13.364236,21.6035752 L16.5414631,24.1159056 L16.0582773,24.7260531 L12.1964484,21.6726018 L16.2888378,16.4974985 L20.0303127,19.4563186 L19.5475988,20.067292 L16.4908437,17.6500649 L15.2375103,19.2346077 L18.1002832,21.4989145 L17.6199292,22.1058761 Z M10.2978053,19.8333097 L9.81249558,19.1452861 L14.324472,15.9618053 L8.70759882,17.5791504 L8.25355752,16.9354926 L11.7425251,12.1383245 L7.15338053,15.3762006 L6.66842478,14.688767 L12.0592212,10.8855811 L12.8163894,11.9588555 L9.90016519,15.928177 C9.62736283,16.2966726 9.4220531,16.5699469 9.28364602,16.748236 C9.52270206,16.6713038 9.87821829,16.5638112 10.3501947,16.4252861 L15.0114336,15.0696519 L15.6886018,16.0298879 L10.2978053,19.8333097 Z M60.9164484,5.44628909 C60.7769794,5.54257227 60.6088378,5.59932743 60.4271268,5.59932743 L59.5483068,5.59932743 C59.2884838,5.59932743 59.0427021,5.48239528 58.8784543,5.28109735 L54.6458879,0.0859351032 L54.6458879,0.684047198 C54.6458879,1.98505015 54.7105487,2.73938643 54.7708437,3.25077286 C54.8583953,3.27389971 55.0317286,3.30434218 55.3552684,3.31779351 C55.8181593,3.33749853 56.183351,3.71826549 56.183351,4.18115634 L56.183351,4.63130383 C56.183351,5.10835398 55.7963304,5.49525664 55.3192802,5.49525664 L51.7359174,5.49525664 C51.5210501,5.49525664 51.3270678,5.41384071 51.1762714,5.28451917 C50.8521416,5.51897345 50.4522596,5.65915044 50.0051799,5.65915044 C49.9622301,5.65915044 49.9217581,5.65348673 49.8801062,5.65053687 C48.143587,14.2630442 40.5359174,20.748944 31.4115516,20.748944 C22.2332625,20.748944 14.5911386,14.1842242 12.9153864,5.49525664 L12.4777463,5.49525664 C12.2379823,5.49525664 12.0214631,5.39755752 11.8651209,5.24050737 L11.5188083,5.41490265 C11.1923186,5.57124484 10.8494277,5.65915044 10.584295,5.65915044 C9.70500295,5.65915044 9.03939823,5.39566962 8.59904425,4.90693805 C8.4740885,5.02221829 8.32258407,5.1100059 8.14370501,5.13525664 C7.4119056,5.24050737 6.53815929,5.41985841 5.61650737,5.6539587 C5.54618289,5.67130383 5.47479646,5.68027139 5.40376401,5.68027139 C5.19821829,5.68027139 4.99680236,5.60664307 4.8379823,5.46953392 L4.72376401,5.37041888 C4.68824779,5.33962242 4.65568142,5.30634808 4.62618289,5.27094985 C4.22417699,5.48746903 3.76683186,5.65915044 3.1919646,5.65915044 C2.70559292,5.65915044 2.27491445,5.54941593 1.89957522,5.36522714 C1.91125664,5.46493215 1.91916224,5.56569912 1.9319056,5.66516814 L0.0659469027,5.99378171 L0.553026549,8.7580295 L2.4140295,8.43071386 C2.59220059,9.22705605 2.79585841,10.0146667 3.03727434,10.7865841 L1.26913274,11.4300059 L2.22948673,14.067764 L4.00140413,13.4226903 C4.31751032,14.1740767 4.66913274,14.9065841 5.04388201,15.6249322 L3.39845428,16.5750206 L4.80187611,19.0056991 L6.4580413,18.0493569 C6.89957522,18.7311268 7.36765782,19.3938997 7.8620531,20.0351976 L6.38877876,21.2716578 L8.19290855,23.4222183 L9.67857227,22.1756106 C10.2304307,22.767351 10.8024661,23.3411563 11.4010501,23.8861711 L10.1487788,25.3780885 L12.2993392,27.1826903 L13.56341,25.6763776 C14.2075398,26.1610973 14.8757404,26.6151386 15.5592802,27.047233 L14.5652979,28.7691209 L16.9960944,30.1727788 L18.0006962,28.4322478 C18.7168024,28.7950796 19.4486018,29.1307729 20.1968024,29.4356696 L19.503233,31.3416283 L22.1409912,32.3017463 L22.843528,30.3724248 C23.6081298,30.6023953 24.384885,30.8021593 25.1735575,30.9708909 L24.8129676,33.0173805 L27.5772153,33.5051681 L27.944649,31.4237522 C28.7315516,31.5153156 29.5281298,31.5756106 30.3326136,31.6047552 L30.3326136,33.7463481 L33.1401652,33.7463481 L33.1401652,31.5779705 C33.9407552,31.5323068 34.7315516,31.4512448 35.5140885,31.3431622 L35.8954454,33.5051681 L38.6602832,33.0178525 L38.2739705,30.8268201 C39.0490737,30.6434572 39.8130855,30.4324838 40.5628201,30.1894159 L41.3319056,32.3017463 L43.9701357,31.3416283 L43.1910206,29.2012153 C43.9178643,28.887115 44.6288968,28.5445782 45.323528,28.1756106 L46.4768024,30.1727788 L48.9081888,28.7691209 L47.7380413,26.7428083 C48.3950324,26.3102419 49.0324366,25.8506549 49.6513156,25.368649 L51.1733215,27.1826903 L53.323882,25.3780885 L51.783115,23.5419823 C52.3531445,23.0053451 52.9064189,22.4518348 53.4324366,21.8718938 L55.2799882,23.4222183 L57.08459,21.2721298 L55.2191032,19.7065841 C55.6860059,19.0833392 56.1225841,18.4364956 56.5405192,17.7760826 L58.6707847,19.0062891 L60.0743245,16.5744307 L57.9276578,15.3351386 C58.2788083,14.6432212 58.6055339,13.9378525 58.903233,13.2162006 L61.24341,14.067764 L62.203528,11.4300059 L59.8487198,10.5726608 C60.0738525,9.8340177 60.2666549,9.0819233 60.4343245,8.31979941 L62.9191622,8.7580295 L63.4068319,5.99378171 L60.9052389,5.55271976 C60.9097227,5.51732153 60.9118466,5.48180531 60.9164484,5.44628909 L60.9164484,5.44628909 Z" id="Fill-1" fill="#C2B02F" mask="url(#mask-2)"></path>
                    </g>
                    <path d="M31.3568732,51.7604248 L29.4346313,50.9457935 L28.5830678,52.955115 L30.3105015,53.6876224 C30.6778171,53.8434926 30.9810619,53.9271504 31.220708,53.9389499 C31.459764,53.9508673 31.6690855,53.895646 31.8473746,53.7742301 C32.0262537,53.6532861 32.1567552,53.4939941 32.240059,53.2982419 C32.3621829,53.0108083 32.3575811,52.7308083 32.2275516,52.456708 C32.0977581,52.1833156 31.8073746,51.9511032 31.3568732,51.7604248" id="Fill-4" fill="#C2B02F"></path>
                    <path d="M71.8867041,32.0638938 C71.9077041,32.1138938 71.9409041,32.1494938 71.9641041,32.1962938 L71.9641041,32.0594938 C71.9393041,32.0610938 71.9125041,32.0624938 71.8867041,32.0638938" id="Fill-6" fill="#C2B02F"></path>
                    <path d="M54.7610737,16.5107257 C55.0677404,16.8192802 55.3371209,17.0327316 55.5689794,17.1511976 C55.8013097,17.2696637 56.0212507,17.3292507 56.2286844,17.3297308 C56.5218997,17.3306667 56.8329322,17.2487788 57.1621357,17.084531 C57.4911032,16.9199292 57.8325782,16.6619941 58.1858525,16.3110796 C58.675174,15.824472 58.9712212,15.3705487 59.0747021,14.9486018 C59.1775929,14.5266549 59.1596578,14.1562714 59.0206608,13.8378053 C58.9193038,13.6083068 58.6860295,13.3096637 58.3197758,12.9415221 L57.3426667,11.9583953 L53.7682714,15.5119056 L54.7610737,16.5107257 Z" id="Fill-8" fill="#C2B02F"></path>
                    <path d="M70.8339587,25.3347021 L70.8339587,25.7880354 C70.8339587,26.2526962 70.4665251,26.6341711 70.0023363,26.6516342 C69.8405664,26.6577699 69.7397994,26.6734631 69.6811563,26.6864425 C69.6390324,27.0250855 69.5969086,27.4779469 69.5727198,28.1212507 L70.3237522,27.9887434 C70.7157286,27.7322242 71.147823,27.5409558 71.6095339,27.4340531 L71.1792094,24.9879174 L70.7842832,25.0576519 C70.8142537,25.1450855 70.8339587,25.2371209 70.8339587,25.3347021" id="Fill-10" fill="#C2B02F"></path>
                    <path d="M12.2126136,29.6785369 L12.2126136,32.6032566 C12.2126136,32.8039646 12.2489558,32.8924602 12.2620531,32.9181829 C12.2629971,32.9177109 12.264177,32.9177109 12.2654749,32.9177109 C12.2739705,32.9177109 12.2934395,32.9204248 12.3223481,32.9204248 C12.4277168,32.9204248 12.5493687,32.8799528 12.6850619,32.7994808 L12.6850619,29.816354 L12.5221121,29.7905133 C12.4097817,29.7730501 12.3054749,29.7337581 12.2126136,29.6785369" id="Fill-12" fill="#C2B02F"></path>
                    <path d="M16.1958826,33.0470678 L16.3082826,33.0476578 L16.3082826,29.9603422 L16.2064826,29.9603422 C16.2026826,29.9603422 16.1998826,29.9597522 16.1958826,29.9597522 L16.1958826,33.0470678 Z" id="Fill-14" fill="#C2B02F"></path>
                    <path d="M8.71877286,32.4101947 L8.71877286,30.5082478 L8.08420059,30.5082478 L8.08420059,30.704944 C8.28915634,31.2598702 8.49906785,31.824944 8.71877286,32.4101947" id="Fill-16" fill="#C2B02F"></path>
                    <path d="M48.8915516,52.7093333 L49.0300767,54.7710442 L51.0674808,53.8477404 L49.6857699,52.4674454 C49.2657109,52.0488024 48.9355634,51.6978879 48.6952094,51.4143481 C48.7931445,51.8346431 48.8583953,52.2660295 48.8915516,52.7093333" id="Fill-18" fill="#C2B02F"></path>
                    <path d="M20.5555752,29.883351 C20.4437168,29.9339705 20.3224189,29.9604012 20.199469,29.9604012 L19.7365782,29.9604012 L19.7365782,32.5811681 C19.7365782,32.8061829 19.7666667,32.9385723 19.7916814,33.0099587 C19.8437168,32.9929676 19.9134513,32.963705 20.0031268,32.9126136 C20.2138643,32.7921416 20.4653097,32.7652389 20.6953982,32.8405192 C20.7525074,32.8585723 20.8025369,32.8900767 20.8531563,32.9204012 C20.8380531,32.6105487 20.8295575,32.2985723 20.8295575,31.984708 C20.8295575,31.404413 20.859882,30.8317876 20.9110914,30.264708 L20.9110914,29.6195162 C20.8079646,29.7268909 20.6925664,29.8215221 20.5555752,29.883351" id="Fill-20" fill="#C2B02F"></path>
                    <path d="M34.3562714,7.89214159 C34.5526136,7.75432448 34.683705,7.58276106 34.7500177,7.37721534 C34.8164484,7.1719056 34.8225841,6.96612389 34.7674808,6.76034218 C34.6870088,6.45886726 34.5115516,6.2399882 34.2409912,6.10417699 C33.9703127,5.96824779 33.5985133,5.96317404 33.1259469,6.08919174 L31.1088378,6.62677286 L31.6707257,8.73568142 L33.483705,8.25273156 C33.8690737,8.14984071 34.1605192,8.02972271 34.3562714,7.89214159" id="Fill-22" fill="#C2B02F"></path>
                    <path d="M18.1913156,14.7932979 L22.864826,16.8108791 C23.2394572,16.972295 23.5815221,17.1334749 23.8909027,17.2948909 C23.6968024,16.9745369 23.5150914,16.6423835 23.344118,16.2978407 L21.0568024,11.7243894 L21.664944,11.0730619 L24.724531,17.4636224 L24.1130855,18.1182537 L17.5465959,15.4841534 L18.1913156,14.7932979 Z M27.4950324,7.27872566 L27.9001062,7.9439764 L24.5709027,9.9699351 L25.6211681,11.6959528 L28.7388083,9.79860767 L29.1415221,10.4598466 L26.024,12.3571917 L27.1911976,14.2755398 L30.6509027,12.1696991 L31.0558584,12.8348319 L26.8504307,15.3943599 L23.4199882,9.75896165 L27.4950324,7.27872566 Z M32.903764,5.39388791 C33.4719056,5.24261947 33.9192212,5.18468437 34.2454749,5.22043658 C34.5717286,5.2560708 34.8619941,5.39530383 35.1156814,5.63813569 C35.3699587,5.88108555 35.543764,6.17784071 35.6372153,6.52863717 C35.7575693,6.98090855 35.7130855,7.40108555 35.5027021,7.78916814 C35.2923186,8.17736873 34.8929086,8.49512684 34.30341,8.7420885 C34.5554454,8.7899941 34.7528496,8.85040708 34.8969204,8.92415339 C35.203469,9.08450737 35.5122596,9.30492035 35.8228201,9.58539233 L37.3939115,11.0249204 L36.3330265,11.3077522 L35.1359764,10.2061593 C34.7877758,9.88910914 34.5064779,9.65064307 34.2932625,9.4900531 C34.0794572,9.32969912 33.8990442,9.22562832 33.7515516,9.1780767 C33.603587,9.13064307 33.4602242,9.1079882 33.3212271,9.11082006 C33.2205782,9.11624779 33.0608142,9.14775221 32.843705,9.20568732 L31.8654159,9.46633628 L32.6197522,12.2973687 L31.7759764,12.5220295 L30.0769794,6.14716224 L32.903764,5.39388791 Z M38.6057109,4.57064307 L38.9657109,11.1581357 L38.0937345,11.2058053 L37.7342065,4.61819469 L38.6057109,4.57064307 Z M41.0910206,4.51329794 L45.5068319,5.07105605 L45.4090147,5.84332743 L41.8593982,5.39506785 L41.603469,7.4220885 L44.6754454,7.8100531 L44.5775103,8.58232448 L41.5060059,8.19459587 L41.1303127,11.1680472 L40.264,11.0586667 L41.0910206,4.51329794 Z M47.624826,5.72356342 L48.4569204,5.98940413 L46.4484248,12.2737699 L45.6165664,12.0079292 L47.624826,5.72356342 Z M50.8419351,6.81630678 L55.0198702,9.11872566 L54.644059,9.80061357 L51.2307257,7.91966962 L50.2551504,9.68910914 L53.4514926,11.4507611 L53.0780413,12.1288732 L49.8816991,10.3673392 L48.7976873,12.3339469 L52.3450619,14.2887552 L51.9693687,14.9707611 L47.6573923,12.5944779 L50.8419351,6.81630678 Z M57.2795752,10.7903481 L58.8816991,12.4022655 C59.243351,12.7659233 59.4970383,13.0657463 59.6428791,13.3017345 C59.8474808,13.631174 59.9628791,13.9708791 59.9898997,14.3210855 C60.0264779,14.7753628 59.943174,15.2248024 59.7408142,15.6697581 C59.5376283,16.1144779 59.2275398,16.5442124 58.8107847,16.9588437 C58.4552684,17.312118 58.0992802,17.5835044 57.7424661,17.7733569 C57.3852979,17.9635634 57.0524366,18.0827375 56.74341,18.131587 C56.4345015,18.1806726 56.1522596,18.1792566 55.8957404,18.1274572 C55.6393392,18.0760118 55.3759764,17.9674572 55.1058879,17.8022655 C54.8359174,17.6369558 54.5602832,17.4130029 54.2791032,17.1300531 L52.6005192,15.4416755 L57.2795752,10.7903481 Z M8.69963422,27.6557168 C9.324059,27.6207906 10.4510206,27.4886372 11.244295,27.391882 C11.4914926,27.3643894 11.7368024,27.4390796 11.9214631,27.6028555 C12.0006372,27.6731799 12.0650619,27.7558938 12.1130855,27.8468673 C12.2505487,27.7355988 12.42341,27.6652743 12.6129086,27.6557168 C13.3222891,27.6191386 14.5750324,27.4778997 15.1982773,27.3935339 C15.444649,27.3615575 15.6946785,27.4345959 15.8826431,27.5988437 C15.9211091,27.63259 15.9541475,27.671528 15.9855339,27.7108201 C16.063764,27.6433274 16.1487198,27.5853923 16.244295,27.5499941 L16.244295,27.4790796 C16.244295,27.2079292 16.3718466,26.951882 16.5886018,26.7888142 L18.1024661,25.6491091 C18.3620531,25.4539469 18.7093097,25.4206726 19.0007552,25.5625015 L19.2510206,25.6845074 C19.5481298,25.8297581 19.7365664,26.131233 19.7365664,26.4614985 L19.7365664,27.4959528 L20.2997522,27.4959528 C20.504944,27.4959528 20.703528,27.5689912 20.8598702,27.7024425 C20.8796932,27.7191976 20.8929086,27.7423245 20.9110796,27.7603776 L20.9110796,26.3263953 L20.9110796,26.2673982 C20.864472,26.2639764 20.8193982,26.2611445 20.7815221,26.2589027 C20.3252389,26.231292 19.9694867,25.8533569 19.9694867,25.3966018 L19.9694867,24.9813805 C19.9694867,24.5555398 20.2793392,24.1932979 20.6998702,24.1274572 C21.2070088,24.0485192 21.983882,23.9058643 22.7166254,23.7593156 C25.7709027,17.4751858 32.2147965,13.1431504 39.6711976,13.1431504 C50.0053569,13.1431504 58.3910796,21.4630324 58.5070678,31.7695811 C59.3723186,31.8735339 60.0478348,32.5170737 60.2008732,33.372649 C60.2300177,33.3681652 60.2622301,33.3637994 60.2812271,33.3593156 C60.3746785,32.6774277 60.4179823,31.8353038 60.4179823,30.7609676 L60.4179823,27.8953628 C60.4179823,27.1538879 60.4111386,26.9052743 60.3330265,26.8034454 C60.2953864,26.7550678 60.2452389,26.691469 59.723823,26.6493451 C59.2749735,26.612767 58.9294867,26.2381357 58.9294867,25.7881062 L58.9294867,25.3346549 C58.9294867,24.8576047 59.3165074,24.4707021 59.7935575,24.4707021 L62.304,24.4707021 C62.5561534,24.4707021 62.7953274,24.5803186 62.9595752,24.771587 L67.0577463,29.5373687 L67.0577463,29.2865133 C67.0577463,27.9183717 66.9894277,27.1707611 66.9333805,26.7207316 C66.843705,26.6977227 66.6698997,26.6672802 66.3425841,26.6509971 C65.8829971,26.6278702 65.5218171,26.2487552 65.5218171,25.7881062 L65.5218171,25.3346549 C65.5218171,24.8576047 65.9088378,24.4707021 66.3858879,24.4707021 L68.4290737,24.4707021 C68.3187493,24.0388437 68.2018171,23.6096991 68.0707257,23.1863363 L70.4624661,22.3157758 L69.50341,19.6781357 L67.1127316,20.5483422 C66.8134985,19.831174 66.4820531,19.1309971 66.1292507,18.4436814 L68.3333805,17.171115 L66.9310206,14.7399646 L64.7320826,16.0095811 C64.3141475,15.3553038 63.8759174,14.7150678 63.4096047,14.0972507 L65.343528,12.4742419 L63.5399882,10.3234454 L61.6162124,11.9378407 C61.0918466,11.3646254 60.5416401,10.8157168 59.9746785,10.2848614 L61.583056,8.3680472 L59.4335575,6.56285546 L57.8370973,8.46539233 C57.2221121,7.98940413 56.5882478,7.53689676 55.9356224,7.10964012 L57.1670088,4.97701475 L54.7364484,3.57276696 L53.5179233,5.68309145 C52.8289558,5.31966962 52.124531,4.97984661 51.404413,4.67023009 L52.2291917,2.40462537 L49.5914336,1.44344543 L48.7750324,3.68639528 C48.0319056,3.44757522 47.2754454,3.24049558 46.5080118,3.0599646 L46.9194572,0.728519174 L44.1550914,0.240259587 L43.7484838,2.54610029 C42.9743245,2.43978761 42.1917876,2.3599056 41.3996932,2.31435988 L41.3996932,2.35988201e-05 L38.5921416,2.35988201e-05 L38.5921416,2.2879292 C37.7961534,2.31636578 37.0080708,2.37536283 36.2289558,2.46539233 L35.8368614,0.241085546 L33.0720236,0.728519174 L33.4579823,2.91589381 C32.6770973,3.0819115 31.9081298,3.28014159 31.1509617,3.50633628 L30.4005192,1.44438938 L27.7628791,2.40462537 L28.5025841,4.43789971 C27.7616991,4.73890265 27.0354454,5.06905015 26.3254749,5.42657227 L25.2556224,3.57359292 L22.824354,4.97701475 L23.8801652,6.8059233 C23.2016991,7.23235398 22.5373923,7.67978761 21.8966844,8.15825369 L20.5589853,6.56368142 L18.4084248,8.36828319 L19.7298407,9.94338643 C19.1340885,10.4826195 18.5653569,11.0499351 18.0151504,11.6351858 L16.4524366,10.3240354 L14.6478348,12.4745959 L16.1909617,13.7688732 C15.6969204,14.4046254 15.2277758,15.0603186 14.7857699,15.7355988 L13.0615221,14.7402006 L11.6579823,17.171469 L13.3607552,18.1548319 C12.9850619,18.8683422 12.6328496,19.5966018 12.3150914,20.3430324 L10.4891327,19.6783717 L9.52877876,22.3161298 L11.3406962,22.9757168 C11.0965664,23.7440944 10.8878348,24.5278112 10.7056519,25.3219115 L8.81267257,24.9881062 L8.32559292,27.752472 L8.34659587,27.7561298 C8.45326254,27.6998466 8.5719646,27.6630324 8.69963422,27.6557168 L8.69963422,27.6557168 Z" id="Fill-24" fill="#C2B02F"></path>
                    <g id="Group-28" transform="translate(0.000000, 25.121180)">
                        <mask id="mask-4" fill="white">
                            <use xlink:href="#path-3"></use>
                        </mask>
                        <g id="Clip-27"></g>
                        <path d="M5.46500295,9.58702065 L9.41627139,9.58702065 L9.41627139,9.13699115 C8.65178761,9.04129794 8.41898525,8.98289086 7.91987021,7.61982301 C7.3720236,6.16058997 6.73532743,4.43705015 6.13048968,2.7339233 L5.17981121,0.0515634218 L4.47102065,0.245899705 L1.55538643,7.66477876 C1.05143363,8.96483776 0.86299705,9.03292035 -1.179941e-05,9.13699115 L-1.179941e-05,9.58702065 L3.2520236,9.58702065 L3.2520236,9.13699115 L2.89544543,9.09710914 C2.22759882,9.02230088 2.20234808,8.8679646 2.41379351,8.14135693 C2.60164012,7.51622419 2.79019469,6.88318584 2.96742183,6.46218289 L5.52352802,6.46218289 C5.74181711,6.99126844 6.01686136,7.74643068 6.20364602,8.22572271 C6.44777581,8.84684366 6.37355752,9.00530973 5.84246608,9.08306785 L5.46500295,9.13699115 L5.46500295,9.58702065 Z M4.19656637,2.75646018 L4.23762832,2.75646018 L5.28057817,5.73109145 L3.16482596,5.73109145 L4.19656637,2.75646018 L4.19656637,2.75646018 Z" id="Fill-26" fill="#095581" mask="url(#mask-4)"></path>
                    </g>
                    <path d="M13.5492153,29.6917286 C13.5492153,29.163823 13.4788909,29.0716696 13.1054395,29.0083068 L12.6570619,28.9373923 L12.6570619,28.5186313 C13.3804838,28.4818171 14.635587,28.3417581 15.3139351,28.2499587 L15.3139351,33.1521416 C15.3139351,33.7508437 15.3718702,33.9115516 15.8314572,33.9115516 L16.2803068,33.9115516 L16.2803068,34.3572153 C15.4147021,34.4815811 14.4897463,34.683587 13.6634336,34.8932625 L13.5492153,34.7942655 L13.5492153,33.8700177 C13.276885,34.0701357 13.0339351,34.2547965 12.7149971,34.4494867 C12.2688614,34.7205192 11.9054395,34.8719056 11.4515162,34.8719056 C10.2465605,34.8719056 9.58284366,34.0701357 9.58284366,32.963351 L9.58284366,29.6917286 C9.58284366,29.163823 9.51251917,29.0716696 9.13953982,29.0083068 L8.7480354,28.9373923 L8.7480354,28.5186313 C9.41175221,28.4818171 10.595351,28.3417581 11.3486254,28.2499587 L11.3486254,32.603469 C11.3486254,33.4525546 11.7801298,33.78459 12.3224307,33.78459 C12.7279764,33.78459 13.1301003,33.5955634 13.5492153,33.2321416 L13.5492153,29.6917286" id="Fill-29" fill="#095581"></path>
                    <path d="M18.8724838,32.5812035 C18.8724838,33.6883422 19.4186785,33.8953038 19.6802714,33.8953038 C19.908708,33.8953038 20.1561416,33.8199056 20.4311858,33.6630914 L20.6298879,34.0949499 L19.3894159,34.7205546 C19.1605074,34.8298171 18.9438702,34.871941 18.8438112,34.871941 C17.728885,34.871941 17.108354,34.3880472 17.108354,33.1049794 L17.108354,29.0967198 L16.1841062,29.0967198 L16.0822773,28.912413 L16.5452861,28.3599646 L17.108354,28.3599646 L17.108354,27.4793746 L18.6221003,26.3396696 L18.8724838,26.4614395 L18.8724838,28.3599646 L20.2997404,28.3599646 C20.4858171,28.5186667 20.4595044,28.9787257 20.1995634,29.0967198 L18.8724838,29.0967198 L18.8724838,32.5812035" id="Fill-31" fill="#095581"></path>
                    <path d="M23.5410265,29.1143717 C24.0286962,28.6328378 24.7577817,28.1915398 25.512118,28.1915398 C26.8245664,28.1915398 27.5490501,29.0136047 27.5490501,30.3733687 L27.5490501,33.2979705 C27.5490501,34.10741 27.6210265,34.1625133 28.4192566,34.2580885 L28.4192566,34.708236 L25.0301121,34.708236 L25.0301121,34.2580885 C25.7275752,34.1625133 25.7843304,34.10741 25.7843304,33.2979705 L25.7843304,30.5317168 C25.7843304,29.6394454 25.2848614,29.2603304 24.6828555,29.2603304 C24.2852153,29.2603304 23.8661003,29.4060531 23.5410265,29.7350206 L23.5410265,33.2979705 C23.5410265,34.10741 23.6101711,34.1625133 24.212059,34.2580885 L24.212059,34.708236 L20.7372507,34.708236 L20.7372507,34.2580885 C21.7014985,34.1625133 21.7752448,34.10741 21.7752448,33.2979705 L21.7752448,26.3264071 C21.7752448,25.4724838 21.7475162,25.4519528 20.8335339,25.3966136 L20.8335339,24.9813923 C21.4731799,24.8813333 22.5846844,24.6748437 23.5410265,24.4723658 L23.5410265,29.1143717" id="Fill-33" fill="#095581"></path>
                    <path d="M32.0678348,28.1915044 C30.4467139,28.1915044 28.6567434,29.4060177 28.6567434,31.6941593 C28.6567434,33.2371681 29.7694277,34.8719764 31.9930265,34.8719764 C33.6554454,34.8719764 35.3182183,33.7428909 35.3182183,31.3886726 C35.3182183,29.7103245 34.0756224,28.1915044 32.0678348,28.1915044 M30.6486018,31.1146903 C30.6486018,29.5515044 31.2600472,28.7866667 31.8495457,28.7866667 C32.7727316,28.7866667 33.3262419,29.899351 33.3262419,31.8263127 C33.3262419,33.9149263 32.6782183,34.2729204 32.1556224,34.2729204 C31.2280708,34.2729204 30.6486018,32.9283776 30.6486018,31.1146903" id="Fill-35" fill="#095581"></path>
                    <path d="M38.4076578,33.2979233 C38.4076578,34.104059 38.4779823,34.1624661 39.5890147,34.2581593 L39.5890147,34.7081888 L35.6592212,34.7081888 L35.6592212,34.2581593 C36.5664779,34.1624661 36.6406962,34.104059 36.6406962,33.2979233 L36.6406962,30.0973333 C36.6406962,29.2167434 36.6132035,29.2057699 35.6855339,29.1006372 L35.6855339,28.7110206 C36.5293097,28.5920826 37.4530855,28.3996342 38.4076578,28.1914926 L38.4076578,29.6252389 L38.4363304,29.6252389 C38.6202832,29.3328496 38.8396342,28.9880708 39.1107847,28.7014631 C39.3859469,28.4091917 39.703705,28.1914926 40.0654749,28.1914926 C40.6140295,28.1914926 41.0334985,28.5920826 41.0334985,29.0732625 C41.0334985,29.5514926 40.7140885,29.9704897 40.3505487,30.0973333 C40.1628201,30.1767434 40.0227611,30.123174 39.9051209,30.0389263 C39.6620531,29.844236 39.4134395,29.7350914 39.184413,29.7350914 C38.9404012,29.7350914 38.6501357,29.844236 38.4076578,30.4461239 L38.4076578,33.2979233" id="Fill-37" fill="#095581"></path>
                    <path d="M43.9801652,25.9129794 C43.9801652,26.4988201 43.5182183,26.9556932 42.9333215,26.9556932 C42.3723776,26.9556932 41.883056,26.4988201 41.883056,25.9129794 C41.883056,25.3251327 42.3723776,24.8633038 42.9333215,24.8633038 C43.5182183,24.8633038 43.9801652,25.3251327 43.9801652,25.9129794 M42.1710796,30.0974041 C42.1710796,29.2166962 42.143587,29.2057227 41.2198112,29.10059 L41.2198112,28.7109735 C42.0686608,28.5920354 43.024885,28.399705 43.9368614,28.1915634 L43.9368614,33.279941 C43.9368614,34.1040118 44.0093097,34.1625369 44.9278938,34.2581121 L44.9278938,34.7082596 L41.1769794,34.7082596 L41.1769794,34.2581121 C42.1012271,34.1625369 42.1710796,34.1040118 42.1710796,33.279941 L42.1710796,30.0974041" id="Fill-39" fill="#095581"></path>
                    <path d="M50.6686136,28.3571445 L50.7969912,28.5648142 L47.4767552,34.0949617 L48.61941,34.0949617 C49.6116224,34.0949617 49.999233,33.9151386 50.4835988,33.0937817 L50.6956342,32.7349617 L51.2153982,32.928354 C50.9567552,33.6449322 50.7698525,34.1794454 50.5506195,34.708177 L45.340944,34.708177 L45.1969912,34.4966136 L48.61941,28.968708 L47.6045428,28.968708 C46.6504425,28.968708 46.3949853,29.187705 46.0637758,29.8993274 L45.8583481,30.3415693 L45.340944,30.147705 C45.5113274,29.6012743 45.739292,28.6865841 45.8729794,28.0553156 L46.1929794,28.0553156 C46.2657817,28.267469 46.420944,28.3571445 46.9717404,28.3571445 L50.6686136,28.3571445" id="Fill-41" fill="#095581"></path>
                    <path d="M56.4644956,33.0369322 C55.8827847,33.4267847 55.4349971,33.5955162 54.9034336,33.5955162 C53.8025487,33.5955162 52.8203658,32.8490855 52.8203658,31.2317404 C54.255292,31.1748673 56.176944,31.0415339 56.376826,31 C56.6635516,30.9443068 56.7069735,30.9118584 56.7069735,30.3705015 C56.7069735,29.2553392 55.7083894,28.1961062 54.4572979,28.1961062 C52.6970619,28.1961062 51.1407198,29.7452507 51.1407198,31.8263127 C51.1407198,33.4441298 52.2617817,34.8719764 54.2098643,34.8719764 C54.7132271,34.8719764 55.8424307,34.5811209 56.6635516,33.3243658 L56.4644956,33.0369322 Z M52.8832566,30.5817109 C52.9683304,29.6012979 53.5043776,28.8530973 54.036649,28.8530973 C54.5849676,28.8530973 55.0458525,29.6105015 55.0458525,30.1958702 C55.0458525,30.4768142 54.9900413,30.5367552 54.776354,30.5367552 L52.8832566,30.5817109 L52.8832566,30.5817109 Z" id="Fill-43" fill="#095581"></path>
                    <path d="M57.1722242,33.7417817 C57.1722242,33.0913982 57.6464425,32.6125782 58.2647316,32.6125782 C58.895764,32.6125782 59.3726962,33.0913982 59.3726962,33.7417817 C59.3726962,34.416354 58.895764,34.8719292 58.2647316,34.8719292 C57.6464425,34.8719292 57.1722242,34.416354 57.1722242,33.7417817" id="Fill-45" fill="#095581"></path>
                    <path d="M68.6866785,34.8123658 L67.8079764,34.8123658 L62.0718112,27.7715398 L62.0414867,27.7715398 L62.0414867,30.7609204 C62.0414867,32.2789145 62.1286844,33.0786785 62.1842596,33.527882 C62.2590678,34.028177 62.6202478,34.2182655 63.5788319,34.2581475 L63.5788319,34.708177 L59.995587,34.708177 L59.995587,34.2581475 C60.7178289,34.2305369 61.0642596,34.028177 61.1312802,33.527882 C61.196059,33.0786785 61.2820767,32.2789145 61.2820767,30.7609204 L61.2820767,27.8956696 C61.2820767,26.9773215 61.2820767,26.6212153 61.0194218,26.2783245 C60.7442596,25.927528 60.3824897,25.8362006 59.7935811,25.788059 L59.7935811,25.3347257 L62.3040236,25.3347257 L67.8924602,31.8336047 L67.9217227,31.8336047 L67.9217227,29.2864661 C67.9217227,27.7715398 67.8388909,26.9773215 67.7787139,26.5222183 C67.7056755,26.0134277 67.3426077,25.8362006 66.3859115,25.788059 L66.3859115,25.3347257 L69.9698643,25.3347257 L69.9698643,25.788059 C69.2430206,25.8159056 68.9015457,26.0134277 68.8289794,26.5222183 C68.7716342,26.9773215 68.6866785,27.7715398 68.6866785,29.2864661 L68.6866785,34.8123658" id="Fill-47" fill="#095581"></path>
                    <path d="M74.4986903,33.0369322 C73.9165074,33.4267847 73.4710796,33.5955162 72.9326726,33.5955162 C71.8379233,33.5955162 70.8575103,32.8490855 70.8575103,31.2317404 C72.2863009,31.1748673 74.2073628,31.0416519 74.4093687,31 C74.6973923,30.9443068 74.7395162,30.9118584 74.7395162,30.3705015 C74.7395162,29.2553392 73.744944,28.1961062 72.4888968,28.1961062 C70.7287788,28.1961062 69.1687788,29.7452507 69.1687788,31.8263127 C69.1687788,33.4441298 70.2966844,34.8719764 72.2395752,34.8719764 C72.7482478,34.8719764 73.8761534,34.5811209 74.6973923,33.3243658 L74.4986903,33.0369322 Z M70.9175693,30.5817109 C71.0005192,29.6012979 71.5364484,28.8530973 72.0680118,28.8530973 C72.6153864,28.8530973 73.0760354,29.6105015 73.0760354,30.1958702 C73.0760354,30.4768142 73.024944,30.5367552 72.8028791,30.5367552 L70.9175693,30.5817109 L70.9175693,30.5817109 Z" id="Fill-49" fill="#095581"></path>
                    <path d="M77.5499469,32.5812035 C77.5499469,33.6883422 78.0950796,33.8953038 78.3593864,33.8953038 C78.5849912,33.8953038 78.8337227,33.8199056 79.1059351,33.6630914 L79.3090029,34.0949499 L78.067587,34.7205546 C77.8379705,34.8298171 77.6264071,34.871941 77.5196224,34.871941 C76.4108319,34.871941 75.7795634,34.3880472 75.7795634,33.1049794 L75.7795634,29.0967198 L74.8633392,29.0967198 L74.7621003,28.912413 L75.2251091,28.3599646 L75.7795634,28.3599646 L75.7795634,27.4793746 L77.3018053,26.3396696 L77.5499469,26.4614395 L77.5499469,28.3599646 L78.9772035,28.3599646 C79.1661121,28.5186667 79.1329558,28.9787257 78.8770265,29.0967198 L77.5499469,29.0967198 L77.5499469,32.5812035" id="Fill-51" fill="#095581"></path>
                    <g id="Group-55" transform="translate(78.466077, 26.301121)">
                        <mask id="mask-6" fill="white">
                            <use xlink:href="#path-5"></use>
                        </mask>
                        <g id="Clip-54"></g>
                        <path d="M0.887446056,1.03478547 L1.01961827,1.03478547 C1.10735327,1.03478547 1.16855617,1.01120056 1.20094813,0.964193404 C1.23594447,0.91621032 1.25222184,0.864648837 1.25222184,0.808370373 C1.25222184,0.773074341 1.24603644,0.742495291 1.23431673,0.712892168 C1.2196671,0.685891518 1.19622769,0.662143957 1.17164887,0.643601342 C1.1443029,0.624733417 1.0979124,0.616112728 1.03036133,0.616112728 L0.887446056,0.616112728 L0.887446056,1.03478547 Z M0.887446056,1.6780841 L0.691954886,1.6780841 L0.691954886,0.468097113 L1.08228613,0.468097113 C1.1745788,0.468097113 1.24929191,0.481109475 1.29731014,0.509411361 C1.3445145,0.536899976 1.38341741,0.576099715 1.41206557,0.628474471 C1.43859768,0.680849227 1.4538984,0.738266274 1.4538984,0.79714721 C1.4538984,0.868552546 1.43224951,0.935078245 1.39806704,1.00030271 C1.35542034,1.06390063 1.29731014,1.11318495 1.2196671,1.1476677 C1.25840723,1.17434305 1.3049605,1.2320854 1.35542034,1.32284662 L1.54309837,1.6780841 L1.32465612,1.6780841 L1.16855617,1.37993836 L1.12867662,1.30381605 C1.08391387,1.22362737 1.052173,1.18377701 1.03036133,1.18377701 L0.887446056,1.18377701 L0.887446056,1.6780841 Z M1.07447299,1.92906003 C1.22357367,1.92906003 1.36486121,1.89360134 1.49361518,1.81991884 C1.62464798,1.74786289 1.73175305,1.64441461 1.80793112,1.5125018 C1.88459752,1.38075163 1.92512816,1.23712769 1.92350042,1.08211793 C1.92350042,0.931174536 1.88459752,0.789339793 1.81265156,0.657589631 C1.73647348,0.525026196 1.63327498,0.422065883 1.49980058,0.346919494 C1.36486121,0.270959832 1.22357367,0.233386638 1.07447299,0.233386638 C0.925372319,0.233386638 0.786038064,0.270959832 0.654516944,0.346919494 C0.519740351,0.422065883 0.414914111,0.525026196 0.341177642,0.657589631 C0.265813436,0.789339793 0.228701041,0.931174536 0.228701041,1.08211793 C0.228701041,1.23712769 0.265813436,1.38075163 0.342642605,1.5125018 C0.42419221,1.64441461 0.528204581,1.74786289 0.659400154,1.81991884 C0.786038064,1.89360134 0.928627793,1.92906003 1.07447299,1.92906003 L1.07447299,1.92906003 Z M1.07447299,2.08097935 C0.899979628,2.08097935 0.735252681,2.03868918 0.582408211,1.95183166 C0.428912646,1.86562476 0.306995173,1.74542307 0.213074769,1.58878677 C0.120131007,1.43263843 0.0773215339,1.26364038 0.0773215339,1.08211793 C0.0773215339,0.903035304 0.120131007,0.736639728 0.209168201,0.580003424 C0.297879848,0.425969592 0.421262284,0.303165428 0.579315511,0.214681368 C0.730857792,0.12554669 0.899979628,0.080979351 1.07447299,0.080979351 C1.25222184,0.080979351 1.41987871,0.12554669 1.57516478,0.214681368 C1.73175305,0.303165428 1.85285665,0.425969592 1.94140553,0.580003424 C2.03207046,0.736639728 2.07732153,0.903035304 2.07732153,1.08211793 C2.07732153,1.26364038 2.03044272,1.43263843 1.93749896,1.58878677 C1.84504352,1.74542307 1.72247495,1.86562476 1.56897938,1.95183166 C1.41515827,2.03868918 1.25075687,2.08097935 1.07447299,2.08097935 L1.07447299,2.08097935 Z" id="Fill-53" fill="#095581" mask="url(#mask-6)"></path>
                    </g>
                    <polygon id="Fill-56" fill="#898989" points="49.9986667 40.9815929 49.9986667 40.0056637 49.0232094 40.0056637 49.0232094 39.0296165 48.0477522 39.0296165 48.0477522 38.0541593 47.071233 38.0541593 47.071233 44.8850737 48.0477522 44.8850737 48.0477522 43.9091445 49.0232094 43.9091445 49.0232094 42.9335693 49.9986667 42.9335693 49.9986667 41.9571681 50.9751858 41.9571681 50.9751858 40.9815929"></polygon>
                    <mask id="mask-8" fill="white">
                        <use xlink:href="#path-7"></use>
                    </mask>
                    <g id="Clip-59"></g>
                    <polygon id="Fill-58" fill="#898989" mask="url(#mask-8)" points="29.9937463 39.2737463 32.4335103 39.2737463 32.4335103 38.2978171 29.9937463 38.2978171"></polygon>
                    <polygon id="Fill-60" fill="#898989" mask="url(#mask-8)" points="38.7766372 40.9815929 40.7280236 40.9815929 40.7280236 40.0056637 38.7766372 40.0056637"></polygon>
                    <polygon id="Fill-61" fill="#898989" mask="url(#mask-8)" points="40.7280236 41.9571681 41.7040708 41.9571681 41.7040708 40.9815929 40.7280236 40.9815929"></polygon>
                    <polygon id="Fill-62" fill="#898989" mask="url(#mask-8)" points="40.7281416 43.6650147 41.7041888 43.6650147 41.7041888 42.6894395 40.7281416 42.6894395"></polygon>
                    <polygon id="Fill-63" fill="#898989" mask="url(#mask-8)" points="38.7766372 44.640826 40.7280236 44.640826 40.7280236 43.6648968 38.7766372 43.6648968"></polygon>
                    <polygon id="Fill-64" fill="#898989" mask="url(#mask-8)" points="37.800708 43.6648968 38.7766372 43.6648968 38.7766372 40.9815929 37.800708 40.9815929"></polygon>
                    <polygon id="Fill-65" fill="#898989" mask="url(#mask-8)" points="32.4335103 40.2490855 33.4094395 40.2490855 33.4094395 39.2737463 32.4335103 39.2737463"></polygon>
                    <polygon id="Fill-66" fill="#898989" mask="url(#mask-8)" points="45.3635398 41.2257227 46.339941 41.2257227 46.339941 40.2490855 45.3635398 40.2490855"></polygon>
                    <polygon id="Fill-67" fill="#898989" mask="url(#mask-8)" points="45.3635398 44.640826 46.339941 44.640826 46.339941 43.6648968 45.3635398 43.6648968"></polygon>
                    <polygon id="Fill-68" fill="#898989" mask="url(#mask-8)" points="44.3879646 41.9571209 43.4125074 41.9571209 43.4125074 38.2977699 42.4359882 38.2977699 42.4359882 44.6408968 43.4125074 44.6408968 43.4125074 42.9335221 44.3879646 42.9335221 44.3879646 43.6649676 45.3635398 43.6649676 45.3635398 41.2257935 44.3879646 41.2257935"></polygon>
                    <polygon id="Fill-69" fill="#898989" mask="url(#mask-8)" points="32.4335103 43.6650147 33.4094395 43.6650147 33.4094395 42.6894395 32.4335103 42.6894395"></polygon>
                    <polygon id="Fill-70" fill="#898989" mask="url(#mask-8)" points="29.9937463 44.640826 32.4335103 44.640826 32.4335103 43.6648968 29.9937463 43.6648968"></polygon>
                    <polygon id="Fill-71" fill="#898989" mask="url(#mask-8)" points="29.0178171 43.6648968 29.9937463 43.6648968 29.9937463 39.2737463 29.0178171 39.2737463"></polygon>
                    <polygon id="Fill-72" fill="#898989" mask="url(#mask-8)" points="34.3850147 44.640944 35.360944 44.640944 35.360944 38.2978171 34.3850147 38.2978171"></polygon>
                    <polygon id="Fill-73" fill="#898989" mask="url(#mask-8)" points="36.0927434 44.640944 37.0686726 44.640944 37.0686726 40.0056637 36.0927434 40.0056637"></polygon>
                    <polygon id="Fill-74" fill="#898989" mask="url(#mask-8)" points="36.0927434 39.2737463 37.0686726 39.2737463 37.0686726 38.2978171 36.0927434 38.2978171"></polygon>
                </g>
            </g>
        </g>
    </g>
</svg>