<svg xmlns="http://www.w3.org/2000/svg" width="158" height="54" viewBox="0 0 158 54">
    <g fill="none" fill-rule="evenodd">
        <g>
            <path fill="#253B80" d="M59.349 8h-8.653c-.59 0-1.095.453-1.188 1.061l-3.5 23.204c-.005.039-.008.078-.008.117 0 .414.325.754.721.754h4.132c.59 0 1.097-.454 1.188-1.063l.944-6.258c.091-.609.597-1.063 1.187-1.063h2.739c5.7 0 8.989-2.884 9.848-8.6.387-2.5.016-4.466-1.104-5.842C64.425 8.8 62.245 8 59.35 8zm.998 8.475c-.473 3.247-2.846 3.247-5.14 3.247h-1.305l.916-6.064c.056-.365.36-.637.712-.637h.599c1.562 0 3.036 0 3.798.932.454.556.593 1.381.42 2.522zm24.865-.105H81.07c-.353 0-.657.271-.713.637l-.183 1.212-.29-.44c-.897-1.361-2.897-1.816-4.893-1.816-4.579 0-8.49 3.626-9.251 8.714-.396 2.538.167 4.964 1.543 6.657 1.263 1.556 3.07 2.204 5.22 2.204 3.688 0 5.734-2.48 5.734-2.48l-.185 1.203c-.006.04-.009.08-.009.12 0 .412.326.753.72.753h3.733c.59 0 1.096-.453 1.188-1.062l2.239-14.831c.006-.04.009-.08.009-.12 0-.412-.324-.75-.719-.75zm-5.775 8.434c-.4 2.476-2.279 4.137-4.675 4.137-1.203 0-2.165-.403-2.782-1.168-.612-.76-.845-1.84-.65-3.044.373-2.455 2.283-4.171 4.643-4.171 1.176 0 2.133.409 2.763 1.18.631.78.882 1.867.7 3.066zm27.842-8.434h-4.164c-.398 0-.771.208-.995.552l-5.743 8.847-2.434-8.502c-.153-.53-.624-.897-1.154-.897h-4.094c-.395 0-.721.34-.721.754 0 .084.014.166.04.244l4.585 14.076-4.311 6.365c-.086.127-.133.28-.133.437 0 .414.325.754.721.754h4.159c.393 0 .764-.201.988-.54l13.848-20.906c.083-.125.129-.276.129-.43 0-.414-.325-.754-.721-.754z" transform="translate(0 8)"/>
            <path fill="#179BD7" d="M121.477 9.001h-8.737c-.594 0-1.106.443-1.198 1.039l-3.533 22.714c-.006.038-.009.076-.009.115 0 .404.328.737.727.737h4.483c.417 0 .774-.31.838-.728l1.003-6.438c.092-.596.603-1.04 1.198-1.04h2.764c5.755 0 9.075-2.824 9.944-8.419.392-2.448.015-4.371-1.115-5.718C126.602 9.783 124.4 9 121.477 9zm1.008 8.296c-.477 3.178-2.872 3.178-5.189 3.178h-1.317l.926-5.935c.055-.358.362-.623.718-.623h.604c1.577 0 3.066 0 3.835.911.458.544.598 1.353.423 2.47zm25.102-.102h-4.18c-.357-.002-.664.265-.718.623l-.185 1.186-.294-.43c-.906-1.333-2.924-1.778-4.94-1.778-4.622 0-8.569 3.55-9.338 8.53-.398 2.484.168 4.86 1.557 6.516 1.278 1.523 3.1 2.158 5.27 2.158 3.724 0 5.79-2.429 5.79-2.429l-.187 1.18c-.007.038-.01.077-.01.116 0 .405.33.738.729.738h3.768c.595 0 1.106-.444 1.198-1.04l2.262-14.518c.005-.038.009-.075.009-.113 0-.405-.33-.74-.73-.74zm-5.83 8.255c-.402 2.424-2.3 4.05-4.72 4.05-1.212 0-2.186-.395-2.809-1.143-.618-.744-.85-1.802-.656-2.98.379-2.403 2.305-4.083 4.687-4.083 1.188 0 2.154.4 2.79 1.155.64.763.893 1.828.708 3.001zm10.762-15.826l-3.585 23.13c-.007.038-.01.076-.01.115 0 .404.329.737.728.737h3.604c.6 0 1.108-.44 1.2-1.04l3.535-22.712c.006-.038.009-.077.009-.116 0-.404-.328-.737-.727-.738h-4.036c-.356.001-.663.267-.718.624z" transform="translate(0 8)"/>
            <path fill="#253B80" d="M9.66 37l.646-4.251-1.438-.035H2L6.773 1.343c.03-.197.195-.344.388-.343h11.58c3.844 0 6.498.83 7.883 2.466.65.768 1.063 1.57 1.263 2.453.21.927.213 2.034.008 3.384l-.014.099v.865l.649.381c.496.26.942.613 1.315 1.04.555.656.915 1.49 1.066 2.48.157 1.017.105 2.228-.151 3.598-.297 1.577-.776 2.95-1.423 4.074-.57 1.007-1.338 1.879-2.253 2.56-.859.632-1.88 1.111-3.034 1.419-1.119.302-2.394.454-3.793.454h-.901c-.645 0-1.27.24-1.762.672-.49.436-.816 1.038-.919 1.7l-.067.382-1.141 7.493-.052.275c-.014.087-.037.13-.072.16-.033.028-.075.045-.118.045H9.66z" transform="translate(0 8)"/>
            <path fill="#179BD7" d="M29.87 9c-.034.239-.074.482-.119.733-1.53 8.464-6.77 11.388-13.46 11.388h-3.407c-.818 0-1.507.64-1.635 1.509L9.505 34.54l-.494 3.375c-.007.048-.011.097-.011.147 0 .514.394.938.871.938h6.042c.716 0 1.324-.56 1.436-1.32l.06-.33 1.137-7.772.073-.427c.112-.762.72-1.322 1.436-1.322h.904c5.854 0 10.436-2.559 11.776-9.964.56-3.093.27-5.676-1.211-7.492-.47-.563-1.03-1.028-1.654-1.373z" transform="translate(0 8)"/>
            <path fill="#222D65" d="M28.366 8.596c-.5-.153-1.007-.272-1.52-.358-1.014-.165-2.038-.245-3.064-.237h-9.286c-.727 0-1.353.567-1.464 1.33l-1.975 13.282L11 23c.126-.87.84-1.518 1.668-1.518h3.476c6.827 0 12.172-2.943 13.735-11.457.046-.252.086-.497.121-.737-.412-.23-.842-.423-1.285-.575-.116-.04-.232-.08-.35-.117z" transform="translate(0 8)"/>
            <path fill="#253B80" d="M12.026 10.043c.11-.742.729-1.295 1.45-1.292h9.196c1.09 0 2.106.074 3.034.23.628.104 1.247.258 1.853.461.456.158.88.344 1.272.56.46-3.062-.004-5.147-1.591-7.034C25.49.89 22.332 0 18.29 0H6.557C5.731 0 5.027.626 4.9 1.478L.013 33.784c-.01.055-.013.11-.013.165 0 .576.454 1.05 1.007 1.051H8.25l1.818-12.034 1.957-12.923z" transform="translate(0 8)"/>
        </g>
    </g>
</svg>
