<svg xmlns="http://www.w3.org/2000/svg" width="69" height="54" viewBox="0 0 69 54">
    <g fill="none" fill-rule="evenodd">
        <path fill="#231F20" d="M15.005 50.845c0-1 .65-1.823 1.71-1.823 1.013 0 1.697.787 1.697 1.823 0 1.037-.684 1.824-1.697 1.824-1.06 0-1.71-.822-1.71-1.824m4.562 0v-2.849h-1.225v.694c-.389-.513-.978-.834-1.78-.834-1.579 0-2.818 1.252-2.818 2.99 0 1.74 1.238 2.992 2.818 2.992.802 0 1.391-.322 1.78-.835v.692h1.224v-2.85h.001zm41.401 0c0-1 .649-1.823 1.71-1.823 1.014 0 1.697.787 1.697 1.823 0 1.037-.683 1.824-1.697 1.824-1.06 0-1.71-.822-1.71-1.824m4.563 0V45.71h-1.226v2.981c-.389-.513-.978-.834-1.78-.834-1.58 0-2.818 1.252-2.818 2.99 0 1.74 1.238 2.992 2.818 2.992.802 0 1.391-.322 1.78-.835v.692h1.226v-2.85zm-30.756-1.882c.79 0 1.296.5 1.426 1.382h-2.924c.131-.823.625-1.382 1.498-1.382m.024-1.11c-1.651 0-2.806 1.214-2.806 2.99 0 1.812 1.201 2.992 2.889 2.992.848 0 1.625-.214 2.31-.798l-.601-.918c-.473.381-1.074.596-1.64.596-.79 0-1.508-.37-1.685-1.396h4.184c.012-.154.024-.309.024-.476-.012-1.775-1.098-2.99-2.675-2.99m14.793 2.99c0-1.001.649-1.823 1.71-1.823 1.013 0 1.697.787 1.697 1.823 0 1.037-.684 1.824-1.698 1.824-1.06 0-1.71-.823-1.71-1.824m4.563 0v-2.847h-1.225v.694c-.39-.513-.978-.834-1.78-.834-1.579 0-2.818 1.252-2.818 2.99 0 1.74 1.238 2.992 2.818 2.992.802 0 1.39-.322 1.78-.835v.692h1.225v-2.852zm-11.482 0c0 1.728 1.19 2.991 3.007 2.991.848 0 1.414-.19 2.025-.679l-.588-1c-.46.333-.943.512-1.477.512-.978-.012-1.697-.727-1.697-1.824 0-1.096.72-1.811 1.697-1.823.532 0 1.015.178 1.477.512l.588-1c-.612-.49-1.178-.68-2.025-.68-1.817 0-3.007 1.263-3.007 2.991m15.796-2.99c-.707 0-1.167.333-1.485.834v-.69h-1.215v5.695h1.227v-3.193c0-.943.4-1.466 1.202-1.466.262-.004.522.045.766.143l.378-1.167c-.271-.108-.625-.156-.873-.156m-32.843.596c-.59-.393-1.402-.596-2.298-.596-1.427 0-2.346.692-2.346 1.824 0 .928.684 1.501 1.944 1.68l.579.083c.672.096.989.274.989.596 0 .44-.446.692-1.285.692-.848 0-1.46-.274-1.874-.596l-.575.966c.672.5 1.52.739 2.44.739 1.627 0 2.57-.775 2.57-1.86 0-1-.743-1.524-1.969-1.703l-.577-.085c-.53-.069-.956-.177-.956-.559 0-.416.4-.667 1.073-.667.72 0 1.415.274 1.757.489l.53-1.002-.002-.001zm15.81-.595c-.707 0-1.167.334-1.484.835v-.693h-1.215v5.696h1.226v-3.193c0-.943.4-1.466 1.201-1.466.263-.004.523.045.767.143l.377-1.167c-.27-.108-.625-.156-.873-.156m-10.455.143h-2.004v-1.728h-1.238v1.728h-1.143v1.132h1.143v2.599c0 1.321.507 2.108 1.957 2.108.531 0 1.144-.166 1.533-.44l-.354-1.06c-.366.213-.767.321-1.085.321-.613 0-.813-.382-.813-.953v-2.574h2.004v-1.133zM12.66 53.693V50.12c0-1.346-.849-2.252-2.217-2.264-.719-.013-1.46.214-1.98 1.013-.389-.632-1.001-1.013-1.862-1.013-.602 0-1.19.178-1.65.845v-.704H3.723v5.696H4.96v-3.158c0-.989.542-1.514 1.38-1.514.814 0 1.226.536 1.226 1.501v3.17h1.238v-3.158c0-.989.566-1.514 1.379-1.514.837 0 1.236.536 1.236 1.502v3.17l1.241.002z"/>
        <path fill="#FF5F00" d="M43.789 38.319L25.221 38.319 25.221 4.586 43.789 4.586z"/>
        <path fill="#EB001B" d="M26.398 21.453c0-6.842 3.17-12.938 8.105-16.866C30.768 1.61 26.145-.007 21.389 0 9.669 0 .169 9.605.169 21.453c0 11.849 9.5 21.453 21.22 21.453 4.756.008 9.379-1.61 13.114-4.586-4.935-3.928-8.105-10.024-8.105-16.867"/>
        <path fill="#F79410" d="M68.84 21.453c0 11.849-9.5 21.453-21.22 21.453-4.757.007-9.38-1.61-13.116-4.586 4.937-3.929 8.106-10.024 8.106-16.867 0-6.843-3.17-12.938-8.106-16.866C38.24 1.61 42.863-.007 47.62 0c11.72 0 21.22 9.605 21.22 21.453"/>
    </g>
</svg>
