<svg xmlns="http://www.w3.org/2000/svg" width="54" height="54" viewBox="0 0 54 54">
    <g fill="none" fill-rule="evenodd">
        <path fill="#006FCF" d="M54 34.979c0 1.352-.854 1.982-2.383 1.982h-2.922V35.61h2.922c.27 0 .495-.045.585-.135.09-.09.18-.226.18-.406 0-.18-.09-.36-.18-.45-.09-.09-.27-.135-.54-.135-1.393-.046-3.147.044-3.147-1.939 0-.902.584-1.893 2.158-1.893h3.012v1.352h-2.787c-.27 0-.45 0-.585.09-.135.135-.224.27-.224.496 0 .225.135.36.314.451.18.045.36.09.585.09h.81c.853 0 1.393.18 1.753.496.27.316.449.722.449 1.353zm-6.34-1.353c-.36-.316-.9-.496-1.753-.496h-.81c-.224 0-.404-.045-.584-.09-.18-.09-.314-.226-.314-.45 0-.226.044-.362.224-.497.135-.09.315-.09.585-.09h2.787v-1.352h-3.012c-1.619 0-2.159.991-2.159 1.893 0 1.983 1.754 1.893 3.148 1.939.27 0 .45.044.54.135.089.09.18.27.18.45s-.09.316-.18.406c-.136.09-.315.135-.585.135h-2.923v1.352h2.923c1.528 0 2.383-.63 2.383-1.982 0-.631-.18-1.037-.45-1.353zm-5.755 2.029h-3.552v-1.263h3.462v-1.261h-3.462v-1.173h3.552v-1.306H36.87v6.31h5.035v-1.307zm-6.654-4.688c-.495-.27-1.08-.316-1.844-.316h-3.462v6.31h1.529v-2.298h1.619c.539 0 .854.045 1.079.27.27.315.27.857.27 1.263v.765h1.483v-1.217c0-.586-.045-.856-.224-1.171-.136-.181-.405-.406-.764-.542.404-.134 1.079-.675 1.079-1.667 0-.721-.27-1.127-.765-1.397zm-8.543-.316h-4.811l-1.934 2.074-1.843-2.074h-6.07v6.31h5.98l1.934-2.073 1.843 2.073h2.923v-2.118h1.888c1.304 0 2.608-.36 2.608-2.118 0-1.713-1.349-2.074-2.518-2.074zm7.329 2.615c-.225.09-.45.09-.72.09l-1.843.045v-1.443h1.843c.27 0 .54 0 .72.135.18.091.314.27.314.541s-.134.497-.314.632zm-7.33.315H24.73v-1.623h1.979c.54 0 .9.226.9.767s-.36.856-.9.856zm-5.8.225l2.339-2.478v5.093l-2.338-2.615zm-3.641 1.849h-3.732v-1.263h3.327v-1.261h-3.327v-1.173h3.777l1.663 1.848-1.708 1.849zm32.552-9.557H47.66l-2.832-4.732v4.732H41.77l-.585-1.397h-3.147l-.585 1.397H35.7c-.72 0-1.663-.18-2.202-.721-.495-.54-.765-1.262-.765-2.389 0-.946.135-1.803.809-2.479.45-.496 1.259-.72 2.293-.72h1.438v1.352h-1.438c-.54 0-.854.09-1.17.36-.269.27-.404.766-.404 1.443 0 .676.135 1.171.405 1.487.225.225.63.315 1.034.315h.674l2.159-4.958h2.248l2.518 5.95v-5.95h2.338l2.653 4.372v-4.372h1.528v6.31zm-17.85-6.31H30.44v6.31h1.529v-6.31zm-3.192.27c-.495-.27-1.034-.27-1.798-.27h-3.463v6.31H25V23.8h1.619c.54 0 .9.045 1.124.27.27.316.224.857.224 1.217v.811h1.529v-1.262c0-.54-.045-.811-.27-1.127-.135-.18-.404-.406-.719-.54.404-.18 1.08-.677 1.08-1.668 0-.721-.315-1.127-.81-1.442zm-6.34 4.734H18.93v-1.263h3.462v-1.307H18.93v-1.127h3.507v-1.307H17.4v6.31h5.036v-1.306zm-6.16-5.004h-2.473L11.96 24.07l-1.978-4.282H7.554v5.95l-2.563-5.95H2.743l-2.698 6.31h1.619l.584-1.397h3.147l.585 1.397h3.058v-4.957l2.202 4.957h1.304l2.204-4.957v4.957h1.528v-6.31zm24.37 3.561l-1.034-2.479-1.034 2.479h2.069zm-13.039-.991c-.224.135-.45.135-.764.135h-1.844v-1.397h1.844c.27 0 .584 0 .764.09.18.135.27.316.27.586 0 .27-.09.495-.27.586zm-24.82.991l1.035-2.479 1.034 2.479H2.787zM53.64 0H0v22.718l1.843-4.192h3.912l.54 1.037v-1.037h4.586l1.034 2.254.99-2.254h14.612c.674 0 1.259.135 1.709.496v-.496h4.001v.496c.674-.361 1.529-.496 2.518-.496h5.8l.54 1.037v-1.037h4.271l.63 1.037v-1.037h4.181v8.835h-4.226l-.81-1.352v1.352h-5.26l-.584-1.443h-1.305l-.584 1.443h-2.743c-1.079 0-1.888-.27-2.427-.541v.54h-6.52v-2.028c0-.27-.045-.315-.225-.315h-.225v2.343h-12.59v-1.126l-.449 1.126h-2.653l-.449-1.081v1.081H5.036l-.54-1.442H3.192l-.584 1.442H0V54h53.64V37.818c-.584.27-1.393.406-2.203.406h-3.911v-.541c-.45.36-1.26.54-2.024.54h-12.32v-2.027c0-.271-.044-.271-.27-.271h-.224v2.299H28.64v-2.39c-.674.316-1.439.316-2.113.316h-.45v2.074h-4.945l-1.17-1.353-1.303 1.353H10.7v-8.835h8.093l1.17 1.352 1.259-1.352h5.44c.63 0 1.663.09 2.113.54v-.54h4.856c.494 0 1.44.09 2.068.54v-.54h7.33v.541c.404-.36 1.169-.54 1.843-.54h4.091v.54c.45-.315 1.08-.54 1.889-.54h2.787V0z"/>
    </g>
</svg>
