<svg xmlns="http://www.w3.org/2000/svg" xmlns:xlink="http://www.w3.org/1999/xlink" width="123" height="40" viewBox="0 0 123 40">
    <defs>
        <path id="prefix__a" d="M0 0L122 0 122 40 0 40z"/>
    </defs>
    <g fill="none" fill-rule="evenodd">
        <mask id="prefix__b" fill="#fff">
            <use xlink:href="#prefix__a"/>
        </mask>
        <path fill="#1A1F71" d="M35.968.707L25.706 27.04l-4.15-22.392C21.068 2.15 19.146.707 17.009.707H.235L0 1.83c3.444.759 7.356 1.983 9.726 3.292 1.451.8 1.865 1.499 2.341 3.4l7.862 30.875h10.42L46.32.707H35.968zm14.584 0l-8.155 38.69h9.858L60.406.707h-9.854zm56.52 10.452l2.985 14.528h-8.177l5.191-14.528zM105.624.707c-1.89 0-3.484 1.12-4.195 2.838L86.64 39.397h10.346l2.06-5.776h12.641l1.195 5.776H122L114.043.707h-8.418zm-42.53 12.08c-.07 5.573 4.891 8.682 8.628 10.53 3.84 1.898 5.129 3.114 5.114 4.81-.03 2.597-3.063 3.742-5.902 3.786-4.953.078-7.832-1.357-10.122-2.443l-1.784 8.477c2.297 1.075 6.55 2.012 10.961 2.053 10.353 0 17.127-5.189 17.163-13.234.04-10.21-13.91-10.776-13.815-15.34.033-1.383 1.334-2.86 4.184-3.236 1.41-.19 5.305-.334 9.72 1.73l1.732-8.201C86.6.84 83.548 0 79.75 0c-9.745 0-16.6 5.26-16.655 12.788z" mask="url(#prefix__b)"/>
    </g>
</svg>
