<svg xmlns="http://www.w3.org/2000/svg" width="38" height="38">
    <path fill="#9D9D9D" fill-rule="evenodd" d="M15.968 17.181v-3.234a.607.607 0 0 1 1.213 0v3.234a.606.606 0 1 1-1.213 0zm3.234 0v-3.234a.607.607 0 0 1 1.213 0v3.234a.606.606 0 1 1-1.213 0zm3.234 0v-3.234a.607.607 0 0 1 1.213 0v3.234a.606.606 0 1 1-1.213 0zm14.958 17.585h-.607v2.628a.606.606 0 0 1-.606.606H3.436a.607.607 0 0 1-.606-.606v-2.628h-.606a.607.607 0 0 1-.607-.606V19.946a1.212 1.212 0 0 1-.204-1.948L.082 15.691a.605.605 0 0 1 .221-.828L25.16.512A3.826 3.826 0 0 1 27.071 0c1.374 0 2.652.735 3.335 1.918a.605.605 0 0 1-.222.828L3.269 18.286a1.2 1.2 0 0 1 .162.714H34.16A3.845 3.845 0 0 1 38 22.84v11.32a.606.606 0 0 1-.606.606zM28.99 2.035a2.652 2.652 0 0 0-1.919-.822c-.457 0-.908.121-1.304.349L1.435 15.61l1.011 1.751L28.99 2.035zm7.797 20.806a2.63 2.63 0 0 0-2.627-2.628H2.83v13.34h3.84a.607.607 0 0 1 0 1.213H4.043v2.021h31.531v-2.021H9.096a.606.606 0 0 1 0-1.213h27.691V22.841zm-10.275 6.265a.607.607 0 1 1 0 1.215.607.607 0 0 1 0-1.215zm2.898 0a.606.606 0 1 1 0 1.213.606.606 0 0 1 0-1.213zm3.638-1.212c1.003 0 1.819.816 1.819 1.819a1.821 1.821 0 0 1-1.819 1.819 1.821 1.821 0 0 1-1.819-1.819c0-1.003.816-1.819 1.819-1.819zm0 2.425a.607.607 0 1 0-.002-1.214.607.607 0 0 0 .002 1.214z"/>
</svg>
