<svg xmlns="http://www.w3.org/2000/svg" width="44" height="54">
    <path fill="#3498DB" fill-rule="evenodd" d="M41.285 32.567a.9.9 0 0 1-.884.733H21.877l.286 1.931a.906.906 0 0 0 .891.769h2.213a2.682 2.682 0 0 1 5.068 0h3.932a2.7 2.7 0 1 1 0 1.8h-3.932a2.682 2.682 0 0 1-5.068 0h-2.213a2.717 2.717 0 0 1-2.671-2.305l-3.145-21.226a.9.9 0 0 0-.891-.769h-3.846v-1.8h3.846a2.718 2.718 0 0 1 2.672 2.305l.459 3.095h23.623a.9.9 0 0 1 .884 1.066l-2.7 14.401zM36.801 37.8a.9.9 0 1 0 0-1.8.9.9 0 0 0 0 1.8zm-9 0a.9.9 0 1 0 0-1.8.9.9 0 0 0 0 1.8zm-8.056-18.9l1.866 12.6h18.043l2.367-12.6H19.745zm17.956 2.7a.9.9 0 0 1 0-1.8h1.8a.9.9 0 0 1 0 1.8h-1.8zm-2.7 0h-12.6a.9.9 0 0 1 0-1.8h12.6a.9.9 0 0 1 0 1.8zm-2.7-6.3a.9.9 0 0 1-.9-.9V7.2H2.6V45h28.801v-4.5a.9.9 0 0 1 1.8 0v9a4.505 4.505 0 0 1-4.5 4.5H5.3a4.505 4.505 0 0 1-4.5-4.5v-45A4.505 4.505 0 0 1 5.3 0h23.401c2.423 0 4.5 1.98 4.5 3.6v10.8a.9.9 0 0 1-.9.9zM2.6 49.5a2.7 2.7 0 0 0 2.7 2.7h23.401a2.7 2.7 0 0 0 2.7-2.7v-2.7H2.6v2.7zM31.401 3.6c0-.54-1.14-1.8-2.7-1.8H5.3a2.7 2.7 0 0 0-2.7 2.7v.9h28.801V3.6zm-18-.9h1.8a.9.9 0 0 1 0 1.8h-1.8a.9.9 0 0 1 0-1.8zm5.4 0h1.8a.9.9 0 0 1 0 1.8h-1.8a.9.9 0 0 1 0-1.8zm0 47.7h-3.6a.9.9 0 0 1 0-1.8h3.6a.9.9 0 0 1 0 1.8z"/>
</svg>
