<svg xmlns="http://www.w3.org/2000/svg" width="34" height="25">
    <path fill="#9D9D9D" fill-rule="evenodd" d="M29.446 25H4.555A4.556 4.556 0 0 1 0 20.455V4.545A4.555 4.555 0 0 1 4.555 0h24.891c2.51 0 4.555 2.039 4.555 4.545v15.91A4.556 4.556 0 0 1 29.446 25zM4.555 1.299a3.252 3.252 0 0 0-3.253 3.246v15.91a3.252 3.252 0 0 0 3.253 3.246h24.891a3.253 3.253 0 0 0 3.253-3.246V4.545a3.252 3.252 0 0 0-3.253-3.246H4.555zm18.91 2.519a2.937 2.937 0 0 1 2.94 2.934 2.937 2.937 0 0 1-2.94 2.934 2.936 2.936 0 0 1-2.94-2.934 2.936 2.936 0 0 1 2.94-2.934zm4.099 0a2.937 2.937 0 0 1 2.94 2.934 2.937 2.937 0 0 1-2.94 2.934 2.936 2.936 0 0 1-2.94-2.934 2.936 2.936 0 0 1 2.94-2.934zM3.498 17.425h5.42v1.948h-5.42v-1.948zm7.195 0h5.42v1.948h-5.42v-1.948zm7.194 0h5.421v1.948h-5.421v-1.948zm7.195 0h5.422v1.948h-5.422v-1.948zM3.498 3.819h10.245v1.948H3.498V3.819zm0 3.865h5.421v1.948H3.498V7.684z"/>
</svg>
