<svg xmlns="http://www.w3.org/2000/svg" width="54" height="54" viewBox="0 0 480 480"><title>pay_card</title><path d="M216,40H168a8,8,0,0,0,0,16h48a8,8,0,0,0,0-16Z" transform="translate(-16 -16)" fill="#3498db"/><path d="M136,40H120a8,8,0,0,0,0,16h16a8,8,0,0,0,0-16Z" transform="translate(-16 -16)" fill="#3498db"/><path d="M144,472h48a8,8,0,0,0,0-16H144a8,8,0,0,0,0,16Z" transform="translate(-16 -16)" fill="#3498db"/><path d="M104,96H56a8,8,0,0,0-8,8v48a8,8,0,0,0,16,0V112h40a8,8,0,0,0,0-16Z" transform="translate(-16 -16)" fill="#3498db"/><path d="M472,144H320V56a40.05,40.05,0,0,0-40-40H56A40.05,40.05,0,0,0,16,56V456a40.05,40.05,0,0,0,40,40H280a40.05,40.05,0,0,0,40-40V368H472a24,24,0,0,0,24-24V168A24,24,0,0,0,472,144ZM32,56A24,24,0,0,1,56,32H280a24,24,0,0,1,24,24v8H32ZM304,456a24,24,0,0,1-24,24H56a24,24,0,0,1-24-24v-8H304Zm0-24H32V80H304v64H184a24,24,0,0,0-24,24V344a24,24,0,0,0,24,24H304Zm176-88a8,8,0,0,1-8,8H184a8,8,0,0,1-8-8V240H480Zm0-120H176V208H480Zm0-32H176V168a8,8,0,0,1,8-8H472a8,8,0,0,1,8,8Z" transform="translate(-16 -16)" fill="#3498db"/><path d="M216,336a24,24,0,0,0,20-10.78,24,24,0,1,0,0-26.4A24,24,0,1,0,216,336Zm40-32a8,8,0,1,1-8,8A8,8,0,0,1,256,304Zm-40,0a8,8,0,1,1-8,8A8,8,0,0,1,216,304Z" transform="translate(-16 -16)" fill="#3498db"/><path d="M328,320H456a8,8,0,0,0,0-16H328a8,8,0,0,0,0,16Z" transform="translate(-16 -16)" fill="#3498db"/><path d="M104,400H64V360a8,8,0,0,0-16,0v48a8,8,0,0,0,8,8h48a8,8,0,0,0,0-16Z" transform="translate(-16 -16)" fill="#3498db"/></svg>