<svg xmlns="http://www.w3.org/2000/svg" width="54" height="54">
    <path fill="#3498DB" fill-rule="evenodd" d="M9.822 34.685a3.437 3.437 0 0 1-3.433-3.433 3.437 3.437 0 0 1 3.433-3.432 3.436 3.436 0 0 1 3.432 3.432 3.437 3.437 0 0 1-3.432 3.433zm0-5.074c-.905 0-1.642.736-1.642 1.641 0 .906.737 1.642 1.642 1.642a1.643 1.643 0 0 0 0-3.283zm0-13.431a3.437 3.437 0 0 1-3.433-3.432 3.437 3.437 0 0 1 3.433-3.433 3.437 3.437 0 0 1 3.432 3.433 3.436 3.436 0 0 1-3.432 3.432zm0-5.074c-.905 0-1.642.736-1.642 1.642a1.643 1.643 0 1 0 1.642-1.642zm0 14.326A3.436 3.436 0 0 1 6.389 22a.896.896 0 0 1 1.791 0 1.643 1.643 0 1 0 1.642-1.642.896.896 0 1 1 0-1.79A3.436 3.436 0 0 1 13.254 22a3.436 3.436 0 0 1-3.432 3.432zM43.105 44a.896.896 0 0 1-.896-.895V1.791H1.791v40.418h34.983a.896.896 0 0 1 0 1.791H.895A.895.895 0 0 1 0 43.105V.895C0 .401.401 0 .895 0h42.21c.494 0 .895.401.895.895v42.21a.895.895 0 0 1-.895.895zm-6.272-11.852H15.94a.896.896 0 0 1 0-1.791h20.893a.895.895 0 0 1 0 1.791zm0-18.505H15.94a.895.895 0 0 1 0-1.791h20.893a.896.896 0 0 1 0 1.791zm0 9.252H15.94a.895.895 0 0 1 0-1.79h20.893a.895.895 0 0 1 0 1.79z"/>
</svg>
