<svg xmlns="http://www.w3.org/2000/svg" id="Слой_1" viewBox="0 0 302 211.8">
    <style>
        .st0{fill-rule:evenodd;clip-rule:evenodd;fill:#f4f5f9;stroke:#c4c9d6;stroke-width:2}.st1,.st2,.st3,.st4,.st5,.st6,.st7{fill-rule:evenodd;clip-rule:evenodd;fill:#fff}.st2,.st3,.st4,.st5,.st6,.st7{fill:#f4f5f9}.st3,.st4,.st5,.st6,.st7{fill:#3498db}.st4,.st5,.st6,.st7{fill:#e4e7ec}.st5,.st6,.st7{fill:#bbc0c4}.st6,.st7{fill:#fff;stroke-width:1.5;stroke-miterlimit:10}.st6{stroke-linecap:round;stroke-linejoin:round;stroke:#bbc0c4}.st7{stroke:#3498db}.st8{fill:#3498db}
    </style>
    <path d="M265.7 201.7H48.4c-8.8 0-16-7.2-16-16v-133c0-8.8 7.2-16 16-16h217.3c8.8 0 16 7.2 16 16v133c0 8.8-7.2 16-16 16z" class="st0"/>
    <path d="M46.3 51.4h219.6v134.7H46.3V51.4z" class="st1"/>
    <path d="M63.7 80.1h186.5v31.3H63.7V80.1zM162.2 123.5h87.1v54.7h-87.1v-54.7z" class="st2"/>
    <path d="M92.1 63.6c1.7 0 3 1.4 3 3s-1.4 3-3 3c-1.7 0-3-1.4-3-3s1.3-3 3-3zM79.9 63.6c1.7 0 3 1.4 3 3s-1.4 3-3 3c-1.7 0-3-1.4-3-3s1.3-3 3-3zM66.8 63.6c1.7 0 3 1.4 3 3s-1.4 3-3 3c-1.7 0-3-1.4-3-3s1.3-3 3-3z" class="st3"/>
    <path d="M63.2 126.5h86.4v2.2H63.2v-2.2zM63.2 135.4h86.4v2.2H63.2v-2.2zM63.2 144.2h86.4v2.2H63.2v-2.2zM63.2 153.1h86.4v2.2H63.2v-2.2zM63.2 162h86.4v2.2H63.2V162zM63.2 170.8h43.2v2.2H63.2v-2.2z" class="st4"/>
    <path d="M228 148.5h-1.8c-.8 0-1.4-.6-1.4-1.4v-1.7h-.9v8.7h.8c.5 0 .8.3.8.8v12.6c0 1.3-1 2.4-2.4 2.4h-.8v1.6c0 1.7-1.4 3.2-3.2 3.2H216c-1.7 0-3.2-1.4-3.2-3.2v-1.6h-14.2v1.6c0 1.7-1.4 3.2-3.2 3.2h-3.2c-1.7 0-3.2-1.4-3.2-3.2v-1.6h-.8c-1.3 0-2.4-1-2.4-2.4v-12.6c0-.5.3-.8.8-.8h.8v-8.7h-.9v1.7c.1.8-.6 1.4-1.3 1.4h-1.9c-.8 0-1.4-.6-1.4-1.4v-5c0-.8.6-1.4 1.4-1.4h1.8c.8 0 1.4.6 1.4 1.4v1.7h.9v-14.2c0-1.3 1-2.4 2.4-2.4h31.5c1.3 0 2.4 1 2.4 2.4v14.2h.9v-1.7c0-.8.6-1.4 1.4-1.4h1.8c.8 0 1.4.6 1.4 1.4v5c.2.8-.4 1.4-1.2 1.4zm-42.7-6.3h-1.6v4.7h1.6v-4.7zm29.1 29.1c0 .9.7 1.6 1.6 1.6h3.2c.9 0 1.6-.7 1.6-1.6v-1.6h-6.3v1.6zm-23.6 0c0 .9.7 1.6 1.6 1.6h3.2c.9 0 1.6-.7 1.6-1.6v-1.6h-6.3v1.6zm-3.2-3.9c0 .5.3.8.8.8h34.8c.5 0 .8-.3.8-.8v-2.3h-36.3v2.3zm34.7-37.8c0-.5-.3-.8-.8-.8H190c-.5 0-.8.3-.8.8V154h1.6v-15.9c0-1.7 1.3-3 3-3h2.5v-2.4c0-.5.3-.8.8-.8s.8.3.8.8v2.4h2.4v-2.4c0-.5.3-.8.8-.8s.8.3.8.8v2.4h2.4v-2.4c0-.5.3-.8.8-.8s.8.3.8.8v2.4h2.4v-2.4c0-.5.3-.8.8-.8s.8.3.8.8v2.4h2.4v-2.4c0-.5.3-.8.8-.8s.8.3.8.8v2.4h4.1c1.7 0 3 1.3 3 3V154h1.6v-24.4zm-2.4 26h-.8v-17.5c0-.8-.6-1.4-1.4-1.4h-24c-.8 0-1.4.6-1.4 1.4v17.5h-4.7v7.9h36.3v-7.9h-4zm7.9-13.4h-1.6v4.7h1.6v-4.7zm-8.7 19.7c-1.3 0-2.4-1-2.4-2.4 0-1.3 1-2.4 2.4-2.4s2.4 1 2.4 2.4-1 2.4-2.4 2.4zm0-3.2c-.5 0-.8.3-.8.8s.3.8.8.8.8-.3.8-.8-.3-.8-.8-.8zm-4.7-5.5h-17.3c-1.3 0-2.4-1-2.4-2.4v-9.5c0-1.3 1-2.4 2.4-2.4h17.3c1.3 0 2.4 1 2.4 2.4v9.5c0 1.4-1 2.4-2.4 2.4zm.8-11.8c0-.5-.3-.8-.8-.8h-17.3c-.5 0-.8.3-.8.8v9.5c0 .5.3.8.8.8h2.8l3.7-3.7c.3-.3.8-.3 1.1 0 .3.3.3.8 0 1.1l-2.6 2.6h4.9l3.7-3.7c.3-.3.8-.3 1.1 0 .3.3.3.8 0 1.1l-2.6 2.6h5.2c.5 0 .8-.3.8-.8v-9.5zm-22.8 20.5c-1.3 0-2.4-1-2.4-2.4 0-1.3 1-2.4 2.4-2.4s2.4 1 2.4 2.4c-.1 1.4-1.1 2.4-2.4 2.4zm0-3.2c-.5 0-.8.3-.8.8s.3.8.8.8.8-.3.8-.8c-.1-.5-.4-.8-.8-.8zm10.2-.8c-.5 0-.8-.3-.8-.8s.3-.8.8-.8h6.3c.5 0 .8.3.8.8s-.3.8-.8.8h-6.3zm-2.4 1.6h11c.5 0 .8.3.8.8s-.3.8-.8.8h-11c-.5 0-.8-.3-.8-.8s.4-.8.8-.8z" class="st5"/>
    <path d="M233.4 98.6H80.9c-1.6 0-2.9-1.3-2.9-2.9 0-1.6 1.3-2.9 2.9-2.9h152.5c1.6 0 2.9 1.3 2.9 2.9 0 1.6-1.3 2.9-2.9 2.9z" class="st6"/>
    <circle cx="212.4" cy="95.9" r="9.9" class="st7"/>
    <path d="M210 97.9v-2.7l-1.1 2.7h-.7l-1.1-2.7v2.7h-.9v-4.1h1.2l1.1 2.7 1.1-2.7h1.2v4.1h-.8zM212.6 96.5V98h-.9v-4.1h1.5c.8 0 1.4.5 1.4 1.3s-.6 1.3-1.4 1.3h-.6zm.5-.8c.3 0 .6-.2.6-.5s-.2-.5-.6-.5h-.5v1h.5zM217.5 97.9v-1.6h-1.6v1.6h-.9v-4.1h.9v1.6h1.6v-1.6h.9v4.1h-.9z" class="st8"/>
</svg>
