<svg xmlns="http://www.w3.org/2000/svg" id="Слой_1" viewBox="0 0 196 137.7">
    <style>
        .st0{fill:#fff;stroke:#c4c9d6;stroke-width:2;stroke-dasharray:8,4}.st0,.st1,.st2,.st3,.st4,.st5{fill-rule:evenodd;clip-rule:evenodd}.st1{stroke:#c4c9d6;stroke-width:2;fill:#f4f5f9}.st2,.st3,.st4,.st5{fill:#fff}.st3,.st4,.st5{fill:#f4f5f9}.st4,.st5{fill:#3498db}.st5{fill:#e4e7ec}.st6{fill:#fff;stroke:#c4c9d6;stroke-width:2;stroke-linecap:round;stroke-linejoin:round}.st6,.st7,.st8{fill-rule:evenodd;clip-rule:evenodd}.st7{stroke:#c4c9d6;stroke-width:2;fill:#fff}.st8{fill:#c4c9d6}.st9{fill:none;stroke:#c4c9d6;stroke-width:2}
    </style>
    <path d="M1 124.6V12.3C1 6 6 1 12.3 1h171.3c6.2 0 11.3 5 11.3 11.3v112.4" class="st0"/>
    <path d="M21.3 124.6V34.2c0-5.6 4.5-10.1 10.2-10.1h140.9c5.6 0 10.2 4.5 10.2 10.1v90.5" class="st1"/>
    <path d="M30.3 33.6h142v91h-142v-91z" class="st2"/>
    <path d="M41.5 52.2h120.6v20.2H41.5V52.2zM105.2 80.2h56.3v35.4h-56.3V80.2z" class="st3"/>
    <path d="M59.9 41.5c1.1 0 1.9.9 1.9 1.9 0 1-.9 1.9-1.9 1.9-1.1 0-1.9-.9-1.9-1.9 0-1 .8-1.9 1.9-1.9zM52 41.5c1.1 0 1.9.9 1.9 1.9 0 1-.9 1.9-1.9 1.9-1.1 0-1.9-.9-1.9-1.9 0-1 .8-1.9 1.9-1.9zM43.6 41.5c1.1 0 1.9.9 1.9 1.9 0 1-.9 1.9-1.9 1.9-1.1 0-1.9-.9-1.9-1.9-.1-1 .8-1.9 1.9-1.9z" class="st4"/>
    <path d="M41.2 82.2h55.9v1.4H41.2v-1.4zM41.2 87.9h55.9v1.4H41.2v-1.4zM41.2 93.6h55.9V95H41.2v-1.4zM41.2 99.4h55.9v1.4H41.2v-1.4zM41.2 105.1h55.9v1.4H41.2v-1.4zM41.2 110.8h27.9v1.4H41.2v-1.4z" class="st5"/>
    <path d="M195 124.6H10.8v5.1c0 3.8 3.1 7 7 7H188c3.8 0 7-3.1 7-7v-5.1z" class="st6"/>
    <path d="M8.2 59.4h63.6c3.9 0 7.2 3.2 7.2 7.2v58.7c0 3.9-3.2 7.2-7.2 7.2H8.2c-3.9 0-7.2-3.2-7.2-7.2V66.6c0-4 3.2-7.2 7.2-7.2z" class="st7"/>
    <path d="M41.2 97.4v-.3c-.1-3.7-1.6-7.2-4.3-9.8-1.6-1.6-3.6-2.8-5.6-3.6 2.4-1.6 3.7-4.3 3.7-7.1 0-4.7-3.9-8.6-8.6-8.6s-8.6 3.9-8.6 8.6c0 2.8 1.4 5.5 3.7 7.1-2.1.7-4 1.9-5.6 3.6-2.7 2.7-4.1 6.1-4.3 9.8v.6c.1.9.6 1.5 1 1.5H40c.5 0 .9-.6 1-1.4.2-.1.2-.3.2-.4zM20.1 76.7c0-3.4 2.8-6.2 6.2-6.2s6.2 2.8 6.2 6.2c0 3.4-2.8 6.2-6.2 6.2s-6.2-2.9-6.2-6.2zm6.2 8.6c6.7 0 12.2 5.4 12.5 11.9h-25c.4-6.6 5.9-11.9 12.5-11.9z" class="st8"/>
    <path d="M11.5 108h58.8M11.5 114.9h58.8M11.5 121.9h48.4" class="st9"/>
    <circle cx="39.9" cy="94.5" r="7.2" class="st4"/>
    <path d="M40.4 94.9h2.5c.3 0 .5-.2.5-.5s-.2-.5-.5-.5h-2.5v-2.5c0-.3-.2-.5-.5-.5s-.5.2-.5.5V94H37c-.3 0-.5.2-.5.5s.2.5.5.5h2.5v2.5c0 .3.2.5.5.5s.5-.2.5-.5v-2.6z" class="st2"/>
</svg>
