<svg xmlns="http://www.w3.org/2000/svg" id="Слой_1" viewBox="0 0 203.2 137.7">
    <style>
        .st0,.st1{fill-rule:evenodd;clip-rule:evenodd;fill:#f3f4f8}.st1{fill:#e3e7ec}.st2{stroke-linecap:round;stroke-linejoin:round}.st2,.st3{fill:none;stroke:#c5c9d5;stroke-width:2}.st4{fill-rule:evenodd;clip-rule:evenodd;fill:#fff}.st5{fill:#3498db}
    </style>
    <path d="M100.5 36.4h43.9v22.4h-43.9V36.4zM51.1 67.4h93.3v39.1H51.1V67.4z" class="st0"/>
    <path d="M51.1 36.4H91v1.5H51.1v-1.5zM51.1 43.3H91v1.5H51.1v-1.5zM51.1 50.2H91v1.5H51.1v-1.5zM51.1 57.1H91v1.5H51.1v-1.5z" class="st1"/>
    <path d="M34 119.1h131.3M19.3 119.1h7.2" class="st2"/>
    <path d="M49.8 24.3h95.9c5.9 0 10.8 4.2 10.8 9.3v76.2c0 5.1-4.9 9.3-10.8 9.3H49.8c-5.9 0-10.8-4.2-10.8-9.3V33.6c0-5.1 4.9-9.3 10.8-9.3z" class="st3"/>
    <circle cx="97.7" cy="70.6" r="21.2" class="st4"/>
    <path d="M109.6 78.4c-.7-.6-1.1-1.5-1.1-2.4v-6.4c0-.4-.3-.6-.6-.6s-.6.3-.6.6V76c0 1.3.5 2.5 1.5 3.4.3.3.5.8.5 1.2 0 .9-.8 1.7-1.7 1.7H87.8c-.9 0-1.7-.8-1.7-1.7 0-.5.2-.9.5-1.2.9-.8 1.5-2.1 1.5-3.4v-7.3c0-5.3 4.3-9.6 9.6-9.6 1.5 0 2.9.3 4.2 1-.5.7-.7 1.6-.7 2.4 0 2.6 2.1 4.7 4.7 4.7s4.7-2.1 4.7-4.7-2.1-4.7-4.7-4.7c-1.2 0-2.3.5-3.1 1.2-.9-.5-2-.8-3.1-1.1.2-.4.4-.8.4-1.3 0-1.3-1.1-2.4-2.4-2.4-1.3 0-2.4 1.1-2.4 2.4 0 .5.2.9.4 1.3-5.1.9-8.9 5.4-8.9 10.6v7.3c0 .9-.4 1.8-1.1 2.4-.6.5-.9 1.4-.9 2.1 0 1.6 1.3 2.9 2.9 2.9h5.9c.3 1.9 2 3.4 4.1 3.4s3.8-1.5 4.1-3.4h5.9c1.6 0 2.9-1.3 2.9-2.9 0-.6-.3-1.4-1-1.9zM105.9 59c1.9 0 3.4 1.5 3.4 3.4s-1.5 3.4-3.4 3.4-3.4-1.5-3.4-3.4 1.6-3.4 3.4-3.4zm-8.2-3.5c.6 0 1.1.5 1.1 1.1 0 .6-.5 1.1-1.1 1.1s-1.1-.5-1.1-1.1c0-.5.6-1.1 1.1-1.1zm0 30.2c-1.3 0-2.4-.9-2.8-2.1h5.4c-.2 1.2-1.2 2.1-2.6 2.1z" class="st5"/>
    <path d="M90.6 67.9c-.4 0-.6.3-.6.6 0 .4.3.6.6.6s.6-.3.6-.6-.2-.6-.6-.6zM97.7 60.8c-3.1 0-6 1.8-7.2 4.7-.2.3 0 .7.3.8.1 0 .2.1.2.1.2 0 .5-.2.6-.4 1-2.4 3.4-4 6-4 .4 0 .6-.3.6-.6.2-.4-.1-.6-.5-.6zM106.1 60.3c-.2-.1-.5-.1-.7.2l-.8.8c-.2.2-.2.7 0 .9.2.2.4.2.5.2v1.1c0 .4.3.6.6.6.4 0 .6-.3.6-.6V61c.2-.3 0-.5-.2-.7z" class="st5"/>
</svg>
