<svg xmlns="http://www.w3.org/2000/svg" id="Слой_1" viewBox="0 0 186.2 114.6">
    <style>
        .st0,.st1,.st2,.st3,.st4,.st5{fill-rule:evenodd;clip-rule:evenodd}.st0{stroke:#c4c9d6;stroke-width:2;fill:#f4f5f9}.st1,.st2,.st3,.st4,.st5{fill:#fff}.st2,.st3,.st4,.st5{fill:#f4f5f9}.st3,.st4,.st5{fill:#3498db}.st4,.st5{fill:#e4e7ec}.st5{fill:#fff;stroke:#c4c9d6;stroke-width:2;stroke-linecap:round;stroke-linejoin:round}.st6{fill:#3498db}
    </style>
    <path d="M11.5 101.5V11.1C11.5 5.5 16 1 21.7 1h140.9c5.6 0 10.2 4.5 10.2 10.1v90.5" class="st0"/>
    <path d="M20.5 10.5h142v91h-142v-91z" class="st1"/>
    <path d="M31.7 29.1h120.6v20.2H31.7V29.1zM95.4 57.1h56.3v35.4H95.4V57.1z" class="st2"/>
    <path d="M50.1 18.4c1.1 0 1.9.9 1.9 1.9s-.9 1.9-1.9 1.9c-1.1 0-1.9-.9-1.9-1.9s.8-1.9 1.9-1.9zM42.2 18.4c1.1 0 1.9.9 1.9 1.9s-.9 1.9-1.9 1.9c-1.1 0-1.9-.9-1.9-1.9s.8-1.9 1.9-1.9zM33.8 18.4c1.1 0 1.9.9 1.9 1.9s-.9 1.9-1.9 1.9c-1.1 0-1.9-.9-1.9-1.9-.1-1 .8-1.9 1.9-1.9z" class="st3"/>
    <path d="M31.4 59.1h55.9v1.4H31.4v-1.4zM31.4 64.8h55.9v1.4H31.4v-1.4zM31.4 70.5h55.9v1.4H31.4v-1.4zM31.4 76.3h55.9v1.4H31.4v-1.4zM31.4 82h55.9v1.4H31.4V82zM31.4 87.7h27.9v1.4H31.4v-1.4z" class="st4"/>
    <path d="M185.2 101.5H1v5.1c0 3.8 3.1 7 7 7h170.2c3.8 0 7-3.1 7-7v-5.1z" class="st5"/>
    <circle cx="91.2" cy="53.3" r="27.7" class="st1"/>
    <g>
        <path d="M91.2 47.4c-.8 0-1.3.4-1.3 1.1 0 2.2.3 5.3.3 7.5 0 .6.5.8 1.1.8.4 0 1.1-.2 1.1-.8 0-2.2.3-5.3.3-7.5-.2-.7-.8-1.1-1.5-1.1zM91.2 58.1c-.8 0-1.4.6-1.4 1.4 0 .8.6 1.4 1.4 1.4.8 0 1.4-.7 1.4-1.4 0-.8-.6-1.4-1.4-1.4z" class="st6"/>
        <path d="M106 61.2L93.5 40.5c-.5-.8-1.4-1.3-2.3-1.3s-1.8.5-2.3 1.3L76.4 61.2c-.5.8-.5 1.9 0 2.8.5.9 1.4 1.4 2.4 1.4h24.9c1 0 1.9-.5 2.4-1.4.4-.9.4-1.9-.1-2.8zm-1.7 1.8c-.1.2-.4.4-.7.4H78.7c-.3 0-.5-.1-.7-.4-.1-.2-.1-.5 0-.8l12.5-20.7c.1-.2.4-.4.6-.4.3 0 .5.1.6.4l12.5 20.7c.3.3.3.6.1.8z" class="st6"/>
    </g>
</svg>