<svg xmlns="http://www.w3.org/2000/svg" id="Слой_1" viewBox="0 0 203.2 137.7">
    <style>
        .st0{fill:#fff;stroke:#c4c9d6;stroke-width:2;stroke-dasharray:8,4}.st0,.st1,.st2,.st3,.st4,.st5{fill-rule:evenodd;clip-rule:evenodd}.st1{stroke:#c4c9d6;stroke-width:2;fill:#f4f5f9}.st2,.st3,.st4,.st5{fill:#fff}.st3,.st4,.st5{fill:#f4f5f9}.st4,.st5{fill:#3498db}.st5{fill:#e4e7ec}.st6{stroke-linecap:round;stroke-linejoin:round}.st6,.st7{fill-rule:evenodd;clip-rule:evenodd;fill:#fff;stroke:#c4c9d6;stroke-width:2}.st8{stroke-dasharray:11,4}.st8,.st9{fill:none;stroke:#c4c9d6;stroke-width:2}.st10{fill:#e4e7ec}
    </style>
    <path d="M18 124.6V12.3C18 6 22.7 1 28.7 1h162.6c5.9 0 10.7 5 10.7 11.3v112.4" class="st0"/>
    <path d="M28.5 124.6V34.2c0-5.6 4.5-10.1 10.2-10.1h140.9c5.6 0 10.2 4.5 10.2 10.1v90.5" class="st1"/>
    <path d="M37.5 33.6h142v91h-142v-91z" class="st2"/>
    <path d="M48.7 52.2h120.6v20.2H48.7V52.2zM112.4 80.2h56.3v35.4h-56.3V80.2z" class="st3"/>
    <path d="M67.1 41.5c1.1 0 1.9.9 1.9 1.9s-.9 1.9-1.9 1.9c-1.1 0-1.9-.9-1.9-1.9s.8-1.9 1.9-1.9zM59.2 41.5c1.1 0 1.9.9 1.9 1.9s-.9 1.9-1.9 1.9c-1.1 0-1.9-.9-1.9-1.9s.8-1.9 1.9-1.9zM50.8 41.5c1.1 0 1.9.9 1.9 1.9s-.9 1.9-1.9 1.9c-1.1 0-1.9-.9-1.9-1.9-.1-1 .8-1.9 1.9-1.9z" class="st4"/>
    <path d="M48.4 82.2h55.9v1.4H48.4v-1.4zM48.4 87.9h55.9v1.4H48.4v-1.4zM48.4 93.6h55.9V95H48.4v-1.4zM48.4 99.4h55.9v1.4H48.4v-1.4zM48.4 105.1h55.9v1.4H48.4v-1.4zM48.4 110.8h27.9v1.4H48.4v-1.4z" class="st5"/>
    <path d="M202.2 124.6H18v5.1c0 3.8 3.1 7 7 7h170.2c3.8 0 7-3.1 7-7v-5.1z" class="st6"/>
    <path d="M17.6 86.4h58c3.5 0 6.4 3.1 6.4 7v30.3c0 3.9-2.8 7-6.4 7h-58c-3.5 0-6.4-3.1-6.4-7V93.4c0-3.9 2.8-7 6.4-7z" class="st7"/>
    <path d="M19 108.5h57.1" class="st8"/>
    <path d="M19.2 118.4h26.5M19.2 123.4h17.7" class="st9"/>
    <circle cx="66.1" cy="122.7" r="3.9" class="st10"/>
    <circle cx="72.1" cy="122.7" r="3.9" class="st10"/>
    <path d="M24 100h-3.4c-.9 0-1.6-.7-1.6-1.6V95c0-.9.7-1.6 1.6-1.6H24c.9 0 1.6.7 1.6 1.6v3.4c0 .9-.7 1.6-1.6 1.6z" class="st10"/>
    <g>
        <circle cx="71" cy="86.4" r="7.2" class="st4"/>
        <path d="M71.5 86.8H74c.3 0 .5-.2.5-.5s-.2-.5-.5-.5h-2.5v-2.5c0-.3-.2-.5-.5-.5s-.5.2-.5.5v2.5H68c-.3 0-.5.2-.5.5s.2.5.5.5h2.5v2.5c0 .3.2.5.5.5s.5-.2.5-.5v-2.5z" class="st2"/>
    </g>
</svg>
