<svg xmlns="http://www.w3.org/2000/svg" id="Слой_1" viewBox="0 0 196 137.7">
    <style>
        .st0{fill:#fff;stroke:#c4c9d6;stroke-width:2;stroke-dasharray:8,4}.st0,.st1,.st2,.st3{fill-rule:evenodd;clip-rule:evenodd}.st1{stroke:#c4c9d6;stroke-width:2;fill:#f4f5f9}.st2,.st3{fill:#fff}.st3{fill:#f4f5f9}.st4{fill:#3498db}.st4,.st5,.st6{fill-rule:evenodd;clip-rule:evenodd}.st5{fill:#e4e7ec}.st6{stroke:#c4c9d6;stroke-width:2;stroke-linecap:round;stroke-linejoin:round}.st6,.st7{fill:#fff}.st8{fill:#c4c9d6}.st9{fill:#3498db}
    </style>
    <path d="M9.2 86.3v-74C9.2 6 14.2 1 20.5 1h163.1c6.2 0 11.3 5 11.3 11.3v112.4" class="st0"/>
    <path d="M21.3 124.6V34.2c0-5.6 4.5-10.1 10.2-10.1h140.9c5.6 0 10.2 4.5 10.2 10.1v90.5" class="st1"/>
    <path d="M30.3 33.6h142v91h-142v-91z" class="st2"/>
    <path d="M41.5 52.2h120.6v20.2H41.5V52.2zM105.2 80.2h56.3v35.4h-56.3V80.2z" class="st3"/>
    <path d="M59.9 41.5c1.1 0 1.9.9 1.9 1.9s-.9 1.9-1.9 1.9c-1.1 0-1.9-.9-1.9-1.9s.8-1.9 1.9-1.9zM52 41.5c1.1 0 1.9.9 1.9 1.9s-.9 1.9-1.9 1.9c-1.1 0-1.9-.9-1.9-1.9s.8-1.9 1.9-1.9zM43.6 41.5c1.1 0 1.9.9 1.9 1.9s-.9 1.9-1.9 1.9c-1.1 0-1.9-.9-1.9-1.9-.1-1 .8-1.9 1.9-1.9z" class="st4"/>
    <path d="M41.2 82.2h55.9v1.4H41.2v-1.4zM41.2 87.9h55.9v1.4H41.2v-1.4zM41.2 93.6h55.9V95H41.2v-1.4zM41.2 99.4h55.9v1.4H41.2v-1.4zM41.2 105.1h55.9v1.4H41.2v-1.4zM41.2 110.8h27.9v1.4H41.2v-1.4z" class="st5"/>
    <path d="M195 124.6H10.8v5.1c0 3.8 3.1 7 7 7H188c3.8 0 7-3.1 7-7v-5.1z" class="st6"/>
    <path d="M9.4 112.3V89.7l14.5-4 10.9-9.8 4.8 4.1 11.3-3.9v13.5l10.1.3v38.7H24.5l-1.6 2.9-2.8 2.7-4.3 1.6h-5L7 134.4l-2.9-2.9-2.4-4-.7-4.9 1.8-4.9 3-3.5z" class="st7"/>
    <path d="M61.1 88.5h-9V75.9c0-.6-.5-1.1-1.1-1.1-.1 0-.2 0-.3.1l-11 3.9-4.1-4c-.4-.4-1.1-.4-1.5 0l-9.4 9.4-15.5 4.3c-.6 0-1 .5-1 1.1v22c-4.6 2.1-7.9 6.7-7.9 12.1 0 7.3 5.9 13.2 13.2 13.2 5 0 9.6-2.8 11.8-7.3h35.8c.6 0 1.1-.5 1.1-1v-39c0-.5-.5-1.1-1.1-1.1zM49.9 77.4v11.1h-.4l-8.1-8.1 8.5-3zM34.8 77l11.6 11.5H23.2L34.8 77zM21.4 87.2l-1.3 1.3H17l4.4-1.3zm-7.9 47.6c-6.1 0-11.1-5-11.1-11.1s5-11.1 11.1-11.1 11.1 5 11.1 11.1c-.1 6.2-5 11.1-11.1 11.1zM60 116.2h-7.1c-3.9 0-7-3.1-7-7s3.1-7 7-7H60v14zm0-16.2h-7.1c-5.1 0-9.2 4.1-9.2 9.2s4.1 9.2 9.2 9.2H60v9.1H26.2c2.1-7-1.9-14.4-8.9-16.5-1.2-.4-2.5-.6-3.8-.6-1.1 0-2.1.1-3.2.4V90.7H60v9.3z" class="st8"/>
    <path d="M47.7 109.2c0 2.1 1.7 3.9 3.9 3.9 2.1 0 3.9-1.7 3.9-3.9s-1.7-3.9-3.9-3.9c-2.2.1-3.9 1.8-3.9 3.9zm5.5 0c0 .9-.7 1.7-1.7 1.7s-1.7-.7-1.7-1.7c0-.9.7-1.7 1.7-1.7.9 0 1.7.8 1.7 1.7z" class="st8"/>
    <path d="M13.5 118.9c1.1 0 2.1.9 2.1 2.1 0 .6.5 1.1 1.1 1.1s1.1-.5 1.1-1.1c0-2-1.4-3.7-3.3-4.1v-.8c0-.6-.5-1.1-1.1-1.1-.6 0-1.1.5-1.1 1.1v.9c-2.2.7-3.5 3-2.8 5.3.5 1.8 2.2 3 4.1 3 1.1 0 2.1.9 2.1 2.1 0 1.1-.8 2-1.9 2.1-.2 0-.3-.1-.5 0-1-.2-1.7-1-1.7-2 0-.6-.5-1.1-1.1-1.1s-1.1.5-1.1 1.1c0 1.9 1.2 3.5 3 4.1v1c0 .6.5 1.1 1.1 1.1.6 0 1.1-.5 1.1-1.1v-.9c2.3-.5 3.7-2.8 3.2-5.1-.4-1.9-2.2-3.3-4.1-3.3-1.1 0-2.1-.9-2.1-2.1s.7-2.3 1.9-2.3z" class="st9"/>
</svg>
