<svg xmlns="http://www.w3.org/2000/svg" id="Слой_1" viewBox="0 0 228.4 133.2">
    <style>
        .st0,.st1{stroke:#c4c9d6;stroke-width:2}.st0{fill-rule:evenodd;clip-rule:evenodd;fill:#fff}.st1{fill:none}.st2{fill:#fff}.st3{fill:#c4c9d6}.st4{fill:#3498db}.st5{fill:none;stroke:#c4c9d6;stroke-width:2;stroke-linecap:round;stroke-linejoin:round}
    </style>
    <path d="M58.5 19.9h72.1c4.4 0 8.2 4.6 8.2 10.3v84.2c0 5.6-3.6 10.3-8.2 10.3H58.5c-4.4 0-8.2-4.6-8.2-10.3V30.2c0-5.8 3.6-10.3 8.2-10.3z" class="st0"/>
    <path d="M58.8 68.2h68.8M58.8 76.4h32.7M58.8 60h43.5M95 76.4h32.6M58.8 84.6h68.8M58.8 92.8h68.8" class="st1"/>
    <g>
        <path d="M168.1 119.1h-34.8V74.7h26.2l8.3 9zM172.3 94.1h5.9v25.1h-5.9z" class="st2"/>
        <path d="M178.3 92.8h-5.8c-.5 0-.9.4-.9.9v4.6c0 .5.4.9.9.9s.9-.4.9-.9v-3.7h4v24h-4v-13.4c0-.5-.4-.9-.9-.9s-.9.4-.9.9v13.4h-1.9V99.7c0-.5-.4-.9-.9-.9H163c-.5 0-.9.4-.9.9v18.8h-1.8v-12.4c0-.5-.4-.9-.9-.9h-5.8c-.5 0-.9.4-.9.9v12.5h-1.8v-7.2c0-.5-.4-.9-.9-.9h-5.8c-.5 0-.9.4-.9.9v7.2h-8.1c-.5 0-.9-.4-.9-.9V76.4c0-.5.4-.9.9-.9h23.5v6c0 1.5 1.2 2.7 2.7 2.7h6v11.2c0 .5.4.9.9.9s.9-.4.9-.9v-12c0-.2-.1-.5-.3-.7l-8.7-8.7c-.2-.2-.4-.3-.7-.3h-24.3c-1.5 0-2.7 1.2-2.7 2.7v41.3c0 1.5 1.2 2.7 2.7 2.7h43c.5 0 .9-.4.9-.9V93.7c0-.5-.5-.9-.8-.9zm-17.8-15.9l5.6 5.6h-4.7c-.5 0-.9-.4-.9-.9v-4.7zm-11.7 41.7h-4v-6.3h4v6.3zm9.5 0h-4v-11.5h4v11.5zm9.5 0h-4v-18h4v18z" class="st3"/>
        <path d="M173 100.9c-.2-.2-.4-.3-.7-.3-.2 0-.5.1-.7.3-.2.2-.3.4-.3.7s.1.5.3.7.4.3.7.3c.2 0 .5-.1.7-.3.2-.2.3-.4.3-.7 0-.4-.2-.5-.3-.7zM155.8 100.6h-17.4c-.5 0-.9.4-.9.9s.4.9.9.9h17.4c.5 0 .9-.4.9-.9s-.4-.9-.9-.9zM144.1 105.1h-5.8c-.5 0-.9.4-.9.9s.4.9.9.9h5.8c.5 0 .9-.4.9-.9s-.4-.9-.9-.9zM149.3 105.2c-.2-.2-.4-.3-.7-.3-.2 0-.5.1-.7.3-.2.2-.3.4-.3.7s.1.5.3.7.4.3.7.3c.2 0 .5-.1.7-.3.2-.2.3-.4.3-.7 0-.3-.1-.5-.3-.7z" class="st3"/>
        <path d="M157.5 81.2h-18.2c-.5 0-1 .4-1 1v14.6c0 .5.4 1 1 1h18.2c.5 0 1-.4 1-1V82.2c-.2-.6-.6-1-1-1zm-1 5H146V83h10.5v3.2zM144 83.1v3.2h-3.9v-3.2h3.9zm-3.9 5.1h3.9v7.6h-3.9v-7.6zm5.8 7.7v-7.6h10.5v7.6h-10.5z" class="st4"/>
    </g>
    <g>
        <path d="M81.7 36.4l-1.7-.3c-.2-.6-.4-1.1-.7-1.6l1-1.4c.4-.6.4-1.4-.2-1.9l-1.4-1.6c-.3-.3-.7-.4-1.1-.4-.3 0-.6.1-.9.3l-1.4 1c-.5-.3-1.1-.5-1.7-.7l-.3-1.7c-.1-.7-.7-1.2-1.5-1.2h-2.1c-.7 0-1.4.5-1.5 1.2l-.3 1.7c-.6.2-1.1.4-1.6.7l-1.4-1c-.3-.2-.6-.3-.9-.3-.4 0-.8.2-1.1.4l-1.5 1.5c-.5.5-.6 1.3-.2 1.9l1 1.4c-.3.5-.5 1.1-.7 1.6l-1.5.4c-.7.1-1.2.7-1.2 1.5V40c0 .7.5 1.4 1.2 1.5l1.7.3c.2.6.4 1.1.7 1.6l-1 1.4c-.4.6-.4 1.4.2 1.9l1.5 1.5c.3.3.7.4 1.1.4.3 0 .6-.1.9-.3l1.4-1c.5.3 1 .5 1.6.7l.3 1.7c.1.7.7 1.2 1.5 1.2H72c.7 0 1.4-.5 1.5-1.2l.3-1.7c.6-.2 1.1-.4 1.6-.7l1.4 1c.3.2.6.3.9.3.4 0 .8-.2 1.1-.4l1.5-1.5c.5-.5.6-1.3.2-1.9l-1-1.4c.3-.5.5-1.1.7-1.6l1.5-.4c.7-.1 1.2-.7 1.2-1.5v-2.1c0-.7-.5-1.3-1.2-1.4zm-.1 3.6c0 .1 0 .1 0 0l-2.2.4c-.3 0-.5.2-.5.5-.2.7-.5 1.5-.9 2.1-.1.2-.1.5 0 .7l1.2 1.8v.2l-1.5 1.5h-.2L75.8 46c-.2-.2-.5-.2-.7 0-.7.4-1.4.7-2.1.9-.3.1-.5.3-.5.5l-.4 2.1c0 .1-.1.1-.1.1h-2.1c-.1 0-.1 0-.1-.1l-.5-2.1c0-.3-.2-.5-.5-.5-.7-.2-1.4-.5-2.1-.8-.1-.1-.2-.1-.3-.1s-.3 0-.4.1l-1.8 1.3H64l-1.5-1.5s-.1-.1 0-.2l1.2-1.7c.2-.2.2-.5 0-.7-.4-.7-.7-1.4-.9-2.1-.1-.3-.3-.5-.5-.5l-2.1-.4c-.1 0-.1-.1-.1-.1v-2.1c0-.1 0-.1.1-.1l2.1-.4c.3 0 .5-.2.5-.5.2-.7.5-1.5.9-2.1.1-.2.1-.5 0-.7l-1.3-1.8v-.2l1.5-1.5h.2l1.7 1.2c.2.2.5.2.7 0 .7-.4 1.4-.7 2.1-.9.3-.1.5-.3.5-.5l.4-2.1c0-.1.1-.1.1-.1h2.1c.1 0 .1 0 .1.1l.4 2.1c0 .3.2.5.5.5.8.2 1.5.5 2.2.9.2.1.5.1.7 0l1.7-1.3h.2l1.5 1.5s.1.1 0 .2l-1.2 1.7c-.2.2-.2.5 0 .7.4.7.7 1.4.9 2.1.1.3.3.5.5.5l2.1.4c.1 0 .1.1.1.1l.2 2.1z" class="st3"/>
        <path d="M70.9 33.7c-2.9 0-5.2 2.3-5.2 5.2s2.3 5.2 5.2 5.2 5.2-2.3 5.2-5.2-2.4-5.2-5.2-5.2zm0 9c-2.1 0-3.8-1.7-3.8-3.8s1.7-3.8 3.8-3.8 3.8 1.7 3.8 3.8-1.7 3.8-3.8 3.8z" class="st3"/>
    </g>
    <path d="M102.8 108.4c.5-2.1 3.2-4 4.9-5.4 0 .9-2.8 8.7-3.1 9.5.2-.6 4.9-9.3 5.1-2 1.3-1.9 2.8-3.6 4.6-4.9-.2.4-1 4.1-.4 4.8.5-.5 2.1-3.3 2.8-3.4.7-.1 2.5 3.2 8.8.8" class="st5"/>
</svg>
