<svg xmlns="http://www.w3.org/2000/svg" id="Слой_1" viewBox="0 0 168.9 110.5">
    <style>
        .st0,.st1{fill:#fff;stroke:#c4c9d6;stroke-width:2;stroke-linecap:round;stroke-linejoin:round}.st1{fill:none;stroke:#5f96d7;stroke-miterlimit:10}
    </style>
    <path d="M51 20.9v-8.2C51 6.2 56.6 1 63.4 1h66.4c6.8 0 12.4 5.2 12.4 11.7V52c0 6.5-5.5 11.7-12.4 11.7h-2.9v20.8l-12.3-13.2" class="st0"/>
    <path d="M102.2 20.9H35.5c-6.9 0-12.4 5.6-12.4 12.4V75c0 6.9 5.6 12.4 12.4 12.4h9.2v22l19.4-22h38.2c6.9 0 12.4-5.6 12.4-12.4V33.4c-.1-6.9-5.7-12.5-12.5-12.5z" class="st0"/>
    <path d="M40.9 42.7h29.3M40.9 55h55.7M40.9 67.3h55.7" class="st1"/>
</svg>
