<svg xmlns="http://www.w3.org/2000/svg" id="Слой_1" viewBox="0 0 206.6 110.3">
    <style>
        .st0,.st1,.st2{fill:none;stroke-width:2}.st0{fill-rule:evenodd;clip-rule:evenodd;stroke-miterlimit:10;stroke:#f4f5f9}.st1,.st2{stroke:#e4e7ec;stroke-linecap:round;stroke-linejoin:round}.st2{stroke:#3498db}.st3,.st4{stroke:#c4c9d6;stroke-width:2}.st3{fill-rule:evenodd;clip-rule:evenodd;fill:#fff}.st4{fill:none}.st5{fill-rule:evenodd;clip-rule:evenodd;fill:#e4e7ec}.st6{fill:none;stroke:#3498db;stroke-width:.7;stroke-linecap:round;stroke-linejoin:round;stroke-miterlimit:10}.st7{fill:#c4c9d6}.st8{fill:#e4e7ec}
    </style>
    <path d="M200.9 107.2h-161c-2.6 0-4.7-2.1-4.7-4.7V5.7c0-2.6 2.1-4.7 4.7-4.7h160.9c2.6 0 4.7 2.1 4.7 4.7v96.7c.1 2.7-2 4.8-4.6 4.8z" class="st0"/>
    <path d="M49.4 13.9h142M65.1 13.9v11.8M77.4 13.9v4.2M87.8 13.9v11.8M100.2 13.9v4.2M110.5 13.9v11.8M122.9 13.9v4.2M133.3 13.9v11.8M145.6 13.9v4.2M156 13.9v11.8M168.3 13.9v4.2M178.7 13.9v11.8M49.4 34.3h142M65.1 34.3v11.9M77.4 34.3v4.3M87.8 34.3v11.9M100.2 34.3v4.3M110.5 34.3v11.9M122.9 34.3v4.3M133.3 34.3v11.9M145.6 34.3v4.3M156 34.3v11.9M168.3 34.3v4.3M178.7 34.3v11.9M49.4 54.8h142M65.1 54.8v11.8M77.4 54.8v4.3M87.8 54.8v11.8M100.2 54.8v4.3M110.5 54.8v11.8M122.9 54.8v4.3M133.3 54.8v11.8M145.6 54.8v4.3M156 54.8v11.8M168.3 54.8v4.3M178.7 54.8v11.8M49.4 75.3h142M65.1 75.3v11.8M77.4 75.3v4.2M87.8 75.3v11.8M100.2 75.3v4.2M110.5 75.3v11.8M122.9 75.3v4.2M133.3 75.3v11.8M145.6 75.3v4.2M156 75.3v11.8M168.3 75.3v4.2M178.7 75.3v11.8M49.4 95.7h142" class="st1"/>
    <path d="M49.4 64.9h28V22.4h22.8v24.5h22.7v40.2h27.3V66.6h41.2" class="st2"/>
    <g>
        <path d="M8.2 29h63.6c3.9 0 7.2 3.5 7.2 7.9v64.5c0 4.3-3.2 7.9-7.2 7.9H8.2c-3.9 0-7.2-3.5-7.2-7.9V36.9C1 32.5 4.2 29 8.2 29z" class="st3"/>
        <path d="M11.5 58.4h58.8M11.5 67.6h27.9M11.5 49.3h37.2M11.5 40.1h37.2M42.4 67.6h27.9M11.5 85.9h27.9M42.4 85.9h27.9M11.5 76.8h58.8" class="st4"/>
        <circle cx="63.1" cy="43.3" r="7.2" class="st5"/>
        <path d="M66.4 41.5L61.9 46l-1.5-1.5 4.5-4.5c.4-.4 1.1-.4 1.5 0 .4.4.4 1.1 0 1.5z" class="st6"/>
        <path d="M60.4 44.5l-.9 2.4 2.4-.9zM64.5 40.4l1.5 1.5" class="st6"/>
        <path d="M68.7 102.3H44c-.9 0-1.6-.7-1.6-1.6v-3.4c0-.9.7-1.6 1.6-1.6h24.6c.9 0 1.6.7 1.6 1.6v3.4c.1.9-.6 1.6-1.5 1.6z" class="st7"/>
        <path d="M37.8 102.3H13.1c-.9 0-1.6-.7-1.6-1.6v-3.4c0-.9.7-1.6 1.6-1.6h24.6c.9 0 1.6.7 1.6 1.6v3.4c.1.9-.6 1.6-1.5 1.6z" class="st8"/>
    </g>
</svg>
