<svg xmlns="http://www.w3.org/2000/svg" id="Слой_1" viewBox="0 0 195.8 114.6">
    <style>
        .st0{fill-rule:evenodd;clip-rule:evenodd;fill:#f4f5f9;stroke:#c4c9d6;stroke-width:2}.st1,.st2,.st3,.st4,.st5,.st6{fill-rule:evenodd;clip-rule:evenodd;fill:#fff}.st2,.st3,.st4,.st5,.st6{fill:#f4f5f9}.st3,.st4,.st5,.st6{fill:#3498db}.st4,.st5,.st6{fill:#e4e7ec}.st5,.st6{fill:#fff;stroke:#c4c9d6}.st5{stroke-linecap:round;stroke-linejoin:round;stroke-width:2}.st6{stroke-width:1.5}.st7{fill:none;stroke:#f4f5f9;stroke-width:2;stroke-miterlimit:10}.st8{fill:#3498db}.st9{fill:#f4f5f9}
    </style>
    <path d="M21 101.5V11.1C21 5.5 25.5 1 31.2 1h140.9c5.6 0 10.2 4.5 10.2 10.1v90.5" class="st0"/>
    <path d="M30 10.5h142v91H30c.1 0 .1-91 0-91z" class="st1"/>
    <path d="M41.2 29.1h120.6v20.2H41.2V29.1zM104.9 57.1h56.3v35.4h-56.3V57.1z" class="st2"/>
    <path d="M59.7 18.4c1.1 0 1.9.9 1.9 1.9s-.9 1.9-1.9 1.9c-1.1 0-1.9-.9-1.9-1.9s.7-1.9 1.9-1.9zM51.8 18.4c1.1 0 1.9.9 1.9 1.9s-.9 1.9-1.9 1.9c-1.1 0-1.9-.9-1.9-1.9s.8-1.9 1.9-1.9zM43.3 18.4c1.1 0 1.9.9 1.9 1.9s-.9 1.9-1.9 1.9c-1.1 0-1.9-.9-1.9-1.9-.1-1 .8-1.9 1.9-1.9z" class="st3"/>
    <path d="M41 59.1h55.9v1.4H41v-1.4zM41 64.8h55.9v1.4H41v-1.4zM41 70.5h55.9v1.4H41v-1.4zM41 76.3h55.9v1.4H41v-1.4zM41 82h55.9v1.4H41V82zM41 87.7h27.9v1.4H41v-1.4z" class="st4"/>
    <path d="M194.8 101.5H10.6v5.1c0 3.8 3.1 7 7 7h170.2c3.8 0 7-3.1 7-7v-5.1z" class="st5"/>
    <path d="M7.9 36.3h63.6c3.9 0 7.2 3.2 7.2 7.2v58.7c0 3.9-3.2 7.2-7.2 7.2H7.9c-3.9 0-7.2-3.2-7.2-7.2V43.5c.1-4 3.2-7.2 7.2-7.2z" class="st6"/>
    <path d="M11.2 81.9h58.9M11.2 88.8h58.9M11.2 95.8h48.5" class="st7"/>
    <circle cx="77.2" cy="99.8" r="7.2" class="st3"/>
    <path d="M77.8 100.2h2.5c.3 0 .5-.2.5-.5s-.2-.5-.5-.5h-2.5v-2.5c0-.3-.2-.5-.5-.5s-.5.2-.5.5v2.6h-2.4c-.3 0-.5.2-.5.5s.2.5.5.5h2.5v2.5c0 .3.2.5.5.5s.5-.2.5-.5l-.1-2.6z" class="st1"/>
    <path d="M36 51.8c0-.1 0-.2-.1-.3-.1-.2-.3-.4-.5-.4L24 45.6c-.2-.1-.4-.1-.6 0l-11.5 5.6c-.2.1-.4.4-.4.5v14.1c0 .3.2.5.4.6l11.6 5.7H24.3l11.6-5.6c.3-.1.4-.4.4-.6L36 51.8c0 .1 0 0 0 0zM23.8 47l10 4.9-3.7 1.8-10-5 3.7-1.7zm0 9.7l-10-4.9 4.8-2.3 10 4.9-4.8 2.3zm-10.9-3.8l10.2 5v12.5l-10.2-4.9V52.9zm11.5 17.6V57.9l4.8-2.3v3.2c0 .4.3.6.6.6.4 0 .6-.3.6-.6v-4l4.1-2v12.5l-10.1 5.2z" class="st8"/>
    <path d="M47.4 45.6h22.7V56H47.4zM47.4 59.6h22.7v2.3H47.4zM47.4 64.3h22.7v2.3H47.4zM47.4 69.3h22.7v2.3H47.4z" class="st9"/>
</svg>
