<svg xmlns="http://www.w3.org/2000/svg" id="Слой_1" viewBox="0 0 205 110.4">
    <style>
        .st0,.st1{fill-rule:evenodd;clip-rule:evenodd;fill:#e4e7ec}.st1{fill:#f4f5f9}.st2{stroke-linecap:round;stroke-linejoin:round}.st2,.st3,.st4{fill:#fff;stroke:#3498db;stroke-width:1.5;stroke-miterlimit:10}.st4{fill:none}.st5,.st6{stroke:#c4c9d6}.st5{fill-rule:evenodd;clip-rule:evenodd;fill:#fff;stroke-width:1.5}.st6{fill:none;stroke-width:2}.st7{fill-rule:evenodd;clip-rule:evenodd;fill:#c4c9d6}.st8{fill:none;stroke:#c4c9d6;stroke-width:1.5;stroke-linecap:round;stroke-linejoin:round}
    </style>
    <path d="M51 88h28v1.4H51V88zM77.5 47.5l1.8 1.8c.2.2.5.2.7 0s.2-.5 0-.7l-1.8-1.8L80 45c.2-.2.2-.5 0-.7s-.5-.2-.7 0l-1.9 1.9-1.7-1.7c-.2-.2-.5-.2-.7 0s-.2.5 0 .7l1.8 1.8-1.7 1.8c-.2.2-.2.5 0 .7s.5.2.7 0l1.7-2z" class="st0"/>
    <path d="M103.6 61.2l-33.3 2.6-.1-2.1 33.3-2.6-2-27.6-64 4.5v55.9l68-4.8zM101.4 0l2 29.2 64-4.5L165.6 0zM173.1 105.3l-1.5-20.8-63.9 4.5 1.2 16.3zM103.6 31.3l4 55.6 63.8-4.5-4-55.6zM204.9 24.1l-35.3 2.5 4 55.6 31.3-2.2zM173.7 84.3l1.5 21H198c3.9 0 7-3.1 7-7V82.1l-31.3 2.2zM105.6 89.2L37.5 94v11.3h69.3zM169.4 24.6l35.6-2.5v-15c0-3.9-3.1-7-7-7h-30.3l1.7 24.5zM101.4 29.4L99.3 0H44.5c-3.9 0-7 3.1-7 7v26.9l63.9-4.5z" class="st1"/>
    <g>
        <path d="M120.4 17.7h3.6l2 4.4h4.2v6.2h-9.8" class="st2"/>
        <path d="M105.4 13.9h15v14.4h-15z" class="st2"/>
        <circle cx="122.5" cy="27.6" r="2.7" class="st3"/>
        <circle cx="111.4" cy="27.6" r="2.7" class="st3"/>
    </g>
    <g>
        <path d="M175.9 82.9h3.6l2.1 4.4h4.1v6.2h-9.8" class="st2"/>
        <path d="M160.9 79.1h15v14.4h-15z" class="st2"/>
        <circle cx="178" cy="92.8" r="2.7" class="st3"/>
        <circle cx="167" cy="92.8" r="2.7" class="st3"/>
    </g>
    <g>
        <path d="M67.8 18.3H7.1c-3.5 0-6.3 2.8-6.3 6.3v78.8c0 3.5 2.8 6.3 6.3 6.3h60.8c3.5 0 6.3-2.8 6.3-6.3V24.6c-.1-3.5-3-6.3-6.4-6.3z" class="st5"/>
        <path d="M19.5 52.8h45.4M19.5 41.9h45.4M19.5 63.6h45.4M19.5 74.5h45.4" class="st6"/>
        <path d="M10.7 43.8h1.4c.7 0 1.3-.6 1.3-1.3v-1.4c0-.7-.6-1.3-1.3-1.3h-1.4c-.7 0-1.3.6-1.3 1.3v1.4c-.2.7.5 1.3 1.3 1.3zM10.7 54.8h1.4c.7 0 1.3-.6 1.3-1.3v-1.4c0-.7-.6-1.3-1.3-1.3h-1.4c-.7 0-1.3.6-1.3 1.3v1.4c-.2.6.5 1.3 1.3 1.3zM10.7 65.8h1.4c.7 0 1.3-.6 1.3-1.3v-1.4c0-.7-.6-1.3-1.3-1.3h-1.4c-.7 0-1.3.6-1.3 1.3v1.4c-.2.6.5 1.3 1.3 1.3zM10.7 76.5h1.4c.7 0 1.3-.6 1.3-1.3v-1.5c0-.7-.6-1.3-1.3-1.3h-1.4c-.7 0-1.3.6-1.3 1.3v1.4c-.2.7.5 1.4 1.3 1.4z" class="st7"/>
        <path d="M19.5 86.5h45.4M19.5 97.3h45.4" class="st6"/>
        <path d="M10.7 88.6h1.4c.7 0 1.3-.6 1.3-1.3v-1.4c0-.7-.6-1.3-1.3-1.3h-1.4c-.7 0-1.3.6-1.3 1.3v1.4c-.2.6.5 1.3 1.3 1.3zM10.7 99.3h1.4c.7 0 1.3-.6 1.3-1.3v-1.4c0-.7-.6-1.3-1.3-1.3h-1.4c-.7 0-1.3.6-1.3 1.3V98c-.2.6.5 1.3 1.3 1.3z" class="st7"/>
        <path d="M60.6 26.7l4.3 4.2M64.9 26.7l-4.3 4.2" class="st8"/>
    </g>
</svg>
