<svg xmlns="http://www.w3.org/2000/svg" id="Слой_1" viewBox="0 0 205 110.4">
    <style>
        .st0,.st1{fill-rule:evenodd;clip-rule:evenodd;fill:#e4e7ec}.st1{fill:#f4f5f9}.st2,.st3{stroke:#c4c9d6;stroke-width:1.2}.st2{fill-rule:evenodd;clip-rule:evenodd;fill:#fff}.st3{fill:none}.st4{fill-rule:evenodd;clip-rule:evenodd;fill:none;stroke:#3498db;stroke-linecap:round;stroke-linejoin:round;stroke-miterlimit:10}.st5{fill:#c4c9d6}.st6{fill:#3498db}.st7,.st8{fill:#fff;stroke:#3498db;stroke-width:2;stroke-linecap:round;stroke-linejoin:round;stroke-miterlimit:10}.st8{fill:none}
    </style>
    <path d="M51 88h28v1.4H51V88zM77.5 47.5l1.8 1.8c.2.2.5.2.7 0s.2-.5 0-.7l-1.8-1.8L80 45c.2-.2.2-.5 0-.7s-.5-.2-.7 0l-1.9 1.9-1.7-1.7c-.2-.2-.5-.2-.7 0s-.2.5 0 .7l1.8 1.8-1.7 1.8c-.2.2-.2.5 0 .7s.5.2.7 0l1.7-2z" class="st0"/>
    <path d="M103.6 61.2l-33.3 2.6-.1-2.1 33.3-2.6-2-27.6-64 4.5v55.9l68-4.8zM101.4 0l2 29.2 64-4.5L165.6 0zM173.1 105.3l-1.5-20.8-63.9 4.5 1.2 16.3zM103.6 31.3l4 55.6 63.8-4.5-4-55.6zM204.9 24.1l-35.3 2.5 4 55.6 31.3-2.2zM173.7 84.3l1.5 21H198c3.9 0 7-3.1 7-7V82.1l-31.3 2.2zM105.6 89.2L37.5 94v11.3h69.3zM169.4 24.6l35.6-2.5v-15c0-3.9-3.1-7-7-7h-30.3l1.7 24.5zM101.4 29.4L99.3 0H44.5c-3.9 0-7 3.1-7 7v26.9l63.9-4.5z" class="st1"/>
    <g>
        <path d="M48.2 106.7H7.7c-2.4 0-4.4-2-4.4-4.4V74.8c0-2.4 2-4.4 4.4-4.4h40.5c2.4 0 4.4 2 4.4 4.4v27.5c0 2.5-2 4.4-4.4 4.4z" class="st2"/>
        <path d="M10 97.4h35.9M10 93.7h35.9M10 101.1h35.9" class="st3"/>
        <path d="M28.6 75.5c-3.6 0-6.6 3-6.6 6.6 0 .1 0 1 .2 2l-.9-.5c-.2-.1-.5-.1-.6.2-.1.2-.1.5.2.6l2.1 1.2h.5l.8-2c.1-.2 0-.5-.3-.6-.2-.1-.5 0-.6.3l-.2.7c-.3-.9-.3-1.9-.3-1.9 0-3.1 2.5-5.7 5.7-5.7 3.1 0 5.7 2.5 5.7 5.7 0 3.1-2.5 5.7-5.7 5.7-.3 0-.5.2-.5.5s.2.5.5.5c3.6 0 6.6-3 6.6-6.6 0-3.8-2.9-6.7-6.6-6.7z" class="st5"/>
        <path d="M28.4 83H28.7s.1 0 .1-.1l2.9-2.9c.2-.2.2-.5 0-.7-.2-.2-.5-.2-.7 0L28.5 82l-2.4-1c-.2-.1-.5 0-.6.2-.1.2 0 .5.2.6l2.7 1.2z" class="st6"/>
    </g>
    <g>
        <path d="M94 18c0 7.4-9.6 15.9-9.6 15.9s-9.5-7.8-9.5-15.9c0-5.3 4.4-9.6 9.6-9.6 5.2 0 9.5 4.1 9.5 9.6z" class="st7"/>
        <circle cx="84.5" cy="17.4" r="3.3" class="st8"/>
    </g>
    <g>
        <path d="M179.2 28.3c0 7.4-9.6 15.9-9.6 15.9s-9.5-7.8-9.5-15.9c0-5.3 4.4-9.6 9.6-9.6s9.5 4.2 9.5 9.6z" class="st7"/>
        <circle cx="169.6" cy="27.8" r="3.3" class="st8"/>
    </g>
    <g>
        <path d="M134.4 71.3c0 7.4-9.6 15.9-9.6 15.9s-9.5-7.8-9.5-15.9c0-5.3 4.4-9.6 9.6-9.6 5.2 0 9.5 4.1 9.5 9.6z" class="st7"/>
        <circle cx="124.9" cy="70.8" r="3.3" class="st8"/>
    </g>
</svg>
