<svg xmlns="http://www.w3.org/2000/svg" id="Слой_1" viewBox="0 0 203.2 137.7">
    <style>
        .st0,.st1{fill-rule:evenodd;clip-rule:evenodd}.st0{stroke:#c4c9d6;stroke-width:2;fill:#f4f5f9}.st1{fill:#fff}.st2{fill:#3498db}.st2,.st3,.st4{fill-rule:evenodd;clip-rule:evenodd}.st3{stroke:#c4c9d6;stroke-width:2;stroke-linecap:round;stroke-linejoin:round;fill:#fff}.st4{fill:#f4f5f9}.st5,.st6,.st7,.st8{fill:#fff;stroke:#c4c9d6;stroke-width:2}.st6,.st7,.st8{stroke:#3498db}.st7,.st8{stroke-linecap:round;stroke-linejoin:round;stroke-miterlimit:10}.st8{fill:none;stroke:#c8ccce;stroke-dasharray:5,8}
    </style>
    <path d="M28.5 124.6V34.2c0-5.6 4.5-10.1 10.2-10.1h140.9c5.6 0 10.2 4.5 10.2 10.1v90.5" class="st0"/>
    <path d="M37.5 33.6h142v91h-142v-91z" class="st1"/>
    <path d="M68.6 41.5c1.1 0 1.9.9 1.9 1.9s-.9 1.9-1.9 1.9c-1.1 0-1.9-.9-1.9-1.9s.8-1.9 1.9-1.9zM60.7 41.5c1.1 0 1.9.9 1.9 1.9s-.9 1.9-1.9 1.9c-1.1 0-1.9-.9-1.9-1.9s.8-1.9 1.9-1.9zM52.3 41.5c1.1 0 1.9.9 1.9 1.9s-.9 1.9-1.9 1.9c-1.1 0-1.9-.9-1.9-1.9-.1-1 .8-1.9 1.9-1.9z" class="st2"/>
    <path d="M202.2 124.6H18v5.1c0 3.8 3.1 7 7 7h170.2c3.8 0 7-3.1 7-7v-5.1z" class="st3"/>
    <g>
        <path d="M96.2 92.3l-23.1 1.8-.1-1.4 23.1-1.8-1.4-19.1-44.3 3.1v38.7l47.1-3.4zM94.6 50L96 70.2l44.3-3.1-1.2-17.1zM144.3 122.8l-1.1-14.4-44.2 3.2.8 11.2zM96.2 71.6l2.7 38.5 44.2-3.1-2.8-38.5zM166.3 66.6l-24.5 1.8 2.8 38.5 21.7-1.6zM144.7 108.3l1 14.5h15.8c2.7 0 4.8-2.1 4.8-4.8v-11.2l-21.6 1.5zM97.5 111.7L50.4 115v7.8h48zM141.7 67l24.6-1.7V54.9c0-2.7-2.1-4.8-4.8-4.8h-21l1.2 16.9zM94.6 70.3L93.2 50h-38c-2.7 0-4.8 2.1-4.8 4.8v18.6l44.2-3.1z" class="st4"/>
    </g>
    <g>
        <path d="M53.3 137.1H10.9c-4.1 0-7.4-3.3-7.4-7.4V70.8c0-4.1 3.3-7.4 7.4-7.4h42.4c4.1 0 7.4 3.3 7.4 7.4v58.8c0 4.2-3.3 7.5-7.4 7.5z" class="st5"/>
        <path d="M9.8 70.5H54v10.7H9.8z" class="st5"/>
        <path d="M42.2 86.2H54V98H42.2z" class="st6"/>
        <path d="M26 86.2h11.8V98H26zM9.8 86.2h11.8V98H9.8zM42.2 101.7H54v27.2H42.2zM26 101.7h11.8v11.8H26zM9.8 101.7h11.8v11.8H9.8zM26 117.1h11.8v11.8H26zM9.8 117.1h11.8v11.8H9.8z" class="st5"/>
    </g>
    <circle cx="98.5" cy="111.2" r="5.3" class="st7"/>
    <circle cx="144.4" cy="67.4" r="5.3" class="st7"/>
    <path d="M97.5 101.7l-1.8-26.5c-.2-2.3 1.6-4.3 3.9-4.5l35.8-2.7" class="st8"/>
</svg>
