<svg xmlns="http://www.w3.org/2000/svg" id="Слой_1" viewBox="0 0 197.2 132.4">
    <style>
        .st0{fill:none;stroke:#c4c9d6;stroke-width:2;stroke-linecap:round;stroke-linejoin:round}.st1{fill-rule:evenodd;clip-rule:evenodd;fill:#f4f5f9}.st2,.st3{stroke:#c4c9d6}.st2{stroke-dasharray:8,4;fill:none;stroke-width:2}.st3{fill-rule:evenodd;clip-rule:evenodd;fill:#fff;stroke-width:1.5}.st4,.st5{fill:none;stroke:#3498db;stroke-width:2}.st5{stroke:#c4c9d6}.st6,.st7{fill-rule:evenodd;clip-rule:evenodd;fill:#bbc0c4}.st7{fill:#fff}.st8{stroke:#3498db;stroke-width:1.5;stroke-linecap:round;stroke-linejoin:round}.st8,.st9{fill:#fff}.st10{fill:#3498db}
    </style>
    <path d="M181.8 124.7H3.2" class="st0"/>
    <path d="M23.2 11.7h139.7V56H23.2zM78.2 63.4h84.9v3.5H78.2zM78.2 71.9h84.9v3.5H78.2zM78.2 80.5h84.9V84H78.2zM78.2 89.1h84.9v3.5H78.2zM78.2 97.7h84.9v3.5H78.2zM78.2 106.3h84.9v3.5H78.2zM78.2 114.8h84.9v3.5H78.2z" class="st1"/>
    <path d="M10.8 124.6V12.3C10.8 6 15.5 1 21.5 1h142.6c5.9 0 10.7 5 10.7 11.3v112.4" class="st2"/>
    <path d="M187.5 124.7h6.5" class="st0"/>
    <path d="M67.8 40.2H7.1C3.6 40.2.8 43 .8 46.5v78.8c0 3.5 2.8 6.3 6.3 6.3h60.8c3.5 0 6.3-2.8 6.3-6.3V46.5c-.3-3.5-3.2-6.3-6.4-6.3z" class="st3"/>
    <path d="M9.3 59h55.5M9.3 50.9h55.5v21.7H9.3z" class="st4"/>
    <path d="M9.3 83.5h55.5M9.3 95.5h55.5M9.3 106.3h55.5" class="st5"/>
    <path d="M19.5 50.9v21.7" class="st4"/>
    <g>
        <circle cx="93.8" cy="33.3" r="10.3" class="st6"/>
        <path d="M93.1 33.9l-.2 3.7c0 .4.3.7.7.7s.7-.3.7-.7V34h3.6c.4 0 .7-.3.7-.7s-.3-.7-.7-.7h-3.4v-3.7c0-.4-.3-.7-.7-.7s-.7.3-.7.7v3.6h-3.6c-.4 0-.7.3-.7.7 0 .4.3.7.7.7h3.6z" class="st7"/>
    </g>
    <g>
        <path d="M1.1 123.8s-2.5-18.3 15.9-18.3c2-.2 1.2-7.1 1.2-7.1l14.5 11.9L18.4 122l-.7-7.1c0 .1-11.3-.9-16.6 8.9z" class="st9"/>
        <path d="M33.6 109.5l-15-12.3c-.3-.2-.7-.3-1-.1s-.5.5-.5.8v6.5c-7.3.3-12.3 2.8-14.9 7.6C0 116.1 0 121 0 124.3v.8c0 .4.3.8.7.9h.2c.3 0 .6-.2.8-.5 5.1-8.9 9.2-9.4 15.3-9.4v6.5c0 .4.2.7.5.8s.7.1 1-.1l15-12.4c.2-.2.3-.4.3-.7.1-.3 0-.6-.2-.7zm-14.7 11.1v-5.4c0-.3-.1-.5-.3-.7-.2-.2-.4-.3-.7-.3-3.8 0-6.7.1-9.5 1.4-2.4 1.1-4.5 3.1-6.6 6.1.1-2.8.4-6.1 2-8.8 2.4-4.4 7-6.6 14.2-6.7.5 0 .9-.4.9-.9v-5.4l12.6 10.4-12.6 10.3z" class="st10"/>
    </g>
</svg>
