<svg xmlns="http://www.w3.org/2000/svg" id="Слой_1" viewBox="0 0 219.3 102.2">
    <style>
        .st0,.st1,.st2{fill-rule:evenodd;clip-rule:evenodd;fill:#e4e7ec}.st1,.st2{fill:#f4f5f9}.st2{fill:#fff;stroke:#c4c9d6;stroke-width:1.5}.st3,.st4,.st5{fill:none;stroke:#c4c9d6;stroke-width:2}.st4,.st5{stroke:#dfe3ea}.st5{stroke:#3498db;stroke-dasharray:8,8}.st6{fill:#fff;stroke:#c4c9d6;stroke-width:1.5}.st7{fill-rule:evenodd;clip-rule:evenodd;fill:#fff}.st8,.st9{fill:none;stroke:#c4c9d6;stroke-width:2;stroke-linecap:round;stroke-linejoin:round}.st9{stroke:#3498db}
    </style>
    <path d="M65.3 80.5h28v1.4h-28v-1.4zM91.8 40l1.8 1.8c.2.2.5.2.7 0s.2-.5 0-.7l-1.8-1.8 1.8-1.8c.2-.2.2-.5 0-.7s-.5-.2-.7 0l-1.9 1.9L90 37c-.2-.2-.5-.2-.7 0s-.2.5 0 .7l1.8 1.8-1.7 1.8c-.2.2-.2.5 0 .7s.5.2.7 0l1.7-2z" class="st0"/>
    <path d="M125.1 56.9l-31 2.4-.1-2 31-2.4-1.9-25.6-59.5 4.2v51.9l63.2-4.5zM123 0l1.9 27.1 59.4-4.1-1.6-23zM189.6 97.8l-1.4-19.3-59.3 4.2 1.1 15.1zM125.1 29.1l3.7 51.6 59.3-4.1-3.8-51.7zM219.2 22.4l-32.8 2.3 3.7 51.7 29.1-2.1zM190.2 78.3l1.4 19.5h21.2c3.6 0 6.5-2.9 6.5-6.5v-15l-29.1 2zM126.9 82.9l-63.3 4.4v10.5H128zM186.2 22.9l33.1-2.3v-14c0-3.6-2.9-6.5-6.5-6.5h-28.2l1.6 22.8zM123 27.3L121 0H70.1c-3.6 0-6.5 2.9-6.5 6.5v25l59.4-4.2z" class="st1"/>
    <g>
        <path d="M67.8 10.1H7.1c-3.5 0-6.3 2.8-6.3 6.3v78.8c0 3.5 2.8 6.3 6.3 6.3h60.8c3.5 0 6.3-2.8 6.3-6.3V16.4c-.2-3.5-3.1-6.3-6.4-6.3z" class="st2"/>
        <path d="M9.3 48.6h55.5M9.3 38.7h55.5" class="st3"/>
        <path d="M1.6 27.2h71.7" class="st4"/>
        <path d="M9.3 19.4h55.5" class="st5"/>
        <path d="M9.3 58.5h55.5M9.3 68.3h55.5M9.3 78.2h55.5M9.3 88.1h55.5" class="st3"/>
    </g>
    <g>
        <path d="M175.1 11c0 4.8-6.2 10.3-6.2 10.3s-6.1-5-6.1-10.3c0-3.4 2.8-6.2 6.2-6.2 3.3 0 6.1 2.6 6.1 6.2z" class="st6"/>
        <circle cx="169" cy="10.6" r="2.1" class="st6"/>
    </g>
    <g>
        <path d="M203.2 73.7c0 4.8-6.2 10.3-6.2 10.3s-6.1-5-6.1-10.3c0-3.4 2.8-6.2 6.2-6.2s6.1 2.6 6.1 6.2z" class="st6"/>
        <circle cx="197" cy="73.3" r="2.1" class="st6"/>
    </g>
    <g>
        <path d="M95.3 82.2c0 4.8-6.2 10.3-6.2 10.3s-6.1-5-6.1-10.3c0-3.4 2.8-6.2 6.2-6.2s6.1 2.7 6.1 6.2z" class="st6"/>
        <circle cx="89.2" cy="81.8" r="2.1" class="st6"/>
    </g>
    <g>
        <circle cx="126.6" cy="48.7" r="26.9" class="st7"/>
        <path d="M116.6 42.1H138M133.6 37.7l4.4 4.4-4.4 4.4" class="st8"/>
        <g>
            <path d="M138 55.2h-21.4M121 50.8l-4.4 4.4 4.4 4.4" class="st9"/>
        </g>
    </g>
</svg>
