<svg xmlns="http://www.w3.org/2000/svg" id="Слой_1" viewBox="0 0 156.2 88.6">
    <style>
        .st0{fill:none;stroke:#c2c9d7;stroke-width:1.5}.st1{fill:#3498db}.st1,.st2,.st3{fill-rule:evenodd;clip-rule:evenodd}.st2{stroke:#c4c9d6;stroke-width:1.5;fill:#fff}.st3{fill:#c4c9d6}.st4{fill:none;stroke:#c4c9d6;stroke-width:1.5}.st5{fill:#3498db}.st6{fill:none;stroke:#fff;stroke-width:1.5;stroke-linecap:round;stroke-linejoin:round}.st7{fill-rule:evenodd;clip-rule:evenodd;fill:#edf0f4}.st8{fill:#fff}.st9{fill:none;stroke:#3498db;stroke-linecap:round;stroke-linejoin:round;stroke-miterlimit:10}
    </style>
    <path d="M123.7 87.9H6.9c-3.4 0-6.2-2.8-6.2-6.2V16.9c0-3.4 2.8-6.2 6.2-6.2h116.8c3.4 0 6.2 2.8 6.2 6.2v64.7c0 3.5-2.8 6.3-6.2 6.3zM48.1 36.7h34.4M87.1 36.6h35.3M8.1 36.6h35.4M8.1 51.7h113.4M8.1 60.7h113.4M8.1 69.7h113.4M8.1 78.7h113.4" class="st0"/>
    <path d="M23.9 16.9c1 0 1.6.8 1.6 1.6 0 .9-.8 1.6-1.6 1.6-1 0-1.6-.8-1.6-1.6-.1-.8.6-1.6 1.6-1.6zM17 16.9c1 0 1.6.8 1.6 1.6 0 .9-.8 1.6-1.6 1.6-1 0-1.6-.8-1.6-1.6s.7-1.6 1.6-1.6zM9.8 16.9c1 0 1.6.8 1.6 1.6 0 .9-.8 1.6-1.6 1.6-1 0-1.6-.8-1.6-1.6-.2-.8.6-1.6 1.6-1.6z" class="st1"/>
    <path d="M114 .8h37.2c2.3 0 4.2 1.7 4.2 3.9v31.5c0 2.1-1.9 3.9-4.2 3.9H114c-2.3 0-4.2-1.7-4.2-3.9V4.7c0-2.3 1.8-3.9 4.2-3.9z" class="st2"/>
    <path d="M129.9 18.4c0-1.8-.7-3.4-2-4.6-.7-.7-1.7-1.3-2.6-1.7 1.1-.7 1.7-2 1.7-3.3 0-2.2-1.8-4-4-4s-4 1.8-4 4c0 1.3.6 2.5 1.7 3.3-1 .3-1.8.9-2.6 1.7-1.2 1.2-1.9 2.8-2 4.5v.2c0 .4.3.9.5.9h12.7c.2 0 .5-.3.6-.7m-9.8-9.9c0-1.6 1.3-2.9 2.9-2.9s2.9 1.3 2.9 2.9-1.3 2.9-2.9 2.9c-1.6.1-2.9-1.3-2.9-2.9zm2.9 4c3.1 0 5.6 2.5 5.8 5.5h-11.6c.2-3 2.7-5.5 5.8-5.5z" class="st3"/>
    <path d="M116.1 24.5h33.4M116.1 28.8h33.4M116.1 33h27.5" class="st4"/>
    <g>
        <circle cx="143.6" cy="11.8" r="6.9" class="st5"/>
        <path d="M140.6 11.8h5.9" class="st6"/>
    </g>
    <g>
        <circle cx="65.3" cy="63.6" r="16.4" class="st7"/>
        <path d="M65.3 49.2c7.9 0 14.4 6.4 14.4 14.4S73.3 78 65.3 78s-14.4-6.4-14.4-14.4 6.5-14.4 14.4-14.4m0-4c-10.1 0-18.4 8.2-18.4 18.4S55.2 82 65.3 82s18.4-8.2 18.4-18.4-8.2-18.4-18.4-18.4z" class="st8"/>
        <g>
            <path d="M72 60l-9 9-3-3 9-9c.9-.9 2.1-.9 3 0 .7.7.7 2.2 0 3z" class="st9"/>
            <path d="M60 66l-1.8 4.7L63 69zM68.2 57.7l3 3" class="st9"/>
        </g>
    </g>
</svg>
