<svg xmlns="http://www.w3.org/2000/svg" id="Слой_1" viewBox="0 0 195.8 114.6">
    <style>
        .st0,.st1,.st2,.st3,.st4{fill-rule:evenodd;clip-rule:evenodd}.st0{stroke:#c4c9d6;stroke-width:2;fill:#f4f5f9}.st1,.st2,.st3,.st4{fill:#fff}.st2,.st3,.st4{fill:#f4f5f9}.st3,.st4{fill:#3498db}.st4{fill:#e4e7ec}.st5{fill:#fff;stroke:#c4c9d6;stroke-width:2;stroke-linecap:round;stroke-linejoin:round}.st5,.st6,.st7{fill-rule:evenodd;clip-rule:evenodd}.st6{stroke:#c4c9d6;stroke-width:1.5;fill:#fff}.st7{fill:#c4c9d6}.st8,.st9{fill:none;stroke:#c4c9d6;stroke-width:1.5}.st9{fill-rule:evenodd;clip-rule:evenodd;fill:#fff;stroke:#c2c9d7}.st10,.st11,.st12{fill:none;stroke:#c2c9d7;stroke-width:2}.st11,.st12{stroke:#dde3ea}.st12{stroke:#0098dd;stroke-dasharray:8,6}
    </style>
    <path d="M21 101.5V11.1C21 5.5 25.5 1 31.2 1h140.9c5.6 0 10.2 4.5 10.2 10.1v90.5" class="st0"/>
    <path d="M30 10.5h142v91H30v-91z" class="st1"/>
    <path d="M41.2 29.1h120.6v20.2H41.2V29.1zM104.9 57.1h56.3v35.4h-56.3V57.1z" class="st2"/>
    <path d="M59.7 18.4c1.1 0 1.9.9 1.9 1.9s-.9 1.9-1.9 1.9c-1.1 0-1.9-.9-1.9-1.9s.7-1.9 1.9-1.9zM51.8 18.4c1.1 0 1.9.9 1.9 1.9s-.9 1.9-1.9 1.9c-1.1 0-1.9-.9-1.9-1.9s.8-1.9 1.9-1.9zM43.3 18.4c1.1 0 1.9.9 1.9 1.9s-.9 1.9-1.9 1.9c-1.1 0-1.9-.9-1.9-1.9-.1-1 .8-1.9 1.9-1.9z" class="st3"/>
    <path d="M41 59.1h55.9v1.4H41v-1.4zM41 64.8h55.9v1.4H41v-1.4zM41 70.5h55.9v1.4H41v-1.4zM41 76.3h55.9v1.4H41v-1.4zM41 82h55.9v1.4H41V82zM41 87.7h27.9v1.4H41v-1.4z" class="st4"/>
    <path d="M194.8 101.5H10.6v5.1c0 3.8 3.1 7 7 7h170.2c3.8 0 7-3.1 7-7v-5.1z" class="st5"/>
    <path d="M65.6 56.3h37.2c2.3 0 4.2 1.7 4.2 3.9v31.5c0 2.1-1.9 3.9-4.2 3.9H65.6c-2.3 0-4.2-1.7-4.2-3.9V60.2c-.1-2.2 1.8-3.9 4.2-3.9z" class="st6"/>
    <path d="M81.4 74c0-1.8-.7-3.4-2-4.6-.7-.7-1.7-1.3-2.6-1.7 1.1-.7 1.7-2 1.7-3.3 0-2.2-1.8-4-4-4s-4 1.8-4 4c0 1.3.6 2.5 1.7 3.3-1 .3-1.8.9-2.6 1.7-1.2 1.2-1.9 2.8-2 4.5v.2c0 .4.3.9.5.9h12.7c.2 0 .5-.3.6-.7m-9.7-9.9c0-1.6 1.3-2.9 2.9-2.9s2.9 1.3 2.9 2.9-1.3 2.9-2.9 2.9c-1.7 0-2.9-1.3-2.9-2.9zm2.9 4c3.1 0 5.6 2.5 5.8 5.5H68.8c.1-3 2.6-5.5 5.8-5.5z" class="st7"/>
    <path d="M67.7 80.1h33.4M67.7 84.3h33.4M67.7 88.6h27.5" class="st8"/>
    <g>
        <path d="M62 27.4H6.6C3.4 27.4.8 30 .8 33.2v71.9c0 3.2 2.6 5.8 5.8 5.8H62c3.2 0 5.8-2.6 5.8-5.8V33.2c-.2-3.2-2.9-5.8-5.8-5.8z" class="st9"/>
        <path d="M8.6 62.6h50.6M8.6 53.5h50.6" class="st10"/>
        <path d="M1.5 43h65.4" class="st11"/>
        <path d="M8.6 35.9h50.6" class="st12"/>
        <path d="M8.6 71.6h50.6M8.6 80.6h50.6M8.6 89.6h50.6M8.6 98.6h50.6" class="st10"/>
    </g>
</svg>
