<svg xmlns="http://www.w3.org/2000/svg" width="16" height="26">
    <path fill="#778997" fill-rule="evenodd" d="M5.233 12.65a.816.816 0 0 0-.884-.793c-.48.03-.862.433-.853.9l.117 6.332a3.727 3.727 0 0 0 1.25 2.757c.793.711 1.819 1.057 2.927.989 2.277-.14 4.086-2.048 4.031-4.25l-.265-13.299a5.229 5.229 0 0 0-1.75-3.836C8.708.466 7.259-.029 5.732.064 2.556.26.041 2.913.098 6.005l.264 13.27c.036 1.926.833 3.673 2.251 4.945 1.418 1.271 3.289 1.915 5.251 1.78a7.752 7.752 0 0 0 5.174-2.422c1.368-1.442 2.113-3.3 2.063-5.21l-.117-6.332a.817.817 0 0 0-.885-.793c-.479.03-.862.433-.853.9l.117 6.332c.027 1.459-.531 2.881-1.576 3.982a5.945 5.945 0 0 1-3.954 1.85c-1.498.092-2.931-.389-4.014-1.36A5.155 5.155 0 0 1 2.1 19.168l-.264-13.27c-.02-1.05.382-2.039 1.117-2.814a4.24 4.24 0 0 1 2.795-1.312c1.079-.066 2.075.282 2.837.965.763.684 1.2 1.65 1.219 2.671l.265 13.299c.023 1.255-1.022 2.356-2.324 2.451a2.298 2.298 0 0 1-1.69-.568 2.17 2.17 0 0 1-.72-1.592l-.102-6.348z"/>
</svg>
