<svg xmlns="http://www.w3.org/2000/svg" width="20" height="25">
    <path fill="#778997" fill-rule="evenodd" d="M10.518 24.729a.89.89 0 0 1-1.278 0c-.363-.384-8.9-9.48-8.9-15.675C.34 4.062 4.619 0 9.879 0s9.539 4.062 9.539 9.054c0 6.195-8.536 15.291-8.9 15.675zM9.879 1.631c-4.313 0-7.821 3.33-7.821 7.423 0 4.252 4.948 10.642 7.821 13.882 2.874-3.24 7.821-9.63 7.821-13.882 0-4.093-3.508-7.423-7.821-7.423zM5.08 9.054c0-2.512 2.153-4.555 4.799-4.555 2.646 0 4.799 2.043 4.799 4.555 0 2.512-2.153 4.555-4.799 4.555-2.646 0-4.799-2.043-4.799-4.555zm7.881 0c0-1.613-1.383-2.925-3.082-2.925-1.699 0-3.081 1.312-3.081 2.925 0 1.613 1.382 2.925 3.081 2.925s3.082-1.312 3.082-2.925z"/>
</svg>
