<svg xmlns="http://www.w3.org/2000/svg" width="19" height="25">
    <path fill="#778997" fill-rule="evenodd" d="M10.023 19.552v3.682h4.852c.526 0 .938.388.938.883s-.412.883-.938.883H2.906c-.526 0-.938-.388-.938-.883s.412-.883.938-.883h5.241v-3.682C3.57 19.1 0 15.461 0 11.046c0-.495.412-.883.938-.883.527 0 .939.388.939.883 0 3.747 3.226 6.784 7.208 6.784s7.208-3.037 7.208-6.784c0-.495.412-.883.939-.883.526 0 .938.388.938.883 0 4.415-3.57 8.054-8.147 8.506zm-.938-2.519c-3.501 0-6.339-2.692-6.339-5.987V5.965C2.746 2.67 5.584 0 9.085 0c3.501 0 6.339 2.67 6.339 5.965V11.046c0 3.295-2.838 5.987-6.339 5.987zm4.508-11.068c0-2.326-2.014-4.221-4.485-4.221-2.472 0-4.485 1.895-4.485 4.221v4.5c0 2.325 2.013 4.221 4.485 4.221 2.471 0 4.485-1.896 4.485-4.221v-4.5z"/>
</svg>
