<?xml version="1.0" standalone="no"?>
<!DOCTYPE svg PUBLIC "-//W3C//DTD SVG 20010904//EN"
 "http://www.w3.org/TR/2001/REC-SVG-20010904/DTD/svg10.dtd">
<svg version="1.0" xmlns="http://www.w3.org/2000/svg"
 width="16.000000pt" height="16.000000pt" viewBox="0 0 16.000000 16.000000"
 preserveAspectRatio="xMidYMid meet">
<metadata>
Created by potrace 1.11, written by Peter Selinger 2001-2013
</metadata>
<g transform="translate(0.000000,16.000000) scale(0.005000,-0.005000)"
fill="#000000" stroke="none">
<path d="M0 1600 l0 -1600 1600 0 1600 0 0 1600 0 1600 -1600 0 -1600 0 0
-1600z m900 311 c-9 -17 -6 -20 22 -24 33 -4 32 -4 -4 -5 -39 -2 -50 12 -26
36 17 17 20 15 8 -7z m-140 -8 c0 -4 -17 -24 -37 -45 l-37 -38 -98 0 c-80 0
-98 -3 -98 -15 0 -12 19 -15 115 -15 63 0 115 -3 115 -7 0 -4 -14 -22 -32 -40
-32 -33 -33 -33 -125 -33 -76 0 -93 -3 -93 -15 0 -13 21 -15 125 -15 69 0 125
-3 125 -7 0 -4 -14 -22 -32 -40 l-32 -33 -151 0 -151 0 27 153 c16 83 28 153
29 155 1 6 350 1 350 -5z m622 2 c2 -3 -4 -49 -13 -102 -10 -54 -18 -104 -19
-110 0 -10 30 -13 117 -13 l117 0 -39 -40 -39 -40 -137 0 -136 0 23 133 c34
192 27 177 78 177 23 0 45 -2 48 -5z m572 -6 c22 -6 52 -24 68 -39 24 -25 28
-36 28 -88 0 -75 -26 -118 -95 -152 -43 -22 -63 -25 -150 -25 -114 0 -166 18
-190 66 -30 56 -13 152 34 193 53 48 211 71 305 45z m556 3 c0 -4 -17 -24 -37
-44 l-38 -36 -103 -4 c-99 -3 -105 -4 -128 -31 -29 -34 -30 -61 -4 -87 16 -16
33 -20 95 -20 68 0 75 2 75 20 0 18 -7 20 -77 20 l-77 0 34 35 34 35 104 0
c86 0 103 -3 99 -14 -3 -8 -11 -51 -18 -96 l-13 -81 -145 3 c-163 3 -185 11
-217 77 -43 90 28 197 148 220 56 11 268 13 268 3z m377 2 c26 -7 36 -29 24
-53 -6 -10 -60 -52 -122 -94 l-113 -77 107 0 c59 0 107 -4 107 -8 0 -4 -15
-23 -33 -40 l-33 -33 -160 3 -159 3 0 29 c0 26 13 38 114 108 l114 78 -107 0
-107 0 38 45 37 45 136 0 c74 0 145 -3 157 -6z m-1784 -21 c-18 -2 -48 -2 -65
0 -18 2 -4 4 32 4 36 0 50 -2 33 -4z m17 -47 c0 -9 -91 -79 -95 -74 -3 3 16
21 41 42 47 36 54 40 54 32z m-144 -114 c-2 -4 -26 -23 -52 -41 -56 -41 -56
-25 1 18 39 29 61 39 51 23z m-146 -105 c0 -7 -91 -69 -96 -65 -2 3 15 19 39
36 38 28 57 38 57 29z m-150 -112 c-7 -9 -32 -30 -54 -47 l-41 -30 47 46 c45
44 75 63 48 31z m1630 -15 c0 -6 -27 -9 -62 -9 -58 2 -60 2 -23 9 61 11 85 11
85 0z m157 3 c-20 -2 -52 -2 -70 0 -17 2 0 4 38 4 39 0 53 -2 32 -4z m126 0
c-7 -2 -21 -2 -30 0 -10 3 -4 5 12 5 17 0 24 -2 18 -5z m-464 -17 c-9 -8 -119
-12 -119 -5 0 4 26 9 58 11 56 3 69 2 61 -6z m-199 -16 c-14 -4 -43 -8 -65 -8
-38 0 -39 1 -10 8 17 4 46 8 65 8 32 0 33 -1 10 -8z m-161 -14 c-10 -8 -119
-14 -119 -6 0 5 26 10 58 12 56 3 70 2 61 -6z m-189 -16 c-8 -5 -40 -9 -70 -8
l-55 1 45 7 c73 11 98 11 80 0z m-190 -20 c-14 -4 -45 -8 -70 -8 l-45 1 40 7
c22 4 54 7 70 8 29 0 29 0 5 -8z m-185 -20 c-16 -4 -48 -8 -70 -8 -38 0 -38 1
-10 8 17 4 48 8 70 8 38 0 38 -1 10 -8z m-569 -20 c26 0 44 -5 44 -11 0 -15
-100 -3 -115 13 -7 8 -5 9 8 4 10 -3 39 -6 63 -6z m399 5 c-25 -8 -115 -11
-115 -4 0 5 28 9 63 8 34 0 58 -2 52 -4z m-170 -10 c-24 -8 -125 -11 -125 -3
0 4 30 8 68 7 37 0 63 -2 57 -4z m755 -77 c0 -10 5 -18 10 -18 6 0 10 9 10 20
0 11 5 20 10 20 6 0 10 -22 10 -50 0 -27 -4 -50 -10 -50 -5 0 -10 9 -10 20 0
11 -4 20 -10 20 -5 0 -10 -9 -10 -21 0 -36 -25 -15 -28 24 -4 50 -22 47 -22
-4 0 -52 -24 -48 -28 4 -2 20 -8 37 -13 37 -6 0 -7 5 -4 10 3 6 26 9 51 8 35
-1 44 -5 44 -20z m105 12 c3 -5 -3 -10 -14 -10 -12 0 -21 -4 -21 -10 0 -5 7
-10 15 -10 8 0 15 -4 15 -10 0 -5 -7 -10 -15 -10 -8 0 -15 -4 -15 -10 0 -5 9
-10 21 -10 11 0 17 -4 14 -10 -3 -5 -17 -10 -31 -10 -22 0 -24 4 -24 50 0 46
2 50 24 50 14 0 28 -4 31 -10z m85 0 c0 -5 -7 -10 -15 -10 -8 0 -15 -4 -15
-10 0 -5 7 -10 15 -10 8 0 15 -4 15 -10 0 -5 -7 -10 -15 -10 -8 0 -15 -9 -15
-20 0 -11 -4 -20 -10 -20 -5 0 -10 23 -10 50 0 47 2 50 25 50 14 0 25 -4 25
-10z m30 -31 c0 -24 4 -38 10 -34 6 3 10 21 10 39 l0 34 60 0 60 0 1 -42 2
-41 6 39 c9 57 33 61 29 6 -4 -53 -31 -76 -54 -46 -8 11 -14 30 -14 43 0 13
-4 23 -10 23 -5 0 -10 -18 -10 -40 0 -50 -18 -53 -22 -3 -4 49 -28 57 -28 10
0 -27 -5 -37 -20 -42 -11 -3 -24 -3 -30 0 -13 8 -13 95 0 95 6 0 10 -18 10
-41z m237 30 c8 -8 13 -8 17 0 9 14 56 15 56 1 0 -5 -7 -10 -15 -10 -21 0 -19
-20 3 -20 16 -1 16 -1 0 -14 -22 -16 -23 -26 -3 -26 8 0 15 -4 15 -10 0 -16
-80 -8 -90 9 -8 14 -9 14 -10 -1 0 -10 -4 -18 -10 -18 -5 0 -10 23 -10 50 0
41 3 50 18 50 10 0 23 -5 29 -11z m162 -3 c17 -20 10 -67 -11 -79 -23 -15 -48
8 -48 42 0 45 35 66 59 37z m71 4 c0 -5 -7 -10 -15 -10 -8 0 -15 -4 -15 -10 0
-5 7 -10 15 -10 8 0 15 -4 15 -10 0 -5 -7 -10 -15 -10 -8 0 -15 -9 -15 -20 0
-11 -4 -20 -10 -20 -5 0 -10 23 -10 50 0 47 2 50 25 50 14 0 25 -4 25 -10z
m60 -30 c0 -29 4 -40 15 -40 8 0 15 -4 15 -10 0 -5 -11 -10 -25 -10 -23 0 -25
3 -25 50 0 28 5 50 10 50 6 0 10 -18 10 -40z m88 28 c26 -26 8 -88 -25 -88
-23 0 -38 46 -25 75 13 27 31 32 50 13z m80 -36 c3 -46 -16 -65 -43 -42 -18
15 -20 76 -2 83 29 13 42 1 45 -41z m37 38 c5 -8 12 -7 22 1 11 10 19 10 34 1
11 -7 19 -8 19 -2 0 5 14 10 30 10 17 0 30 -4 30 -10 0 -5 -4 -10 -10 -10 -5
0 -10 -18 -10 -40 0 -22 -4 -40 -10 -40 -5 0 -10 17 -10 39 0 36 -2 38 -30 37
-36 -1 -36 -3 -7 -26 21 -18 21 -19 4 -37 -14 -14 -21 -15 -37 -6 -12 8 -21 9
-25 3 -14 -23 -25 -6 -25 40 0 47 11 63 25 40z m165 -40 c0 -27 -4 -50 -10
-50 -5 0 -10 23 -10 50 0 28 5 50 10 50 6 0 10 -22 10 -50z m68 38 c8 -8 15
-8 26 2 17 14 46 7 46 -11 0 -6 -7 -9 -15 -5 -8 3 -15 1 -15 -3 0 -5 7 -11 15
-15 20 -7 19 -45 0 -52 -8 -4 -22 -1 -29 5 -11 9 -19 9 -34 0 -27 -17 -52 3
-52 40 0 43 32 65 58 39z"/>
<path d="M1771 1821 c-52 -9 -71 -31 -71 -83 0 -49 18 -58 122 -58 106 0 128
13 128 74 0 24 -6 48 -12 54 -18 14 -115 22 -167 13z"/>
<path d="M2081 1244 c0 -11 3 -14 6 -6 3 7 2 16 -1 19 -3 4 -6 -2 -5 -13z"/>
<path d="M2210 1260 c0 -18 4 -29 10 -25 6 3 10 15 10 25 0 10 -4 22 -10 25
-6 4 -10 -7 -10 -25z"/>
<path d="M2430 1260 c0 -18 4 -29 10 -25 6 3 10 15 10 25 0 10 -4 22 -10 25
-6 4 -10 -7 -10 -25z"/>
<path d="M2507 1283 c-10 -9 -9 -41 1 -47 5 -3 9 8 9 24 0 33 -1 33 -10 23z"/>
<path d="M2580 1262 c0 -4 9 -13 20 -20 11 -7 20 -9 20 -4 0 4 -9 13 -20 20
-11 7 -20 9 -20 4z"/>
<path d="M2775 1278 c-4 -10 -4 -26 0 -35 5 -12 9 -14 12 -5 6 15 45 16 61 0
7 -7 12 -8 12 -4 0 13 -33 35 -52 36 -9 0 -18 6 -21 13 -3 8 -7 6 -12 -5z"/>
</g>
</svg>
