<svg xmlns="http://www.w3.org/2000/svg" width="22" height="22">
    <path fill="#778997" fill-rule="evenodd" d="M20.865 13.309l-1.544.258a8.657 8.657 0 0 1-.621 1.498l.91 1.278a1.359 1.359 0 0 1-.147 1.75l-1.369 1.37c-.258.258-.598.4-.961.4-.285 0-.56-.087-.79-.253l-1.273-.91c-.478.253-.979.46-1.498.621l-.262 1.544A1.359 1.359 0 0 1 11.968 22h-1.94a1.358 1.358 0 0 1-1.342-1.135l-.257-1.544a8.713 8.713 0 0 1-1.452-.598l-1.292.919a1.345 1.345 0 0 1-1.746-.147l-1.37-1.369a1.355 1.355 0 0 1-.147-1.751l.905-1.26a8.495 8.495 0 0 1-.629-1.493l-1.563-.266A1.359 1.359 0 0 1 0 12.013v-1.934c0-.667.478-1.232 1.135-1.342l1.526-.258a8.58 8.58 0 0 1 .611-1.503l-.919-1.291A1.36 1.36 0 0 1 2.5 3.934l1.374-1.37c.253-.257.598-.399.961-.399.285 0 .561.087.79.252l1.264.91a8.461 8.461 0 0 1 1.494-.629l.266-1.563A1.359 1.359 0 0 1 9.991 0h1.935c.667 0 1.232.478 1.342 1.135l.258 1.526a8.644 8.644 0 0 1 1.553.639l1.278-.91a1.35 1.35 0 0 1 1.746.147l1.37 1.369c.473.469.533 1.209.147 1.752l-.91 1.272c.252.478.459.979.62 1.499l1.544.262c.657.11 1.135.675 1.126 1.342v1.934c0 .667-.478 1.232-1.135 1.342zm-.092-3.276a.119.119 0 0 0-.101-.12l-1.93-.326a.611.611 0 0 1-.497-.455 7.345 7.345 0 0 0-.799-1.926.621.621 0 0 1 .027-.675l1.136-1.595a.125.125 0 0 0-.014-.156l-1.37-1.37a.124.124 0 0 0-.087-.037.135.135 0 0 0-.069.023l-1.586 1.14a.622.622 0 0 1-.675.028 7.412 7.412 0 0 0-1.972-.809.621.621 0 0 1-.459-.501l-.322-1.917a.12.12 0 0 0-.12-.101h-1.934a.12.12 0 0 0-.12.101L9.55 3.281a.63.63 0 0 1-.455.497 7.265 7.265 0 0 0-1.921.809.628.628 0 0 1-.68-.028L4.908 3.428a.116.116 0 0 0-.069-.022.115.115 0 0 0-.087.036l-1.369 1.37a.124.124 0 0 0-.014.156l1.144 1.609a.613.613 0 0 1 .032.671 7.323 7.323 0 0 0-.786 1.93.619.619 0 0 1-.501.459l-1.916.322a.119.119 0 0 0-.101.12v1.934c0 .06.041.111.101.12l1.944.331c.239.041.432.22.496.455.175.675.451 1.323.809 1.921a.63.63 0 0 1-.027.68l-1.131 1.585a.126.126 0 0 0 .014.157l1.369 1.369a.126.126 0 0 0 .088.037.135.135 0 0 0 .069-.023l1.608-1.144a.626.626 0 0 1 .671-.032c.593.34 1.227.602 1.884.772a.614.614 0 0 1 .455.496l.322 1.93c.009.06.06.101.12.101h1.935c.059 0 .11-.041.119-.101l.326-1.93a.609.609 0 0 1 .455-.496 7.382 7.382 0 0 0 1.926-.8.62.62 0 0 1 .676.028l1.594 1.135a.12.12 0 0 0 .157-.014l1.369-1.37a.124.124 0 0 0 .014-.156l-1.135-1.599a.621.621 0 0 1-.028-.676c.359-.602.625-1.25.8-1.926a.617.617 0 0 1 .496-.454l1.93-.322a.12.12 0 0 0 .102-.12h.004v-1.934zm-9.771 5.712a4.75 4.75 0 0 1-4.747-4.747 4.75 4.75 0 0 1 4.747-4.748 4.75 4.75 0 0 1 4.748 4.748 4.75 4.75 0 0 1-4.748 4.747zm0-8.254a3.51 3.51 0 0 0-3.506 3.507 3.508 3.508 0 0 0 3.506 3.506 3.509 3.509 0 0 0 3.507-3.506 3.51 3.51 0 0 0-3.507-3.507z"/>
</svg>
