<svg xmlns="http://www.w3.org/2000/svg" width="27" height="25">
    <path fill="#778997" fill-rule="evenodd" d="M22.307 3.656C17.344-1.22 9.271-1.22 4.309 3.655a12.363 12.363 0 0 0 .001 17.683c4.961 4.875 13.034 4.875 17.997 0a12.364 12.364 0 0 0 0-17.682zm-1.389 16.318c-4.196 4.123-11.024 4.123-15.221.001a10.456 10.456 0 0 1 0-14.956c4.197-4.123 11.025-4.123 15.222 0a10.456 10.456 0 0 1-.001 14.955zM8.561 9.113c0-.807.666-1.462 1.487-1.462.821 0 1.487.654 1.487 1.462 0 .807-.666 1.461-1.487 1.461-.821 0-1.487-.654-1.487-1.461zm6.744 0c0-.807.667-1.462 1.488-1.462s1.488.654 1.488 1.462c0 .807-.666 1.461-1.488 1.461-.821 0-1.488-.654-1.488-1.461zm3.517 5.985c-.922 2.095-3.081 3.448-5.5 3.448-2.471 0-4.642-1.36-5.532-3.465a.701.701 0 0 1 .388-.924.729.729 0 0 1 .941.382c.666 1.575 2.316 2.593 4.203 2.593 1.845 0 3.485-1.019 4.179-2.595a.723.723 0 0 1 .946-.368.702.702 0 0 1 .375.929z"/>
</svg>
