<svg width="533" height="300" viewBox="0 0 533 300" fill="none" xmlns="http://www.w3.org/2000/svg">
<path d="M533 0H0V300H533V0Z" fill="#F4F4F4"/>
<path d="M293.1 287.9C292.2 287.3 291.9 286 292.6 285.1L337.9 217.9L341.2 220.1L295.9 287.3C295.3 288.3 294 288.6 293.1 287.9Z" fill="#C5C5C5"/>
<path d="M497.3 287.4L453.1 221.9C452.5 221 452.7 219.7 453.6 219.1C454.5 218.5 455.8 218.7 456.4 219.6L500.6 285.1C501.2 286 501 287.3 500.1 287.9C499.1 288.6 497.9 288.3 497.3 287.4Z" fill="#C5C5C5"/>
<path d="M369 181.2H375.7V280H339.3V206L365 192.9V185.2C365 183 366.8 181.2 369 181.2ZM428.2 192.9V185.2C428.2 183 426.4 181.2 424.2 181.2H417.5V280H453.9V206L428.2 192.9Z" fill="#E8E8E8"/>
<path d="M455.9 282H415.5V179.2H424.2C427.5 179.2 430.2 181.9 430.2 185.2V191.6L455.9 204.7V282ZM419.6 278H452V207.2L426.3 194.1V185.2C426.3 184.1 425.4 183.2 424.3 183.2H419.6V278ZM377.6 282H337.2V204.7L362.9 191.6V185.2C362.9 181.9 365.6 179.2 368.9 179.2H377.6V282ZM341.3 278H373.7V183.2H369C367.9 183.2 367 184.1 367 185.2V194.1L341.3 207.2V278Z" fill="#C5C5C5"/>
<path d="M308.4 259.9C308.3 259.9 308.2 259.9 308.1 259.9C307 259.7 306.3 258.7 306.4 257.6L311.1 226.6C312.4 218.3 318.1 211.6 326 209L334.1 206.4L362.9 191.8V185.4C362.9 182.1 365.6 179.4 368.9 179.4H378.1L378.7 180.1C384 186.4 390.4 189.9 396.5 189.9C402.6 189.9 409 186.4 414.3 180.1L414.9 179.4H424.1C427.4 179.4 430.1 182.1 430.1 185.4V191.8L458.9 206.4L467 209C475 211.6 480.7 218.3 481.9 226.6L486.6 257.6C486.8 258.7 486 259.7 484.9 259.9C483.8 260.1 482.8 259.3 482.6 258.2L477.9 227.2C476.9 220.4 472.2 214.9 465.7 212.8L457.1 210L426 194.2V185.3C426 184.2 425.1 183.3 424 183.3H416.6C410.6 190.1 403.4 193.8 396.3 193.8C389.2 193.8 382 190.1 376 183.3H369C367.9 183.3 367 184.2 367 185.3V194.2L335.6 210.1L327.3 212.8C320.8 214.9 316.1 220.4 315.1 227.2L310.4 258.2C310.2 259.2 309.3 259.9 308.4 259.9Z" fill="#C5C5C5"/>
<path d="M363 191.7V185.3C363 182 365.7 179.3 369 179.3H378.2L378.8 180C384.1 186.3 390.5 189.8 396.6 189.8C402.7 189.8 409.1 186.3 414.4 180L415 179.3H424.2C427.5 179.3 430.2 182 430.2 185.3V191.7L440.1 196.7L438.6 173.3C437.9 162.7 428.1 154.4 416.1 154.4H377.1C365.1 154.4 355.2 162.7 354.6 173.3L353.1 196.7L363 191.7Z" fill="#E8E8E8"/>
<path d="M396.3 134.3C409.1 134.3 420.5 139.7 427 147.8V112.3C427 102 419.2 93.4 409 92.4C405.4 92 403.4 91.8 396.7 91.8C390 91.8 388 92.1 384.4 92.4C374.2 93.4 366.4 102 366.4 112.3V147C372.9 139.3 383.9 134.3 396.3 134.3Z" fill="#DCDCDC"/>
<path d="M429 153.4L425.4 149C419 141 408.1 136.3 396.3 136.3C385 136.3 374.3 140.8 367.8 148.3L364.3 152.3V112.2C364.3 100.8 372.8 91.4001 384.1 90.3001L385 90.2001C388.1 89.9001 390.4 89.6001 396.6 89.6001C402.8 89.6001 405.1 89.8001 408.2 90.2001L409.1 90.3001C420.4 91.4001 428.9 100.9 428.9 112.2V153.4H429ZM396.3 132.3C407.4 132.3 417.7 136.1 425 142.8V112.3C425 103 418 95.3001 408.8 94.4001L407.9 94.3001C404.9 94.0001 402.7 93.8001 396.7 93.8001C390.7 93.8001 388.5 94.0001 385.5 94.3001L384.6 94.4001C375.3 95.3001 368.4 103.1 368.4 112.3V142.2C375.5 135.9 385.6 132.3 396.3 132.3Z" fill="#C5C5C5"/>
<path d="M426.1 129.4C417.3 125.5 407 123.5 396.3 123.5C385.8 123.5 375.7 125.5 367 129.2L365.4 125.5C374.6 121.5 385.3 119.5 396.3 119.5C407.5 119.5 418.4 121.7 427.7 125.8L426.1 129.4Z" fill="#C5C5C5"/>
<path d="M425.4 149C419 141 408.1 136.3 396.3 136.3C385 136.3 374.3 140.8 367.8 148.3L364.8 145.7C372 137.4 383.8 132.4 396.3 132.4C409.3 132.4 421.4 137.7 428.5 146.6L425.4 149Z" fill="#C5C5C5"/>
<path d="M396.3 134.3C383.9 134.3 372.9 139.3 366.3 146.9V154.4C366.3 160.1 371.1 166.9 378.5 171.4C379.5 172 380.8 171.6 381.4 170.6C381.4 170.6 382 169.6 382.1 169.2C382.7 166.5 384.3 164.2 387.1 164.2H405.8C408.6 164.2 410.2 166.5 410.8 169.2C410.9 169.6 411.6 170.8 411.6 170.8C412.1 171.9 413.4 172.3 414.4 171.7C422 167.1 427 160.2 427 154.4V147.8C420.4 139.6 409.1 134.3 396.3 134.3Z" fill="#F4F4F4"/>
<path d="M413.3 174C412.9 174 412.5 173.9 412.1 173.8C411 173.5 410.2 172.7 409.7 171.8C409.2 170.9 408.8 170.1 408.7 169.7C408.5 168.7 407.7 166.3 405.7 166.3H387C385 166.3 384.2 168.7 384 169.7C383.9 170.1 383.6 170.8 383.2 171.6C382.7 172.6 381.8 173.3 380.7 173.6C379.6 173.9 378.4 173.8 377.5 173.2C369.5 168.3 364.4 160.9 364.4 154.5V146.3L364.9 145.7C372.1 137.4 383.9 132.4 396.4 132.4C409.4 132.4 421.5 137.7 428.6 146.6L429 147.1V154.4C429 161 423.7 168.5 415.4 173.4C414.7 173.8 414 174 413.3 174ZM387 162.2H405.7C409.1 162.2 411.7 164.7 412.7 168.8C412.7 168.9 413 169.5 413.3 169.9L413.4 170C420.4 165.8 425.1 159.6 425.1 154.4V148.5C418.6 140.8 408 136.3 396.4 136.3C385.3 136.3 374.9 140.6 368.4 147.7V154.4C368.4 159.4 372.9 165.6 379.6 169.7L379.7 169.6C379.9 169.3 380.1 168.9 380.2 168.7C381 164.7 383.6 162.2 387 162.2Z" fill="#C5C5C5"/>
<path d="M414.3 171.7C413.3 172.3 412 171.9 411.5 170.8C411.5 170.8 410.8 169.6 410.7 169.2C410.1 166.5 408.5 164.2 405.7 164.2H387C384.2 164.2 382.6 166.5 382 169.2C381.9 169.6 381.3 170.6 381.3 170.6C380.8 171.7 379.5 172.1 378.4 171.4C371.9 167.4 367.5 161.7 366.4 156.5C368.2 172.6 381 191.7 396.5 191.7C412 191.7 424.8 172.6 426.6 156.4C425.7 161.8 421 167.7 414.3 171.7Z" fill="#DCDCDC"/>
<path d="M396.6 193.8C388.8 193.8 381.1 189.4 374.8 181.5C369.3 174.5 365.4 165.3 364.5 156.8L368.5 156.2C369.4 160.9 373.7 166.1 379.6 169.7L379.7 169.6C379.9 169.3 380.1 168.9 380.2 168.7C381.1 164.7 383.8 162.2 387.1 162.2H405.8C409.2 162.2 411.8 164.7 412.8 168.8C412.8 168.9 413.1 169.4 413.4 169.9L414.5 171.8L413.5 170.1C419.6 166.4 424 161.1 425 156.3L429 156.9C426.8 174.3 413.1 193.8 396.6 193.8ZM372 169C377 180.3 386.4 189.8 396.6 189.8C406.9 189.8 416.3 180.3 421.2 169C419.5 170.6 417.5 172.1 415.3 173.4C414.3 174 413.2 174.1 412.1 173.8C411 173.5 410.2 172.7 409.7 171.8C409.2 170.9 408.8 170.1 408.7 169.7C408.5 168.7 407.7 166.3 405.6 166.3H387C385 166.3 384.2 168.7 384 169.7C383.9 170.1 383.6 170.8 383.2 171.6C382.7 172.6 381.8 173.3 380.7 173.6C379.6 173.9 378.4 173.8 377.5 173.2C375.4 171.9 373.6 170.5 372 169Z" fill="#C5C5C5"/>
<path d="M399.8 177.2H392.9C391.8 177.2 390.9 176.3 390.9 175.2C390.9 174.1 391.8 173.2 392.9 173.2H399.8C400.9 173.2 401.8 174.1 401.8 175.2C401.8 176.3 400.9 177.2 399.8 177.2Z" fill="#C5C5C5"/>
<path d="M342.1 300C341.6 299.1 341.2 298.2 340.8 297.2C339 293.2 340.8 288.4 344.9 286.6C348.9 284.8 353.7 286.6 355.5 290.7C357 294 358.8 297.1 361 299.9H432.2C434.7 296.7 436.8 293.1 438.3 289.2C440 285.1 444.6 283.1 448.7 284.8C452.8 286.5 454.8 291.1 453.1 295.2C452.5 296.8 451.7 298.4 450.9 299.9H461.2C464.8 291.5 466.8 282.2 466.8 272.4C466.8 233.6 435.3 202.1 396.5 202.1C357.7 202.1 326.2 233.6 326.2 272.4C326.2 282.1 328.2 291.4 331.8 299.9H342.1V300ZM396.6 290.6C390.1 290.6 384.9 285.3 384.9 278.9C384.9 272.5 390.2 267.2 396.6 267.2C403 267.2 408.3 272.5 408.3 278.9C408.3 285.3 403.1 290.6 396.6 290.6ZM341.4 263.7C345.7 237 368.8 216.6 396.7 216.6C424.7 216.6 447.9 237.2 452 264.1C452.4 267 449.7 269.4 446.9 268.5C431.4 263.7 407.1 255 396.5 255C386 255 362 263.2 346.7 268.1C343.7 269 340.9 266.6 341.4 263.7Z" fill="#DCDCDC"/>
<path d="M156.2 247.3H154.8V225.6C164 222.7 170.3 214.8 169.8 205.6L167.8 173.2C167.1 162.6 157.3 154.3 145.3 154.3H106.3C94.2999 154.3 84.3999 162.6 83.7999 173.2L81.7999 205.6C81.1999 214.7 87.5999 222.7 96.7999 225.6V247.3H95.3999C66.1999 247.3 38.5999 270.9 38.3999 300H213.4C212.9 270.9 185.3 247.3 156.2 247.3ZM100.6 247.3V226.5C101.8 226.7 102.9 226.7 104.1 226.7H147.1C148.3 226.7 149.5 226.6 150.6 226.5V247.3H100.6Z" fill="#E8E8E8"/>
<path d="M342.6 296.4C341.3 293.4 342.6 289.8 345.7 288.5C346.5 288.2 347.3 288 348.1 288C348.8 288 349.6 288.1 350.3 288.4C351.8 289 353 290.1 353.6 291.6C354.9 294.6 356.6 297.4 358.5 300H363.6C361.1 297 358.9 293.6 357.3 289.9C356.2 287.5 354.2 285.6 351.8 284.6C349.3 283.6 346.6 283.7 344.2 284.8C341.8 285.9 339.9 287.9 338.9 290.3C337.9 292.7 338 295.5 339.1 298C339.4 298.7 339.7 299.3 340 300H344.5C343.8 298.8 343.2 297.6 342.6 296.4Z" fill="#C5C5C5"/>
<path d="M334.1 300C330.4 291.6 328.3 282.3 328.3 272.5C328.3 234.8 358.9 204.2 396.6 204.2C434.3 204.2 464.9 234.8 464.9 272.5C464.9 282.3 462.8 291.6 459.1 300H463.5C467 291.5 468.9 282.3 468.9 272.5C468.9 232.6 436.5 200.2 396.6 200.2C356.7 200.2 324.3 232.6 324.3 272.5C324.3 282.2 326.2 291.5 329.7 300H334.1Z" fill="#C5C5C5"/>
<path d="M434.5 228.7C424 219.6 410.5 214.6 396.6 214.6C367.9 214.6 343.9 235.1 339.4 263.4C339.1 265.5 339.8 267.5 341.4 268.9C343 270.3 345.1 270.7 347.1 270.1C348.8 269.6 350.6 269 352.4 268.4C367.1 263.6 387.2 257.1 396.3 257.1C404.5 257.1 421.9 262.7 435.9 267.2C439.6 268.4 443 269.5 446.1 270.5C446.7 270.7 447.3 270.8 447.9 270.8C449.3 270.8 450.7 270.3 451.8 269.3C453.4 267.9 454.1 265.9 453.8 263.8C451.8 250.2 445 237.7 434.5 228.7ZM449.3 266.2C448.8 266.7 448.1 266.8 447.4 266.6C444.3 265.6 440.9 264.5 437.2 263.4C422.2 258.6 405.2 253.1 396.3 253.1C386.6 253.1 367 259.5 351.2 264.6C349.4 265.2 347.6 265.8 345.9 266.3C344.9 266.6 344.2 266.1 344 265.9C343.7 265.7 343.2 265.1 343.3 264.1C347.5 237.8 369.9 218.7 396.6 218.7C423 218.7 446 238.4 449.9 264.5C450.1 265 449.8 265.7 449.3 266.2Z" fill="#C5C5C5"/>
<path d="M449.5 283.1C444.4 281 438.5 283.5 436.5 288.6C434.8 292.8 432.5 296.6 429.6 300H434.7C436.9 296.9 438.8 293.6 440.2 290.1C441.1 287.8 443.4 286.3 445.8 286.3C446.5 286.3 447.3 286.4 448 286.7C451.1 287.9 452.6 291.4 451.3 294.5C450.5 296.4 449.7 298.2 448.8 299.9H453.3C453.9 298.6 454.5 297.3 455.1 296C457.1 291 454.6 285.1 449.5 283.1Z" fill="#C5C5C5"/>
<path d="M410.4 278.9C410.4 271.3 404.2 265.2 396.7 265.2C389.2 265.2 383 271.4 383 278.9C383 286.4 389.2 292.6 396.7 292.6C404.2 292.6 410.4 286.4 410.4 278.9ZM386.9 278.9C386.9 273.5 391.3 269.2 396.6 269.2C401.9 269.2 406.3 273.6 406.3 278.9C406.3 284.2 401.9 288.6 396.6 288.6C391.3 288.6 386.9 284.2 386.9 278.9Z" fill="#C5C5C5"/>
<path d="M358.5 211.2C352.2 206.9 343.6 208.6 339.3 214.9L328.1 231.5C323.8 237.8 325.5 246.4 331.8 250.7L345.7 260.1C346.9 260.9 348.3 261.4 349.8 261.4C353.8 261.4 357.1 258.1 357.1 254.1C357.1 253.5 357 252.8 356.9 252.2C360.5 251.7 363.3 248.7 363.3 245C363.3 244.4 363.2 243.7 363.1 243.1C366.7 242.6 369.5 239.6 369.5 235.9C369.5 235.3 369.4 234.6 369.3 234C372.9 233.5 375.7 230.5 375.7 226.8C375.7 224.3 374.4 222 372.5 220.7L358.5 211.2Z" fill="#E8E8E8"/>
<path d="M350 263.3C348.1 263.3 346.3 262.7 344.7 261.7L330.8 252.3C327.3 249.9 324.9 246.4 324.1 242.2C323.3 238.1 324.2 233.8 326.5 230.4L337.7 213.8C342.6 206.6 352.4 204.7 359.6 209.5L373.5 218.9C376.1 220.6 377.6 223.5 377.6 226.6C377.6 230.6 375.1 234 371.5 235.3C371.5 235.4 371.5 235.5 371.5 235.7C371.5 239.7 369 243.1 365.3 244.4C365.3 244.5 365.3 244.6 365.3 244.8C365.3 248.8 362.8 252.2 359.2 253.5C359.2 253.6 359.2 253.7 359.2 253.9C359.3 259.1 355.1 263.3 350 263.3ZM350.8 210.9C347 210.9 343.3 212.7 341 216.1L329.8 232.7C328 235.3 327.4 238.5 328 241.5C328.6 244.5 330.4 247.3 333 249L346.9 258.4C347.8 259 348.8 259.3 349.9 259.3C352.8 259.3 355.2 256.9 355.2 254C355.2 253.6 355.1 253.1 355 252.6L354.4 250.4L356.7 250.1C359.3 249.8 361.3 247.5 361.3 244.9C361.3 244.5 361.2 244 361.1 243.5L360.5 241.3L362.8 241C365.4 240.7 367.4 238.4 367.4 235.8C367.4 235.4 367.3 234.9 367.2 234.4L366.6 232.2L368.9 231.9C371.5 231.6 373.5 229.3 373.5 226.7C373.5 224.9 372.6 223.3 371.2 222.3L357.3 212.9C355.4 211.5 353.1 210.9 350.8 210.9Z" fill="#C5C5C5"/>
<path d="M434.7 211.2C441 206.9 449.6 208.6 453.9 214.9L465.1 231.5C469.4 237.8 467.7 246.4 461.4 250.7L447.5 260.1C446.3 260.9 444.9 261.4 443.4 261.4C439.4 261.4 436.1 258.1 436.1 254.1C436.1 253.5 436.2 252.8 436.3 252.2C432.7 251.7 429.9 248.7 429.9 245C429.9 244.4 430 243.7 430.1 243.1C426.5 242.6 423.7 239.6 423.7 235.9C423.7 235.3 423.8 234.6 423.9 234C420.3 233.5 417.5 230.5 417.5 226.8C417.5 224.3 418.8 222 420.7 220.7L434.7 211.2Z" fill="#E8E8E8"/>
<path d="M443.3 263.3C438.2 263.3 434 259.1 434 254C434 253.9 434 253.8 434 253.6C430.4 252.3 427.9 248.8 427.9 244.9C427.9 244.8 427.9 244.7 427.9 244.5C424.3 243.2 421.8 239.7 421.7 235.8C421.7 235.7 421.7 235.6 421.7 235.4C418.1 234.1 415.6 230.6 415.6 226.7C415.6 223.6 417.1 220.7 419.7 219L433.6 209.6C440.8 204.7 450.7 206.6 455.5 213.9L466.7 230.5C469.1 234 469.9 238.2 469.1 242.3C468.3 246.4 465.9 250 462.4 252.4L448.5 261.8C447 262.7 445.2 263.3 443.3 263.3ZM435.8 212.9L421.9 222.3C420.4 223.3 419.6 224.9 419.6 226.7C419.6 229.4 421.6 231.6 424.2 231.9L426.5 232.2L425.9 234.4C425.8 234.9 425.7 235.3 425.7 235.8C425.7 238.5 427.7 240.7 430.3 241L432.6 241.3L432 243.5C431.9 244 431.8 244.4 431.8 244.9C431.8 247.6 433.8 249.8 436.4 250.1L438.7 250.4L438.1 252.6C438 253.1 437.9 253.5 437.9 254C437.9 256.9 440.3 259.3 443.2 259.3C444.3 259.3 445.3 259 446.2 258.4L460.1 249C462.7 247.2 464.5 244.6 465.1 241.5C465.7 238.4 465.1 235.3 463.3 232.7L452.1 216.1C448.5 210.7 441.2 209.2 435.8 212.9Z" fill="#C5C5C5"/>
</svg>
