<svg width="533" height="300" viewBox="0 0 533 300" fill="none" xmlns="http://www.w3.org/2000/svg">
<path d="M533 0H0V300H533V0Z" fill="#F4F4F4"/>
<path d="M533 179.2H0V300H533V179.2Z" fill="#E8E8E8"/>
<path d="M293.2 179.2H238.8C236.5 180.1 2.5 282 0 283V300H533V283.3C529.5 281.9 295.5 180.1 293.2 179.2Z" fill="#DCDCDC"/>
<path d="M243.8 179.2L0 299.1V292.8L242.1 179.2H243.8ZM533 292.7L290.2 179.2H288.5L533 299.1V292.7ZM268.9 300C268.9 300 268.8 295.4 268.8 293.2H256.2C256 295.4 255.7 300 255.7 300H268.9ZM265.3 179.8C265.3 179.9 265.3 180.1 265.3 180.2C265.7 180.2 266.1 180.2 266.5 180.2C266.5 180.1 266.5 179.9 266.5 179.8C266.1 179.8 265.7 179.8 265.3 179.8ZM265.2 180.7C265.2 180.9 265.2 181 265.2 181.2C265.6 181.2 266.1 181.2 266.5 181.2C266.5 181 266.5 180.9 266.5 180.7C266 180.7 265.6 180.7 265.2 180.7ZM265.1 181.7C265.1 181.9 265.1 182.1 265.1 182.3C265.6 182.3 266 182.3 266.5 182.3C266.5 182.1 266.5 181.9 266.5 181.7C266 181.7 265.6 181.7 265.1 181.7ZM265 182.9C265 183.1 265 183.3 264.9 183.6C265.4 183.6 265.9 183.6 266.5 183.6C266.5 183.4 266.5 183.1 266.5 182.9C266 182.9 265.5 182.9 265 182.9ZM264.9 184.3C264.9 184.6 264.9 184.8 264.8 185.1C265.4 185.1 265.9 185.1 266.5 185.1C266.5 184.8 266.5 184.5 266.5 184.3C266 184.3 265.5 184.3 264.9 184.3ZM264.8 186C264.8 186.3 264.7 186.7 264.7 187C265.3 187 266 187 266.6 187C266.6 186.6 266.6 186.3 266.6 186C266 186 265.4 186 264.8 186ZM264.6 188.2C264.6 188.6 264.5 189 264.5 189.5C265.2 189.5 265.9 189.5 266.6 189.5C266.6 189.1 266.6 188.6 266.6 188.2C266 188.2 265.3 188.2 264.6 188.2ZM264.4 190.9C264.4 191.4 264.3 192 264.3 192.6C265.1 192.6 265.9 192.6 266.8 192.6C266.8 192 266.8 191.5 266.8 190.9C265.9 190.9 265.2 190.9 264.4 190.9ZM264.1 194.5C264 195.2 264 196 263.9 196.8C264.9 196.8 265.8 196.8 266.8 196.8C266.8 196 266.8 195.3 266.8 194.5C265.9 194.5 265 194.5 264.1 194.5ZM263.7 199.5C263.6 200.5 263.5 201.6 263.4 202.7C264.6 202.7 265.7 202.7 266.9 202.7C266.9 201.5 266.9 200.5 266.8 199.5C265.8 199.5 264.8 199.5 263.7 199.5ZM263.1 206.7C263 208.2 262.8 209.9 262.7 211.7C264.2 211.7 265.6 211.7 267.1 211.7C267.1 209.9 267 208.2 267 206.7C265.7 206.7 264.4 206.7 263.1 206.7ZM262.2 218.3C262 220.9 261.8 223.9 261.5 227.1C263.5 227.1 265.5 227.1 267.4 227.1C267.3 223.8 267.3 220.9 267.2 218.3C265.6 218.3 263.9 218.3 262.2 218.3ZM260.5 239.7C260.3 242.3 260.1 245.2 259.8 248.3C259.5 251.6 259.2 255.3 258.9 259.2C261.9 259.2 265 259.2 268 259.2C267.9 255.3 267.8 251.6 267.8 248.3C267.7 245.2 267.7 242.4 267.6 239.7C265.3 239.7 262.9 239.7 260.5 239.7ZM265.3 179.2C265.3 179.3 265.3 179.3 265.3 179.4C265.7 179.4 266.1 179.4 266.4 179.4C266.4 179.3 266.4 179.3 266.4 179.2C266.1 179.2 265.7 179.2 265.3 179.2Z" fill="white"/>
</svg>
