<svg width="24" height="24" viewBox="0 0 24 24" fill="none" xmlns="http://www.w3.org/2000/svg">
<path fill-rule="evenodd" clip-rule="evenodd" d="M9.5 6C9.5 4.59766 10.5977 3.5 12 3.5C13.4023 3.5 14.5 4.59766 14.5 6C14.5 7.40234 13.4023 8.5 12 8.5C10.5977 8.5 9.5 7.40234 9.5 6ZM8 6C8 3.76923 9.76923 2 12 2C14.2308 2 16 3.76923 16 6C16 8.23077 14.2308 10 12 10C9.76923 10 8 8.23077 8 6ZM12 13.5C16.3561 13.5 19.9962 16.2768 20.4912 20.5H17.9795C17.7254 17.4202 15.1453 15 12 15C8.85467 15 6.27461 17.4202 6.02054 20.5H3.50883C4.00376 16.2768 7.6439 13.5 12 13.5ZM12 16C14.5927 16 16.7245 17.9733 16.9753 20.5H15.9691C15.8211 19.3138 15.1539 18.289 14.202 17.6601L13.2297 19.4226C13.5722 19.69 13.8254 20.0666 13.937 20.5H10.063C10.1803 20.0444 10.4541 19.6516 10.8237 19.3823L9.85363 17.624C8.87216 18.2493 8.18172 19.2909 8.03095 20.5H7.02469C7.27555 17.9733 9.40733 16 12 16ZM22 20.5C21.4983 15.4467 17.1853 12 12 12C6.81465 12 2.50172 15.4467 2 20.5V21C2 21.5523 2.44772 22 3 22L21 22C21.5523 22 22 21.5523 22 21V20.5ZM11.7625 19.014L10.7596 17.196C11.1501 17.0688 11.567 17 12 17C12.4566 17 12.8954 17.0765 13.3042 17.2174L12.3077 19.0235C12.2074 19.008 12.1046 19 12 19C11.9197 19 11.8404 19.0047 11.7625 19.014Z" fill="#2F3F50"/>
</svg>
