<svg width="20" height="14" viewBox="0 0 20 14" fill="none" xmlns="http://www.w3.org/2000/svg">
<path fill-rule="evenodd" clip-rule="evenodd" d="M17.0314 3.67992C18.0963 4.57496 19.0613 5.58245 19.9097 6.68484C19.9684 6.76513 20 6.86199 20 6.96143C20 7.06086 19.9684 7.15772 19.9097 7.23801C19.0613 8.34041 18.0963 9.34789 17.0314 10.2429C14.6992 12.2376 12.2544 13.29 9.99957 13.29C7.74471 13.29 5.31171 12.2329 2.96778 10.2429C1.90284 9.34708 0.937794 8.33881 0.089433 7.23567C0.0313049 7.1556 0 7.0592 0 6.96025C0 6.86131 0.0313049 6.76491 0.089433 6.68484C0.937925 5.58252 1.90297 4.57504 2.96778 3.67992C5.29999 1.68055 7.74471 0.632812 9.99957 0.632812C12.2544 0.632812 14.6874 1.68993 17.0314 3.67992ZM7.69641 3.51449C8.37815 3.05896 9.17966 2.81583 9.99959 2.81583V3.06583L9.99989 2.81583C11.0989 2.81715 12.1525 3.25431 12.9296 4.03142C13.7067 4.80853 14.1439 5.86214 14.1452 6.96114V6.96144C14.1452 7.78136 13.9021 8.58288 13.4465 9.26462C12.991 9.94636 12.3436 10.4777 11.586 10.7915C10.8285 11.1053 9.99499 11.1874 9.19082 11.0274C8.38665 10.8674 7.64797 10.4726 7.0682 9.89283C6.48842 9.31306 6.09359 8.57438 5.93363 7.77021C5.77367 6.96604 5.85577 6.13249 6.16954 5.37498C6.48331 4.61747 7.01467 3.97001 7.69641 3.51449ZM11.0359 4.45954C10.5411 4.25457 9.99658 4.20094 9.47128 4.30543C8.94597 4.40992 8.46344 4.66784 8.08471 5.04657C7.70599 5.42529 7.44807 5.90782 7.34358 6.43313C7.23909 6.95844 7.29272 7.50293 7.49768 7.99776C7.70265 8.49259 8.04975 8.91553 8.49508 9.21309C8.94036 9.51062 9.46386 9.66944 9.99939 9.66948C10.7175 9.66891 11.406 9.3834 11.9138 8.87563C12.4215 8.36786 12.7071 7.67934 12.7076 6.96124C12.7076 6.42571 12.5488 5.90221 12.2512 5.45693C11.9537 5.0116 11.5307 4.6645 11.0359 4.45954Z" fill="#A5A5A5"/>
</svg>
