<svg width="21" height="14" viewBox="0 0 21 14" fill="none" xmlns="http://www.w3.org/2000/svg">
<path fill-rule="evenodd" clip-rule="evenodd" d="M3.0648 3.11246C5.42952 1.08552 7.93498 0 10.2746 0C12.615 0 15.1086 1.09566 17.4837 3.11192C18.5636 4.01964 19.5441 5.04385 20.4045 6.1618L20.4068 6.16475C20.4999 6.29214 20.55 6.44584 20.55 6.60361C20.55 6.76221 20.4975 6.91823 20.4049 7.04493L20.4027 7.04795C19.5424 8.16573 18.5639 9.18728 17.4842 10.0949C15.1198 12.1168 12.6144 13.2072 10.2746 13.2072C7.93404 13.2072 5.44036 12.1115 3.0652 10.0951C1.9853 9.1866 1.00464 8.16137 0.144366 7.04273L0.14184 7.03945C0.0496132 6.91242 -9.53674e-06 6.75942 -9.53674e-06 6.60244C-9.53674e-06 6.44546 0.0496595 6.2925 0.141887 6.16547L0.144359 6.16206C1.00464 5.04443 1.98521 4.02012 3.0648 3.11246ZM4.51003 3.46192C6.09141 2.25484 8.10316 1.18757 10.2746 1.18757C12.446 1.18757 14.4571 2.25484 16.0382 3.46192C17.5507 4.61661 18.6722 5.90121 19.1674 6.50884L19.2447 6.60362L19.1674 6.69839C18.672 7.30602 17.5489 8.59062 16.0356 9.74531C14.4536 10.9524 12.4425 12.0197 10.2746 12.0197C8.10667 12.0197 6.09492 10.9524 4.51267 9.74531C2.99899 8.59055 1.87581 7.30587 1.38149 6.69827L1.30448 6.60362L1.38148 6.50896C1.87566 5.90136 2.99719 4.61668 4.51003 3.46192ZM8.17771 3.50333C8.79851 3.08853 9.52837 2.86713 10.275 2.86713C11.2757 2.86833 12.2355 3.2664 12.9431 3.97403C13.6507 4.68166 14.0488 5.64122 14.05 6.64195C14.05 7.38857 13.8286 8.11861 13.4138 8.7394C12.999 9.3602 12.4094 9.84405 11.7196 10.1298C11.0298 10.4155 10.2708 10.4902 9.53852 10.3446C8.80625 10.1989 8.13361 9.83939 7.60566 9.31145C7.07772 8.78351 6.71819 8.11087 6.57253 7.37859C6.42687 6.64631 6.50163 5.88729 6.78735 5.1975C7.07307 4.50771 7.55692 3.91813 8.17771 3.50333ZM11.1868 4.44085C10.7514 4.26052 10.2723 4.21333 9.81016 4.30527C9.34797 4.3972 8.92343 4.62413 8.59021 4.95734C8.25699 5.29056 8.03007 5.71511 7.93813 6.1773C7.8462 6.63948 7.89338 7.11855 8.07372 7.55392C8.25406 7.98929 8.55944 8.36141 8.95127 8.62322C9.34303 8.88499 9.80361 9.02472 10.2748 9.02477C10.9066 9.02427 11.5124 8.77305 11.9592 8.32629C12.4059 7.87953 12.6571 7.27373 12.6576 6.64191C12.6576 6.17074 12.5179 5.71017 12.2561 5.3184C11.9943 4.92658 11.6222 4.62119 11.1868 4.44085Z" fill="#A5A5A5"/>
</svg>
