<svg width="24" height="24" viewBox="0 0 24 24" fill="none" xmlns="http://www.w3.org/2000/svg">
<path fill-rule="evenodd" clip-rule="evenodd" d="M2 12C2 6.48 6.48 2 12 2C17.52 2 22 6.48 22 12C22 17.52 17.52 22 12 22C6.48 22 2 17.52 2 12ZM12 17C11.4477 17 11 16.5523 11 16V12C11 11.4477 11.4477 11 12 11C12.5523 11 13 11.4477 13 12V16C13 16.5523 12.5523 17 12 17ZM12 20.75C7.17656 20.75 3.25 16.8234 3.25 12C3.25 7.17656 7.17656 3.25 12 3.25C16.8234 3.25 20.75 7.17656 20.75 12C20.75 16.8234 16.8234 20.75 12 20.75ZM12 9C11.4477 9 11 8.55228 11 8C11 7.44772 11.4477 7 12 7C12.5523 7 13 7.44772 13 8C13 8.55228 12.5523 9 12 9Z" fill="#ffffff"/>
</svg>
