<svg width="533" height="176" viewBox="0 0 533 176" fill="none" xmlns="http://www.w3.org/2000/svg">
<g clip-path="url(#clip0_2054_65569)">
<path d="M528.586 -0.100098H4C1.79086 -0.100098 0 1.69076 0 3.8999V172.1C0 174.309 1.79087 176.1 4.00001 176.1H528.586C530.795 176.1 532.586 174.309 532.586 172.1V3.8999C532.586 1.69076 530.795 -0.100098 528.586 -0.100098Z" fill="#F4F4F4"/>
<path d="M531.344 -46.0001H526.273L532.586 -34.3001V-43.7001L531.344 -46.0001ZM523.375 -13.9001L532.586 -11.0001V-12.3001L523.375 -15.2001V-13.9001ZM481.873 -44.1001L498.433 -38.4001L487.255 -27.1001L476.388 -42.2001L475.043 -41.9001L486.427 -26.1001L483.943 -23.5001L448.031 -40.8001L447.513 -39.8001L483.012 -22.6001L478.872 -18.4001L362.026 -54.7001L360.991 -51.0001L416.258 -33.7001L413.049 -20.1001L395.145 -25.4001L392.764 -12.7001L348.572 -26.6001L348.158 -25.0001C347.951 -28.1001 347.537 -31.0001 346.916 -33.6001L382.311 -25.8001L382.518 -40.3001L380.966 -40.6001L380.862 -27.4001L346.709 -34.9001C344.949 -41.8001 342.569 -46.2001 342.362 -46.5001L338.222 -45.4001C338.326 -45.2001 344.742 -33.5001 343.397 -18.4001C341.431 3.0999 325.699 20.5999 295.686 32.6999C256.461 48.2999 217.236 65.4999 189.396 93.8999C173.251 110.4 161.66 129.6 154.311 153.1C147.17 175.9 144.065 202.6 145.1 235.2H152.034C150.793 208.3 152.552 185.2 157.313 165.1H174.286L187.43 235.2H189.81L176.459 165.1H215.063L207.611 235.2H209.888L217.133 165.1H235.555L235.452 235.2H240.005L239.798 189L290.614 127.5L295.582 139.3C279.644 151.6 269.605 173.2 270.743 199.1L272.296 235.2H279.954L278.402 199C277.988 190.4 278.919 182.4 280.886 175.1H311.106L336.67 235.1H339.154L313.383 175.1H348.572L346.709 175.8L371.444 235.2H373.825L348.572 175.2H373.1L396.386 209.9L401.458 235.2H406.012L401.458 213.3L479.183 217.4L484.564 235.1H492.223L482.805 204.9L490.257 206L509.507 221.2L532.276 222.9V220.2L509.507 218.6L494.707 206.7L532.586 212.5V210L521.098 208.2L520.684 165.1L532.586 165.8V163.5L518.304 162.7L518.614 207.9L505.677 205.9L500.192 171.6L483.529 147.2L517.476 140.7L532.483 144.4V142.3L522.133 139.7L532.483 137.7V135.3L507.54 140L481.356 106.1C487.566 105.2 493.982 104.7 500.71 104.5L532.483 135V132.7L502.986 104.5C512.508 104.3 522.444 104.8 532.483 105.8V101.9C530.206 101.7 527.929 101.5 525.652 101.3C522.03 101 518.511 100.8 515.095 100.7L514.371 83.8999H532.379V77.6999H507.333L499.985 49.6999L532.379 63.6999V59.1999L520.063 32.2999L532.379 36.1999V31.2999L513.957 25.4999L510.852 12.6999L526.894 16.7999L518.925 -1.6001L532.379 2.5999V-1.8001L523.996 -4.4001L521.202 -30.5001L532.483 -26.6001V-27.8001L481.977 -45.2001L481.873 -44.1001ZM478.251 -1.1001L491.602 3.0999L495.949 19.6999L457.552 7.5999L459.105 1.3999L478.044 6.2999L478.251 -1.1001ZM428.263 21.4999L422.985 28.2999C416.982 35.9999 406.943 40.3999 395.041 40.3999H378.689L378.171 15.3999L403.01 19.9999L400.009 5.4999L428.263 21.4999ZM399.595 3.5999L397.421 -6.7001L439.751 6.6999L429.091 20.2999L399.595 3.5999ZM345.053 58.3999L379.206 80.8999L368.65 100.4H352.091L345.053 58.3999ZM350.228 100.4H332.427L329.632 80.4999L347.123 81.4999L350.228 100.4ZM380.966 81.9999L398.87 93.7999L400.423 100.4H371.134L380.966 81.9999ZM398.249 91.3999L381.69 80.5999L391.315 62.5999L398.249 91.3999ZM388.624 43.5999H395.766C398.56 43.5999 401.251 43.3999 403.838 42.8999L412.532 54.5999L392.35 58.6999L388.624 43.5999ZM397.111 78.7999H438.095L444.615 100.5H402.389L397.111 78.7999ZM396.697 76.8999L392.764 60.5999L413.67 56.2999L428.884 76.8999H396.697ZM405.598 42.6999C412.118 41.2999 417.913 38.5999 422.364 34.5999L440.889 48.8999L414.188 54.3999L405.598 42.6999ZM386.865 43.5999L390.694 59.5999L380.034 79.3999L344.639 56.1999L342.569 43.5999H386.865ZM346.812 79.6999L313.694 77.7999L309.761 43.5999H340.81L346.812 79.6999ZM311.831 77.6999L276.746 75.6999L272.813 60.9999L310.382 64.4999L311.831 77.6999ZM277.16 77.4999L311.934 79.4999L314.315 100.4H244.249L277.471 78.6999L277.16 77.4999ZM313.901 79.6999L327.666 80.4999L330.357 100.5H316.281L313.901 79.6999ZM354.781 104.4L401.044 128.2H342.569L318.869 104.4H354.781V104.4ZM358.818 104.4H444.512L437.474 128.2H405.287L358.818 104.4ZM446.789 104.4H461.071C457.966 111.4 456.31 119.4 456.31 128.2H439.751L446.789 104.4ZM456.621 135.5C457.138 141.5 458.38 147.8 460.346 154.3L472.766 195.5L414.809 135.6H456.621V135.5ZM462.623 100.4H446.478L439.854 78.6999H472.352L475.146 86.6999C470.8 89.7999 467.177 93.6999 464.176 98.2999C463.658 99.0999 463.141 99.9999 462.727 100.8L462.623 100.4ZM430.954 76.8999L415.43 55.8999L442.752 50.2999L469.765 71.0999L471.834 76.7999H430.954V76.8999ZM444.719 49.8999L461.071 46.4999L468.833 68.4999L444.719 49.8999ZM442.752 48.4999L423.295 33.5999C424.227 32.5999 425.158 31.5999 425.986 30.5999L443.477 7.9999L447.824 9.3999L460.45 44.9999L442.752 48.4999ZM449.686 9.8999L491.499 23.0999L497.708 46.9999L456.724 29.2999L449.686 9.8999ZM465.935 -18.2001L477.113 -14.7001L476.595 -3.0001L465.625 -6.4001L465.935 -18.2001ZM464.279 -18.8001L463.969 -7.0001L451.86 -10.8001L451.342 -22.9001L464.279 -18.8001ZM417.913 -33.2001L430.85 -29.2001L429.194 -15.4001L414.809 -19.7001L417.913 -33.2001ZM414.395 -18.4001L430.643 -13.6001L432.403 -28.7001L449.686 -23.3001L450.204 -9.9001L476.492 -1.6001L476.181 4.4999L457.552 -0.400101L455.689 6.9999L434.887 0.499901L435.094 -0.100098L412.635 -11.0001L414.395 -18.4001ZM396.593 -23.7001L412.842 -18.9001L410.876 -10.5001L430.85 -0.800098L394.524 -12.2001L396.593 -23.7001ZM395.662 -7.2001L400.837 18.0999L359.128 10.2999L367.822 -16.0001L395.662 -7.2001ZM348.261 -17.8001C348.365 -19.3001 348.365 -20.8001 348.365 -22.2001L366.166 -16.5001L357.369 9.9999L339.568 6.6999C344.639 -0.900102 347.537 -9.1001 348.261 -17.8001ZM337.187 9.8999C337.705 9.1999 338.119 8.5999 338.636 7.8999L376.412 14.9999L376.619 28.0999L323.526 23.0999C329.011 18.9999 333.565 14.5999 337.187 9.8999ZM298.17 36.9999C307.174 33.2999 315.039 29.0999 321.766 24.3999L376.722 29.5999L376.929 40.2999H290.097C292.684 39.1999 295.375 38.0999 298.17 36.9999ZM282.128 43.5999H308.002L310.175 62.5999L272.399 59.0999L269.708 48.9999C273.745 47.1999 277.885 45.3999 282.128 43.5999ZM266.397 50.4999L272.917 75.3999L224.792 72.5999C237.728 64.3999 251.804 57.1999 266.397 50.4999ZM157.934 162.7C163.729 139.5 173.561 120.5 187.326 104.4H208.439L195.192 162.7H157.934ZM235.659 162.7H197.262L210.406 104.4H235.762L235.659 162.7ZM190.949 100.4C191.777 99.4999 192.501 98.6999 193.329 97.7999C201.919 88.9999 211.648 81.1999 222.101 74.2999L272.71 77.1999L237.107 100.4H190.949V100.4ZM240.005 185.4L239.591 104.5H280.989L289.89 125.3L240.005 185.4ZM283.059 104.4H316.178L339.775 128.2H327.976C316.695 128.2 306.242 131.7 297.445 138L283.059 104.4ZM281.61 172.7C285.129 161.9 291.132 152.8 298.894 146.4L310.072 172.7H281.61ZM312.348 172.7L300.55 145.1C308.623 139 318.351 135.5 328.908 135.5H346.605L371.651 172.7H312.348ZM348.986 135.5H381.69L395.559 204.5L348.986 135.5ZM400.733 208.2L385.727 135.5H412.325L440.165 164.4L400.733 208.2ZM402.182 210.7L441.924 166.2L474.111 199.6L478.665 214.8L402.182 210.7ZM498.122 171.8L503.4 205.6L482.287 202.4L467.281 154.3C466.867 153.1 466.556 151.8 466.246 150.6L481.77 147.6L498.122 171.8ZM465.625 148.2C463.762 140.6 463.141 133.4 463.451 126.8L490.774 143.4L465.625 148.2ZM505.781 140.6L493.568 142.9L463.658 124.8C464.176 119.1 465.418 113.9 467.384 109.2C471.317 108.1 475.457 107.2 479.7 106.5L479.597 106.6L505.781 140.6ZM508.679 83.7999H512.508L513.129 100.5C496.57 99.9999 482.184 101.1 469.972 104C477.527 91.3999 491.085 83.7999 508.679 83.7999ZM505.677 77.5999C494.5 77.6999 484.668 80.3999 476.802 85.5999L457.345 31.0999L498.226 48.6999L505.677 77.5999ZM518.2 31.5999L531.965 61.6999L499.675 47.7999L493.361 23.6999L518.2 31.5999ZM512.301 24.7999L497.812 20.1999L493.051 2.0999L478.355 -2.5001L478.872 -14.3001L504.953 -6.2001L512.301 24.7999ZM524.513 14.6999L510.749 11.0999L506.712 -5.5001L517.269 -2.2001L524.513 14.6999ZM522.444 -5.0001L480.632 -17.9001L492.12 -29.6001L520.581 -22.4001L522.444 -5.0001ZM519.649 -31.1001L520.477 -23.7001L493.154 -30.6001L500.296 -37.8001L519.649 -31.1001ZM273.434 6.8999H273.641V6.7999C279.126 2.9999 283.784 -1.0001 287.613 -5.4001C294.651 -13.4001 298.998 -22.3001 300.55 -31.7001C303.034 -47.0001 297.445 -58.6001 297.238 -59.1001L295.168 -58.6001L293.098 -58.1001C293.202 -57.9001 298.48 -46.7001 295.893 -32.4001C295.479 -29.9001 294.858 -27.5001 294.03 -25.1001H281.921L287.303 -41.8001L285.854 -42.2001L280.265 -25.1001H270.743L269.294 -40.3001H267.742L269.087 -25.1001H238.66C238.867 -26.2001 239.074 -27.3001 239.074 -28.4001L238.97 -41.9001H235.969V-28.4001C235.969 -19.6001 227.275 -12.2001 216.615 -12.2001H209.06L214.132 -45.8001L212.683 -45.9001L209.888 -27.4001H179.15L180.806 -43.9001H175.735L173.872 -27.4001H154.518L159.072 -41.8001L157.623 -42.0001L152.966 -27.4001H136.2C136.2 -27.5001 136.303 -27.7001 136.303 -27.8001L139.512 -45.8001H136.51L133.198 -27.8001C133.198 -27.7001 133.095 -27.5001 133.095 -27.4001H103.806L107.739 -43.9001H106.186L101.943 -26.0001H132.784C130.3 -18.1001 121.296 -11.8001 111.464 -11.5001L99.7694 -11.2001L80.0018 -28.1001L86.936 -52.8001H81.9682L74.6201 -27.5001L54.335 -30.5001L61.2692 -44.5001L59.8203 -44.7001L52.8861 -30.7001L29.3927 -34.2001L34.464 -41.9001L33.1185 -42.2001L20.5956 -23.4001L0.414062 -24.1001V-22.8001L16.4558 -22.3001L0.414062 -14.5001V-13.2001L19.0432 -22.2001H19.7677L4.96785 -9.91821e-05L0.414062 -0.600098V0.999901L4.03639 1.3999L0.414062 6.7999V9.3999L20.4921 -20.8001L37.2583 0.7999L30.6346 14.0999H0.414062V15.5999H13.0405L0.414062 30.7999V33.0999L14.4894 15.9999L13.6614 15.5999H41.1911L0.414062 68.5999V71.1999L42.9506 15.5999H62.0972L49.5743 59.0999C47.2974 66.7999 38.9143 73.2999 30.8416 73.2999H0.414062V79.3999H22.0445L6.52028 127.5H0.414062V129.6H46.3659C43.468 140.5 40.4667 152 37.4653 163.3H0.414062V165.7H36.8444C34.8779 173.1 33.015 180.4 31.1521 187.3H0.414062V192.4H5.69231L0.414062 210.3V217.9L7.86571 192.4H29.8067C23.804 215.2 19.0432 232.7 18.2152 235.3C18.4222 234.9 18.9397 234.4 19.5607 234.4L19.3537 235.3H20.5956C20.9061 234.2 21.5271 232.2 22.562 228.1C23.4935 224.7 24.7354 220 26.1844 214.4H66.03C64.6845 221.2 63.4426 228.1 62.5111 235.3H69.6523C88.1779 97.4999 190.328 42.0999 247.353 20.2999C257.393 16.3999 266.086 11.8999 273.434 6.8999ZM293.409 -23.9001C289.786 -14.5001 283.059 -6.0001 273.02 1.3999L270.64 -23.9001H293.409ZM269.191 -23.9001L271.571 2.4999C268.984 4.2999 266.19 6.0999 263.292 7.6999L233.382 -1.4001L253.874 -23.9001H269.191ZM209.578 -26.3001L207.404 -12.4001H194.881L198.607 -26.3001H209.578ZM178.115 -19.3001L178.84 -26.3001H196.951L193.226 -12.4001H176.666C177.391 -14.6001 177.908 -16.9001 178.115 -19.3001ZM175.735 -9.6001H216.408C226.965 -9.6001 235.762 -15.8001 238.246 -23.9001H251.804L222.929 7.6999L169.008 2.2999C171.906 -1.4001 174.182 -5.4001 175.735 -9.6001ZM89.0059 50.3999L92.4212 35.5999L129.473 41.7999L118.916 50.3999H89.0059ZM116.846 52.0999L114.776 53.7999L112.292 66.7999H85.2801L88.6954 52.0999H116.846V52.0999ZM92.8352 33.9999L95.0086 24.4999H122.228C125.954 24.4999 129.68 24.0999 133.302 23.3999H152.138L131.232 40.3999L92.8352 33.9999ZM151.103 11.4999C144.583 15.3999 136.924 18.0999 128.852 18.9999L132.474 -1.4001L137.545 -2.8001L137.338 -2.6001L151.103 11.4999ZM139.098 -3.2001L147.377 -5.5001L148.412 -8.8001H169.836C166.317 -1.2001 160.211 5.5999 152.448 10.5999L139.098 -3.2001ZM127.196 18.9999H128.645C126.885 19.1999 125.126 19.2999 123.366 19.2999H92.4212L94.1807 8.9999L130.714 -0.900101L127.196 18.9999ZM139.719 21.7999C151 18.3999 160.935 11.7999 167.869 3.5999L221.687 8.9999L210.095 21.7999H139.719ZM154.001 -26.3001H173.665L172.837 -19.3001C172.526 -16.2001 171.699 -13.1001 170.457 -10.2001H148.826L154.001 -26.3001ZM110.74 -9.1001C116.743 -9.3001 122.642 -11.4001 127.506 -15.0001C131.646 -18.2001 134.544 -22.1001 135.786 -26.3001H152.448L146.135 -6.5001L113.741 2.2999L107.739 -9.0001L110.74 -9.1001ZM105.876 -8.9001L111.982 2.7999L92.7317 7.8999L92.0073 11.9999H82.8997L88.1779 -8.5001L105.876 -8.9001ZM91.6968 13.5999L90.6618 19.2999H66.7544L68.3069 13.5999H91.6968V13.5999ZM79.4844 -26.4001L97.0785 -11.5001L75.1376 -10.9001L79.4844 -26.4001ZM86.522 -8.4001L81.2438 12.0999H68.7209L74.4131 -8.1001L86.522 -8.4001ZM53.7141 -29.3001L74.2061 -26.3001L72.9642 -21.9001L50.4022 -22.6001L53.7141 -29.3001ZM28.5647 -33.0001L52.2651 -29.5001L48.8498 -22.6001L22.148 -23.4001L28.5647 -33.0001ZM21.8376 -22.0001L48.2288 -21.2001L38.1898 -1.0001L21.8376 -22.0001ZM44.1925 14.0999L45.0205 13.0999L43.675 12.4999L42.4331 14.0999H32.3941L49.7812 -21.2001L72.6537 -20.5001L62.6146 14.0999H44.1925V14.0999ZM65.3055 24.3999H93.3527L87.2465 50.3999H57.9574L65.3055 24.3999ZM55.577 59.0999L57.5434 52.1999H86.936L83.5207 66.8999H51.7477C53.5071 64.3999 54.8525 61.7999 55.577 59.0999ZM8.59018 127.5L23.9075 79.3999H28.9787C36.9478 79.3999 45.124 74.9999 50.4022 68.6999H111.982L107.946 89.8999H56.8189L56.6119 90.8999C54.0245 100.8 50.7127 113.6 46.9869 127.6H8.59018V127.5ZM41.5016 156C49.4708 125.5 56.8189 97.1999 58.1644 91.6999H78.0354L56.4049 163.3H39.6387C40.2597 161 40.8807 158.5 41.5016 156ZM66.651 211.6H26.9088C27.1158 210.7 27.4263 209.8 27.6333 208.8C28.9787 203.9 30.4277 198.4 31.9801 192.3H71.4117C69.6523 198.6 67.9964 205 66.651 211.6ZM72.9642 187.3H33.3255C35.0849 180.7 36.9478 173.5 38.9143 165.7H80.5193C77.7249 172.7 75.2411 179.9 72.9642 187.3ZM81.5543 163.3H58.4748L79.8983 91.6999H107.532L101.011 126.1C93.6632 137.7 87.143 150.1 81.5543 163.3ZM103.806 121.9L109.394 91.7999H127.713C119.019 101.2 111.05 111.2 103.806 121.9ZM129.576 89.8999H109.808L113.741 68.6999H152.448C144.583 75.0999 136.924 82.1999 129.576 89.8999ZM154.725 66.7999H114.155L116.432 54.4999L119.433 52.0999H174.803C167.973 56.5999 161.246 61.4999 154.725 66.7999ZM177.287 50.3999H121.503L154.208 23.6999L153.897 23.3999H174.907L181.324 47.7999C179.978 48.6999 178.633 49.4999 177.287 50.3999ZM182.98 46.7999L176.666 23.3999H227.275C213.614 29.3999 198.4 37.0999 182.98 46.7999ZM230.898 21.7999H212.165L232.243 -0.2001L261.429 8.6999C256.565 11.2999 251.183 13.7999 245.284 15.9999C240.833 17.6999 235.969 19.6999 230.898 21.7999Z" fill="#E8E8E8"/>
</g>
<defs>
<clipPath id="clip0_2054_65569">
<rect width="533" height="176" rx="4" fill="white"/>
</clipPath>
</defs>
</svg>
