<svg width="24" height="24" viewBox="0 0 24 24" fill="none" xmlns="http://www.w3.org/2000/svg">
<path fill-rule="evenodd" clip-rule="evenodd" d="M4.25 9C4.25 4.71579 7.71579 1.25 12 1.25C16.2842 1.25 19.75 4.71579 19.75 9C19.75 10.4643 19.2662 12.0449 18.5907 13.5527C17.9108 15.0704 17.0109 16.5704 16.1217 17.8882C15.2311 19.2082 14.342 20.3592 13.6761 21.1797C13.3428 21.5903 13.0646 21.9192 12.869 22.1463C12.7712 22.2598 12.6939 22.348 12.6407 22.4082C12.6266 22.4242 12.6141 22.4383 12.6034 22.4503C12.594 22.4609 12.586 22.4699 12.5794 22.4773L12.563 22.4956L12.5572 22.502C12.5571 22.5021 12.5566 22.5027 12 22C11.4434 22.5027 11.4433 22.5026 11.4432 22.5024L11.437 22.4956L11.4206 22.4773C11.4065 22.4615 11.3859 22.4383 11.3593 22.4082C11.3061 22.348 11.2288 22.2598 11.131 22.1463C10.9354 21.9192 10.6572 21.5903 10.3239 21.1797C9.65799 20.3592 8.76888 19.2082 7.87828 17.8882C6.98912 16.5704 6.0892 15.0704 5.4093 13.5527C4.7338 12.0449 4.25 10.4643 4.25 9ZM12 22L11.4432 22.5024L12 23.1189L12.5572 22.502L12 22ZM12 20.8532C12.1476 20.6779 12.32 20.4703 12.5114 20.2344C13.158 19.4377 14.0189 18.323 14.8783 17.0493C15.7391 15.7734 16.5892 14.3515 17.2218 12.9395C17.8588 11.5176 18.25 10.1607 18.25 9C18.25 5.54421 15.4558 2.75 12 2.75C8.54421 2.75 5.75 5.54421 5.75 9C5.75 10.1607 6.1412 11.5176 6.7782 12.9395C7.4108 14.3515 8.26088 15.7734 9.12172 17.0493C9.98112 18.323 10.842 19.4377 11.4886 20.2344C11.68 20.4703 11.8524 20.6779 12 20.8532ZM12 7.25C11.0342 7.25 10.25 8.03421 10.25 9C10.25 9.96579 11.0342 10.75 12 10.75C12.9658 10.75 13.75 9.96579 13.75 9C13.75 8.03421 12.9658 7.25 12 7.25ZM8.75 9C8.75 7.20579 10.2058 5.75 12 5.75C13.7942 5.75 15.25 7.20579 15.25 9C15.25 10.7942 13.7942 12.25 12 12.25C10.2058 12.25 8.75 10.7942 8.75 9Z" fill="#2F3F50"/>
</svg>
