<svg width="24" height="24" viewBox="0 0 24 24" fill="none" xmlns="http://www.w3.org/2000/svg">
<path fill-rule="evenodd" clip-rule="evenodd" d="M22.7774 18.486C22.7774 18.6394 22.7638 18.7839 22.7458 18.9283L23.6982 19.6731C23.784 19.7408 23.8066 19.8627 23.7524 19.962L22.8496 21.5239C22.7954 21.6232 22.6781 21.6638 22.5742 21.6232L21.4502 21.1718C21.2155 21.3478 20.9627 21.5013 20.6874 21.6142L20.5158 22.8104C20.5023 22.9187 20.4075 23 20.2947 23H18.489C18.3762 23 18.2814 22.9187 18.2679 22.8104L18.0963 21.6142C17.821 21.5013 17.5682 21.3524 17.3334 21.1718L16.2095 21.6232C16.1101 21.6593 15.9883 21.6232 15.9341 21.5239L15.0313 19.962C14.9771 19.8627 14.9997 19.7408 15.0855 19.6731L16.0379 18.9283C16.0199 18.7839 16.0063 18.6349 16.0063 18.486C16.0063 18.337 16.0199 18.188 16.0379 18.0436L15.0855 17.2988C14.9997 17.2311 14.9726 17.1092 15.0313 17.0099L15.9341 15.448C15.9883 15.3487 16.1056 15.3081 16.2095 15.3487L17.3334 15.8001C17.5682 15.6241 17.821 15.4706 18.0963 15.3577L18.2679 14.1615C18.2814 14.0532 18.3762 13.9719 18.489 13.9719H20.2947C20.4075 13.9719 20.5023 14.0532 20.5158 14.1615L20.6874 15.3577C20.9627 15.4706 21.2155 15.6195 21.4502 15.8001L22.5742 15.3487C22.6735 15.3126 22.7954 15.3487 22.8496 15.448L23.7524 17.0099C23.8066 17.1092 23.784 17.2311 23.6982 17.2988L22.7458 18.0436C22.7638 18.188 22.7774 18.3325 22.7774 18.486ZM17.8119 18.4859C17.8119 19.3572 18.5206 20.0659 19.3918 20.0659C20.2631 20.0659 20.9718 19.3572 20.9718 18.4859C20.9718 17.6147 20.2631 16.906 19.3918 16.906C18.5206 16.906 17.8119 17.6147 17.8119 18.4859Z" fill="#3497DB"/>
<path fill-rule="evenodd" clip-rule="evenodd" d="M4 4H20C21.1 4 22 4.9 22 6V12H20V8L12 13L4 8V18H13V20H4C2.9 20 2 19.1 2 18L2.01 6C2.01 4.9 2.9 4 4 4ZM12 11L4 6H20L12 11Z" fill="#3497DB"/>
</svg>
