<svg width="24" height="24" viewBox="0 0 24 24" fill="none" xmlns="http://www.w3.org/2000/svg">
<path fill-rule="evenodd" clip-rule="evenodd" d="M11.9996 5.25C9.66769 5.25 7.16776 6.35873 4.80598 8.43302C3.72776 9.36185 2.75047 10.4072 1.89125 11.5509L1.88713 11.5567C1.798 11.6825 1.75 11.834 1.75 11.9894C1.75 12.1449 1.79792 12.2964 1.88705 12.4222L1.89126 12.4278C2.57141 13.334 3.32559 14.1785 4.14539 14.9523L4.28815 15.087L5.53297 14.2587L5.29239 14.0353C4.41747 13.2227 3.75543 12.4516 3.38442 11.9906C3.90018 11.3494 4.97521 10.1114 6.40189 8.99553C7.96279 7.77474 9.9157 6.72297 11.9996 6.72297C13.1764 6.72297 14.3122 7.05824 15.3618 7.57248L15.4883 7.63444L16.8594 6.72207L16.4868 6.5174C14.9757 5.68734 13.4573 5.25 11.9996 5.25ZM21.3881 5.84383C21.1625 5.48789 20.698 5.38672 20.3506 5.61788L2.73853 17.3369C2.39114 17.5681 2.29241 18.044 2.518 18.4C2.7436 18.7559 3.2081 18.8571 3.55549 18.6259L21.1676 6.90686C21.515 6.67571 21.6137 6.19977 21.3881 5.84383ZM11.9996 7.74291C11.1796 7.74291 10.3781 7.99204 9.69639 8.45878C9.01465 8.92552 8.4833 9.58892 8.16953 10.3651C7.92715 10.9646 7.82302 11.6107 7.8619 12.2534L7.8884 12.6914L9.29902 11.7528L9.31383 11.6353C9.32167 11.5731 9.33158 11.5111 9.34357 11.4493C9.44806 10.911 9.70597 10.4166 10.0847 10.0286C10.4634 9.64053 10.946 9.37627 11.4713 9.2692C11.9057 9.18065 12.3534 9.20293 12.7751 9.33211L12.8859 9.36604L14.2949 8.42853L13.9153 8.22554C13.3293 7.91215 12.6728 7.74374 11.9996 7.74291ZM19.9844 9.15281L19.8415 9.01557L18.5992 9.84221L18.8352 10.0658C19.646 10.8336 20.2611 11.5521 20.6144 11.9906C20.0974 12.6319 19.0209 13.8699 17.5938 14.9857C16.0322 16.2065 14.0799 17.2583 11.9996 17.2583C10.8903 17.2583 9.81636 16.9594 8.81619 16.493L8.69143 16.4348L7.30614 17.3566L7.68859 17.5589C9.14133 18.3272 10.5985 18.7312 11.9996 18.7312C14.3317 18.7312 16.8315 17.6175 19.193 15.5484C20.2713 14.6196 21.2487 13.5742 22.1079 12.4303L22.1116 12.4251C22.2015 12.299 22.25 12.1468 22.25 11.9906C22.25 11.8344 22.2016 11.6822 22.1116 11.556L22.1078 11.551C21.464 10.6938 20.7537 9.89181 19.9844 9.15281ZM16.1452 11.9906L16.1419 11.4773L14.6709 12.4561L14.6495 12.5602C14.542 13.0835 14.2884 13.5681 13.9138 13.9519C13.406 14.4722 12.7175 14.7648 11.9994 14.7653C11.8068 14.7653 11.6157 14.7443 11.4293 14.7031L11.3276 14.6807L9.85898 15.6579L10.2721 15.852C10.5642 15.9892 10.8724 16.0918 11.1908 16.1567C11.995 16.3206 12.8285 16.2365 13.586 15.915C14.3435 15.5935 14.991 15.049 15.4465 14.3505C15.9021 13.652 16.1452 12.8307 16.1452 11.9906Z" fill="#696969"/>
</svg>
