<svg width="57" height="40" viewBox="0 0 57 40" fill="none" xmlns="http://www.w3.org/2000/svg">
<rect width="57" height="40" rx="4" fill="#DDDDDD"/>
<path fill-rule="evenodd" clip-rule="evenodd" d="M8.74942 31.7778C8.28624 32.0786 8.1546 32.698 8.45539 33.1611C8.75619 33.6243 9.37552 33.756 9.8387 33.4552L48.4175 8.40178C48.8807 8.10098 49.0124 7.48165 48.7116 7.01847C48.4108 6.55528 47.7915 6.42364 47.3283 6.72444L8.74942 31.7778ZM23.4557 8.3392L32.8623 14.1911L20 22.5439V10.4053C20 8.54408 21.9301 7.39013 23.4557 8.3392ZM20 29.5943V28.5057L37.5511 17.108L38.8784 17.9337C40.3739 18.8641 40.3739 21.1356 38.8784 22.0659L23.4557 31.6604C21.9301 32.6095 20 31.4555 20 29.5943Z" fill="#9B9B9B"/>
</svg>
