<svg width="24" height="24" viewBox="0 0 24 24" fill="none" xmlns="http://www.w3.org/2000/svg">
<path fill-rule="evenodd" clip-rule="evenodd" d="M21 12C21 13.2174 20.7558 14.3784 20.316 15.4386C20.3151 15.4404 20.3157 15.4425 20.3148 15.444C20.3139 15.4461 20.3124 15.4476 20.3115 15.4494C18.9555 18.7053 15.7413 21 12 21C8.2587 21 5.0445 18.7053 3.6885 15.4497C3.6881 15.4489 3.68759 15.4482 3.68706 15.4474C3.68639 15.4465 3.6857 15.4455 3.6852 15.4443C3.68475 15.4434 3.68468 15.4424 3.6846 15.4415C3.68453 15.4405 3.68445 15.4395 3.684 15.4386C3.2442 14.3784 3 13.2174 3 12C3 10.7826 3.2442 9.6216 3.684 8.5614C3.68445 8.5605 3.68453 8.55953 3.6846 8.55855C3.68468 8.55757 3.68475 8.5566 3.6852 8.5557C3.68548 8.55501 3.68594 8.55445 3.68642 8.55387C3.68699 8.55318 3.68758 8.55247 3.6879 8.5515C4.1418 7.4619 4.803 6.48 5.6232 5.6556C5.62557 5.65282 5.62728 5.64971 5.62902 5.64659C5.63102 5.64297 5.63304 5.63932 5.6361 5.6361C5.63933 5.6327 5.64314 5.63065 5.64699 5.62858C5.64992 5.627 5.65287 5.62541 5.6556 5.6232C6.48 4.803 7.4619 4.1418 8.5515 3.6879C8.55247 3.68758 8.55318 3.68699 8.55387 3.68642C8.55445 3.68594 8.55501 3.68548 8.5557 3.6852C8.5566 3.68475 8.55757 3.68468 8.55855 3.6846C8.55953 3.68453 8.5605 3.68445 8.5614 3.684C9.6216 3.2442 10.7826 3 12 3C13.2174 3 14.3784 3.2442 15.4386 3.684C15.4395 3.68445 15.4405 3.68453 15.4415 3.6846C15.4424 3.68468 15.4434 3.68475 15.4443 3.6852C15.4451 3.6855 15.4457 3.68602 15.4464 3.68655C15.4471 3.68707 15.4478 3.6876 15.4485 3.6879C16.5381 4.1418 17.52 4.803 18.3444 5.6232C18.3472 5.62557 18.3503 5.62729 18.3534 5.62902C18.357 5.63102 18.3607 5.63304 18.3639 5.6361C18.3673 5.63933 18.3694 5.64314 18.3714 5.64699C18.373 5.64992 18.3746 5.65287 18.3768 5.6556C19.197 6.48 19.8582 7.4619 20.3121 8.5515C20.3124 8.55247 20.313 8.55318 20.3136 8.55387C20.3141 8.55445 20.3145 8.55501 20.3148 8.5557C20.3153 8.5566 20.3153 8.55757 20.3154 8.55855C20.3155 8.55953 20.3156 8.5605 20.316 8.5614C20.7558 9.6216 21 10.7826 21 12ZM4.3617 15.4887C5.6892 18.3834 8.6124 20.4 12 20.4C15.3873 20.4 18.3108 18.3834 19.638 15.4887L18.8139 15.1473C18.6609 15.084 18.5883 14.9085 18.6516 14.7552C18.7149 14.6019 18.8913 14.5299 19.0437 14.5929L19.8696 14.9349C20.2119 14.0208 20.4 13.032 20.4 12C20.4 10.968 20.2119 9.9792 19.8699 9.0651L19.044 9.4074C19.0065 9.423 18.9675 9.4302 18.9291 9.4302C18.8115 9.4302 18.6996 9.3606 18.6519 9.2451C18.5886 9.0921 18.6612 8.9163 18.8142 8.853L19.6383 8.5113C19.2609 7.6875 18.7545 6.9354 18.1443 6.2799L17.5155 6.9087C17.457 6.9672 17.3802 6.9966 17.3034 6.9966C17.2266 6.9966 17.1498 6.9672 17.0913 6.9087C16.974 6.7914 16.974 6.6018 17.0913 6.4845L17.7201 5.8557C17.0646 5.2455 16.3122 4.7394 15.4887 4.3617L15.1473 5.1861C15.0996 5.3016 14.9877 5.3712 14.8701 5.3712C14.8317 5.3712 14.7927 5.364 14.7552 5.3484C14.6022 5.2851 14.5296 5.1096 14.5929 4.9563L14.9352 4.1301C14.1099 3.8214 13.2237 3.6399 12.3 3.6075V4.5C12.3 4.6659 12.1659 4.8 12 4.8C11.8341 4.8 11.7 4.6659 11.7 4.5V3.6075C10.7763 3.6399 9.8901 3.8214 9.0651 4.1301L9.4074 4.956C9.4707 5.109 9.3981 5.2848 9.2451 5.3481C9.2076 5.3637 9.1686 5.3709 9.1302 5.3709C9.0126 5.3709 8.9007 5.3013 8.853 5.1858L8.5113 4.3617C7.6875 4.7391 6.9354 5.2455 6.2799 5.8557L6.9087 6.4845C7.026 6.6018 7.026 6.7914 6.9087 6.9087C6.8502 6.9672 6.7734 6.9966 6.6966 6.9966C6.6198 6.9966 6.543 6.9672 6.4845 6.9087L5.8557 6.2799C5.2455 6.9354 4.7394 7.6878 4.3617 8.5113L5.1858 8.8527C5.3388 8.916 5.4114 9.0915 5.3481 9.2448C5.3004 9.3603 5.1885 9.4299 5.0709 9.4299C5.0325 9.4299 4.9935 9.4227 4.956 9.4071L4.1301 9.0651C3.8214 9.8901 3.6399 10.7763 3.6075 11.7H4.5C4.6659 11.7 4.8 11.8341 4.8 12C4.8 12.1659 4.6659 12.3 4.5 12.3H3.6075C3.6402 13.2237 3.8214 14.1099 4.1301 14.9349L4.956 14.5926C5.1081 14.5293 5.2848 14.6016 5.3481 14.7549C5.4114 14.9079 5.3388 15.0837 5.1858 15.147L4.3617 15.4887ZM10.397 16.2953L10.9704 14.5442C10.5215 14.2561 10.3018 13.6939 10.4753 13.1642C10.6488 12.6345 11.1584 12.3111 11.6908 12.3443L13.2912 7.45708C13.3428 7.29942 13.512 7.21371 13.6696 7.26534C13.8273 7.31697 13.913 7.48614 13.8614 7.6438L12.261 12.531C12.7099 12.8192 12.9296 13.3813 12.7561 13.9111C12.5827 14.4408 12.073 14.7641 11.5406 14.7309L10.9672 16.482C10.9156 16.6397 10.7464 16.7254 10.5887 16.6737C10.4311 16.6221 10.3454 16.4529 10.397 16.2953Z" fill="#2F3F50"/>
<path d="M20.316 15.4386L20.5396 15.5505L20.5435 15.5426L20.5469 15.5344L20.316 15.4386ZM20.3148 15.444L20.1004 15.3154L20.0917 15.3299L20.085 15.3455L20.3148 15.444ZM20.3115 15.4494L20.0879 15.3376L20.084 15.3453L20.0807 15.3533L20.3115 15.4494ZM3.6885 15.4497L3.91928 15.3536L3.91596 15.3456L3.91209 15.3379L3.6885 15.4497ZM3.68706 15.4474L3.48216 15.5906L3.48217 15.5907L3.68706 15.4474ZM3.6852 15.4443L3.91497 15.3458L3.91209 15.3391L3.90882 15.3325L3.6852 15.4443ZM3.684 15.4386L3.45308 15.5344L3.45645 15.5425L3.46038 15.5504L3.684 15.4386ZM3.684 8.5614L3.46038 8.44962L3.45645 8.45749L3.45308 8.46561L3.684 8.5614ZM3.6852 8.5557L3.9088 8.66752L3.91345 8.65822L3.91731 8.64857L3.6852 8.5557ZM3.68642 8.55387L3.87901 8.71327L3.87902 8.71326L3.68642 8.55387ZM3.6879 8.5515L3.45712 8.45536L3.45361 8.46379L3.45073 8.47245L3.6879 8.5515ZM5.6232 5.6556L5.80043 5.83192L5.80734 5.82498L5.81368 5.81752L5.6232 5.6556ZM5.62902 5.64659L5.8477 5.76773L5.84771 5.76773L5.62902 5.64659ZM5.6361 5.6361L5.81735 5.80829L5.81735 5.80828L5.6361 5.6361ZM5.64699 5.62858L5.7655 5.8487L5.7655 5.8487L5.64699 5.62858ZM5.6556 5.6232L5.8129 5.81751L5.82285 5.80946L5.83192 5.80043L5.6556 5.6232ZM8.5515 3.6879L8.47245 3.45073L8.46379 3.45361L8.45536 3.45712L8.5515 3.6879ZM8.55387 3.68642L8.71326 3.87902L8.71327 3.87901L8.55387 3.68642ZM8.5557 3.6852L8.64857 3.91731L8.65822 3.91345L8.66752 3.9088L8.5557 3.6852ZM8.5614 3.684L8.46561 3.45308L8.45749 3.45645L8.44962 3.46038L8.5614 3.684ZM15.4386 3.684L15.5504 3.46038L15.5425 3.45645L15.5344 3.45308L15.4386 3.684ZM15.4443 3.6852L15.3325 3.90882L15.3418 3.91346L15.3514 3.91731L15.4443 3.6852ZM15.4464 3.68655L15.5999 3.48921L15.5998 3.48916L15.4464 3.68655ZM15.4485 3.6879L15.5446 3.4571L15.5413 3.45577L15.4485 3.6879ZM18.3444 5.6232L18.1681 5.80043L18.175 5.80733L18.1825 5.81368L18.3444 5.6232ZM18.3534 5.62902L18.2323 5.8477L18.2323 5.84772L18.3534 5.62902ZM18.3639 5.6361L18.1917 5.81735L18.1917 5.81735L18.3639 5.6361ZM18.3714 5.64699L18.1513 5.76547L18.1513 5.7655L18.3714 5.64699ZM18.3768 5.6556L18.1825 5.81291L18.1905 5.82285L18.1996 5.83192L18.3768 5.6556ZM20.3121 8.5515L20.5493 8.47251L20.5464 8.46382L20.5429 8.45536L20.3121 8.5515ZM20.3136 8.55387L20.5062 8.39455L20.5062 8.39444L20.3136 8.55387ZM20.3148 8.5557L20.0826 8.64833L20.0865 8.65812L20.0912 8.66755L20.3148 8.5557ZM20.316 8.5614L20.5469 8.46561L20.5435 8.45747L20.5396 8.4496L20.316 8.5614ZM4.3617 15.4887L4.26595 15.2578L4.02632 15.3571L4.13446 15.5929L4.3617 15.4887ZM19.638 15.4887L19.8653 15.5929L19.9734 15.357L19.7337 15.2577L19.638 15.4887ZM18.8139 15.1473L18.9096 14.9163L18.9095 14.9163L18.8139 15.1473ZM18.6516 14.7552L18.4205 14.6598L18.6516 14.7552ZM19.0437 14.5929L19.1393 14.3619L19.1392 14.3619L19.0437 14.5929ZM19.8696 14.9349L19.774 15.1659L20.013 15.2649L20.1037 15.0226L19.8696 14.9349ZM19.8699 9.0651L20.104 8.9775L20.0133 8.73503L19.7742 8.83415L19.8699 9.0651ZM19.044 9.4074L18.9483 9.17645L18.948 9.17658L19.044 9.4074ZM18.6519 9.2451L18.883 9.14967L18.8829 9.14953L18.6519 9.2451ZM18.8142 8.853L18.9098 9.08401L18.91 9.08394L18.8142 8.853ZM19.6383 8.5113L19.7341 8.74224L19.9736 8.64292L19.8656 8.40718L19.6383 8.5113ZM18.1443 6.2799L18.3273 6.10956L18.1507 5.91991L17.9675 6.10312L18.1443 6.2799ZM17.5155 6.9087L17.6923 7.08548L17.6923 7.08548L17.5155 6.9087ZM17.0913 6.9087L17.2681 6.73192L17.2681 6.73192L17.0913 6.9087ZM17.0913 6.4845L17.2681 6.66128V6.66128L17.0913 6.4845ZM17.7201 5.8557L17.8969 6.03248L18.0801 5.84926L17.8904 5.67271L17.7201 5.8557ZM15.4887 4.3617L15.5929 4.13446L15.357 4.02626L15.2577 4.26605L15.4887 4.3617ZM15.1473 5.1861L14.9163 5.09045L14.9162 5.09067L15.1473 5.1861ZM14.7552 5.3484L14.8512 5.11758L14.8508 5.11739L14.7552 5.3484ZM14.5929 4.9563L14.3619 4.86061L14.3618 4.86089L14.5929 4.9563ZM14.9352 4.1301L15.1662 4.22579L15.2652 3.98664L15.0228 3.89594L14.9352 4.1301ZM12.3 3.6075L12.3088 3.35765L12.05 3.34858V3.6075H12.3ZM11.7 3.6075H11.95V3.34858L11.6912 3.35765L11.7 3.6075ZM9.0651 4.1301L8.97749 3.89595L8.73504 3.98668L8.83415 4.22582L9.0651 4.1301ZM9.4074 4.956L9.63841 4.86043L9.63835 4.86028L9.4074 4.956ZM9.2451 5.3481L9.14953 5.11709L9.14908 5.11728L9.2451 5.3481ZM8.853 5.1858L9.08407 5.09037L9.08394 5.09005L8.853 5.1858ZM8.5113 4.3617L8.74224 4.26595L8.64292 4.02642L8.40718 4.13442L8.5113 4.3617ZM6.2799 5.8557L6.10956 5.67271L5.91991 5.84926L6.10312 6.03248L6.2799 5.8557ZM6.9087 6.9087L7.08548 7.08548L6.9087 6.9087ZM6.4845 6.9087L6.66128 6.73192L6.66128 6.73192L6.4845 6.9087ZM5.8557 6.2799L6.03248 6.10312L5.84926 5.91991L5.67271 6.10956L5.8557 6.2799ZM4.3617 8.5113L4.13446 8.40708L4.02628 8.64295L4.26602 8.74227L4.3617 8.5113ZM5.1858 8.8527L5.09012 9.08367L5.09023 9.08371L5.1858 8.8527ZM5.3481 9.2448L5.57917 9.34023L5.57918 9.34022L5.3481 9.2448ZM4.956 9.4071L5.05202 9.17628L5.05165 9.17612L4.956 9.4071ZM4.1301 9.0651L4.22575 8.83412L3.98665 8.73511L3.89595 8.97749L4.1301 9.0651ZM3.6075 11.7L3.35765 11.6912L3.34858 11.95H3.6075V11.7ZM3.6075 12.3V12.05H3.34849L3.35766 12.3088L3.6075 12.3ZM4.1301 14.9349L3.89595 15.0225L3.98668 15.265L4.22582 15.1659L4.1301 14.9349ZM4.956 14.5926L5.05172 14.8236L5.05206 14.8234L4.956 14.5926ZM5.3481 14.7549L5.11702 14.8503L5.11709 14.8505L5.3481 14.7549ZM5.1858 15.147L5.09023 14.916L5.09005 14.9161L5.1858 15.147ZM10.9704 14.5442L11.208 14.622L11.2682 14.4382L11.1054 14.3338L10.9704 14.5442ZM10.397 16.2953L10.6346 16.3731L10.397 16.2953ZM10.4753 13.1642L10.2377 13.0864L10.4753 13.1642ZM11.6908 12.3443L11.6752 12.5938L11.8682 12.6059L11.9284 12.4221L11.6908 12.3443ZM13.2912 7.45708L13.0536 7.37928V7.37928L13.2912 7.45708ZM13.8614 7.6438L14.099 7.7216L14.099 7.7216L13.8614 7.6438ZM12.261 12.531L12.0234 12.4532L11.9632 12.637L12.126 12.7414L12.261 12.531ZM12.7561 13.9111L12.9937 13.9889L12.7561 13.9111ZM11.5406 14.7309L11.5562 14.4814L11.3632 14.4693L11.303 14.6531L11.5406 14.7309ZM10.9672 16.482L10.7296 16.4042L10.7296 16.4042L10.9672 16.482ZM10.5887 16.6737L10.5109 16.9113H10.5109L10.5887 16.6737ZM20.5469 15.5344C20.999 14.4446 21.25 13.2511 21.25 12H20.75C20.75 13.1837 20.5126 14.3122 20.0851 15.3428L20.5469 15.5344ZM20.5292 15.5726C20.5491 15.5394 20.5571 15.5088 20.5607 15.4904C20.5625 15.4811 20.5634 15.4735 20.5639 15.469C20.5641 15.4667 20.5643 15.4648 20.5644 15.4636C20.5645 15.4625 20.5646 15.4615 20.5646 15.4614C20.5647 15.4605 20.5645 15.4634 20.5641 15.4666C20.5637 15.4702 20.563 15.4763 20.5617 15.4839C20.5589 15.4993 20.5531 15.5234 20.5396 15.5505L20.0924 15.3268C20.0784 15.3547 20.0724 15.3798 20.0695 15.396C20.068 15.4041 20.0672 15.4108 20.0668 15.4148C20.0666 15.4169 20.0664 15.4186 20.0663 15.4197C20.0663 15.4202 20.0663 15.4206 20.0662 15.4209C20.0662 15.4211 20.0662 15.4212 20.0662 15.4212C20.0662 15.4213 20.0662 15.4213 20.0662 15.4213C20.0662 15.422 20.0663 15.4208 20.0662 15.4214C20.0662 15.422 20.0664 15.4189 20.0668 15.4152C20.0672 15.4111 20.0681 15.404 20.0698 15.3952C20.0732 15.3776 20.081 15.3478 20.1004 15.3154L20.5292 15.5726ZM20.5351 15.5612C20.5293 15.5728 20.5238 15.5815 20.521 15.5857C20.5196 15.5878 20.5185 15.5895 20.5181 15.59C20.5179 15.5903 20.5178 15.5905 20.5178 15.5903C20.5179 15.5903 20.5181 15.5899 20.5184 15.5895C20.5194 15.5881 20.5233 15.5825 20.5278 15.575C20.5326 15.5672 20.5387 15.5562 20.5446 15.5425L20.085 15.3455C20.0905 15.3328 20.096 15.3228 20.1002 15.3159C20.1042 15.3094 20.1075 15.3046 20.1079 15.3041C20.108 15.3039 20.1081 15.3037 20.108 15.3039C20.1079 15.304 20.1077 15.3044 20.1073 15.3049C20.1067 15.3059 20.1052 15.3079 20.1035 15.3105C20.1002 15.3156 20.0942 15.3251 20.0879 15.3376L20.5351 15.5612ZM12 21.25C15.846 21.25 19.149 18.891 20.5423 15.5455L20.0807 15.3533C18.762 18.5196 15.6366 20.75 12 20.75V21.25ZM3.45772 15.5458C4.85105 18.891 8.15396 21.25 12 21.25V20.75C8.36344 20.75 5.23795 18.5196 3.91928 15.3536L3.45772 15.5458ZM3.48217 15.5907C3.48288 15.5917 3.48052 15.5884 3.4779 15.5843C3.475 15.5798 3.4701 15.5719 3.46491 15.5615L3.91209 15.3379C3.9065 15.3267 3.90115 15.318 3.89775 15.3128C3.89602 15.3101 3.89455 15.3079 3.89361 15.3066C3.89275 15.3053 3.89197 15.3042 3.89195 15.3042L3.48217 15.5907ZM3.45543 15.5428C3.46198 15.5581 3.46884 15.57 3.47376 15.5779C3.47621 15.5819 3.47832 15.585 3.47972 15.5871C3.481 15.589 3.48215 15.5906 3.48216 15.5906L3.89195 15.3042C3.89104 15.3029 3.89457 15.3078 3.89837 15.3139C3.90265 15.3208 3.90892 15.3317 3.91497 15.3458L3.45543 15.5428ZM3.43534 15.4606C3.43534 15.4607 3.43536 15.4609 3.43538 15.4612C3.4354 15.4615 3.43544 15.462 3.43549 15.4625C3.43558 15.4636 3.43573 15.4653 3.43594 15.4674C3.43636 15.4715 3.43713 15.4782 3.43856 15.4864C3.44147 15.5028 3.44755 15.528 3.46158 15.5561L3.90882 15.3325C3.9224 15.3597 3.92821 15.3839 3.93095 15.3995C3.93336 15.4131 3.93406 15.4249 3.93386 15.4223L3.43534 15.4606ZM3.46038 15.5504C3.4468 15.5232 3.44099 15.499 3.43825 15.4835C3.43584 15.4698 3.43514 15.458 3.43534 15.4606L3.93386 15.4223C3.93386 15.4222 3.93384 15.422 3.93382 15.4217C3.9338 15.4214 3.93376 15.421 3.93371 15.4204C3.93362 15.4193 3.93347 15.4176 3.93326 15.4155C3.93284 15.4114 3.93207 15.4047 3.93064 15.3965C3.92772 15.38 3.92165 15.3549 3.90762 15.3268L3.46038 15.5504ZM2.75 12C2.75 13.2511 3.00101 14.4446 3.45308 15.5344L3.91492 15.3428C3.48739 14.3122 3.25 13.1837 3.25 12H2.75ZM3.45308 8.46561C3.00101 9.55538 2.75 10.7489 2.75 12H3.25C3.25 10.8163 3.48739 9.68782 3.91492 8.65719L3.45308 8.46561ZM3.43534 8.53938C3.43514 8.54198 3.43584 8.53018 3.43824 8.51657C3.44098 8.50103 3.4468 8.4768 3.46038 8.44962L3.90762 8.67318C3.92165 8.6451 3.92773 8.61993 3.93064 8.60344C3.93208 8.5953 3.93285 8.58861 3.93326 8.58451C3.93348 8.58241 3.93362 8.58068 3.93371 8.5796C3.93376 8.57904 3.9338 8.57858 3.93382 8.57828C3.93384 8.578 3.93386 8.57775 3.93386 8.57772L3.43534 8.53938ZM3.4616 8.44388C3.44755 8.47198 3.44147 8.49717 3.43856 8.51366C3.43712 8.5218 3.43635 8.52849 3.43594 8.53259C3.43573 8.53469 3.43558 8.53642 3.43549 8.5375C3.43544 8.53806 3.4354 8.53852 3.43538 8.53882C3.43536 8.5391 3.43534 8.53935 3.43534 8.53938L3.93386 8.57772C3.93406 8.57512 3.93336 8.58692 3.93096 8.60053C3.92822 8.61607 3.9224 8.64032 3.9088 8.66752L3.4616 8.44388ZM3.49383 8.39446C3.49382 8.39448 3.49369 8.39463 3.49355 8.3948C3.4934 8.39499 3.49317 8.39526 3.4929 8.3956C3.49236 8.39626 3.4915 8.39731 3.49046 8.39862C3.48844 8.40116 3.48516 8.40537 3.48137 8.41075C3.47376 8.42154 3.46256 8.43917 3.45309 8.46283L3.91731 8.64857C3.90812 8.67154 3.89728 8.68854 3.8901 8.69874C3.88377 8.70773 3.87766 8.71491 3.87901 8.71327L3.49383 8.39446ZM3.45073 8.47245C3.46718 8.42309 3.49709 8.39052 3.49383 8.39447L3.87902 8.71326C3.87903 8.71324 3.8792 8.71305 3.87939 8.71282C3.87959 8.71257 3.87989 8.7122 3.88026 8.71175C3.88099 8.71086 3.88212 8.70947 3.88347 8.70775C3.88614 8.70434 3.89023 8.69897 3.89483 8.69211C3.90435 8.67794 3.91616 8.6573 3.92507 8.63055L3.45073 8.47245ZM5.44597 5.47928C4.60319 6.32638 3.92366 7.33543 3.45712 8.45536L3.91868 8.64764C4.35994 7.58837 5.00281 6.63362 5.80043 5.83192L5.44597 5.47928ZM5.41033 5.52544C5.40895 5.52793 5.4111 5.52394 5.41405 5.5192C5.41745 5.51373 5.42361 5.5044 5.43272 5.49368L5.81368 5.81752C5.82515 5.80402 5.83336 5.79175 5.83864 5.78325C5.84347 5.77548 5.84735 5.76837 5.8477 5.76773L5.41033 5.52544ZM5.45485 5.46391C5.42651 5.49374 5.41039 5.52533 5.41033 5.52544L5.84771 5.76773C5.84934 5.76477 5.84643 5.77022 5.84234 5.77656C5.83759 5.78395 5.82944 5.79556 5.81735 5.80829L5.45485 5.46391ZM5.52848 5.40845C5.52805 5.40868 5.51689 5.41453 5.50485 5.42237C5.49134 5.43117 5.47325 5.44455 5.45485 5.46392L5.81735 5.80828C5.80219 5.82425 5.78761 5.8349 5.77778 5.84131C5.76942 5.84676 5.76208 5.85054 5.7655 5.8487L5.52848 5.40845ZM5.4983 5.42889C5.50838 5.42073 5.51712 5.41514 5.52239 5.41197C5.52695 5.40922 5.53079 5.40721 5.52847 5.40845L5.7655 5.8487C5.76564 5.84862 5.78917 5.83672 5.8129 5.81751L5.4983 5.42889ZM8.45536 3.45712C7.33543 3.92366 6.32638 4.60319 5.47928 5.44597L5.83192 5.80043C6.63362 5.00281 7.58837 4.35994 8.64764 3.91868L8.45536 3.45712ZM8.39447 3.49383C8.39052 3.49709 8.42309 3.46718 8.47245 3.45073L8.63055 3.92507C8.6573 3.91616 8.67794 3.90435 8.69211 3.89483C8.69897 3.89023 8.70434 3.88614 8.70775 3.88347C8.70947 3.88212 8.71086 3.88099 8.71175 3.88026C8.7122 3.87989 8.71257 3.87959 8.71282 3.87939C8.71305 3.8792 8.71324 3.87903 8.71326 3.87902L8.39447 3.49383ZM8.46283 3.45309C8.43917 3.46256 8.42154 3.47376 8.41075 3.48137C8.40537 3.48516 8.40116 3.48844 8.39862 3.49046C8.39731 3.4915 8.39626 3.49236 8.3956 3.4929C8.39526 3.49317 8.39499 3.4934 8.3948 3.49355C8.39463 3.49369 8.39448 3.49382 8.39446 3.49383L8.71327 3.87901C8.71491 3.87766 8.70773 3.88377 8.69874 3.8901C8.68854 3.89728 8.67154 3.90812 8.64857 3.91731L8.46283 3.45309ZM8.53938 3.43534C8.53935 3.43534 8.5391 3.43536 8.53882 3.43538C8.53852 3.4354 8.53806 3.43544 8.5375 3.43549C8.53642 3.43558 8.53469 3.43573 8.53259 3.43594C8.52849 3.43635 8.5218 3.43712 8.51366 3.43856C8.49717 3.44147 8.47198 3.44755 8.44388 3.4616L8.66752 3.9088C8.64032 3.9224 8.61607 3.92822 8.60053 3.93096C8.58692 3.93336 8.57512 3.93406 8.57772 3.93386L8.53938 3.43534ZM8.44962 3.46038C8.4768 3.4468 8.50103 3.44098 8.51657 3.43824C8.53018 3.43584 8.54198 3.43514 8.53938 3.43534L8.57772 3.93386C8.57775 3.93386 8.578 3.93384 8.57828 3.93382C8.57858 3.9338 8.57904 3.93376 8.5796 3.93371C8.58068 3.93362 8.58241 3.93348 8.58451 3.93326C8.58861 3.93285 8.5953 3.93208 8.60344 3.93064C8.61993 3.92773 8.6451 3.92165 8.67318 3.90762L8.44962 3.46038ZM12 2.75C10.7489 2.75 9.55538 3.00101 8.46561 3.45308L8.65719 3.91492C9.68782 3.48739 10.8163 3.25 12 3.25V2.75ZM15.5344 3.45308C14.4446 3.00101 13.2511 2.75 12 2.75V3.25C13.1837 3.25 14.3122 3.48739 15.3428 3.91492L15.5344 3.45308ZM15.4606 3.43534C15.458 3.43514 15.4698 3.43584 15.4835 3.43825C15.499 3.44099 15.5232 3.4468 15.5504 3.46038L15.3268 3.90762C15.3549 3.92165 15.38 3.92772 15.3965 3.93064C15.4047 3.93207 15.4114 3.93284 15.4155 3.93326C15.4176 3.93347 15.4193 3.93362 15.4204 3.93371C15.421 3.93376 15.4214 3.9338 15.4217 3.93382C15.422 3.93384 15.4222 3.93386 15.4223 3.93386L15.4606 3.43534ZM15.5561 3.46158C15.528 3.44755 15.5028 3.44147 15.4864 3.43856C15.4782 3.43713 15.4715 3.43636 15.4674 3.43594C15.4653 3.43573 15.4636 3.43558 15.4625 3.43549C15.462 3.43544 15.4615 3.4354 15.4612 3.43538C15.4609 3.43536 15.4607 3.43534 15.4606 3.43534L15.4223 3.93386C15.4249 3.93406 15.4131 3.93336 15.3995 3.93095C15.3839 3.92821 15.3597 3.9224 15.3325 3.90882L15.5561 3.46158ZM15.5998 3.48916C15.5998 3.48916 15.5993 3.48878 15.5988 3.48836C15.5982 3.48791 15.5973 3.48719 15.5961 3.48632C15.5939 3.48463 15.5901 3.48187 15.5854 3.47866C15.5762 3.4725 15.5597 3.4621 15.5372 3.45309L15.3514 3.91731C15.3297 3.9086 15.3138 3.89862 15.3054 3.89292C15.2977 3.88769 15.2914 3.88269 15.293 3.88394L15.5998 3.48916ZM15.5413 3.45577C15.5631 3.46447 15.5789 3.47446 15.5874 3.48017C15.5952 3.48542 15.6014 3.49042 15.5999 3.48921L15.2929 3.88388C15.2929 3.8839 15.2934 3.88428 15.294 3.8847C15.2946 3.88517 15.2955 3.88589 15.2967 3.88677C15.2989 3.88846 15.3027 3.89123 15.3075 3.89445C15.3166 3.90063 15.3332 3.91103 15.3557 3.92003L15.5413 3.45577ZM18.5207 5.44597C17.6736 4.60319 16.6646 3.92366 15.5446 3.45712L15.3524 3.91868C16.4116 4.35994 17.3664 5.00281 18.1681 5.80043L18.5207 5.44597ZM18.4746 5.41033C18.4721 5.40895 18.4761 5.4111 18.4808 5.41405C18.4863 5.41745 18.4956 5.42361 18.5063 5.43272L18.1825 5.81368C18.196 5.82515 18.2083 5.83336 18.2168 5.83864C18.2245 5.84347 18.2316 5.84735 18.2323 5.8477L18.4746 5.41033ZM18.5361 5.45485C18.5063 5.42651 18.4747 5.41039 18.4745 5.41032L18.2323 5.84772C18.2352 5.84935 18.2298 5.84644 18.2234 5.84235C18.2161 5.83759 18.2044 5.82944 18.1917 5.81735L18.5361 5.45485ZM18.5916 5.5285C18.5913 5.52805 18.5855 5.5169 18.5776 5.50485C18.5688 5.49134 18.5554 5.47324 18.5361 5.45485L18.1917 5.81735C18.1758 5.80219 18.1651 5.78761 18.1587 5.77778C18.1532 5.76941 18.1495 5.76208 18.1513 5.76547L18.5916 5.5285ZM18.5711 5.49829C18.5793 5.50838 18.5849 5.51712 18.588 5.5224C18.5908 5.52696 18.5928 5.5308 18.5916 5.52848L18.1513 5.7655C18.1514 5.76562 18.1633 5.78917 18.1825 5.81291L18.5711 5.49829ZM20.5429 8.45536C20.0763 7.33543 19.3968 6.32638 18.554 5.47928L18.1996 5.83192C18.9972 6.63362 19.6401 7.58837 20.0813 8.64764L20.5429 8.45536ZM20.5062 8.39444C20.5029 8.39052 20.5328 8.42311 20.5493 8.47251L20.0749 8.63049C20.0838 8.65725 20.0956 8.6779 20.1052 8.6921C20.1098 8.69897 20.1139 8.70435 20.1165 8.70776C20.1179 8.70949 20.119 8.71088 20.1198 8.71177C20.1201 8.71223 20.1204 8.7126 20.1206 8.71284C20.1208 8.71307 20.121 8.71327 20.121 8.71329L20.5062 8.39444ZM20.547 8.46307C20.5375 8.4393 20.5263 8.42161 20.5187 8.4108C20.5149 8.40541 20.5116 8.40119 20.5096 8.39866C20.5085 8.39737 20.5077 8.39632 20.5072 8.39566C20.5069 8.39533 20.5067 8.39506 20.5065 8.39488C20.5064 8.39471 20.5063 8.39457 20.5062 8.39455L20.1209 8.71318C20.1223 8.71488 20.1162 8.70768 20.1099 8.69869C20.1027 8.68848 20.0918 8.67141 20.0826 8.64833L20.547 8.46307ZM20.5647 8.53953C20.5647 8.53949 20.5646 8.53859 20.5645 8.53755C20.5644 8.53643 20.5643 8.53468 20.5641 8.53255C20.5636 8.52839 20.5629 8.52168 20.5614 8.51352C20.5585 8.497 20.5524 8.47186 20.5384 8.44385L20.0912 8.66755C20.0777 8.64044 20.0718 8.61624 20.0691 8.60067C20.0666 8.58697 20.0659 8.57518 20.0661 8.57757L20.5647 8.53953ZM20.5396 8.4496C20.5532 8.47669 20.559 8.50087 20.5617 8.51643C20.5642 8.53013 20.5649 8.54192 20.5647 8.53953L20.0661 8.57757C20.0661 8.57761 20.0662 8.57851 20.0663 8.57955C20.0664 8.58067 20.0665 8.58242 20.0667 8.58455C20.0672 8.58871 20.0679 8.59541 20.0694 8.60357C20.0723 8.6201 20.0784 8.64521 20.0924 8.6732L20.5396 8.4496ZM21.25 12C21.25 10.7489 20.999 9.55538 20.5469 8.46561L20.0851 8.65719C20.5126 9.68782 20.75 10.8163 20.75 12H21.25ZM12 20.15C8.71412 20.15 5.87739 18.194 4.58894 15.3845L4.13446 15.5929C5.50101 18.5728 8.51068 20.65 12 20.65V20.15ZM19.4107 15.3845C18.1226 18.194 15.2856 20.15 12 20.15V20.65C15.489 20.65 18.499 18.5728 19.8653 15.5929L19.4107 15.3845ZM18.7182 15.3783L19.5423 15.7197L19.7337 15.2577L18.9096 14.9163L18.7182 15.3783ZM18.4205 14.6598C18.3047 14.9402 18.4373 15.2621 18.7183 15.3783L18.9095 14.9163C18.8845 14.9059 18.8719 14.8768 18.8827 14.8506L18.4205 14.6598ZM19.1392 14.3619C18.8603 14.2466 18.537 14.3777 18.4205 14.6598L18.8827 14.8506C18.8928 14.8261 18.9223 14.8132 18.9482 14.8239L19.1392 14.3619ZM19.9652 14.7039L19.1393 14.3619L18.9481 14.8239L19.774 15.1659L19.9652 14.7039ZM20.15 12C20.15 13.0014 19.9675 13.9605 19.6355 14.8472L20.1037 15.0226C20.4563 14.0811 20.65 13.0626 20.65 12H20.15ZM19.6358 9.1527C19.9675 10.0394 20.15 10.9986 20.15 12H20.65C20.65 10.9374 20.4563 9.91897 20.104 8.9775L19.6358 9.1527ZM19.1397 9.63835L19.9656 9.29605L19.7742 8.83415L18.9483 9.17645L19.1397 9.63835ZM18.9291 9.6802C18.9989 9.6802 19.0707 9.66708 19.14 9.63822L18.948 9.17658C18.9423 9.17892 18.9361 9.1802 18.9291 9.1802V9.6802ZM18.4208 9.34053C18.5087 9.55325 18.7143 9.6802 18.9291 9.6802V9.1802C18.9087 9.1802 18.8905 9.16795 18.883 9.14967L18.4208 9.34053ZM18.7186 8.62199C18.4376 8.73824 18.305 9.06049 18.4209 9.34067L18.8829 9.14953C18.8722 9.12371 18.8848 9.09436 18.9098 9.08401L18.7186 8.62199ZM19.5425 8.28036L18.7184 8.62206L18.91 9.08394L19.7341 8.74224L19.5425 8.28036ZM17.9613 6.45024C18.5535 7.08644 19.0449 7.81624 19.411 8.61542L19.8656 8.40718C19.4769 7.55876 18.9555 6.78436 18.3273 6.10956L17.9613 6.45024ZM17.6923 7.08548L18.3211 6.45668L17.9675 6.10312L17.3387 6.73192L17.6923 7.08548ZM17.3034 7.2466C17.444 7.2466 17.5851 7.19263 17.6923 7.08548L17.3387 6.73192C17.3289 6.74177 17.3164 6.7466 17.3034 6.7466V7.2466ZM16.9145 7.08548C17.0217 7.19264 17.1628 7.2466 17.3034 7.2466V6.7466C17.2904 6.7466 17.2779 6.74176 17.2681 6.73192L16.9145 7.08548ZM16.9145 6.30772C16.6996 6.52265 16.6996 6.87055 16.9145 7.08548L17.2681 6.73192C17.2484 6.71225 17.2484 6.68095 17.2681 6.66128L16.9145 6.30772ZM17.5433 5.67892L16.9145 6.30772L17.2681 6.66128L17.8969 6.03248L17.5433 5.67892ZM15.3845 4.58894C16.1835 4.95541 16.9136 5.44651 17.5498 6.03869L17.8904 5.67271C17.2156 5.04449 16.4409 4.52339 15.5929 4.13446L15.3845 4.58894ZM15.3783 5.28175L15.7197 4.45735L15.2577 4.26605L14.9163 5.09045L15.3783 5.28175ZM14.8701 5.6212C15.0849 5.6212 15.2905 5.49425 15.3784 5.28153L14.9162 5.09067C14.9087 5.10895 14.8905 5.1212 14.8701 5.1212V5.6212ZM14.6592 5.57922C14.7285 5.60808 14.8003 5.6212 14.8701 5.6212V5.1212C14.8631 5.1212 14.8569 5.11992 14.8512 5.11758L14.6592 5.57922ZM14.3618 4.86089C14.246 5.14127 14.3786 5.46316 14.6596 5.57941L14.8508 5.11739C14.8258 5.10704 14.8132 5.07793 14.824 5.05171L14.3618 4.86089ZM14.7042 4.03441L14.3619 4.86061L14.8239 5.05199L15.1662 4.22579L14.7042 4.03441ZM12.2912 3.85735C13.1877 3.88879 14.0473 4.0649 14.8476 4.36426L15.0228 3.89594C14.1725 3.5779 13.2597 3.39101 12.3088 3.35765L12.2912 3.85735ZM12.55 4.5V3.6075H12.05V4.5H12.55ZM12 5.05C12.304 5.05 12.55 4.80397 12.55 4.5H12.05C12.05 4.52783 12.0278 4.55 12 4.55V5.05ZM11.45 4.5C11.45 4.80397 11.696 5.05 12 5.05V4.55C11.9722 4.55 11.95 4.52783 11.95 4.5H11.45ZM11.45 3.6075V4.5H11.95V3.6075H11.45ZM9.15271 4.36425C9.9527 4.0649 10.8123 3.88879 11.7088 3.85735L11.6912 3.35765C10.7403 3.39101 9.8275 3.5779 8.97749 3.89595L9.15271 4.36425ZM9.63835 4.86028L9.29605 4.03438L8.83415 4.22582L9.17645 5.05172L9.63835 4.86028ZM9.34067 5.57911C9.62166 5.46286 9.75433 5.14061 9.63841 4.86043L9.17639 5.05157C9.18707 5.07739 9.17454 5.10674 9.14953 5.11709L9.34067 5.57911ZM9.1302 5.6209C9.19998 5.6209 9.27177 5.60778 9.34112 5.57892L9.14908 5.11728C9.14343 5.11962 9.13722 5.1209 9.1302 5.1209V5.6209ZM8.62193 5.28123C8.70978 5.49395 8.91542 5.6209 9.1302 5.6209V5.1209C9.10978 5.1209 9.09162 5.10865 9.08407 5.09037L8.62193 5.28123ZM8.28036 4.45745L8.62206 5.28155L9.08394 5.09005L8.74224 4.26595L8.28036 4.45745ZM6.45024 6.03869C7.08644 5.44646 7.81624 4.95511 8.61542 4.58898L8.40718 4.13442C7.55876 4.52309 6.78436 5.04454 6.10956 5.67271L6.45024 6.03869ZM7.08548 6.30772L6.45668 5.67892L6.10312 6.03248L6.73192 6.66128L7.08548 6.30772ZM7.08548 7.08548C7.30041 6.87055 7.30041 6.52265 7.08548 6.30772L6.73192 6.66128C6.75159 6.68095 6.75159 6.71225 6.73192 6.73192L7.08548 7.08548ZM6.6966 7.2466C6.83715 7.2466 6.97832 7.19264 7.08548 7.08548L6.73192 6.73192C6.72208 6.74177 6.70965 6.7466 6.6966 6.7466V7.2466ZM6.30772 7.08548C6.41488 7.19264 6.55605 7.2466 6.6966 7.2466V6.7466C6.68355 6.7466 6.67112 6.74177 6.66128 6.73192L6.30772 7.08548ZM5.67892 6.45668L6.30772 7.08548L6.66128 6.73192L6.03248 6.10312L5.67892 6.45668ZM4.58894 8.61552C4.95541 7.8165 5.44651 7.08638 6.03869 6.45024L5.67271 6.10956C5.04449 6.78442 4.52339 7.5591 4.13446 8.40708L4.58894 8.61552ZM5.28148 8.62174L4.45738 8.28033L4.26602 8.74227L5.09012 9.08367L5.28148 8.62174ZM5.57918 9.34022C5.69495 9.05983 5.56236 8.73794 5.28137 8.62169L5.09023 9.08371C5.11524 9.09406 5.12785 9.12317 5.11702 9.14938L5.57918 9.34022ZM5.0709 9.6799C5.28568 9.6799 5.49132 9.55295 5.57917 9.34023L5.11703 9.14937C5.10948 9.16765 5.09132 9.1799 5.0709 9.1799V9.6799ZM4.85998 9.63792C4.92933 9.66678 5.00112 9.6799 5.0709 9.6799V9.1799C5.06388 9.1799 5.05767 9.17863 5.05202 9.17628L4.85998 9.63792ZM4.03445 9.29608L4.86035 9.63808L5.05165 9.17612L4.22575 8.83412L4.03445 9.29608ZM3.85735 11.7088C3.88879 10.8123 4.0649 9.9527 4.36425 9.15271L3.89595 8.97749C3.5779 9.8275 3.39101 10.7403 3.35765 11.6912L3.85735 11.7088ZM4.5 11.45H3.6075V11.95H4.5V11.45ZM5.05 12C5.05 11.696 4.80397 11.45 4.5 11.45V11.95C4.52783 11.95 4.55 11.9722 4.55 12H5.05ZM4.5 12.55C4.80397 12.55 5.05 12.304 5.05 12H4.55C4.55 12.0278 4.52783 12.05 4.5 12.05V12.55ZM3.6075 12.55H4.5V12.05H3.6075V12.55ZM4.36425 14.8473C4.06492 14.0473 3.88908 13.1877 3.85734 12.2912L3.35766 12.3088C3.39132 13.2597 3.57788 14.1725 3.89595 15.0225L4.36425 14.8473ZM4.86028 14.3616L4.03438 14.7039L4.22582 15.1659L5.05172 14.8236L4.86028 14.3616ZM5.57918 14.6595C5.46286 14.3778 5.13923 14.2456 4.85994 14.3618L5.05206 14.8234C5.07697 14.813 5.10674 14.8254 5.11702 14.8503L5.57918 14.6595ZM5.28137 15.378C5.56236 15.2618 5.69503 14.9395 5.57911 14.6593L5.11709 14.8505C5.12777 14.8763 5.11524 14.9056 5.09023 14.916L5.28137 15.378ZM4.45745 15.7196L5.28155 15.3779L5.09005 14.9161L4.26595 15.2578L4.45745 15.7196ZM10.7328 14.4664L10.1594 16.2175L10.6346 16.3731L11.208 14.622L10.7328 14.4664ZM10.2377 13.0864C10.0274 13.7286 10.2945 14.4074 10.8354 14.7546L11.1054 14.3338C10.7485 14.1047 10.5763 13.6592 10.7129 13.242L10.2377 13.0864ZM11.7064 12.0948C11.0649 12.0548 10.448 12.4442 10.2377 13.0864L10.7129 13.242C10.8495 12.8247 11.2519 12.5674 11.6752 12.5938L11.7064 12.0948ZM13.0536 7.37928L11.4532 12.2665L11.9284 12.4221L13.5287 7.53488L13.0536 7.37928ZM13.7474 7.02775C13.4585 6.93316 13.1482 7.09041 13.0536 7.37928L13.5287 7.53488C13.5374 7.50844 13.5654 7.49426 13.5918 7.50292L13.7474 7.02775ZM14.099 7.7216C14.1935 7.43272 14.0363 7.12235 13.7474 7.02775L13.5918 7.50292C13.6183 7.51159 13.6324 7.53955 13.6238 7.566L14.099 7.7216ZM12.4986 12.6088L14.099 7.7216L13.6238 7.566L12.0234 12.4532L12.4986 12.6088ZM12.9937 13.9889C13.204 13.3466 12.9369 12.6678 12.396 12.3206L12.126 12.7414C12.4829 12.9705 12.6552 13.416 12.5185 13.8333L12.9937 13.9889ZM11.5251 14.9804C12.1665 15.0205 12.7834 14.6311 12.9937 13.9889L12.5185 13.8333C12.3819 14.2505 11.9795 14.5078 11.5562 14.4814L11.5251 14.9804ZM11.2048 16.5598L11.7782 14.8087L11.303 14.6531L10.7296 16.4042L11.2048 16.5598ZM10.5109 16.9113C10.7998 17.0059 11.1102 16.8487 11.2048 16.5598L10.7296 16.4042C10.721 16.4307 10.693 16.4448 10.6665 16.4362L10.5109 16.9113ZM10.1594 16.2175C10.0648 16.5064 10.2221 16.8167 10.5109 16.9113L10.6665 16.4362C10.6401 16.4275 10.6259 16.3995 10.6346 16.3731L10.1594 16.2175Z" fill="#2F3F50"/>
</svg>
