<svg width="25" height="25" viewBox="0 0 25 25" fill="none" xmlns="http://www.w3.org/2000/svg">
<path fill-rule="evenodd" clip-rule="evenodd" d="M3.25 6.5C3.25 5.67 3.92 5 4.75 5C5.58 5 6.25 5.67 6.25 6.5C6.25 7.33 5.58 8 4.75 8C3.92 8 3.25 7.33 3.25 6.5ZM3.25 12.5C3.25 11.67 3.92 11 4.75 11C5.58 11 6.25 11.67 6.25 12.5C6.25 13.33 5.58 14 4.75 14C3.92 14 3.25 13.33 3.25 12.5ZM4.75 17C3.92 17 3.25 17.68 3.25 18.5C3.25 19.32 3.93 20 4.75 20C5.57 20 6.25 19.32 6.25 18.5C6.25 17.68 5.58 17 4.75 17ZM8.75 19.5C8.19772 19.5 7.75 19.0523 7.75 18.5C7.75 17.9477 8.19772 17.5 8.75 17.5H20.75C21.3023 17.5 21.75 17.9477 21.75 18.5C21.75 19.0523 21.3023 19.5 20.75 19.5H8.75ZM7.75 12.5C7.75 13.0523 8.19772 13.5 8.75 13.5H20.75C21.3023 13.5 21.75 13.0523 21.75 12.5C21.75 11.9477 21.3023 11.5 20.75 11.5H8.75C8.19772 11.5 7.75 11.9477 7.75 12.5ZM7.75 6.5C7.75 5.94772 8.19772 5.5 8.75 5.5H20.75C21.3023 5.5 21.75 5.94772 21.75 6.5C21.75 7.05228 21.3023 7.5 20.75 7.5H8.75C8.19772 7.5 7.75 7.05228 7.75 6.5Z" fill="#3497DB"/>
</svg>
