<svg width="24" height="25" viewBox="0 0 24 25" fill="none" xmlns="http://www.w3.org/2000/svg">
<path fill-rule="evenodd" clip-rule="evenodd" d="M11.1558 4.57161C14.1127 4.06975 16.9835 6.26568 17.3251 9.28367C17.4601 10.4761 17.1459 11.562 16.5545 12.5963C16.1031 13.3863 15.543 14.0925 14.9667 14.7867L12.4953 17.7422C12.2189 18.0727 11.7604 18.0783 11.4695 17.7607L8.27446 14.0968C7.62888 13.3264 7.12609 12.4638 6.85446 11.4798C5.96544 8.25088 7.98326 5.11006 11.1558 4.57161ZM8.65239 9.94011C8.65239 11.8033 10.1512 13.3137 12 13.3137C13.8488 13.3137 15.3476 11.8031 15.3476 9.93994C15.3476 8.07674 13.8488 6.56633 12 6.56633C10.1512 6.56633 8.65239 8.07691 8.65239 9.94011ZM5.61477 14.9642C5.71502 14.6752 5.98529 14.4807 6.28947 14.4807H7.23528L7.27224 14.528C7.30666 14.5721 7.33542 14.6115 7.36293 14.6491L7.36294 14.6491C7.40065 14.7007 7.436 14.749 7.48036 14.802L8.45475 15.9195H6.79761L5.71682 19.0614H18.2832L17.2024 15.9195H15.404L15.7787 15.4714C16.0177 15.1832 16.2737 14.8623 16.527 14.5294L16.5639 14.4808H17.7109C18.015 14.4808 18.2853 14.6754 18.3856 14.9644L19.961 19.5452C20.0359 19.7648 20.0019 20.0081 19.8679 20.1979C19.734 20.3876 19.5166 20.5 19.2861 20.5H4.71392C4.48357 20.5 4.26603 20.3876 4.13206 20.1979C3.99812 20.0081 3.96397 19.765 4.03922 19.5452L5.61477 14.9642Z" fill="#3497DB"/>
</svg>
