<svg width="24" height="24" viewBox="0 0 24 24" fill="none" xmlns="http://www.w3.org/2000/svg">
<path fill-rule="evenodd" clip-rule="evenodd" d="M1.375 6.99512C1.375 6.09765 2.10254 5.37012 3 5.37012H13.375H14H14.625H17C18.4497 5.37012 19.625 6.54537 19.625 7.99512V10.3701H20C21.4497 10.3701 22.625 11.5454 22.625 12.9951V14.9951C22.625 15.8926 21.8975 16.6201 21 16.6201H20.5501C20.2697 17.7681 19.2344 18.6201 18 18.6201C16.7656 18.6201 15.7303 17.7681 15.4499 16.6201H14.625H14H13.375H8.55014C8.26975 17.7681 7.23437 18.6201 6 18.6201C4.76563 18.6201 3.73025 17.7681 3.44986 16.6201H3C2.10254 16.6201 1.375 15.8926 1.375 14.9951V6.99512ZM13.375 15.3701V11.6201V10.9951V10.3701V6.62012H3C2.79289 6.62012 2.625 6.78801 2.625 6.99512V14.9951C2.625 15.2022 2.79289 15.3701 3 15.3701H3.44986C3.73025 14.2221 4.76563 13.3701 6 13.3701C7.23437 13.3701 8.26975 14.2221 8.55014 15.3701H13.375ZM14.625 10.3701H18.375V7.99512C18.375 7.23573 17.7594 6.62012 17 6.62012H14.625V10.3701ZM14.625 15.3701H15.4499C15.7303 14.2221 16.7656 13.3701 18 13.3701C19.2344 13.3701 20.2697 14.2221 20.5501 15.3701H21C21.2071 15.3701 21.375 15.2022 21.375 14.9951V12.9951C21.375 12.2357 20.7594 11.6201 20 11.6201H19.625H14.625V15.3701ZM6 14.6201C5.24061 14.6201 4.625 15.2357 4.625 15.9951C4.625 16.7545 5.24061 17.3701 6 17.3701C6.75939 17.3701 7.375 16.7545 7.375 15.9951C7.375 15.2357 6.75939 14.6201 6 14.6201ZM18 14.6201C17.2406 14.6201 16.625 15.2357 16.625 15.9951C16.625 16.7545 17.2406 17.3701 18 17.3701C18.7594 17.3701 19.375 16.7545 19.375 15.9951C19.375 15.2357 18.7594 14.6201 18 14.6201Z" fill="#2F3F50"/>
</svg>
