<svg xmlns="http://www.w3.org/2000/svg" width="19" height="16">
    <path fill="#399ADC" fill-rule="evenodd" d="M18 9H6a1 1 0 0 1 0-2h12a1 1 0 0 1 0 2zm0-6H6a1 1 0 0 1 0-2h12a1 1 0 0 1 0 2zM1.672 15.997A1.683 1.683 0 0 1 .001 14.3c0-.937.747-1.697 1.671-1.697.923 0 1.671.76 1.671 1.697 0 .938-.748 1.697-1.671 1.697zm0-6.337c-.923 0-1.67-.759-1.67-1.696 0-.937.747-1.696 1.67-1.696.923 0 1.67.759 1.67 1.696 0 .937-.747 1.696-1.67 1.696zm0-6.266c-.923 0-1.67-.76-1.67-1.697S.749.002 1.672.002c.923 0 1.67.758 1.67 1.695s-.747 1.697-1.67 1.697zM6 13h12a1 1 0 0 1 0 2H6a1 1 0 0 1 0-2z"/>
</svg>
