<?xml version="1.0" encoding="utf-8"?>
<!-- Generator: Adobe Illustrator 25.4.0, SVG Export Plug-In . SVG Version: 6.00 Build 0)  -->
<svg version="1.1" id="Layer_1" xmlns="http://www.w3.org/2000/svg" xmlns:xlink="http://www.w3.org/1999/xlink" x="0px" y="0px"
	 viewBox="0 0 48 48" style="enable-background:new 0 0 48 48;" xml:space="preserve">
<style type="text/css">
	.st0{fill:#74BF61;}
</style>
<g>
	<path class="st0" d="M45.4,24c0,12.8-10.2,23.2-22.7,23.2S0,36.8,0,24S10.2,0.8,22.7,0.8c4.7,0,9.2,1.5,13.1,4.2
		c0.5,0.3,0.6,1,0.3,1.5c-0.3,0.5-1,0.6-1.5,0.2C31.1,4.2,27,2.8,22.7,2.8C11.3,2.8,2.1,12.4,2.1,24s9.2,21.2,20.6,21.2
		S43.3,35.6,43.3,24c0-0.6,0.5-1,1-1C45,23,45.4,23.4,45.4,24L45.4,24z M47.7,6.1c-0.4-0.4-1.1-0.4-1.5,0L24,28.9l-9.5-9.7
		c-0.4-0.4-1-0.4-1.5,0c-0.4,0.4-0.4,1,0,1.5l10.2,10.4c0.2,0.2,0.5,0.3,0.7,0.3c0.3,0,0.6-0.1,0.7-0.3l23-23.4
		C48.1,7.2,48.1,6.6,47.7,6.1L47.7,6.1z"/>
</g>
</svg>
