<svg width="94" height="94" xmlns="http://www.w3.org/2000/svg">
 <metadata>
 </metadata>
 <defs>
  <style>.cls-1 {
        fill: #32393c;
      }

      .cls-2 {
        fill: #028dbe;
      }

      .cls-3 {
        fill: #fff;
        fill-opacity: 0.86;
        fill-rule: evenodd;
      }

      .cls-4 {
        fill: #3c7190;
      }</style>
 </defs>
 <g>
  <title>background</title>
  <rect fill="none" id="canvas_background" height="96" width="96" y="-1" x="-1"/>
 </g>
 <g>
  <title>Layer 1</title>
  <rect ry="2" rx="2" height="8" width="24" y="31" x="34" class="cls-1" id="Rounded_Rectangle_520"/>
  <rect ry="2" rx="2" height="8" width="24" y="51" x="34" class="cls-1" id="Rounded_Rectangle_520_copy"/>
  <rect ry="2" rx="2" height="8" width="24" y="72" x="34" class="cls-1" id="Rounded_Rectangle_520_copy_2"/>
  <rect ry="2" rx="2" height="8" width="22" y="10" x="35" class="cls-1" id="Rounded_Rectangle_520_copy_3"/>
  <rect id="svg_1" height="3" width="14" y="23" x="39" class="cls-1"/>
  <path d="m40,6l12,0a3,3 0 0 1 3,3l0,14a0,0 0 0 1 0,0l-18,0a0,0 0 0 1 0,0l0,-14a3,3 0 0 1 3,-3z" class="cls-2" id="Rectangle_526_copy"/>
  <path d="m40,11l12,0a3,3 0 0 1 3,3l0,6l-2,0l0.045,-5l-14.03,0l-0.015,5l-2,0l0,-6a3,3 0 0 1 3,-3z" class="cls-3" id="Rounded_Rectangle_528"/>
  <rect ry="1" rx="1" height="62" width="20" y="25" x="36" class="cls-4" id="Rounded_Rectangle_529"/>
 </g>
</svg>