<?xml version="1.0" encoding="utf-8"?>
<!-- Generator: Adobe Illustrator 22.0.1, SVG Export Plug-In . SVG Version: 6.00 Build 0)  -->
<svg version="1.1" id="logo__DDM-1" xmlns="http://www.w3.org/2000/svg" xmlns:xlink="http://www.w3.org/1999/xlink" x="0px"
	 y="0px" width="376px" height="90px" viewBox="0 0 376 90" style="enable-background:new 0 0 376 90;" xml:space="preserve">
<style type="text/css">
	.st0{fill:url(#SVGID_1_);}
	.st1{fill:url(#SVGID_2_);}
	.st2{fill:url(#SVGID_3_);}
	.st3{fill:#8FB831;}
	.st4{fill:url(#SVGID_4_);}
	.st5{fill:url(#SVGID_5_);}
	.st6{fill:none;stroke:#939393;stroke-width:0.5;stroke-miterlimit:10;}
	.st7{fill:none;stroke:#939393;stroke-width:0.5;stroke-miterlimit:10;stroke-dasharray:3.0692,3.0692;}
</style>
<g>
	
		<linearGradient id="SVGID_1_" gradientUnits="userSpaceOnUse" x1="10.4" y1="65.6387" x2="85.2026" y2="65.6387" gradientTransform="matrix(1 0 0 -1 0 88)">
		<stop  offset="3.565705e-03" style="stop-color:#033E61"/>
		<stop  offset="1" style="stop-color:#0197F0"/>
	</linearGradient>
	<path class="st0" d="M10.4,40.4c0,0,20.8-17,74.8-18.6C85.4,22,74.1,1.3,45.3,4.7C17,9,10.4,40.4,10.4,40.4z"/>
	
		<linearGradient id="SVGID_2_" gradientUnits="userSpaceOnUse" x1="4.7" y1="30.3778" x2="68.8" y2="30.3778" gradientTransform="matrix(1 0 0 -1 0 88)">
		<stop  offset="1.782853e-03" style="stop-color:#749628"/>
		<stop  offset="1" style="stop-color:#B4E83D"/>
	</linearGradient>
	<path class="st1" d="M64.5,27.6c0,0-24.9,8.3-25.6,24.3C37.7,78.3,68.8,84,68.8,84s-18,8.2-34.9,0c-16.3-8.1-21.8-23.7-22.1-23.5
		c-7,4.6,0,7.1,0,7.1s-7.1-0.1-7.1-4.3C5.5,43.5,64.5,27.6,64.5,27.6z"/>
	
		<linearGradient id="SVGID_3_" gradientUnits="userSpaceOnUse" x1="48.8395" y1="39.4" x2="93.8395" y2="39.4" gradientTransform="matrix(1 0 0 -1 0 88)">
		<stop  offset="1.782853e-03" style="stop-color:#749628"/>
		<stop  offset="1" style="stop-color:#B4E83D"/>
	</linearGradient>
	<path class="st2" d="M93.9,23.6c0,0-43.8,6.7-45,26.4c0.7,21.9,35.2,23.6,35.2,23.6s16.6-19.9,3.5-45.1
		C84.4,26.6,93.9,23.6,93.9,23.6L93.9,23.6z"/>
	<g>
		<g>
			<path class="st3" d="M111.7,66.5V30.2h10.1v27.5h17.6v8.8H111.7z"/>
			<path class="st3" d="M155.7,67.2c-4.4,0-8.1-1.4-11.1-4.3c-2.9-2.9-4.4-6.3-4.4-10.4c0-4,1.5-7.5,4.4-10.4
				c3-2.9,6.7-4.3,11.1-4.3c4.4,0,8.1,1.4,11.1,4.3c2.9,2.9,4.4,6.3,4.4,10.4c0,4-1.5,7.5-4.4,10.4
				C163.8,65.8,160.1,67.2,155.7,67.2z M155.8,58.8c1.8,0,3.2-0.6,4.3-1.8c1.1-1.2,1.6-2.7,1.6-4.5c0-1.7-0.6-3.2-1.7-4.5
				c-1.1-1.2-2.6-1.9-4.3-1.9c-1.8,0-3.2,0.6-4.3,1.8c-1.1,1.2-1.6,2.7-1.6,4.5c0,1.7,0.6,3.2,1.7,4.5
				C152.6,58.2,154.1,58.8,155.8,58.8z"/>
			<path class="st3" d="M187.9,74.9c-5.2,0-9.9-1.1-14.1-3.2l3.2-6.5c3.2,1.8,6.5,2.6,9.8,2.6c4.9,0,7.4-2.3,7.4-6.9v-1.1
				c-2.4,2.8-5.3,4.2-8.7,4.2c-3.6,0-6.5-1.2-8.9-3.6s-3.6-5.6-3.6-9.5s1.2-7.1,3.6-9.5c2.4-2.4,5.2-3.6,8.6-3.6
				c3.4,0,6.3,1.3,8.8,3.9v-3.3h9.9v21.3c0,5.1-1.2,8.8-3.6,11.2C197.6,73.6,193.5,74.9,187.9,74.9z M188.5,56.5
				c1.7,0,3-0.5,4.1-1.6c1.1-1,1.6-2.4,1.6-4s-0.5-2.8-1.6-3.9c-1.1-1-2.4-1.5-4.1-1.5c-1.7,0-3.1,0.5-4.2,1.6c-1.1,1-1.6,2.4-1.6,4
				s0.5,2.8,1.6,3.9C185.4,55.9,186.8,56.5,188.5,56.5z"/>
			<path class="st3" d="M273.8,66.5V30.2H303v8.6h-19.3v5.5h17.4v7.9h-17.4V58h19.5v8.6L273.8,66.5L273.8,66.5z"/>
			<path class="st3" d="M307.1,66.5V30.2h10.1v27.5h17.6v8.8H307.1z"/>
			<path class="st3" d="M337.8,66.5V30.2h14c6.4,0,11.4,1.7,15,5c3.7,3.3,5.5,7.7,5.5,13.1s-1.9,9.7-5.6,13.2
				c-3.7,3.4-8.8,5.1-15.2,5.1L337.8,66.5L337.8,66.5z M347.9,57.6h4.1c3,0,5.5-0.8,7.3-2.4s2.7-3.9,2.7-6.9c0-2.9-0.9-5.1-2.7-6.8
				c-1.8-1.7-4.2-2.5-7.3-2.5h-4.1V57.6z"/>
		</g>
		<g>
			
				<linearGradient id="SVGID_4_" gradientUnits="userSpaceOnUse" x1="203.4033" y1="46.3742" x2="226.7259" y2="32.9089" gradientTransform="matrix(1 0 0 -1 0 88)">
				<stop  offset="3.565705e-03" style="stop-color:#033E61"/>
				<stop  offset="1" style="stop-color:#0197F0"/>
			</linearGradient>
			<path class="st4" d="M210,66.5V30.2h10.1v36.3H210z"/>
			
				<linearGradient id="SVGID_5_" gradientUnits="userSpaceOnUse" x1="220.8908" y1="53.4539" x2="252.3592" y2="35.2857" gradientTransform="matrix(1 0 0 -1 0 88)">
				<stop  offset="3.565705e-03" style="stop-color:#033E61"/>
				<stop  offset="1" style="stop-color:#0197F0"/>
			</linearGradient>
			<path class="st5" d="M234.3,66.5V39h-10.9v-8.8h31.9V39h-10.9v27.5H234.3z"/>
		</g>
	</g>
	<g>
		<g>
			<path class="st6" d="M65.9,28.5c-0.4,0.2-0.9,0.5-1.3,0.7"/>
			<path class="st7" d="M61.9,30.8c-41.5,24.5-1,45.6,11.6,48.6"/>
			<path class="st6" d="M74.9,79.7c0.7,0.1,1.2,0.1,1.5,0"/>
		</g>
	</g>
</g>
</svg>
