<svg xmlns="http://www.w3.org/2000/svg" xmlns:xlink="http://www.w3.org/1999/xlink" viewBox="0 0 550.15 145"><defs><linearGradient id="a" x1="225.68" y1="-47.36" x2="258.59" y2="331.91" gradientUnits="userSpaceOnUse"><stop offset="0" stop-color="#fff"/><stop offset="0.04" stop-color="#e3e5e8"/><stop offset="0.11" stop-color="#aab2bb"/><stop offset="0.19" stop-color="#7e8a98"/><stop offset="0.25" stop-color="#5e6d7e"/><stop offset="0.31" stop-color="#4a5b6f"/><stop offset="0.34" stop-color="#435569"/><stop offset="0.39" stop-color="#3f5165"/><stop offset="0.55" stop-color="#384b60"/><stop offset="1" stop-color="#36495e"/></linearGradient><linearGradient id="b" x1="19.78" y1="13.28" x2="57.66" y2="78.89" gradientUnits="userSpaceOnUse"><stop offset="0" stop-color="#3498db" stop-opacity="0.7"/><stop offset="0.49" stop-color="#3498db" stop-opacity="0.95"/><stop offset="1" stop-color="#3481db"/></linearGradient><linearGradient id="c" x1="179.57" y1="21.54" x2="216.25" y2="85.09" xlink:href="#b"/><linearGradient id="d" x1="273.4" y1="17.95" x2="308.79" y2="79.24" xlink:href="#b"/><linearGradient id="e" x1="372.27" y1="17.23" x2="409.53" y2="81.77" xlink:href="#b"/><linearGradient id="f" x1="446.82" y1="16.53" x2="484.25" y2="81.36" xlink:href="#b"/><linearGradient id="g" x1="529.93" y1="11.25" x2="539.3" y2="27.48" xlink:href="#b"/><linearGradient id="h" x1="527.65" y1="5.71" x2="542.65" y2="31.68" xlink:href="#b"/></defs><title>Ezlogz new_logo without text</title><polyline points="24.42 66.25 25.86 58.05 62.94 58.05 75.9 44.38 28.29 44.38 29.55 37.17 68.52 37.17 83.37 21.52 13.71 21.52 3 81.72 60.96 81.72 75.72 66.25 24.42 66.25" fill="#36495e"/><polyline points="198.42 66.25 206.34 21.52 187.8 21.52 177.09 81.72 230.28 81.72 245.13 66.25 198.42 66.25" fill="#36495e"/><path d="M291.29,67.06q-12.07.18-17.64-2.21t-5.49-9.49q-.14-7.68,2-11.86t8.4-5.79q6.22-1.6,18.18-1.53Q309,36,314.53,38.38t5.47,9.5q.15,7.62-2.06,11.82t-8.44,5.81q-6.24,1.62-18.21,1.55m8.28-46.53q-25.27,0-37.72,9T249.44,57.15q0,13.07,9.82,19.33t29.33,6.23q25.29,0,37.72-9.08T338.72,46q0-13.05-9.82-19.28T299.57,20.53Z" fill="#36495e" fill-rule="evenodd"/><path d="M372.37,57.51H403.6l-1.53,8.74H379.21q-7.05-.07-11.17-3.37a11.12,11.12,0,0,1-4.22-9,14.48,14.48,0,0,1,2.86-8.62,19,19,0,0,1,7.42-5.92,24.4,24.4,0,0,1,10.24-2.2h31.05l14.85-15.65H387.13A51.79,51.79,0,0,0,366,25.84a37.6,37.6,0,0,0-15.08,11.8,29.32,29.32,0,0,0-5.75,17.53,24.83,24.83,0,0,0,3.94,13.65,26.66,26.66,0,0,0,10.9,9.4,37.93,37.93,0,0,0,16.48,3.5h41.31l6.66-37.61H386l-13.59,13.4" fill="#36495e"/><path d="M505.77,66.25H484q-4.83,0-9.77,0c-3.3,0-6.24.08-8.81.14s-4.4.11-5.45.17q1.82-1.11,6-3.93t12.51-8.59l25.38-17.64a14.48,14.48,0,0,0,4-3.87,8.34,8.34,0,0,0,1.5-4.68,5.88,5.88,0,0,0-2.15-4.74,8.42,8.42,0,0,0-5.32-1.64H446.37L431.7,37.17h24.12q8.83,0,13.63-.08c3.2-.05,5.58-.15,7.16-.28-1.21.7-3.25,2-6.1,3.9s-7.09,4.81-12.71,8.7L432.87,66.7a15.53,15.53,0,0,0-4,4,8.28,8.28,0,0,0-1.54,4.68A5.84,5.84,0,0,0,429.47,80a8.33,8.33,0,0,0,5.29,1.68h57.06l13.95-15.47" fill="#36495e"/><polyline points="21.42 63.25 22.86 55.05 59.94 55.05 72.9 41.38 25.29 41.38 26.55 34.17 65.52 34.17 80.37 18.52 10.71 18.52 0 78.72 57.96 78.72 72.72 63.25 21.42 63.25" fill="#fff"/><polyline points="195.42 63.25 203.34 18.52 184.8 18.52 174.09 78.72 227.28 78.72 242.13 63.25 195.42 63.25" fill="#fff"/><path d="M288.29,64.06q-12.07.18-17.64-2.21t-5.49-9.49q-.14-7.68,2-11.86t8.4-5.79q6.22-1.6,18.18-1.53Q306,33,311.53,35.38t5.47,9.5q.15,7.62-2.06,11.82t-8.44,5.81q-6.24,1.62-18.21,1.55m8.28-46.53q-25.27,0-37.72,9T246.44,54.15q0,13.07,9.82,19.33t29.33,6.23q25.29,0,37.72-9.08T335.72,43q0-13.05-9.82-19.28T296.57,17.53Z" fill="#fff" fill-rule="evenodd"/><path d="M369.37,54.51H400.6l-1.53,8.74H376.21q-7.05-.07-11.17-3.37a11.12,11.12,0,0,1-4.22-9,14.48,14.48,0,0,1,2.86-8.62,19,19,0,0,1,7.42-5.92,24.4,24.4,0,0,1,10.24-2.2h31.05l14.85-15.65H384.13A51.79,51.79,0,0,0,363,22.84a37.6,37.6,0,0,0-15.08,11.8,29.32,29.32,0,0,0-5.75,17.53,24.83,24.83,0,0,0,3.94,13.65,26.66,26.66,0,0,0,10.9,9.4,37.93,37.93,0,0,0,16.48,3.5h41.31l6.66-37.61H383l-13.59,13.4" fill="#fff"/><path d="M502.77,63.25H481q-4.83,0-9.77,0c-3.3,0-6.24.08-8.81.14s-4.4.11-5.45.17q1.82-1.11,6-3.93t12.51-8.59l25.38-17.64a14.48,14.48,0,0,0,4-3.87,8.34,8.34,0,0,0,1.5-4.68,5.88,5.88,0,0,0-2.15-4.74,8.42,8.42,0,0,0-5.32-1.64H443.37L428.7,34.17h24.12q8.83,0,13.63-.08c3.2-.05,5.58-.15,7.16-.28-1.21.7-3.25,2-6.1,3.9s-7.09,4.81-12.71,8.7L429.87,63.7a15.53,15.53,0,0,0-4,4,8.28,8.28,0,0,0-1.54,4.68A5.84,5.84,0,0,0,426.47,77a8.33,8.33,0,0,0,5.29,1.68h57.06l13.95-15.47" fill="#fff"/><path d="M122.8,0c-14.93,20.09,9.91,17.15,26.52,16.3,10.74-.56,44.86-3.36,21.73,14.37-9.42,7.23-67.74,55-76.37,66.47-5.45,7.27,1.92,10.86,13.1,10.54,20.95-.6,126.86-8.3,201.63-11.82,48.72-2.29,115.67-4.15,161.69,3.51C401.94,103.23,58,148.75,24.39,144.75c-13.42-1.6-20.46-7.26-11.83-21.41C24.07,104.49,48.39,91.51,60.81,84c9.36-5.64,78.29-46.2,78.29-51.77,0-12.7-64.87,15.66-33.55-17.89,2.81-3,13.52-12.64,17.25-14.38" fill="url(#a)"/><path d="M66.8,127.49c-16.57,0-20.32-1.42-21.7-2.5a4.53,4.53,0,0,1-1.83-3.12l2.26-.27a2.3,2.3,0,0,0,1,1.6c1,.76,4.9,2,20.31,2h.88v2.26Zm11.93-.19L78.66,125c7.22-.22,15.61-.61,25-1.18l.13,2.26C94.39,126.68,86,127.08,78.73,127.3Zm36-1.9-.16-2.26c7.81-.54,16.2-1.17,25-1.9l.18,2.26C131,124.23,122.57,124.87,114.76,125.4Zm36-2.83-.2-2.26c8.25-.72,16.63-1.5,24.91-2.32l.22,2.26C167.35,121.06,159,121.84,150.71,122.57Zm35.89-3.43-.24-2.25c6.47-.67,12.34-1.31,17.47-1.91l7.42-.82.24,2.26c-2.66.28-5.13.56-7.39.82C199,117.83,193.07,118.47,186.6,119.14Zm35.85-3.86-.23-2.25c7.32-.74,15.71-1.55,24.93-2.4l.21,2.26C238.15,113.74,229.77,114.55,222.45,115.28ZM50.29,113.05l-1.68-1.51c3.91-4.37,10.09-9.83,18.89-16.71l1.4,1.79C60.2,103.41,54.12,108.79,50.29,113.05Zm208-1.17-.2-2.25c8.11-.74,16.51-1.48,24.94-2.21l.19,2.26C274.84,110.41,266.44,111.15,258.33,111.88Zm35.91-3.15-.19-2.26c8.49-.73,16.89-1.43,24.95-2.1l.19,2.26C311.13,107.3,302.73,108,294.24,108.73Zm35.93-3-.18-2.26c9.11-.74,17.57-1.42,25-2l.17,2.26C347.74,104.31,339.28,105,330.17,105.73Zm35.95-2.83-.17-2.26c6.34-.47,11.29-.82,14.33-1s6.6-.35,10.72-.5l.09,2.26c-4.11.16-7.7.33-10.67.5S372.45,102.43,366.12,102.9Zm36-1.85L402,98.78c7.28-.2,15.71-.37,25-.51l0,2.27C417.79,100.68,409.37,100.85,402.09,101.05Zm36-.66,0-2.27c8.84-.1,8.84-.1,9.19.25l-1.6,1.61.8-.8v1.13C446.36,100.31,443.16,100.33,438.12,100.39ZM77.64,90l-1.36-1.81c6.77-5,14-10.28,20.28-14.73l1.32,1.84C91.66,79.7,84.39,84.92,77.64,90Zm29.22-21.09L105.54,67c7.34-5.23,13.94-9.94,20.32-14.6l1.34,1.83C120.81,58.91,114.21,63.63,106.86,68.86Zm29.2-21.2-1.36-1.81C143,39.57,149.34,34.42,154,30.11l1.53,1.67C150.82,36.14,144.44,41.33,136.06,47.66ZM156.4,24.54c-2.86-.81-8.08-1.21-16-1.21-2.5,0-5.32,0-8.61.12l-.06-2.27c3.32-.08,6.15-.12,8.67-.12,8.1,0,13.53.43,16.59,1.3Zm-43.29-.61a19.32,19.32,0,0,1-5-.37c-2-.67-2.45-1.85-2.45-2.72,0-1.76,1.75-3.51,3.78-5.53a27.52,27.52,0,0,0,2.67-2.93l1.84,1.34A30,30,0,0,1,111,16.91c-1.31,1.31-3.11,3.11-3.11,3.93,0,.17.35.39.89.57a18.26,18.26,0,0,0,4.33.25c2.21,0,5-.07,7.65-.15l.06,2.26C118.14,23.86,115.35,23.93,113.11,23.93Z" fill="#fff"/><polyline points="21.42 63.25 22.86 55.05 59.94 55.05 72.9 41.38 25.29 41.38 26.55 34.17 65.52 34.17 80.37 18.52 10.71 18.52 0 78.72 57.96 78.72 72.72 63.25 21.42 63.25" fill="url(#b)"/><polyline points="195.42 63.25 203.34 18.52 184.8 18.52 174.09 78.72 227.28 78.72 242.13 63.25 195.42 63.25" fill="url(#c)"/><path d="M288.29,64.06q-12.07.18-17.64-2.21t-5.49-9.49q-.14-7.68,2-11.86t8.4-5.79q6.22-1.6,18.18-1.53Q306,33,311.53,35.38t5.47,9.5q.15,7.62-2.06,11.82t-8.44,5.81q-6.24,1.62-18.21,1.55m8.28-46.53q-25.27,0-37.72,9T246.44,54.15q0,13.07,9.82,19.33t29.33,6.23q25.29,0,37.72-9.08T335.72,43q0-13.05-9.82-19.28T296.57,17.53Z" fill-rule="evenodd" fill="url(#d)"/><path d="M369.37,54.51H400.6l-1.53,8.74H376.21q-7.05-.07-11.17-3.37a11.12,11.12,0,0,1-4.22-9,14.48,14.48,0,0,1,2.86-8.62,19,19,0,0,1,7.42-5.92,24.4,24.4,0,0,1,10.24-2.2h31.05l14.85-15.65H384.13A51.79,51.79,0,0,0,363,22.84a37.6,37.6,0,0,0-15.08,11.8,29.32,29.32,0,0,0-5.75,17.53,24.83,24.83,0,0,0,3.94,13.65,26.66,26.66,0,0,0,10.9,9.4,37.93,37.93,0,0,0,16.48,3.5h41.31l6.66-37.61H383l-13.59,13.4" fill="url(#e)"/><path d="M502.77,63.25H481q-4.83,0-9.77,0c-3.3,0-6.24.08-8.81.14s-4.4.11-5.45.17q1.82-1.11,6-3.93t12.51-8.59l25.38-17.64a14.48,14.48,0,0,0,4-3.87,8.34,8.34,0,0,0,1.5-4.68,5.88,5.88,0,0,0-2.15-4.74,8.42,8.42,0,0,0-5.32-1.64H443.37L428.7,34.17h24.12q8.83,0,13.63-.08c3.2-.05,5.58-.15,7.16-.28-1.21.7-3.25,2-6.1,3.9s-7.09,4.81-12.71,8.7L429.87,63.7a15.53,15.53,0,0,0-4,4,8.28,8.28,0,0,0-1.54,4.68A5.84,5.84,0,0,0,426.47,77a8.33,8.33,0,0,0,5.29,1.68h57.06l13.95-15.47" fill="url(#f)"/><path d="M535.23,20.85h-2.45v5.46H529.7V11.38h5.55a6.32,6.32,0,0,1,4.08,1.18,4.08,4.08,0,0,1,1.44,3.34,4.21,4.21,0,0,1-2.67,4.17l3.23,6.1v.14H538Zm-2.45-2.49h2.48a2.54,2.54,0,0,0,1.79-.59,2.11,2.11,0,0,0,.64-1.63,2.25,2.25,0,0,0-.6-1.66,2.5,2.5,0,0,0-1.84-.6h-2.47Z" fill="url(#g)"/><path d="M535.15,33.7a15,15,0,1,1,15-15A15,15,0,0,1,535.15,33.7Zm0-27a12,12,0,1,0,12,12A12,12,0,0,0,535.15,6.7Z" fill="url(#h)"/></svg>