<svg xmlns="http://www.w3.org/2000/svg" width="20" height="20">
    <path fill="#778997" fill-rule="evenodd" d="M10 19.999c-5.515 0-10.001-4.486-10.001-10s4.486-10 10.001-10c5.514 0 10.001 4.486 10.001 10s-4.487 10-10.001 10zm.648-18.68v.834a.648.648 0 1 1-1.296 0v-.834c-4.285.317-7.717 3.748-8.033 8.033h.834a.648.648 0 1 1 0 1.295h-.834c.316 4.284 3.748 7.716 8.033 8.033v-.835a.648.648 0 0 1 1.296 0v.835c4.285-.317 7.716-3.749 8.033-8.033h-.835a.648.648 0 0 1 0-1.295h.835a8.718 8.718 0 0 0-8.033-8.033zm1.558 10.565l-.007.014-.015.03-.015.025-.017.026-.021.029-.015.02a.657.657 0 0 1-.088.087l-.019.015a.554.554 0 0 1-.029.022l-.026.016-.026.015-.029.015-.015.007-5.926 2.694a.65.65 0 0 1-.726-.132.646.646 0 0 1-.132-.725l2.694-5.927.007-.014.015-.03.015-.025.017-.026c.006-.01.014-.02.021-.029l.015-.02a.603.603 0 0 1 .088-.087l.019-.015a.554.554 0 0 1 .055-.038l.026-.015a.773.773 0 0 1 .029-.015l.015-.008L14.042 5.1a.649.649 0 0 1 .858.857l-2.694 5.927zm-5.212 1.121l3.503-1.592-1.911-1.911-1.592 3.503zm2.509-4.419l1.91 1.911 1.593-3.503-3.503 1.592z"/>
</svg>
