<svg xmlns="http://www.w3.org/2000/svg" width="20" height="25">
    <path fill="#778997" fill-rule="evenodd" d="M19.822 11.902a9.727 9.727 0 0 1-.737 2.312c-1.077 2.542-3.45 6.446-8.641 10.629a.705.705 0 0 1-.888 0C4.36 20.66 1.992 16.756.915 14.214a9.832 9.832 0 0 1-.737-2.312A9.897 9.897 0 0 1 0 10.021C0 4.497 4.485 0 9.995 0 15.504 0 19.989 4.497 20 10.021c0 .629-.063 1.263-.178 1.881zM9.995 1.41c-4.731 0-8.584 3.862-8.584 8.606 0 .55.053 1.095.157 1.635 0 .016.005.026.005.037.006.026.016.104.048.225v.01c.135.587.329 1.164.58 1.709.005.005.005.016.01.021.978 2.322 3.121 5.865 7.784 9.728 4.663-3.863 6.806-7.406 7.783-9.728.006-.005.006-.016.011-.021a8.36 8.36 0 0 0 .58-1.709v-.01a14 14 0 0 0 .047-.225c0-.011.005-.021.005-.032a8.513 8.513 0 0 0 .157-1.64c0-4.744-3.852-8.606-8.583-8.606zm0 15.084c-3.497 0-6.346-2.857-6.346-6.363 0-3.506 2.849-6.363 6.346-6.363s6.346 2.857 6.346 6.363c0 3.506-2.849 6.363-6.346 6.363zm0-11.31c-2.718 0-4.935 2.222-4.935 4.947s2.211 4.948 4.935 4.948c2.723 0 4.934-2.223 4.934-4.948 0-2.725-2.216-4.947-4.934-4.947z"/>
</svg>
