<svg xmlns="http://www.w3.org/2000/svg" width="20" height="20">
    <path fill="#778997" fill-rule="evenodd" d="M19.202 13.884c-1.055 2.46-2.847 4.26-5.326 5.317A9.815 9.815 0 0 1 9.984 20a9.712 9.712 0 0 1-3.882-.799c-2.458-1.055-4.258-2.853-5.315-5.317A9.797 9.797 0 0 1 0 9.989c0-1.357.258-2.65.787-3.884C1.844 3.641 3.643 1.854 6.102.799A9.726 9.726 0 0 1 9.984 0a9.82 9.82 0 0 1 3.893.799c2.478 1.057 4.27 2.846 5.325 5.306A9.734 9.734 0 0 1 20 9.989a9.787 9.787 0 0 1-.798 3.895zm-1.597-8.293a8.795 8.795 0 0 0-3.215-3.206 8.61 8.61 0 0 0-4.406-1.181 8.54 8.54 0 0 0-4.396 1.181 8.788 8.788 0 0 0-3.204 3.206 8.61 8.61 0 0 0-1.17 4.398c0 1.193.225 2.343.689 3.425.465 1.085 1.088 2.029 1.87 2.812.782.782 1.716 1.4 2.799 1.87a8.459 8.459 0 0 0 3.412.701c1.585 0 3.06-.397 4.406-1.182a8.772 8.772 0 0 0 3.215-3.206 8.63 8.63 0 0 0 1.181-4.42 8.557 8.557 0 0 0-1.181-4.398zm-4.767 8.249l-3.27-3.271a.572.572 0 0 1-.164-.492c0-.033-.022-.077-.022-.088V4.234c0-.339.285-.613.602-.613.339 0 .634.274.634.613v5.667l3.062 3.086a.59.59 0 0 1 0 .853.622.622 0 0 1-.842 0z"/>
</svg>
