<svg xmlns="http://www.w3.org/2000/svg" width="20.67" height="20.67" viewBox="0 0 20.67 20.67"><title>icon-2</title><path d="M21.86,6.14A1.74,1.74,0,1,1,23.6,4.4,1.73,1.73,0,0,1,21.86,6.14Zm0-2.58a.84.84,0,1,0,.85.84A.85.85,0,0,0,21.86,3.56Z" transform="translate(-2.93 -2.67)" fill="#80919e"/><path d="M4.67,16A1.74,1.74,0,1,1,6.4,14.29,1.73,1.73,0,0,1,4.67,16Zm0-2.57a.84.84,0,1,0,.84.84A.84.84,0,0,0,4.67,13.45Z" transform="translate(-2.93 -2.67)" fill="#80919e"/><path d="M9.82,10.87a1.74,1.74,0,1,1,1.74-1.74A1.73,1.73,0,0,1,9.82,10.87Zm0-2.58a.85.85,0,1,0,.85.84A.85.85,0,0,0,9.82,8.29Z" transform="translate(-2.93 -2.67)" fill="#80919e"/><path d="M13.48,14.52a1.74,1.74,0,1,1,1.73-1.73A1.73,1.73,0,0,1,13.48,14.52Zm0-2.58a.85.85,0,1,0,.84.85A.85.85,0,0,0,13.48,11.94Z" transform="translate(-2.93 -2.67)" fill="#80919e"/><rect x="13.03" y="8.14" width="9.28" height="0.89" transform="translate(-3.82 12.36) rotate(-45.06)" fill="#80919e"/><rect x="11.21" y="9.66" width="0.89" height="2.59" transform="translate(-7.27 8.81) rotate(-45.11)" fill="#80919e"/><rect x="4.89" y="11.26" width="4.71" height="0.89" transform="translate(-9.09 5.89) rotate(-45)" fill="#80919e"/><rect x="0.01" y="19.78" width="20.64" height="0.89" fill="#80919e"/><rect x="18.49" y="7.32" width="0.89" height="12.9" fill="#80919e"/><rect x="10.32" y="13.78" width="0.89" height="6.45" fill="#80919e"/><rect x="1.29" y="15.06" width="0.89" height="5.16" fill="#80919e"/><rect x="6.45" y="11.19" width="0.89" height="9.03" fill="#80919e"/></svg>