<?xml version="1.0" encoding="utf-8"?>
<!-- Generator: Adobe Illustrator 22.0.1, SVG Export Plug-In . SVG Version: 6.00 Build 0)  -->
<svg version="1.1" id="icon-5" xmlns="http://www.w3.org/2000/svg" xmlns:xlink="http://www.w3.org/1999/xlink" x="0px" y="0px"
	 width="26px" height="26px" viewBox="0 0 26 26" style="enable-background:new 0 0 26 26;" xml:space="preserve">
<style type="text/css">
	.st0{fill:#FFFFFF;stroke:#80919E;}
	.st1{fill:none;stroke:#80919E;}
</style>
<path id="Rounded_Rectangle_1343_copy" class="st0" d="M6,18h2c0.6,0,1,0.4,1,1v4c0,0.6-0.4,1-1,1H6c-0.6,0-1-0.4-1-1v-4
	C5,18.4,5.4,18,6,18z"/>
<path id="Rounded_Rectangle_1343_copy_2" class="st0" d="M18,18h2c0.6,0,1,0.4,1,1v4c0,0.6-0.4,1-1,1h-2c-0.6,0-1-0.4-1-1v-4
	C17,18.4,17.4,18,18,18z"/>
<path id="Rounded_Rectangle_1343" class="st1" d="M6,3h14c1.1,0,2,0.9,2,2v12c0,1.1-0.9,2-2,2H6c-1.1,0-2-0.9-2-2V5C4,3.9,4.9,3,6,3
	z"/>
<path id="Rounded_Rectangle_1350" class="st0" d="M8.5,13h0.6c0.8,0,1.5,0.7,1.5,1.5S9.9,16,9.1,16H8.5C7.7,16,7,15.3,7,14.5
	S7.7,13,8.5,13z"/>
<path id="Rounded_Rectangle_1350_copy" class="st0" d="M16.8,13h0.7c0.8,0,1.5,0.7,1.5,1.5S18.3,16,17.5,16h-0.7
	c-0.8,0-1.5-0.7-1.5-1.5S16,13,16.8,13z"/>
<path class="st0" d="M5,10.2V10h16v0.2H5z"/>
<path id="Shape_1345_copy" class="st0" d="M13,10L13,10l-0.1-7H13V10z M13.1,10L13.1,10L13,3h0.1V10z"/>
<path id="Rounded_Rectangle_1343_copy_3" class="st0" d="M4,17.8h18c0.6,0,1,0.4,1,0.8v1.6c0,0.4-0.4,0.8-1,0.8H4
	c-0.6,0-1-0.4-1-0.8v-1.6C3,18.1,3.4,17.8,4,17.8z"/>
</svg>
