<svg xmlns="http://www.w3.org/2000/svg" width="18" height="23">
    <path fill="#686B6E" fill-rule="evenodd" d="M17.84 10.474a8.465 8.465 0 0 1-.663 2.034c-.969 2.237-3.105 6.673-7.777 10.354a.65.65 0 0 1-.8 0C3.924 19.181 1.792 14.745.823 12.508A8.63 8.63 0 0 1 0 8.818C0 3.957 4.037 0 8.995 0 13.954 0 17.99 3.957 18 8.818a8.85 8.85 0 0 1-.16 1.656zM8.995 1.241c-4.258 0-7.725 3.399-7.725 7.573 0 .484.047.964.141 1.439 0 .014.005.023.005.032.005.023.014.092.042.198v.01c.123.516.297 1.024.523 1.503.004.005.004.014.009.019.88 2.043 2.809 6.161 7.005 9.56 4.197-3.399 6.126-7.517 7.006-9.56.004-.005.004-.014.009-.019.23-.484.404-.987.522-1.503v-.01l.043-.198c0-.009.004-.018.004-.028.094-.47.141-.954.141-1.443 0-4.174-3.467-7.573-7.725-7.573zm0 13.273c-3.147 0-5.711-2.513-5.711-5.599 0-3.085 2.564-5.599 5.711-5.599 3.148 0 5.712 2.514 5.712 5.599 0 3.086-2.564 5.599-5.712 5.599zm0-9.953c-2.446 0-4.441 1.956-4.441 4.354 0 2.399 1.99 4.354 4.441 4.354 2.451 0 4.442-1.955 4.442-4.354 0-2.398-1.995-4.354-4.442-4.354z"/>
</svg>
