<?xml version="1.0" encoding="utf-8"?>
<!-- Generator: Adobe Illustrator 23.0.2, SVG Export Plug-In . SVG Version: 6.00 Build 0)  -->
<svg version="1.1" xmlns="http://www.w3.org/2000/svg" xmlns:xlink="http://www.w3.org/1999/xlink" x="0px" y="0px"
	 viewBox="0 0 512 512" style="enable-background:new 0 0 512 512;" xml:space="preserve">
<style type="text/css">
	.st0{fill:url(#SVGID_1_);}
	.st1{fill:url(#SVGID_2_);}
	.st2{fill-rule:evenodd;clip-rule:evenodd;fill:url(#SVGID_3_);}
	.st3{fill:url(#SVGID_4_);}
	.st4{fill:url(#SVGID_5_);}
	.st5{fill:#FFFFFF;}
	.st6{fill-rule:evenodd;clip-rule:evenodd;fill:#FFFFFF;}
	.st7{fill:#36495E;}
	.st8{clip-path:url(#SVGID_7_);fill:none;stroke:#FFFFFF;stroke-width:2.268;stroke-miterlimit:3.864;stroke-dasharray:25,11;}
	.st9{fill:#3498DB;}
	.st10{fill-rule:evenodd;clip-rule:evenodd;fill:#3498DB;}
	.st11{fill-rule:evenodd;clip-rule:evenodd;fill:#36495E;}
	.st12{fill:#3D97D2;}
	.st13{fill:url(#SVGID_8_);}
	.st14{fill:url(#SVGID_9_);}
	.st15{fill:url(#SVGID_10_);}
	.st16{fill-rule:evenodd;clip-rule:evenodd;fill:url(#SVGID_11_);}
	.st17{fill:url(#SVGID_12_);}
	.st18{fill:url(#SVGID_13_);}
	.st19{fill:url(#SVGID_14_);}
	.st20{fill:url(#SVGID_15_);}
	.st21{fill:url(#SVGID_16_);}
	.st22{fill:url(#SVGID_17_);}
	.st23{fill:url(#SVGID_18_);}
	.st24{fill-rule:evenodd;clip-rule:evenodd;fill:url(#SVGID_19_);}
	.st25{fill:url(#SVGID_20_);}
	.st26{fill:url(#SVGID_21_);}
	.st27{fill:url(#SVGID_22_);}
	.st28{fill:url(#SVGID_23_);}
	.st29{fill:url(#SVGID_24_);}
	.st30{fill:url(#SVGID_25_);}
	.st31{fill:url(#SVGID_26_);}
	.st32{fill-rule:evenodd;clip-rule:evenodd;fill:url(#SVGID_27_);}
	.st33{fill:url(#SVGID_28_);}
	.st34{fill:url(#SVGID_29_);}
	.st35{fill:url(#SVGID_30_);}
	.st36{fill:url(#SVGID_31_);}
	.st37{fill:url(#SVGID_32_);}
	.st38{fill:url(#SVGID_33_);}
	.st39{fill:url(#SVGID_34_);}
	.st40{fill-rule:evenodd;clip-rule:evenodd;fill:url(#SVGID_35_);}
	.st41{fill:url(#SVGID_36_);}
	.st42{fill:url(#SVGID_37_);}
	.st43{fill:url(#SVGID_38_);}
	.st44{fill:url(#SVGID_39_);}
	.st45{fill:url(#SVGID_40_);}
	.st46{fill:url(#SVGID_41_);}
	.st47{fill:url(#SVGID_42_);}
	.st48{fill-rule:evenodd;clip-rule:evenodd;fill:url(#SVGID_43_);}
	.st49{fill:url(#SVGID_44_);}
	.st50{fill:url(#SVGID_45_);}
	.st51{fill:url(#SVGID_46_);}
	.st52{fill:url(#SVGID_47_);}
	.st53{fill:url(#SVGID_48_);}
	.st54{fill:url(#SVGID_49_);}
	.st55{fill:url(#SVGID_50_);}
	.st56{fill-rule:evenodd;clip-rule:evenodd;fill:url(#SVGID_51_);}
	.st57{fill:url(#SVGID_52_);}
	.st58{fill:url(#SVGID_53_);}
	.st59{fill:url(#SVGID_54_);}
	.st60{fill:url(#SVGID_55_);}
	.st61{fill:url(#SVGID_56_);}
	.st62{fill:url(#SVGID_57_);}
	.st63{fill:url(#SVGID_58_);}
	.st64{fill-rule:evenodd;clip-rule:evenodd;fill:url(#SVGID_59_);}
	.st65{fill:url(#SVGID_60_);}
	.st66{fill:url(#SVGID_61_);}
	.st67{fill:url(#SVGID_62_);}
	.st68{fill:url(#SVGID_63_);}
	.st69{fill:url(#SVGID_64_);}
	.st70{fill:url(#SVGID_65_);}
	.st71{fill:url(#SVGID_66_);}
	.st72{fill-rule:evenodd;clip-rule:evenodd;fill:url(#SVGID_67_);}
	.st73{fill:url(#SVGID_68_);}
	.st74{fill:url(#SVGID_69_);}
	.st75{fill:url(#SVGID_70_);}
	.st76{fill:url(#SVGID_71_);}
	.st77{fill:none;}
	.st78{fill:#1E0F00;}
	.st79{fill:url(#SVGID_72_);}
	.st80{fill:url(#SVGID_73_);}
	.st81{fill:url(#SVGID_74_);}
	.st82{fill:url(#SVGID_75_);}
	.st83{fill:url(#SVGID_76_);}
	.st84{fill:url(#SVGID_77_);}
	.st85{fill:none;stroke:#FFFFFF;stroke-width:3;stroke-miterlimit:10;}
	.st86{fill:none;stroke:#FFFFFF;stroke-width:3;stroke-miterlimit:10;stroke-dasharray:20.1555,8.0622;}
	.st87{fill:url(#SVGID_78_);}
	.st88{fill:url(#SVGID_79_);}
	.st89{fill:url(#SVGID_80_);}
</style>
<g id="Layer_1">
</g>
<g id="Слой_2">
	<rect class="st5" width="512" height="512"/>
	<g>
		<g>
			<polyline class="st7" points="118.4,253.3 121.6,235.1 204.3,235.1 233.2,204.6 127,204.6 129.9,188.5 216.7,188.5 249.8,153.6 
				94.6,153.6 70.7,287.8 199.9,287.8 232.8,253.3 118.4,253.3 			"/>
			<polyline class="st5" points="111.7,246.7 114.9,228.4 197.6,228.4 226.5,197.9 120.4,197.9 123.2,181.8 210,181.8 243.1,147 
				87.9,147 64,281.1 193.2,281.1 226.1,246.7 111.7,246.7 			"/>
			<g>
				<linearGradient id="SVGID_1_" gradientUnits="userSpaceOnUse" x1="108.0897" y1="135.2888" x2="192.5113" y2="281.5112">
					<stop  offset="0" style="stop-color:#3498DB;stop-opacity:0.7"/>
					<stop  offset="0.4861" style="stop-color:#3498DB;stop-opacity:0.95"/>
					<stop  offset="1" style="stop-color:#3481DB"/>
				</linearGradient>
				<polyline class="st0" points="111.7,246.7 114.9,228.4 197.6,228.4 226.5,197.9 120.4,197.9 123.2,181.8 210,181.8 243.1,147 
					87.9,147 64,281.1 193.2,281.1 226.1,246.7 111.7,246.7 				"/>
			</g>
		</g>
		<linearGradient id="SVGID_2_" gradientUnits="userSpaceOnUse" x1="262.4533" y1="41.938" x2="327.3975" y2="790.293">
			<stop  offset="0" style="stop-color:#FFFFFF"/>
			<stop  offset="3.584941e-02" style="stop-color:#E3E5E8"/>
			<stop  offset="0.1144" style="stop-color:#AAB2BB"/>
			<stop  offset="0.1871" style="stop-color:#7E8A98"/>
			<stop  offset="0.2518" style="stop-color:#5E6D7E"/>
			<stop  offset="0.3059" style="stop-color:#4A5B6F"/>
			<stop  offset="0.343" style="stop-color:#435569"/>
			<stop  offset="0.3947" style="stop-color:#3F5165"/>
			<stop  offset="0.5548" style="stop-color:#384B60"/>
			<stop  offset="1" style="stop-color:#36495E"/>
		</linearGradient>
		<path class="st1" d="M296.7,114.8c0,0-7.8,13.6-8.6,22.5s-3.1,19.8,13.3,18.5s77.7-13.1,77.7-13.1s49.7-8,34.6,14.7
			S345,228,306.7,265.1c-56.9,55-86.4,81.1-39.8,80c51.2-1.2,181.1-12.3,181.1-12.3s-86.9,23.2-165.3,44.8
			c-129.1,35.6-166.6,18.1-146.1-15.3c28-45.5,140.9-124.2,179.8-158c53.6-41.5-8.9-25.4-15.9-23.8c-11.5,2.6-77.9,15.5-33.4-33.6
			L296.7,114.8z"/>
		<g>
			<path class="st5" d="M275.2,153l-2.8-1.1c1-2.7,2.6-5.8,4.6-9.1l2.6,1.5C277.6,147.6,276.2,150.5,275.2,153z"/>
			<path class="st5" d="M208.9,370.7l-0.1-3c5.7-0.1,12.4-0.6,19.9-1.5l0.3,3C221.5,370,214.7,370.5,208.9,370.7z M200.8,370.6
				c-10-0.5-16.5-2.4-19.9-5.9l2.2-2.1c2.8,2.9,8.8,4.6,17.9,5L200.8,370.6z M237,368.1l-0.4-3c2.5-0.3,5.1-0.7,7.8-1.1l12-1.9
				l0.5,3l-12,1.9C242.2,367.4,239.5,367.8,237,368.1z M264.8,363.9l-0.5-3c6.9-1.1,13.5-2.1,19.8-3.1l0.5,2.9
				C278.4,361.8,271.8,362.8,264.8,363.9z M292.6,359.5l-0.5-2.9c7-1.1,13.6-2.1,19.8-3.1l0.5,2.9
				C306.2,357.4,299.6,358.4,292.6,359.5z M181.5,356.5l-2.9-0.6c1-4.8,4.7-10.4,11.3-17.3l2.2,2.1
				C185.9,347,182.4,352.3,181.5,356.5z M320.3,355.2l-0.5-2.9c7.2-1.1,13.8-2.2,19.8-3.2l0.5,2.9C334.2,353,327.6,354,320.3,355.2z
				 M348.1,350.7l-0.5-2.9c7.9-1.3,14.5-2.3,19.8-3.2l0.5,2.9C362.5,348.4,356,349.5,348.1,350.7z M197.7,335.1l-2-2.2
				c5.6-5.2,11.5-9.9,15.5-13l1.8,2.4C209.1,325.3,203.2,330,197.7,335.1z M219.4,317.3l-1.9-2.3c4.7-3.9,9.8-8.1,15.3-12.9l1.9,2.3
				C229.2,309.2,224.2,313.4,219.4,317.3z M240.9,299.1l-2-2.3c4.5-4,9.5-8.3,15-13.3l2,2.2C250.4,290.8,245.4,295.1,240.9,299.1z
				 M261.9,280.5l-2-2.2c4.9-4.4,9.9-8.9,14.9-13.4l2,2.2C271.9,271.5,266.9,276,261.9,280.5z M282.8,261.6l-2-2.2
				c5-4.5,9.9-9,14.9-13.4l2,2.2C292.8,252.7,287.8,257.2,282.8,261.6z M303.8,242.9l-2-2.2c5.5-4.9,10.4-9.2,15.1-13.3l2,2.3
				C314.2,233.7,309.2,238,303.8,242.9z M324.9,224.4l-2-2.3l0.2-0.2c5.3-4.5,10.3-9,14.8-13.1l2,2.2c-4.5,4.2-9.5,8.6-14.9,13.2
				L324.9,224.4z M345.8,205.5l-2.1-2.1c5.3-5.1,10-9.9,13.9-14.3l2.2,2C355.9,195.5,351.1,200.4,345.8,205.5z M365,184.8l-2.3-1.9
				c6.9-8.7,9-13.8,9.6-16.6l2.9,0.6C374.2,171.5,370.8,177.5,365,184.8z M286.6,170.5c-10.1,0-15.5-3.4-15.8-10.1l3-0.2
				c0.1,1.8,0.4,7.3,12.8,7.3c0.4,0,0.8,0,1.3,0l0.1,3C287.5,170.5,287,170.5,286.6,170.5z M296.1,169.7l-0.4-3
				c1.7-0.2,3.5-0.5,5.4-0.9c5-1,9.8-1.9,14.3-2.7l0.5,2.9c-4.5,0.8-9.2,1.7-14.2,2.7C299.7,169.2,297.9,169.5,296.1,169.7z
				 M323.8,164.7l-0.5-2.9c8-1.4,14.5-2.5,19.9-3.2l0.4,3C338.2,162.3,331.7,163.3,323.8,164.7z M370.5,161.1
				c-1.7-0.8-4.6-1.3-8.5-1.3c-2.9,0-6.3,0.2-10.5,0.7l-0.3-3c4.3-0.5,7.9-0.7,10.9-0.7c4.4,0,7.6,0.5,9.8,1.6L370.5,161.1z"/>
		</g>
	</g>
</g>
</svg>
