<?xml version="1.0" encoding="utf-8"?>
<!-- Generator: Adobe Illustrator 22.0.1, SVG Export Plug-In . SVG Version: 6.00 Build 0)  -->
<svg version="1.1" id="logo__DDM-1" xmlns="http://www.w3.org/2000/svg" xmlns:xlink="http://www.w3.org/1999/xlink" x="0px"
	 y="0px" width="100px" height="90px" viewBox="0 0 100 90" style="enable-background:new 0 0 100 90;" xml:space="preserve">
<style type="text/css">
	.st0{fill:url(#SVGID_1_);}
	.st1{fill:url(#SVGID_2_);}
	.st2{fill:url(#SVGID_3_);}
	.st3{fill:none;stroke:#939393;stroke-width:0.5;stroke-miterlimit:10;}
	.st4{fill:none;stroke:#939393;stroke-width:0.5;stroke-miterlimit:10;stroke-dasharray:3.0692,3.0692;}
</style>
<linearGradient id="SVGID_1_" gradientUnits="userSpaceOnUse" x1="10.4" y1="-5.6387" x2="85.2026" y2="-5.6387" gradientTransform="matrix(1 0 0 1 0 28)">
	<stop  offset="3.565705e-03" style="stop-color:#033E61"/>
	<stop  offset="1" style="stop-color:#0197F0"/>
</linearGradient>
<path class="st0" d="M10.4,40.4c0,0,20.8-17,74.8-18.6C85.4,22,74.1,1.3,45.3,4.7C17,9,10.4,40.4,10.4,40.4z"/>
<linearGradient id="SVGID_2_" gradientUnits="userSpaceOnUse" x1="4.7" y1="29.6222" x2="68.8" y2="29.6222" gradientTransform="matrix(1 0 0 1 0 28)">
	<stop  offset="1.782853e-03" style="stop-color:#749628"/>
	<stop  offset="1" style="stop-color:#B4E83D"/>
</linearGradient>
<path class="st1" d="M64.5,27.6c0,0-24.9,8.3-25.6,24.3C37.7,78.3,68.8,84,68.8,84s-18,8.2-34.9,0c-16.3-8.1-21.8-23.7-22.1-23.5
	c-7,4.6,0,7.1,0,7.1s-7.1-0.1-7.1-4.3C5.5,43.5,64.5,27.6,64.5,27.6z"/>
<linearGradient id="SVGID_3_" gradientUnits="userSpaceOnUse" x1="48.8395" y1="20.6" x2="93.8395" y2="20.6" gradientTransform="matrix(1 0 0 1 0 28)">
	<stop  offset="1.782853e-03" style="stop-color:#749628"/>
	<stop  offset="1" style="stop-color:#B4E83D"/>
</linearGradient>
<path class="st2" d="M93.9,23.6c0,0-43.8,6.7-45,26.4c0.7,21.9,35.2,23.6,35.2,23.6s16.6-19.9,3.5-45.1
	C84.4,26.6,93.9,23.6,93.9,23.6L93.9,23.6z"/>
<g>
	<g>
		<path class="st3" d="M65.9,28.5c-0.4,0.2-0.9,0.5-1.3,0.7"/>
		<path class="st4" d="M61.9,30.8c-41.5,24.5-1,45.6,11.6,48.6"/>
		<path class="st3" d="M74.9,79.7c0.7,0.1,1.2,0.1,1.5,0"/>
	</g>
</g>
</svg>
