<svg xmlns="http://www.w3.org/2000/svg" width="29" height="31">
    <path fill="#FFF" fill-rule="evenodd" d="M14.498 30.999c-7.994 0-14.499-6.536-14.499-14.569 0-3.751 1.416-7.313 3.986-10.032a2.522 2.522 0 0 1 3.575-.092 2.552 2.552 0 0 1 .092 3.592 9.472 9.472 0 0 0-2.595 6.532c0 5.231 4.236 9.486 9.441 9.486 5.206 0 9.442-4.255 9.442-9.486a9.423 9.423 0 0 0-2.969-6.906 2.553 2.553 0 0 1-.107-3.592 2.524 2.524 0 0 1 3.576-.107 14.664 14.664 0 0 1 4.558 10.605c0 8.033-6.505 14.569-14.5 14.569zm9.004-24.174a1.16 1.16 0 0 0-1.643.049 1.173 1.173 0 0 0 .05 1.649 10.788 10.788 0 0 1 3.399 7.907c0 5.989-4.849 10.861-10.81 10.861-5.96 0-10.808-4.872-10.808-10.861 0-2.796 1.055-5.452 2.97-7.478a1.172 1.172 0 0 0-.042-1.65 1.153 1.153 0 0 0-.799-.32c-.308 0-.615.121-.843.363a13.172 13.172 0 0 0-3.609 9.085c0 7.275 5.891 13.195 13.131 13.195 7.241 0 13.132-5.92 13.132-13.195 0-3.62-1.505-7.121-4.128-9.605zm-10.371 1.88v1.097c0 .388-.37.696-.799.631a.677.677 0 0 1-.569-.666V8.754c0-.328.238-.637.585-.683.422-.055.783.25.783.634zm1.368 6.019a2.745 2.745 0 0 1-2.736-2.748v-.173c0-.379.307-.687.684-.687.378 0 .684.308.684.687v.173c0 .757.614 1.373 1.368 1.373.753 0 1.367-.616 1.367-1.373v-9.23c0-.758-.614-1.374-1.367-1.374-.754 0-1.368.616-1.368 1.374v2.422a.686.686 0 0 1-.684.687.686.686 0 0 1-.684-.687V2.746a2.745 2.745 0 0 1 2.736-2.749 2.745 2.745 0 0 1 2.735 2.749v9.23a2.745 2.745 0 0 1-2.735 2.748z"/>
</svg>
