<svg xmlns="http://www.w3.org/2000/svg" width="31" height="31">
    <path fill="#FFF" fill-rule="evenodd" d="M26.462 26.462A15.401 15.401 0 0 1 15.504 31c-2.484 0-4.96-.609-7.153-1.75l-7.278 1.66a.818.818 0 0 1-.761-.221.814.814 0 0 1-.221-.761l1.66-7.278a15.467 15.467 0 0 1-1.75-7.153c0-4.137 1.612-8.032 4.538-10.959A15.401 15.401 0 0 1 15.497 0c4.137 0 8.032 1.612 10.958 4.538A15.444 15.444 0 0 1 31 15.503c0 4.137-1.612 8.032-4.538 10.959zM15.497 1.633c-7.644 0-13.864 6.219-13.864 13.864 0 2.324.588 4.621 1.695 6.648.097.173.125.38.083.574l-1.439 6.302 6.303-1.439a.792.792 0 0 1 .179-.02c.139 0 .277.041.395.103a13.902 13.902 0 0 0 6.648 1.695c7.644 0 13.863-6.219 13.863-13.863 0-7.645-6.219-13.864-13.863-13.864zM26.69 21.501a13.53 13.53 0 0 1-5.735 5.549.76.76 0 0 1-.366.09.814.814 0 0 1-.727-.45.824.824 0 0 1 .36-1.1 11.83 11.83 0 0 0 5.043-4.877.818.818 0 0 1 1.114-.325.807.807 0 0 1 .311 1.113zm-3.251-4.462a.779.779 0 0 1 .242.574c0 .45-.367.817-.816.817h-7.493a.815.815 0 0 1-.754-.505.808.808 0 0 1 .173-.893l6.109-6.143h-5.528a.818.818 0 0 1-.816-.816c0-.45.367-.817.816-.817h7.493c.332 0 .629.201.754.505a.808.808 0 0 1-.173.893l-6.109 6.143h5.528c.221 0 .422.083.574.242zm-8.952-1.985L9.762 19.8h4.144c.449 0 .816.366.816.816 0 .45-.367.816-.816.816H7.797a.814.814 0 0 1-.754-.505.806.806 0 0 1 .173-.892l4.725-4.746H7.797a.818.818 0 0 1-.816-.816c0-.45.367-.817.816-.817h6.109c.332 0 .629.201.754.505a.808.808 0 0 1-.173.893zm2.497 11.622c.339-.055.685-.138 1.024-.228a.816.816 0 0 1 1.003.574.813.813 0 0 1-.567.996c-.387.104-.775.194-1.169.263-.049.007-.097.014-.145.014a.816.816 0 0 1-.146-1.619z"/>
</svg>
