<?xml version="1.0" encoding="iso-8859-1"?>
<!-- Generator: Adobe Illustrator 19.0.0, SVG Export Plug-In . SVG Version: 6.00 Build 0)  -->
<svg version="1.1" id="Layer_1" xmlns="http://www.w3.org/2000/svg" xmlns:xlink="http://www.w3.org/1999/xlink" x="0px" y="0px"
	 viewBox="0 0 511.998 511.998" style="enable-background:new 0 0 511.998 511.998;fill:#98a0a3" xml:space="preserve">
<g>
	<g>
		<path d="M497.31,63.053h-50.245h-30.417H396.82h-30.417h-19.828h-30.417H296.33h-30.417h-19.827h-30.417H195.84h-30.417h-19.826
			H115.18H95.352H64.935H14.691v269.512H0v72.515h29.452c-0.401,2.183-0.622,4.428-0.622,6.724c0,20.479,16.661,37.14,37.14,37.14
			c20.479,0,37.14-16.662,37.14-37.14c0-2.297-0.22-4.541-0.622-6.724h11.384c-0.401,2.183-0.622,4.428-0.622,6.724
			c0,20.479,16.661,37.14,37.14,37.14c20.479,0,37.14-16.662,37.14-37.14c0-2.297-0.22-4.541-0.622-6.724h138.173
			c-0.402,2.183-0.622,4.428-0.622,6.724c0,20.479,16.662,37.14,37.141,37.14c20.479,0,37.14-16.662,37.14-37.14
			c0-2.297-0.22-4.541-0.622-6.724h11.385c-0.401,2.183-0.622,4.428-0.622,6.724c0,20.479,16.662,37.14,37.14,37.14
			c20.48,0,37.141-16.662,37.141-37.14c0-2.297-0.22-4.541-0.622-6.724h29.451v-72.515H497.31V63.053z M447.065,93.471h19.828
			v239.095h-19.828V93.471z M396.82,93.471h19.828v239.095H396.82V93.471z M346.576,93.471h19.828v239.095h-19.828V93.471z
			 M296.331,93.471h19.828v239.095h-19.828V93.471z M246.087,93.471h19.827v239.095h-19.827V93.471z M195.841,93.471h19.828v239.095
			h-19.828V93.471z M145.597,93.471h19.827v239.095h-19.827V93.471z M95.352,93.471h19.828v239.095H95.352V93.471z M45.108,93.471
			h19.828v239.095H45.108V93.471z M65.972,418.526c-3.708,0-6.723-3.016-6.723-6.723c0-3.708,3.016-6.724,6.723-6.724
			c3.707,0.001,6.723,3.016,6.723,6.724C72.695,415.51,69.679,418.526,65.972,418.526z M150.395,418.526
			c-3.707,0-6.723-3.016-6.723-6.723c0-3.708,3.016-6.724,6.723-6.724s6.723,3.016,6.723,6.724
			C157.118,415.51,154.102,418.526,150.395,418.526z M361.606,418.526c-3.707,0-6.723-3.016-6.723-6.723
			c0-3.708,3.016-6.724,6.723-6.724s6.723,3.016,6.723,6.724C368.329,415.51,365.313,418.526,361.606,418.526z M446.028,418.526
			c-3.707,0-6.723-3.016-6.723-6.723c0-3.708,3.016-6.724,6.723-6.724c3.709,0.001,6.724,3.016,6.724,6.724
			C452.752,415.51,449.736,418.526,446.028,418.526z M481.584,374.663H30.417v-11.68h34.517h30.417h19.828h30.417h19.827h30.417
			h19.828h30.417h19.827h30.417h19.828h30.417h19.828h30.417h19.828h30.417h34.517V374.663z"/>
	</g>
</g>
<g>
</g>
<g>
</g>
<g>
</g>
<g>
</g>
<g>
</g>
<g>
</g>
<g>
</g>
<g>
</g>
<g>
</g>
<g>
</g>
<g>
</g>
<g>
</g>
<g>
</g>
<g>
</g>
<g>
</g>
</svg>
