<svg xmlns="http://www.w3.org/2000/svg" width="19.99" height="13.54" viewBox="0 0 19.99 13.54"><defs><style>.ad3e97e4-8dc8-4279-b26b-927e3a1e28cf{fill:#778997;}</style></defs><title>trairel_icon</title><g id="99ec64b4-387b-4f3b-a985-49a0197b9cdf" data-name="Capa 1"><path class="ad3e97e4-8dc8-4279-b26b-927e3a1e28cf" d="M20,3.65H0V14H2.35v2H.18v1.18H3.52V14H4.69v2h6a1.75,1.75,0,0,0,1.65,1.18,1.78,1.78,0,0,0,1.18-.45,1.75,1.75,0,0,0,2.34,0A1.75,1.75,0,1,0,18.08,14H20ZM10.63,14.84H5.87V14h4.76ZM12.38,16a.58.58,0,0,1-.58-.58.59.59,0,1,1,1.17,0A.58.58,0,0,1,12.38,16Zm2.35,0a.58.58,0,0,1-.59-.58.59.59,0,1,1,1.17,0A.58.58,0,0,1,14.73,16Zm2.34,0a.59.59,0,0,1-.59-.58.6.6,0,0,1,.59-.59.59.59,0,0,1,.58.59A.58.58,0,0,1,17.07,16Zm1.75-3.18H1.18v-8H18.82Z" transform="translate(-0.01 -3.65)"/></g></svg>