<svg xmlns="http://www.w3.org/2000/svg" width="21" height="17">
    <path fill="#686B6E" fill-rule="evenodd" d="M19.834 5.959c-.727-.771-1.755-1.198-2.897-1.198h-2.626V3.398c0-.024 0-.048-.006-.066 0-.012-.006-.023-.006-.029 0-.012-.006-.024-.006-.036 0-.012-.006-.024-.006-.035 0-.012-.006-.024-.006-.03-.006-.012-.006-.024-.012-.036-.006-.012-.006-.023-.012-.029-.006-.012-.012-.018-.012-.03a.131.131 0 0 0-.018-.03c-.006-.012-.012-.017-.018-.029a.131.131 0 0 0-.018-.03c-.006-.012-.013-.018-.024-.029-.006-.006-.012-.018-.019-.024a.343.343 0 0 0-.042-.048l-.005-.006L11.384.208A.717.717 0 0 0 10.873 0H3.427a.743.743 0 0 0-.511.208L.2 2.888l-.006.006a.258.258 0 0 0-.042.047c-.006.006-.012.018-.018.024-.006.012-.018.018-.024.029-.006.012-.012.024-.018.03-.006.012-.012.018-.018.03-.006.011-.012.023-.018.029-.006.012-.012.018-.012.03-.006.012-.006.024-.012.03-.007.011-.007.023-.012.035-.006.012-.006.024-.006.03-.006.012-.006.024-.006.035 0 .012-.006.024-.006.036 0 .012-.007.024-.007.03 0 .023-.005.047-.005.065v11.248c0 .392.324.712.721.712H2.61A2.244 2.244 0 0 0 4.779 17c1.04 0 1.923-.712 2.17-1.666h7.608A2.245 2.245 0 0 0 16.727 17a2.238 2.238 0 0 0 2.169-1.666h1.382c.397 0 .722-.32.722-.712V9.333c.006-1.381-.397-2.556-1.166-3.374zm-7.981-3.273H7.784V1.429h2.789l1.28 1.257zM3.728 1.423h2.614V2.68H2.454l1.274-1.257zM1.432 4.109h11.437v9.82H6.841a2.245 2.245 0 0 0-2.056-1.335c-.925 0-1.719.552-2.061 1.34-.03-.005-.06-.005-.096-.005H1.432v-9.82zm3.353 11.486a.798.798 0 0 1-.799-.789c0-.433.361-.789.799-.789.439 0 .8.356.8.789a.798.798 0 0 1-.8.789zm11.948 0a.798.798 0 0 1-.8-.789c0-.433.361-.789.8-.789.439 0 .799.356.799.789a.794.794 0 0 1-.799.789zm2.83-1.666h-.769a2.244 2.244 0 0 0-2.055-1.335c-.92 0-1.713.552-2.056 1.335h-.366V6.184h2.626c1.647 0 2.626 1.186 2.626 3.173v4.572h-.006z"/>
</svg>
