<svg xmlns="http://www.w3.org/2000/svg" width="26" height="30">
    <path fill="#FFF" fill-rule="evenodd" d="M16.83 24.709H9.266a1.604 1.604 0 0 1-1.599-1.606v-7.135c0-.885.717-1.606 1.599-1.606h7.564c.882 0 1.599.721 1.599 1.606v7.135a1.6 1.6 0 0 1-1.599 1.606zm.627-8.741a.638.638 0 0 0-.627-.647H9.266a.638.638 0 0 0-.627.647v7.135c0 .357.281.647.627.647h7.564a.615.615 0 0 0 .439-.185.654.654 0 0 0 .188-.462v-7.135zm-1.59 7.162h-5.749c-.517 0-.923-.461-.923-1.05v-.012c0-.589.406-1.051.923-1.051h5.749c.518 0 .923.462.923 1.051v.012c0 .589-.405 1.05-.923 1.05zm-.049-1.062a.224.224 0 0 0-.017-.092h-5.617a.242.242 0 0 0-.017.092v.012c0 .042.009.072.017.091h5.617a.215.215 0 0 0 .017-.091v-.012zm.049-1.246h-5.749c-.517 0-.923-.461-.923-1.051v-.011c0-.589.406-1.051.923-1.051h5.749c.518 0 .923.462.923 1.051v.011c0 .59-.405 1.051-.923 1.051zm-.049-1.062a.22.22 0 0 0-.017-.092h-5.617a.238.238 0 0 0-.017.092v.011c0 .043.009.073.017.092h5.617a.217.217 0 0 0 .017-.092v-.011zm.049-1.246h-5.749c-.517 0-.923-.462-.923-1.051v-.011c0-.59.406-1.051.923-1.051h5.749c.518 0 .923.461.923 1.051v.011c0 .589-.405 1.051-.923 1.051zm-.049-1.062a.217.217 0 0 0-.017-.092h-5.617a.234.234 0 0 0-.017.092v.011c0 .043.009.073.017.092h5.617a.217.217 0 0 0 .017-.092v-.011zm-8.303 4.701v.021c0 .348-.137.675-.387.921a1.32 1.32 0 0 1-.933.382H4.686c-.728 0-1.32-.585-1.32-1.303v-.021c0-.718.592-1.302 1.32-1.302h1.508c.729 0 1.321.584 1.321 1.302zm-3.177 0v.021c0 .19.156.344.348.344h1.509a.348.348 0 0 0 .348-.344v-.021a.346.346 0 0 0-.349-.343H4.686a.346.346 0 0 0-.348.343zm1.223-4.278a.483.483 0 0 1-.486.479.483.483 0 0 1-.486-.479V16.58c0-.264.218-.479.486-.479s.486.215.486.479v1.295zm0-2.513v.123c0 .265-.218.48-.486.48a.483.483 0 0 1-.486-.48v-.123a.48.48 0 0 1 .299-.442.482.482 0 0 1-.299-.443v-.012c0-.265.218-.48.486-.48s.486.215.486.48v.012c0 .199-.124.37-.299.443a.48.48 0 0 1 .299.442zm9.18-7.024a.484.484 0 0 1-.487-.479c0-.265.219-.48.487-.48h.125c.268 0 .486.215.486.48a.483.483 0 0 1-.486.479h-.125zm1.235 0a.483.483 0 0 1-.486-.479c0-.265.218-.48.486-.48h.504c.268 0 .486.215.486.48a.483.483 0 0 1-.486.479h-.504zm5.338 12.513c.728 0 1.32.584 1.32 1.302v.021c0 .718-.592 1.303-1.32 1.303h-1.509c-.728 0-1.32-.585-1.32-1.303v-.021c0-.718.592-1.302 1.32-1.302h1.509zm-1.857 1.302v.021c0 .19.156.344.348.344h1.509a.346.346 0 0 0 .348-.344v-.021a.346.346 0 0 0-.348-.343h-1.509a.346.346 0 0 0-.348.343zm-11.538-8.54a1.128 1.128 0 0 1-1.134-1.119V8.498c0-.617.509-1.119 1.134-1.119h5.383c.269 0 .487.215.487.48a.483.483 0 0 1-.487.479H7.919a.162.162 0 0 0-.162.16v3.996c0 .088.073.16.162.16h10.316a.16.16 0 0 0 .162-.16V8.498a.16.16 0 0 0-.162-.16h-.738a.483.483 0 0 1-.486-.479c0-.265.218-.48.486-.48h.738c.626 0 1.135.502 1.135 1.119v3.996c0 .617-.509 1.119-1.135 1.119H7.919zm17.153 14.362h-1.418v.674c0 .745-.615 1.351-1.369 1.351h-2.341a1.362 1.362 0 0 1-1.369-1.351v-.674H9.472a.483.483 0 0 1-.486-.48c0-.264.218-.479.486-.479h9.589c.268 0 .486.215.486.479v1.154c0 .216.179.392.397.392h2.341a.395.395 0 0 0 .396-.392v-1.154c0-.264.219-.479.487-.479h1.86v-2.32h-.708a.483.483 0 0 1-.486-.48v-4.478c0-.696-.574-1.263-1.28-1.263h-.462a.483.483 0 0 1-.486-.479V1.67L20.574.998v5.168a.48.48 0 0 1-.4.472.486.486 0 0 1-.542-.305l-.334-.889a2.615 2.615 0 0 0-2.442-1.676H9.137c-1.091 0-2.075.68-2.448 1.692l-.32.87a.487.487 0 0 1-.943-.164V.997l-1.032.673v16.326a.483.483 0 0 1-.486.479h-.462c-.706 0-1.28.567-1.28 1.263v4.478c0 .265-.218.48-.486.48H.972v2.32h1.86c.268 0 .486.215.486.479v1.154c0 .216.179.392.397.392h2.34a.395.395 0 0 0 .397-.392v-1.154c0-.264.219-.479.487-.479h1.494c.268 0 .486.215.486.479 0 .265-.218.48-.486.48H7.425v.674c0 .745-.615 1.351-1.37 1.351h-2.34a1.362 1.362 0 0 1-1.369-1.351v-.674H.928A.923.923 0 0 1 0 27.06v-2.408c0-.505.416-.915.928-.915h.266v-3.999c0-1.217.997-2.209 2.228-2.222V1.647c0-.309.155-.594.416-.764L4.959.152A.937.937 0 0 1 5.91.11c.301.16.488.468.488.806v3.155a3.631 3.631 0 0 1 2.739-1.262h7.719c1.059 0 2.071.477 2.746 1.271V.916c0-.338.187-.646.488-.806a.937.937 0 0 1 .951.042l1.121.731a.91.91 0 0 1 .416.764v15.869c1.231.013 2.228 1.005 2.228 2.222v3.999h.266c.512 0 .928.41.928.915v2.408a.923.923 0 0 1-.928.915z"/>
</svg>
