<?xml version="1.0" encoding="utf-8"?>
<!-- Generator: Adobe Illustrator 21.0.0, SVG Export Plug-In . SVG Version: 6.00 Build 0)  -->
<!DOCTYPE svg PUBLIC "-//W3C//DTD SVG 1.1//EN" "http://www.w3.org/Graphics/SVG/1.1/DTD/svg11.dtd">
<svg version="1.1" id="Layer_1" xmlns="http://www.w3.org/2000/svg" xmlns:xlink="http://www.w3.org/1999/xlink" x="0px" y="0px"
	 viewBox="0 0 50.4 35.7" style="enable-background:new 0 0 50.4 35.7;" xml:space="preserve">
<style type="text/css">
	.st0{fill:#666766;}
</style>
<g>
	<path class="st0" d="M41.7,35.7H30.2l-3.4-15.6c-0.2-0.7-0.4-1.9-0.8-3.9c-0.4-1.9-0.6-3.6-0.8-4.9c-0.1,1.1-0.3,2.4-0.6,3.9
		c-0.3,1.6-0.6,3-0.9,4.3c-0.3,1.3-1.5,6.7-3.6,16H8.8L0,0h9.3l3.9,17.9c0.9,4,1.5,7.1,1.8,9.4c0.2-1.7,0.6-3.9,1.1-6.8
		c0.5-2.8,1.1-5.2,1.5-7.1L20.8,0h8.9l3.1,13.5c0.5,2.2,1,4.7,1.6,7.5s0.9,4.9,1.1,6.3c0.2-1.8,0.8-4.9,1.7-9.4l4-17.9h9.3
		L41.7,35.7z"/>
</g>
</svg>
