<svg xmlns="http://www.w3.org/2000/svg" width="31" height="31">
    <path fill="#FFF" fill-rule="evenodd" d="M24.236 28.299a.505.505 0 0 1-.704-.132.506.506 0 0 1 .132-.704A14.496 14.496 0 0 0 29.975 15.5c0-3.869-1.506-7.507-4.24-10.243a14.38 14.38 0 0 0-10.237-4.243c-3.386 0-6.68 1.194-9.275 3.363a.506.506 0 1 1-.649-.778A15.5 15.5 0 0 1 15.498 0c4.137 0 8.027 1.612 10.953 4.54a15.401 15.401 0 0 1 4.537 10.96c0 5.119-2.524 9.904-6.752 12.799zM1.021 15.5c0 3.869 1.506 7.507 4.24 10.243a14.378 14.378 0 0 0 10.237 4.243c2.253 0 4.414-.504 6.42-1.5a.507.507 0 1 1 .45.908A15.319 15.319 0 0 1 15.498 31a15.38 15.38 0 0 1-10.953-4.54A15.401 15.401 0 0 1 .008 15.5c0-3.879 1.439-7.591 4.052-10.453a.507.507 0 0 1 .748.684A14.454 14.454 0 0 0 1.021 15.5zm14.477 11.783a11.66 11.66 0 0 1-7.063-2.36.508.508 0 0 1-.054-.764l3.244-3.246a.507.507 0 0 1 .518-.122c.391.131.797.197 1.207.197h4.295c.411 0 .817-.066 1.207-.197a.508.508 0 0 1 .519.122l3.244 3.246a.51.51 0 0 1-.054.764 11.662 11.662 0 0 1-7.063 2.36zm3.37-5.439a4.8 4.8 0 0 1-1.223.158H13.35c-.413 0-.823-.053-1.222-.158l-2.607 2.608a10.644 10.644 0 0 0 5.977 1.818c2.15 0 4.205-.627 5.977-1.818l-2.607-2.608zm8.406-6.344c0 2.435-.74 4.774-2.14 6.765a.506.506 0 0 1-.37.213l-.044.002a.503.503 0 0 1-.358-.149l-3.105-3.107a.506.506 0 0 1-.108-.556c.096-.227.17-.461.22-.697l.547-2.576a.508.508 0 0 1 .496-.402h4.355c.28 0 .507.227.507.507zm-4.452.507l-.462 2.174c-.04.188-.092.375-.155.559l2.435 2.436a10.68 10.68 0 0 0 1.609-5.169h-3.427zm-5.363-.689a.507.507 0 0 1 .667.261 2.871 2.871 0 0 1-2.628 4.016 2.871 2.871 0 0 1-2.867-2.869 2.871 2.871 0 0 1 3.632-2.765.507.507 0 0 1-.27.977 1.856 1.856 0 1 0-.495 3.643 1.857 1.857 0 0 0 1.699-2.596.507.507 0 0 1 .262-.667zm-8.38.077l.547 2.576c.051.236.125.47.221.697a.51.51 0 0 1-.108.557l-3.105 3.107a.51.51 0 0 1-.773-.067A11.708 11.708 0 0 1 3.722 15.5c0-.28.227-.507.507-.507h4.355c.239 0 .445.168.495.402zm-4.332.612c.085 1.84.635 3.608 1.608 5.169L8.79 18.74a4.832 4.832 0 0 1-.155-.559l-.462-2.174H4.747zM8.54 5.999a11.665 11.665 0 0 1 6.958-2.282c2.521 0 4.927.789 6.958 2.282a11.76 11.76 0 0 1 4.222 5.799.505.505 0 0 1-.481.666H4.799a.506.506 0 0 1-.481-.666A11.754 11.754 0 0 1 8.54 5.999zm16.931 5.452a10.752 10.752 0 0 0-3.615-4.635 10.665 10.665 0 0 0-6.358-2.086c-2.304 0-4.503.722-6.359 2.086a10.75 10.75 0 0 0-3.614 4.635h19.946z"/>
</svg>
